%TF.GenerationSoftware,KiCad,Pcbnew,8.0.9-8.0.9-0~ubuntu22.04.1*%
%TF.CreationDate,2025-11-06T16:29:17+09:00*%
%TF.ProjectId,TweliteEmergencyStop,5477656c-6974-4654-956d-657267656e63,rev?*%
%TF.SameCoordinates,Original*%
%TF.FileFunction,Soldermask,Top*%
%TF.FilePolarity,Negative*%
%FSLAX46Y46*%
G04 Gerber Fmt 4.6, Leading zero omitted, Abs format (unit mm)*
G04 Created by KiCad (PCBNEW 8.0.9-8.0.9-0~ubuntu22.04.1) date 2025-11-06 16:29:17*
%MOMM*%
%LPD*%
G01*
G04 APERTURE LIST*
G04 Aperture macros list*
%AMRoundRect*
0 Rectangle with rounded corners*
0 $1 Rounding radius*
0 $2 $3 $4 $5 $6 $7 $8 $9 X,Y pos of 4 corners*
0 Add a 4 corners polygon primitive as box body*
4,1,4,$2,$3,$4,$5,$6,$7,$8,$9,$2,$3,0*
0 Add four circle primitives for the rounded corners*
1,1,$1+$1,$2,$3*
1,1,$1+$1,$4,$5*
1,1,$1+$1,$6,$7*
1,1,$1+$1,$8,$9*
0 Add four rect primitives between the rounded corners*
20,1,$1+$1,$2,$3,$4,$5,0*
20,1,$1+$1,$4,$5,$6,$7,0*
20,1,$1+$1,$6,$7,$8,$9,0*
20,1,$1+$1,$8,$9,$2,$3,0*%
%AMHorizOval*
0 Thick line with rounded ends*
0 $1 width*
0 $2 $3 position (X,Y) of the first rounded end (center of the circle)*
0 $4 $5 position (X,Y) of the second rounded end (center of the circle)*
0 Add line between two ends*
20,1,$1,$2,$3,$4,$5,0*
0 Add two circle primitives to create the rounded ends*
1,1,$1,$2,$3*
1,1,$1,$4,$5*%
G04 Aperture macros list end*
%ADD10RoundRect,0.250000X-0.600000X-0.725000X0.600000X-0.725000X0.600000X0.725000X-0.600000X0.725000X0*%
%ADD11O,1.700000X1.950000*%
%ADD12R,1.700000X1.700000*%
%ADD13O,1.700000X1.700000*%
%ADD14R,1.000000X0.600000*%
%ADD15RoundRect,0.250000X0.725000X-0.600000X0.725000X0.600000X-0.725000X0.600000X-0.725000X-0.600000X0*%
%ADD16O,1.950000X1.700000*%
%ADD17RoundRect,0.237500X-0.250000X-0.237500X0.250000X-0.237500X0.250000X0.237500X-0.250000X0.237500X0*%
%ADD18C,2.000000*%
%ADD19R,1.600000X1.600000*%
%ADD20O,1.600000X1.600000*%
%ADD21RoundRect,0.250000X0.600000X0.725000X-0.600000X0.725000X-0.600000X-0.725000X0.600000X-0.725000X0*%
%ADD22R,0.600000X1.000000*%
%ADD23RoundRect,0.237500X-0.237500X0.250000X-0.237500X-0.250000X0.237500X-0.250000X0.237500X0.250000X0*%
%ADD24C,1.700000*%
%ADD25C,5.600000*%
%ADD26R,1.800000X1.800000*%
%ADD27C,1.800000*%
%ADD28RoundRect,0.237500X0.250000X0.237500X-0.250000X0.237500X-0.250000X-0.237500X0.250000X-0.237500X0*%
%ADD29RoundRect,0.250000X-0.725000X0.600000X-0.725000X-0.600000X0.725000X-0.600000X0.725000X0.600000X0*%
%ADD30RoundRect,0.237500X0.300000X0.237500X-0.300000X0.237500X-0.300000X-0.237500X0.300000X-0.237500X0*%
%ADD31HorizOval,3.100000X0.424264X0.424264X-0.424264X-0.424264X0*%
%ADD32O,0.900000X1.400000*%
%ADD33O,1.400000X0.900000*%
%ADD34O,1.200000X0.900000*%
G04 APERTURE END LIST*
D10*
%TO.C,OUT1*%
X170544000Y-41456000D03*
D11*
X173044000Y-41456000D03*
%TD*%
D12*
%TO.C,J2*%
X164448000Y-92774000D03*
D13*
X161908000Y-92774000D03*
%TD*%
D14*
%TO.C,U8*%
X225408000Y-79434000D03*
X225408000Y-80383708D03*
X225408000Y-81333670D03*
X227608152Y-81333924D03*
X227608152Y-79433746D03*
%TD*%
D15*
%TO.C,Em2*%
X155420000Y-59293000D03*
D16*
X155420000Y-56793000D03*
%TD*%
D17*
%TO.C,R2*%
X155095000Y-64834000D03*
X156920000Y-64834000D03*
%TD*%
D18*
%TO.C,Vcc*%
X166480000Y-85916000D03*
%TD*%
D19*
%TO.C,U6*%
X222823000Y-54029000D03*
D20*
X225363000Y-54029000D03*
X225363000Y-46409000D03*
X222823000Y-46409000D03*
%TD*%
D21*
%TO.C,J13*%
X173084000Y-92774000D03*
D11*
X170584000Y-92774000D03*
%TD*%
D10*
%TO.C,OUT1*%
X214232000Y-41593000D03*
D11*
X216732000Y-41593000D03*
%TD*%
D22*
%TO.C,U7*%
X159533691Y-87301066D03*
X160483399Y-87301066D03*
X161433361Y-87301066D03*
X161433615Y-85100914D03*
X159533437Y-85100914D03*
%TD*%
D19*
%TO.C,U4*%
X162924000Y-58992000D03*
D20*
X165464000Y-58992000D03*
X165464000Y-51372000D03*
X162924000Y-51372000D03*
%TD*%
D18*
%TO.C,Vcc*%
X228320000Y-57956000D03*
%TD*%
D23*
%TO.C,R4*%
X162920000Y-61343500D03*
X162920000Y-63168500D03*
%TD*%
D24*
%TO.C,J1*%
X200870000Y-94356000D03*
X186370000Y-94356000D03*
%TD*%
D21*
%TO.C,Em2*%
X225241000Y-92901000D03*
D11*
X222741000Y-92901000D03*
%TD*%
D19*
%TO.C,U3*%
X168639000Y-58992000D03*
D20*
X171179000Y-58992000D03*
X171179000Y-51372000D03*
X168639000Y-51372000D03*
%TD*%
D19*
%TO.C,U2*%
X175060000Y-80074000D03*
D20*
X175060000Y-77534000D03*
X175060000Y-74994000D03*
X175060000Y-72454000D03*
X175060000Y-69914000D03*
X175060000Y-67374000D03*
X175060000Y-64834000D03*
X175060000Y-62294000D03*
X175060000Y-59754000D03*
X175060000Y-57214000D03*
X175060000Y-54674000D03*
X175060000Y-52134000D03*
X175060000Y-49594000D03*
X175060000Y-47054000D03*
X159820000Y-47054000D03*
X159820000Y-49594000D03*
X159820000Y-52134000D03*
X159820000Y-54674000D03*
X159820000Y-57214000D03*
X159820000Y-59754000D03*
X159820000Y-62294000D03*
X159820000Y-64834000D03*
X159820000Y-67374000D03*
X159820000Y-69914000D03*
X159820000Y-72454000D03*
X159820000Y-74994000D03*
X159820000Y-77534000D03*
X159820000Y-80074000D03*
%TD*%
D18*
%TO.C,GND*%
X233320000Y-57956000D03*
%TD*%
D25*
%TO.C,REF\u002A\u002A*%
X155620000Y-92656000D03*
%TD*%
D21*
%TO.C,Em1*%
X216721200Y-92901000D03*
D11*
X214221200Y-92901000D03*
%TD*%
D19*
%TO.C,U5*%
X214187000Y-54029000D03*
D20*
X216727000Y-54029000D03*
X216727000Y-46409000D03*
X214187000Y-46409000D03*
%TD*%
D25*
%TO.C,REF\u002A\u002A*%
X231620000Y-92656000D03*
%TD*%
D26*
%TO.C,User*%
X155020000Y-70379666D03*
D27*
X155020000Y-67839666D03*
%TD*%
D15*
%TO.C,Em1*%
X155420000Y-50697000D03*
D16*
X155420000Y-48197000D03*
%TD*%
D18*
%TO.C,GND*%
X170925000Y-85916000D03*
%TD*%
D12*
%TO.C,J5*%
X233155000Y-73216000D03*
D13*
X233155000Y-70676000D03*
X233155000Y-68136000D03*
X233155000Y-65596000D03*
X233155000Y-63056000D03*
%TD*%
D28*
%TO.C,R7*%
X227820000Y-86956000D03*
X225995000Y-86956000D03*
%TD*%
%TO.C,R10*%
X227741000Y-82868000D03*
X225916000Y-82868000D03*
%TD*%
D26*
%TO.C,Power*%
X231758000Y-84392000D03*
D27*
X231758000Y-86932000D03*
%TD*%
D26*
%TO.C,Low Voltage*%
X231758000Y-77529000D03*
D27*
X231758000Y-80069000D03*
%TD*%
D23*
%TO.C,R6*%
X222828000Y-56428500D03*
X222828000Y-58253500D03*
%TD*%
D29*
%TO.C,J14*%
X214867000Y-83543000D03*
D16*
X214867000Y-86043000D03*
%TD*%
D28*
%TO.C,R1*%
X231920000Y-54556000D03*
X230095000Y-54556000D03*
%TD*%
D23*
%TO.C,R5*%
X214192000Y-56428500D03*
X214192000Y-58253500D03*
%TD*%
D25*
%TO.C,REF\u002A\u002A*%
X231620000Y-41656000D03*
%TD*%
D26*
%TO.C,Low Voltage*%
X155020000Y-87296000D03*
D27*
X155020000Y-84756000D03*
%TD*%
D23*
%TO.C,R3*%
X168720000Y-61343500D03*
X168720000Y-63168500D03*
%TD*%
D10*
%TO.C,OUT2*%
X222741000Y-41593000D03*
D11*
X225241000Y-41593000D03*
%TD*%
D17*
%TO.C,R8*%
X154995000Y-73343000D03*
X156820000Y-73343000D03*
%TD*%
D26*
%TO.C,User*%
X231920000Y-48856000D03*
D27*
X231920000Y-51396000D03*
%TD*%
D10*
%TO.C,O2*%
X161994000Y-41456000D03*
D11*
X164494000Y-41456000D03*
%TD*%
D12*
%TO.C,J6*%
X213465000Y-78550000D03*
D13*
X216005000Y-78550000D03*
%TD*%
D30*
%TO.C,C4*%
X222614000Y-76772000D03*
X220889000Y-76772000D03*
%TD*%
D26*
%TO.C,Power*%
X155020000Y-78846333D03*
D27*
X155020000Y-76306333D03*
%TD*%
D17*
%TO.C,R9*%
X159720000Y-83256000D03*
X161545000Y-83256000D03*
%TD*%
D25*
%TO.C,REF\u002A\u002A*%
X155620000Y-41656000D03*
%TD*%
D31*
%TO.C,U1*%
X218016500Y-71455000D03*
D32*
X217471500Y-74490000D03*
X218741500Y-74490000D03*
X220011500Y-74490000D03*
X221281500Y-74490000D03*
X222551500Y-74490000D03*
X223821500Y-74490000D03*
X225091500Y-74490000D03*
X226361500Y-74490000D03*
D33*
X228651500Y-72200000D03*
X228651500Y-70930000D03*
X228651500Y-69660000D03*
X228651500Y-68390000D03*
X228651500Y-67120000D03*
X228651500Y-65850000D03*
X228651500Y-64580000D03*
X228651500Y-63310000D03*
D32*
X226361500Y-61020000D03*
X225091500Y-61020000D03*
X223821500Y-61020000D03*
X222551500Y-61020000D03*
X221281500Y-61020000D03*
X220011500Y-61020000D03*
X218741500Y-61020000D03*
X217471500Y-61020000D03*
D33*
X215181500Y-63310000D03*
X215181500Y-64580000D03*
X215181500Y-65850000D03*
X215181500Y-67120000D03*
X215181500Y-68390000D03*
X215181500Y-69660000D03*
D34*
X215081500Y-70930000D03*
X215081500Y-72200000D03*
%TD*%
M02*
