%TF.GenerationSoftware,KiCad,Pcbnew,8.0.9-8.0.9-0~ubuntu22.04.1*%
%TF.CreationDate,2025-11-06T16:29:17+09:00*%
%TF.ProjectId,TweliteEmergencyStop,5477656c-6974-4654-956d-657267656e63,rev?*%
%TF.SameCoordinates,Original*%
%TF.FileFunction,Soldermask,Bot*%
%TF.FilePolarity,Negative*%
%FSLAX46Y46*%
G04 Gerber Fmt 4.6, Leading zero omitted, Abs format (unit mm)*
G04 Created by KiCad (PCBNEW 8.0.9-8.0.9-0~ubuntu22.04.1) date 2025-11-06 16:29:17*
%MOMM*%
%LPD*%
G01*
G04 APERTURE LIST*
G04 Aperture macros list*
%AMRoundRect*
0 Rectangle with rounded corners*
0 $1 Rounding radius*
0 $2 $3 $4 $5 $6 $7 $8 $9 X,Y pos of 4 corners*
0 Add a 4 corners polygon primitive as box body*
4,1,4,$2,$3,$4,$5,$6,$7,$8,$9,$2,$3,0*
0 Add four circle primitives for the rounded corners*
1,1,$1+$1,$2,$3*
1,1,$1+$1,$4,$5*
1,1,$1+$1,$6,$7*
1,1,$1+$1,$8,$9*
0 Add four rect primitives between the rounded corners*
20,1,$1+$1,$2,$3,$4,$5,0*
20,1,$1+$1,$4,$5,$6,$7,0*
20,1,$1+$1,$6,$7,$8,$9,0*
20,1,$1+$1,$8,$9,$2,$3,0*%
%AMHorizOval*
0 Thick line with rounded ends*
0 $1 width*
0 $2 $3 position (X,Y) of the first rounded end (center of the circle)*
0 $4 $5 position (X,Y) of the second rounded end (center of the circle)*
0 Add line between two ends*
20,1,$1,$2,$3,$4,$5,0*
0 Add two circle primitives to create the rounded ends*
1,1,$1,$2,$3*
1,1,$1,$4,$5*%
%AMFreePoly0*
4,1,19,0.500000,-0.750000,0.000000,-0.750000,0.000000,-0.744911,-0.071157,-0.744911,-0.207708,-0.704816,-0.327430,-0.627875,-0.420627,-0.520320,-0.479746,-0.390866,-0.500000,-0.250000,-0.500000,0.250000,-0.479746,0.390866,-0.420627,0.520320,-0.327430,0.627875,-0.207708,0.704816,-0.071157,0.744911,0.000000,0.744911,0.000000,0.750000,0.500000,0.750000,0.500000,-0.750000,0.500000,-0.750000,
$1*%
%AMFreePoly1*
4,1,19,0.000000,0.744911,0.071157,0.744911,0.207708,0.704816,0.327430,0.627875,0.420627,0.520320,0.479746,0.390866,0.500000,0.250000,0.500000,-0.250000,0.479746,-0.390866,0.420627,-0.520320,0.327430,-0.627875,0.207708,-0.704816,0.071157,-0.744911,0.000000,-0.744911,0.000000,-0.750000,-0.500000,-0.750000,-0.500000,0.750000,0.000000,0.750000,0.000000,0.744911,0.000000,0.744911,
$1*%
G04 Aperture macros list end*
%ADD10RoundRect,0.250000X-0.600000X-0.725000X0.600000X-0.725000X0.600000X0.725000X-0.600000X0.725000X0*%
%ADD11O,1.700000X1.950000*%
%ADD12R,1.700000X1.700000*%
%ADD13O,1.700000X1.700000*%
%ADD14RoundRect,0.250000X0.725000X-0.600000X0.725000X0.600000X-0.725000X0.600000X-0.725000X-0.600000X0*%
%ADD15O,1.950000X1.700000*%
%ADD16C,2.000000*%
%ADD17R,1.600000X1.600000*%
%ADD18O,1.600000X1.600000*%
%ADD19RoundRect,0.250000X0.600000X0.725000X-0.600000X0.725000X-0.600000X-0.725000X0.600000X-0.725000X0*%
%ADD20C,1.700000*%
%ADD21C,5.600000*%
%ADD22R,1.800000X1.800000*%
%ADD23C,1.800000*%
%ADD24RoundRect,0.250000X-0.725000X0.600000X-0.725000X-0.600000X0.725000X-0.600000X0.725000X0.600000X0*%
%ADD25HorizOval,3.100000X0.424264X0.424264X-0.424264X-0.424264X0*%
%ADD26RoundRect,0.237500X0.300000X0.237500X-0.300000X0.237500X-0.300000X-0.237500X0.300000X-0.237500X0*%
%ADD27FreePoly0,0.000000*%
%ADD28FreePoly1,0.000000*%
%ADD29RoundRect,0.237500X-0.237500X0.300000X-0.237500X-0.300000X0.237500X-0.300000X0.237500X0.300000X0*%
%ADD30RoundRect,0.243750X-0.456250X0.243750X-0.456250X-0.243750X0.456250X-0.243750X0.456250X0.243750X0*%
%ADD31FreePoly0,270.000000*%
%ADD32FreePoly1,270.000000*%
%ADD33RoundRect,0.243750X0.243750X0.456250X-0.243750X0.456250X-0.243750X-0.456250X0.243750X-0.456250X0*%
%ADD34FreePoly0,180.000000*%
%ADD35FreePoly1,180.000000*%
G04 APERTURE END LIST*
D10*
%TO.C,OUT1*%
X170544000Y-41456000D03*
D11*
X173044000Y-41456000D03*
%TD*%
D12*
%TO.C,J2*%
X164448000Y-92774000D03*
D13*
X161908000Y-92774000D03*
%TD*%
D14*
%TO.C,Em2*%
X155420000Y-59293000D03*
D15*
X155420000Y-56793000D03*
%TD*%
D16*
%TO.C,Vcc*%
X166480000Y-85916000D03*
%TD*%
D17*
%TO.C,U6*%
X222823000Y-54029000D03*
D18*
X225363000Y-54029000D03*
X225363000Y-46409000D03*
X222823000Y-46409000D03*
%TD*%
D19*
%TO.C,J13*%
X173084000Y-92774000D03*
D11*
X170584000Y-92774000D03*
%TD*%
D10*
%TO.C,OUT1*%
X214232000Y-41593000D03*
D11*
X216732000Y-41593000D03*
%TD*%
D17*
%TO.C,U4*%
X162924000Y-58992000D03*
D18*
X165464000Y-58992000D03*
X165464000Y-51372000D03*
X162924000Y-51372000D03*
%TD*%
D16*
%TO.C,Vcc*%
X228320000Y-57956000D03*
%TD*%
D20*
%TO.C,J1*%
X200870000Y-94356000D03*
X186370000Y-94356000D03*
%TD*%
D19*
%TO.C,Em2*%
X225241000Y-92901000D03*
D11*
X222741000Y-92901000D03*
%TD*%
D17*
%TO.C,U3*%
X168639000Y-58992000D03*
D18*
X171179000Y-58992000D03*
X171179000Y-51372000D03*
X168639000Y-51372000D03*
%TD*%
D17*
%TO.C,U2*%
X175060000Y-80074000D03*
D18*
X175060000Y-77534000D03*
X175060000Y-74994000D03*
X175060000Y-72454000D03*
X175060000Y-69914000D03*
X175060000Y-67374000D03*
X175060000Y-64834000D03*
X175060000Y-62294000D03*
X175060000Y-59754000D03*
X175060000Y-57214000D03*
X175060000Y-54674000D03*
X175060000Y-52134000D03*
X175060000Y-49594000D03*
X175060000Y-47054000D03*
X159820000Y-47054000D03*
X159820000Y-49594000D03*
X159820000Y-52134000D03*
X159820000Y-54674000D03*
X159820000Y-57214000D03*
X159820000Y-59754000D03*
X159820000Y-62294000D03*
X159820000Y-64834000D03*
X159820000Y-67374000D03*
X159820000Y-69914000D03*
X159820000Y-72454000D03*
X159820000Y-74994000D03*
X159820000Y-77534000D03*
X159820000Y-80074000D03*
%TD*%
D16*
%TO.C,GND*%
X233320000Y-57956000D03*
%TD*%
D21*
%TO.C,REF\u002A\u002A*%
X155620000Y-92656000D03*
%TD*%
D19*
%TO.C,Em1*%
X216721200Y-92901000D03*
D11*
X214221200Y-92901000D03*
%TD*%
D17*
%TO.C,U5*%
X214187000Y-54029000D03*
D18*
X216727000Y-54029000D03*
X216727000Y-46409000D03*
X214187000Y-46409000D03*
%TD*%
D21*
%TO.C,REF\u002A\u002A*%
X231620000Y-92656000D03*
%TD*%
D22*
%TO.C,User*%
X155020000Y-70379666D03*
D23*
X155020000Y-67839666D03*
%TD*%
D14*
%TO.C,Em1*%
X155420000Y-50697000D03*
D15*
X155420000Y-48197000D03*
%TD*%
D16*
%TO.C,GND*%
X170925000Y-85916000D03*
%TD*%
D12*
%TO.C,J5*%
X233155000Y-73216000D03*
D13*
X233155000Y-70676000D03*
X233155000Y-68136000D03*
X233155000Y-65596000D03*
X233155000Y-63056000D03*
%TD*%
D22*
%TO.C,Power*%
X231758000Y-84392000D03*
D23*
X231758000Y-86932000D03*
%TD*%
D22*
%TO.C,Low Voltage*%
X231758000Y-77529000D03*
D23*
X231758000Y-80069000D03*
%TD*%
D24*
%TO.C,J14*%
X214867000Y-83543000D03*
D15*
X214867000Y-86043000D03*
%TD*%
D21*
%TO.C,REF\u002A\u002A*%
X231620000Y-41656000D03*
%TD*%
D22*
%TO.C,Low Voltage*%
X155020000Y-87296000D03*
D23*
X155020000Y-84756000D03*
%TD*%
D10*
%TO.C,OUT2*%
X222741000Y-41593000D03*
D11*
X225241000Y-41593000D03*
%TD*%
D22*
%TO.C,User*%
X231920000Y-48856000D03*
D23*
X231920000Y-51396000D03*
%TD*%
D10*
%TO.C,O2*%
X161994000Y-41456000D03*
D11*
X164494000Y-41456000D03*
%TD*%
D12*
%TO.C,J6*%
X213465000Y-78550000D03*
D13*
X216005000Y-78550000D03*
%TD*%
D22*
%TO.C,Power*%
X155020000Y-78846333D03*
D23*
X155020000Y-76306333D03*
%TD*%
D21*
%TO.C,REF\u002A\u002A*%
X155620000Y-41656000D03*
%TD*%
D25*
%TO.C,U1*%
X218016500Y-71455000D03*
%TD*%
D26*
%TO.C,C1*%
X161880503Y-86201003D03*
X160155503Y-86201003D03*
%TD*%
D27*
%TO.C,JP1*%
X224811000Y-68263000D03*
D28*
X226111000Y-68263000D03*
%TD*%
D29*
%TO.C,C2*%
X222741000Y-78550000D03*
X222741000Y-80275000D03*
%TD*%
D26*
%TO.C,C3*%
X161720000Y-82256000D03*
X159995000Y-82256000D03*
%TD*%
D30*
%TO.C,F1*%
X161908000Y-87978000D03*
X161908000Y-89853000D03*
%TD*%
D31*
%TO.C,JP2*%
X172420000Y-47656000D03*
D32*
X172420000Y-48956000D03*
%TD*%
D33*
%TO.C,F2*%
X220679000Y-78550000D03*
X218804000Y-78550000D03*
%TD*%
D31*
%TO.C,JP4*%
X162289000Y-53277000D03*
D32*
X162289000Y-54577000D03*
%TD*%
D34*
%TO.C,JP3*%
X226043000Y-64326000D03*
D35*
X224743000Y-64326000D03*
%TD*%
M02*
