%TF.GenerationSoftware,KiCad,Pcbnew,8.0.9-8.0.9-0~ubuntu22.04.1*%
%TF.CreationDate,2025-11-06T16:29:17+09:00*%
%TF.ProjectId,TweliteEmergencyStop,5477656c-6974-4654-956d-657267656e63,rev?*%
%TF.SameCoordinates,Original*%
%TF.FileFunction,Legend,Bot*%
%TF.FilePolarity,Positive*%
%FSLAX46Y46*%
G04 Gerber Fmt 4.6, Leading zero omitted, Abs format (unit mm)*
G04 Created by KiCad (PCBNEW 8.0.9-8.0.9-0~ubuntu22.04.1) date 2025-11-06 16:29:17*
%MOMM*%
%LPD*%
G01*
G04 APERTURE LIST*
G04 Aperture macros list*
%AMRoundRect*
0 Rectangle with rounded corners*
0 $1 Rounding radius*
0 $2 $3 $4 $5 $6 $7 $8 $9 X,Y pos of 4 corners*
0 Add a 4 corners polygon primitive as box body*
4,1,4,$2,$3,$4,$5,$6,$7,$8,$9,$2,$3,0*
0 Add four circle primitives for the rounded corners*
1,1,$1+$1,$2,$3*
1,1,$1+$1,$4,$5*
1,1,$1+$1,$6,$7*
1,1,$1+$1,$8,$9*
0 Add four rect primitives between the rounded corners*
20,1,$1+$1,$2,$3,$4,$5,0*
20,1,$1+$1,$4,$5,$6,$7,0*
20,1,$1+$1,$6,$7,$8,$9,0*
20,1,$1+$1,$8,$9,$2,$3,0*%
%AMHorizOval*
0 Thick line with rounded ends*
0 $1 width*
0 $2 $3 position (X,Y) of the first rounded end (center of the circle)*
0 $4 $5 position (X,Y) of the second rounded end (center of the circle)*
0 Add line between two ends*
20,1,$1,$2,$3,$4,$5,0*
0 Add two circle primitives to create the rounded ends*
1,1,$1,$2,$3*
1,1,$1,$4,$5*%
%AMFreePoly0*
4,1,19,0.500000,-0.750000,0.000000,-0.750000,0.000000,-0.744911,-0.071157,-0.744911,-0.207708,-0.704816,-0.327430,-0.627875,-0.420627,-0.520320,-0.479746,-0.390866,-0.500000,-0.250000,-0.500000,0.250000,-0.479746,0.390866,-0.420627,0.520320,-0.327430,0.627875,-0.207708,0.704816,-0.071157,0.744911,0.000000,0.744911,0.000000,0.750000,0.500000,0.750000,0.500000,-0.750000,0.500000,-0.750000,
$1*%
%AMFreePoly1*
4,1,19,0.000000,0.744911,0.071157,0.744911,0.207708,0.704816,0.327430,0.627875,0.420627,0.520320,0.479746,0.390866,0.500000,0.250000,0.500000,-0.250000,0.479746,-0.390866,0.420627,-0.520320,0.327430,-0.627875,0.207708,-0.704816,0.071157,-0.744911,0.000000,-0.744911,0.000000,-0.750000,-0.500000,-0.750000,-0.500000,0.750000,0.000000,0.750000,0.000000,0.744911,0.000000,0.744911,
$1*%
G04 Aperture macros list end*
%ADD10C,0.125000*%
%ADD11C,0.150000*%
%ADD12C,0.120000*%
%ADD13RoundRect,0.250000X-0.600000X-0.725000X0.600000X-0.725000X0.600000X0.725000X-0.600000X0.725000X0*%
%ADD14O,1.700000X1.950000*%
%ADD15R,1.700000X1.700000*%
%ADD16O,1.700000X1.700000*%
%ADD17RoundRect,0.250000X0.725000X-0.600000X0.725000X0.600000X-0.725000X0.600000X-0.725000X-0.600000X0*%
%ADD18O,1.950000X1.700000*%
%ADD19C,2.000000*%
%ADD20R,1.600000X1.600000*%
%ADD21O,1.600000X1.600000*%
%ADD22RoundRect,0.250000X0.600000X0.725000X-0.600000X0.725000X-0.600000X-0.725000X0.600000X-0.725000X0*%
%ADD23C,1.700000*%
%ADD24C,5.600000*%
%ADD25R,1.800000X1.800000*%
%ADD26C,1.800000*%
%ADD27RoundRect,0.250000X-0.725000X0.600000X-0.725000X-0.600000X0.725000X-0.600000X0.725000X0.600000X0*%
%ADD28HorizOval,3.100000X0.424264X0.424264X-0.424264X-0.424264X0*%
%ADD29RoundRect,0.237500X0.300000X0.237500X-0.300000X0.237500X-0.300000X-0.237500X0.300000X-0.237500X0*%
%ADD30FreePoly0,0.000000*%
%ADD31FreePoly1,0.000000*%
%ADD32RoundRect,0.237500X-0.237500X0.300000X-0.237500X-0.300000X0.237500X-0.300000X0.237500X0.300000X0*%
%ADD33RoundRect,0.243750X-0.456250X0.243750X-0.456250X-0.243750X0.456250X-0.243750X0.456250X0.243750X0*%
%ADD34FreePoly0,270.000000*%
%ADD35FreePoly1,270.000000*%
%ADD36RoundRect,0.243750X0.243750X0.456250X-0.243750X0.456250X-0.243750X-0.456250X0.243750X-0.456250X0*%
%ADD37FreePoly0,180.000000*%
%ADD38FreePoly1,180.000000*%
G04 APERTURE END LIST*
D10*
X223381097Y-62739421D02*
X223147764Y-62739421D01*
X223047764Y-63263231D02*
X223381097Y-63263231D01*
X223381097Y-63263231D02*
X223381097Y-62263231D01*
X223381097Y-62263231D02*
X223047764Y-62263231D01*
X222747764Y-62596564D02*
X222747764Y-63263231D01*
X222747764Y-62691802D02*
X222714431Y-62644183D01*
X222714431Y-62644183D02*
X222647764Y-62596564D01*
X222647764Y-62596564D02*
X222547764Y-62596564D01*
X222547764Y-62596564D02*
X222481097Y-62644183D01*
X222481097Y-62644183D02*
X222447764Y-62739421D01*
X222447764Y-62739421D02*
X222447764Y-63263231D01*
X221814431Y-63263231D02*
X221814431Y-62739421D01*
X221814431Y-62739421D02*
X221847764Y-62644183D01*
X221847764Y-62644183D02*
X221914431Y-62596564D01*
X221914431Y-62596564D02*
X222047764Y-62596564D01*
X222047764Y-62596564D02*
X222114431Y-62644183D01*
X221814431Y-63215612D02*
X221881098Y-63263231D01*
X221881098Y-63263231D02*
X222047764Y-63263231D01*
X222047764Y-63263231D02*
X222114431Y-63215612D01*
X222114431Y-63215612D02*
X222147764Y-63120373D01*
X222147764Y-63120373D02*
X222147764Y-63025135D01*
X222147764Y-63025135D02*
X222114431Y-62929897D01*
X222114431Y-62929897D02*
X222047764Y-62882278D01*
X222047764Y-62882278D02*
X221881098Y-62882278D01*
X221881098Y-62882278D02*
X221814431Y-62834659D01*
X221481098Y-63263231D02*
X221481098Y-62263231D01*
X221481098Y-62644183D02*
X221414431Y-62596564D01*
X221414431Y-62596564D02*
X221281098Y-62596564D01*
X221281098Y-62596564D02*
X221214431Y-62644183D01*
X221214431Y-62644183D02*
X221181098Y-62691802D01*
X221181098Y-62691802D02*
X221147765Y-62787040D01*
X221147765Y-62787040D02*
X221147765Y-63072754D01*
X221147765Y-63072754D02*
X221181098Y-63167992D01*
X221181098Y-63167992D02*
X221214431Y-63215612D01*
X221214431Y-63215612D02*
X221281098Y-63263231D01*
X221281098Y-63263231D02*
X221414431Y-63263231D01*
X221414431Y-63263231D02*
X221481098Y-63215612D01*
X220747765Y-63263231D02*
X220814432Y-63215612D01*
X220814432Y-63215612D02*
X220847765Y-63120373D01*
X220847765Y-63120373D02*
X220847765Y-62263231D01*
X220214431Y-63215612D02*
X220281098Y-63263231D01*
X220281098Y-63263231D02*
X220414431Y-63263231D01*
X220414431Y-63263231D02*
X220481098Y-63215612D01*
X220481098Y-63215612D02*
X220514431Y-63120373D01*
X220514431Y-63120373D02*
X220514431Y-62739421D01*
X220514431Y-62739421D02*
X220481098Y-62644183D01*
X220481098Y-62644183D02*
X220414431Y-62596564D01*
X220414431Y-62596564D02*
X220281098Y-62596564D01*
X220281098Y-62596564D02*
X220214431Y-62644183D01*
X220214431Y-62644183D02*
X220181098Y-62739421D01*
X220181098Y-62739421D02*
X220181098Y-62834659D01*
X220181098Y-62834659D02*
X220514431Y-62929897D01*
X223381097Y-64349365D02*
X223147764Y-64349365D01*
X223047764Y-64873175D02*
X223381097Y-64873175D01*
X223381097Y-64873175D02*
X223381097Y-63873175D01*
X223381097Y-63873175D02*
X223047764Y-63873175D01*
X222747764Y-64873175D02*
X222747764Y-64206508D01*
X222747764Y-64301746D02*
X222714431Y-64254127D01*
X222714431Y-64254127D02*
X222647764Y-64206508D01*
X222647764Y-64206508D02*
X222547764Y-64206508D01*
X222547764Y-64206508D02*
X222481097Y-64254127D01*
X222481097Y-64254127D02*
X222447764Y-64349365D01*
X222447764Y-64349365D02*
X222447764Y-64873175D01*
X222447764Y-64349365D02*
X222414431Y-64254127D01*
X222414431Y-64254127D02*
X222347764Y-64206508D01*
X222347764Y-64206508D02*
X222247764Y-64206508D01*
X222247764Y-64206508D02*
X222181097Y-64254127D01*
X222181097Y-64254127D02*
X222147764Y-64349365D01*
X222147764Y-64349365D02*
X222147764Y-64873175D01*
X221547764Y-64825556D02*
X221614431Y-64873175D01*
X221614431Y-64873175D02*
X221747764Y-64873175D01*
X221747764Y-64873175D02*
X221814431Y-64825556D01*
X221814431Y-64825556D02*
X221847764Y-64730317D01*
X221847764Y-64730317D02*
X221847764Y-64349365D01*
X221847764Y-64349365D02*
X221814431Y-64254127D01*
X221814431Y-64254127D02*
X221747764Y-64206508D01*
X221747764Y-64206508D02*
X221614431Y-64206508D01*
X221614431Y-64206508D02*
X221547764Y-64254127D01*
X221547764Y-64254127D02*
X221514431Y-64349365D01*
X221514431Y-64349365D02*
X221514431Y-64444603D01*
X221514431Y-64444603D02*
X221847764Y-64539841D01*
X221214431Y-64873175D02*
X221214431Y-64206508D01*
X221214431Y-64396984D02*
X221181098Y-64301746D01*
X221181098Y-64301746D02*
X221147764Y-64254127D01*
X221147764Y-64254127D02*
X221081098Y-64206508D01*
X221081098Y-64206508D02*
X221014431Y-64206508D01*
X220481098Y-64206508D02*
X220481098Y-65016032D01*
X220481098Y-65016032D02*
X220514431Y-65111270D01*
X220514431Y-65111270D02*
X220547765Y-65158889D01*
X220547765Y-65158889D02*
X220614431Y-65206508D01*
X220614431Y-65206508D02*
X220714431Y-65206508D01*
X220714431Y-65206508D02*
X220781098Y-65158889D01*
X220481098Y-64825556D02*
X220547765Y-64873175D01*
X220547765Y-64873175D02*
X220681098Y-64873175D01*
X220681098Y-64873175D02*
X220747765Y-64825556D01*
X220747765Y-64825556D02*
X220781098Y-64777936D01*
X220781098Y-64777936D02*
X220814431Y-64682698D01*
X220814431Y-64682698D02*
X220814431Y-64396984D01*
X220814431Y-64396984D02*
X220781098Y-64301746D01*
X220781098Y-64301746D02*
X220747765Y-64254127D01*
X220747765Y-64254127D02*
X220681098Y-64206508D01*
X220681098Y-64206508D02*
X220547765Y-64206508D01*
X220547765Y-64206508D02*
X220481098Y-64254127D01*
X219881098Y-64825556D02*
X219947765Y-64873175D01*
X219947765Y-64873175D02*
X220081098Y-64873175D01*
X220081098Y-64873175D02*
X220147765Y-64825556D01*
X220147765Y-64825556D02*
X220181098Y-64730317D01*
X220181098Y-64730317D02*
X220181098Y-64349365D01*
X220181098Y-64349365D02*
X220147765Y-64254127D01*
X220147765Y-64254127D02*
X220081098Y-64206508D01*
X220081098Y-64206508D02*
X219947765Y-64206508D01*
X219947765Y-64206508D02*
X219881098Y-64254127D01*
X219881098Y-64254127D02*
X219847765Y-64349365D01*
X219847765Y-64349365D02*
X219847765Y-64444603D01*
X219847765Y-64444603D02*
X220181098Y-64539841D01*
X219547765Y-64206508D02*
X219547765Y-64873175D01*
X219547765Y-64301746D02*
X219514432Y-64254127D01*
X219514432Y-64254127D02*
X219447765Y-64206508D01*
X219447765Y-64206508D02*
X219347765Y-64206508D01*
X219347765Y-64206508D02*
X219281098Y-64254127D01*
X219281098Y-64254127D02*
X219247765Y-64349365D01*
X219247765Y-64349365D02*
X219247765Y-64873175D01*
X218614432Y-64825556D02*
X218681099Y-64873175D01*
X218681099Y-64873175D02*
X218814432Y-64873175D01*
X218814432Y-64873175D02*
X218881099Y-64825556D01*
X218881099Y-64825556D02*
X218914432Y-64777936D01*
X218914432Y-64777936D02*
X218947765Y-64682698D01*
X218947765Y-64682698D02*
X218947765Y-64396984D01*
X218947765Y-64396984D02*
X218914432Y-64301746D01*
X218914432Y-64301746D02*
X218881099Y-64254127D01*
X218881099Y-64254127D02*
X218814432Y-64206508D01*
X218814432Y-64206508D02*
X218681099Y-64206508D01*
X218681099Y-64206508D02*
X218614432Y-64254127D01*
X218381099Y-64206508D02*
X218214432Y-64873175D01*
X218047765Y-64206508D02*
X218214432Y-64873175D01*
X218214432Y-64873175D02*
X218281099Y-65111270D01*
X218281099Y-65111270D02*
X218314432Y-65158889D01*
X218314432Y-65158889D02*
X218381099Y-65206508D01*
X223047764Y-66483119D02*
X223381097Y-66483119D01*
X223381097Y-66483119D02*
X223381097Y-65483119D01*
X222547763Y-66435500D02*
X222614430Y-66483119D01*
X222614430Y-66483119D02*
X222747763Y-66483119D01*
X222747763Y-66483119D02*
X222814430Y-66435500D01*
X222814430Y-66435500D02*
X222847763Y-66340261D01*
X222847763Y-66340261D02*
X222847763Y-65959309D01*
X222847763Y-65959309D02*
X222814430Y-65864071D01*
X222814430Y-65864071D02*
X222747763Y-65816452D01*
X222747763Y-65816452D02*
X222614430Y-65816452D01*
X222614430Y-65816452D02*
X222547763Y-65864071D01*
X222547763Y-65864071D02*
X222514430Y-65959309D01*
X222514430Y-65959309D02*
X222514430Y-66054547D01*
X222514430Y-66054547D02*
X222847763Y-66149785D01*
X221914430Y-66483119D02*
X221914430Y-65483119D01*
X221914430Y-66435500D02*
X221981097Y-66483119D01*
X221981097Y-66483119D02*
X222114430Y-66483119D01*
X222114430Y-66483119D02*
X222181097Y-66435500D01*
X222181097Y-66435500D02*
X222214430Y-66387880D01*
X222214430Y-66387880D02*
X222247763Y-66292642D01*
X222247763Y-66292642D02*
X222247763Y-66006928D01*
X222247763Y-66006928D02*
X222214430Y-65911690D01*
X222214430Y-65911690D02*
X222181097Y-65864071D01*
X222181097Y-65864071D02*
X222114430Y-65816452D01*
X222114430Y-65816452D02*
X221981097Y-65816452D01*
X221981097Y-65816452D02*
X221914430Y-65864071D01*
X173209119Y-50374712D02*
X172209119Y-50374712D01*
X172685309Y-50374712D02*
X172685309Y-50831855D01*
X173209119Y-50831855D02*
X172209119Y-50831855D01*
X173209119Y-51555664D02*
X172685309Y-51555664D01*
X172685309Y-51555664D02*
X172590071Y-51517569D01*
X172590071Y-51517569D02*
X172542452Y-51441378D01*
X172542452Y-51441378D02*
X172542452Y-51288997D01*
X172542452Y-51288997D02*
X172590071Y-51212807D01*
X173161500Y-51555664D02*
X173209119Y-51479473D01*
X173209119Y-51479473D02*
X173209119Y-51288997D01*
X173209119Y-51288997D02*
X173161500Y-51212807D01*
X173161500Y-51212807D02*
X173066261Y-51174711D01*
X173066261Y-51174711D02*
X172971023Y-51174711D01*
X172971023Y-51174711D02*
X172875785Y-51212807D01*
X172875785Y-51212807D02*
X172828166Y-51288997D01*
X172828166Y-51288997D02*
X172828166Y-51479473D01*
X172828166Y-51479473D02*
X172780547Y-51555664D01*
X172542452Y-51936617D02*
X173209119Y-51936617D01*
X172637690Y-51936617D02*
X172590071Y-51974712D01*
X172590071Y-51974712D02*
X172542452Y-52050902D01*
X172542452Y-52050902D02*
X172542452Y-52165188D01*
X172542452Y-52165188D02*
X172590071Y-52241379D01*
X172590071Y-52241379D02*
X172685309Y-52279474D01*
X172685309Y-52279474D02*
X173209119Y-52279474D01*
X173209119Y-53003284D02*
X172209119Y-53003284D01*
X173161500Y-53003284D02*
X173209119Y-52927093D01*
X173209119Y-52927093D02*
X173209119Y-52774712D01*
X173209119Y-52774712D02*
X173161500Y-52698522D01*
X173161500Y-52698522D02*
X173113880Y-52660427D01*
X173113880Y-52660427D02*
X173018642Y-52622331D01*
X173018642Y-52622331D02*
X172732928Y-52622331D01*
X172732928Y-52622331D02*
X172637690Y-52660427D01*
X172637690Y-52660427D02*
X172590071Y-52698522D01*
X172590071Y-52698522D02*
X172542452Y-52774712D01*
X172542452Y-52774712D02*
X172542452Y-52927093D01*
X172542452Y-52927093D02*
X172590071Y-53003284D01*
X173161500Y-53346141D02*
X173209119Y-53422332D01*
X173209119Y-53422332D02*
X173209119Y-53574713D01*
X173209119Y-53574713D02*
X173161500Y-53650903D01*
X173161500Y-53650903D02*
X173066261Y-53688999D01*
X173066261Y-53688999D02*
X173018642Y-53688999D01*
X173018642Y-53688999D02*
X172923404Y-53650903D01*
X172923404Y-53650903D02*
X172875785Y-53574713D01*
X172875785Y-53574713D02*
X172875785Y-53460427D01*
X172875785Y-53460427D02*
X172828166Y-53384237D01*
X172828166Y-53384237D02*
X172732928Y-53346141D01*
X172732928Y-53346141D02*
X172685309Y-53346141D01*
X172685309Y-53346141D02*
X172590071Y-53384237D01*
X172590071Y-53384237D02*
X172542452Y-53460427D01*
X172542452Y-53460427D02*
X172542452Y-53574713D01*
X172542452Y-53574713D02*
X172590071Y-53650903D01*
X173161500Y-54336618D02*
X173209119Y-54260427D01*
X173209119Y-54260427D02*
X173209119Y-54108046D01*
X173209119Y-54108046D02*
X173161500Y-54031856D01*
X173161500Y-54031856D02*
X173066261Y-53993760D01*
X173066261Y-53993760D02*
X172685309Y-53993760D01*
X172685309Y-53993760D02*
X172590071Y-54031856D01*
X172590071Y-54031856D02*
X172542452Y-54108046D01*
X172542452Y-54108046D02*
X172542452Y-54260427D01*
X172542452Y-54260427D02*
X172590071Y-54336618D01*
X172590071Y-54336618D02*
X172685309Y-54374713D01*
X172685309Y-54374713D02*
X172780547Y-54374713D01*
X172780547Y-54374713D02*
X172875785Y-53993760D01*
X172542452Y-54603284D02*
X172542452Y-54908046D01*
X172209119Y-54717570D02*
X173066261Y-54717570D01*
X173066261Y-54717570D02*
X173161500Y-54755665D01*
X173161500Y-54755665D02*
X173209119Y-54831855D01*
X173209119Y-54831855D02*
X173209119Y-54908046D01*
X173209119Y-55784237D02*
X172209119Y-55784237D01*
X172209119Y-55784237D02*
X172923404Y-56050903D01*
X172923404Y-56050903D02*
X172209119Y-56317570D01*
X172209119Y-56317570D02*
X173209119Y-56317570D01*
X173209119Y-56812808D02*
X173161500Y-56736618D01*
X173161500Y-56736618D02*
X173113880Y-56698523D01*
X173113880Y-56698523D02*
X173018642Y-56660427D01*
X173018642Y-56660427D02*
X172732928Y-56660427D01*
X172732928Y-56660427D02*
X172637690Y-56698523D01*
X172637690Y-56698523D02*
X172590071Y-56736618D01*
X172590071Y-56736618D02*
X172542452Y-56812808D01*
X172542452Y-56812808D02*
X172542452Y-56927094D01*
X172542452Y-56927094D02*
X172590071Y-57003285D01*
X172590071Y-57003285D02*
X172637690Y-57041380D01*
X172637690Y-57041380D02*
X172732928Y-57079475D01*
X172732928Y-57079475D02*
X173018642Y-57079475D01*
X173018642Y-57079475D02*
X173113880Y-57041380D01*
X173113880Y-57041380D02*
X173161500Y-57003285D01*
X173161500Y-57003285D02*
X173209119Y-56927094D01*
X173209119Y-56927094D02*
X173209119Y-56812808D01*
X173209119Y-57765190D02*
X172209119Y-57765190D01*
X173161500Y-57765190D02*
X173209119Y-57688999D01*
X173209119Y-57688999D02*
X173209119Y-57536618D01*
X173209119Y-57536618D02*
X173161500Y-57460428D01*
X173161500Y-57460428D02*
X173113880Y-57422333D01*
X173113880Y-57422333D02*
X173018642Y-57384237D01*
X173018642Y-57384237D02*
X172732928Y-57384237D01*
X172732928Y-57384237D02*
X172637690Y-57422333D01*
X172637690Y-57422333D02*
X172590071Y-57460428D01*
X172590071Y-57460428D02*
X172542452Y-57536618D01*
X172542452Y-57536618D02*
X172542452Y-57688999D01*
X172542452Y-57688999D02*
X172590071Y-57765190D01*
X173161500Y-58450905D02*
X173209119Y-58374714D01*
X173209119Y-58374714D02*
X173209119Y-58222333D01*
X173209119Y-58222333D02*
X173161500Y-58146143D01*
X173161500Y-58146143D02*
X173066261Y-58108047D01*
X173066261Y-58108047D02*
X172685309Y-58108047D01*
X172685309Y-58108047D02*
X172590071Y-58146143D01*
X172590071Y-58146143D02*
X172542452Y-58222333D01*
X172542452Y-58222333D02*
X172542452Y-58374714D01*
X172542452Y-58374714D02*
X172590071Y-58450905D01*
X172590071Y-58450905D02*
X172685309Y-58489000D01*
X172685309Y-58489000D02*
X172780547Y-58489000D01*
X172780547Y-58489000D02*
X172875785Y-58108047D01*
X164131421Y-52382902D02*
X164131421Y-52616236D01*
X164655231Y-52716236D02*
X164655231Y-52382902D01*
X164655231Y-52382902D02*
X163655231Y-52382902D01*
X163655231Y-52382902D02*
X163655231Y-52716236D01*
X163988564Y-53016235D02*
X164655231Y-53016235D01*
X164083802Y-53016235D02*
X164036183Y-53049569D01*
X164036183Y-53049569D02*
X163988564Y-53116235D01*
X163988564Y-53116235D02*
X163988564Y-53216235D01*
X163988564Y-53216235D02*
X164036183Y-53282902D01*
X164036183Y-53282902D02*
X164131421Y-53316235D01*
X164131421Y-53316235D02*
X164655231Y-53316235D01*
X164655231Y-53949568D02*
X164131421Y-53949568D01*
X164131421Y-53949568D02*
X164036183Y-53916235D01*
X164036183Y-53916235D02*
X163988564Y-53849568D01*
X163988564Y-53849568D02*
X163988564Y-53716235D01*
X163988564Y-53716235D02*
X164036183Y-53649568D01*
X164607612Y-53949568D02*
X164655231Y-53882902D01*
X164655231Y-53882902D02*
X164655231Y-53716235D01*
X164655231Y-53716235D02*
X164607612Y-53649568D01*
X164607612Y-53649568D02*
X164512373Y-53616235D01*
X164512373Y-53616235D02*
X164417135Y-53616235D01*
X164417135Y-53616235D02*
X164321897Y-53649568D01*
X164321897Y-53649568D02*
X164274278Y-53716235D01*
X164274278Y-53716235D02*
X164274278Y-53882902D01*
X164274278Y-53882902D02*
X164226659Y-53949568D01*
X164655231Y-54282901D02*
X163655231Y-54282901D01*
X164036183Y-54282901D02*
X163988564Y-54349568D01*
X163988564Y-54349568D02*
X163988564Y-54482901D01*
X163988564Y-54482901D02*
X164036183Y-54549568D01*
X164036183Y-54549568D02*
X164083802Y-54582901D01*
X164083802Y-54582901D02*
X164179040Y-54616235D01*
X164179040Y-54616235D02*
X164464754Y-54616235D01*
X164464754Y-54616235D02*
X164559992Y-54582901D01*
X164559992Y-54582901D02*
X164607612Y-54549568D01*
X164607612Y-54549568D02*
X164655231Y-54482901D01*
X164655231Y-54482901D02*
X164655231Y-54349568D01*
X164655231Y-54349568D02*
X164607612Y-54282901D01*
X164655231Y-55016234D02*
X164607612Y-54949568D01*
X164607612Y-54949568D02*
X164512373Y-54916234D01*
X164512373Y-54916234D02*
X163655231Y-54916234D01*
X164607612Y-55549568D02*
X164655231Y-55482901D01*
X164655231Y-55482901D02*
X164655231Y-55349568D01*
X164655231Y-55349568D02*
X164607612Y-55282901D01*
X164607612Y-55282901D02*
X164512373Y-55249568D01*
X164512373Y-55249568D02*
X164131421Y-55249568D01*
X164131421Y-55249568D02*
X164036183Y-55282901D01*
X164036183Y-55282901D02*
X163988564Y-55349568D01*
X163988564Y-55349568D02*
X163988564Y-55482901D01*
X163988564Y-55482901D02*
X164036183Y-55549568D01*
X164036183Y-55549568D02*
X164131421Y-55582901D01*
X164131421Y-55582901D02*
X164226659Y-55582901D01*
X164226659Y-55582901D02*
X164321897Y-55249568D01*
X165741365Y-52382902D02*
X165741365Y-52616236D01*
X166265175Y-52716236D02*
X166265175Y-52382902D01*
X166265175Y-52382902D02*
X165265175Y-52382902D01*
X165265175Y-52382902D02*
X165265175Y-52716236D01*
X166265175Y-53016235D02*
X165598508Y-53016235D01*
X165693746Y-53016235D02*
X165646127Y-53049569D01*
X165646127Y-53049569D02*
X165598508Y-53116235D01*
X165598508Y-53116235D02*
X165598508Y-53216235D01*
X165598508Y-53216235D02*
X165646127Y-53282902D01*
X165646127Y-53282902D02*
X165741365Y-53316235D01*
X165741365Y-53316235D02*
X166265175Y-53316235D01*
X165741365Y-53316235D02*
X165646127Y-53349569D01*
X165646127Y-53349569D02*
X165598508Y-53416235D01*
X165598508Y-53416235D02*
X165598508Y-53516235D01*
X165598508Y-53516235D02*
X165646127Y-53582902D01*
X165646127Y-53582902D02*
X165741365Y-53616235D01*
X165741365Y-53616235D02*
X166265175Y-53616235D01*
X166217556Y-54216235D02*
X166265175Y-54149568D01*
X166265175Y-54149568D02*
X166265175Y-54016235D01*
X166265175Y-54016235D02*
X166217556Y-53949568D01*
X166217556Y-53949568D02*
X166122317Y-53916235D01*
X166122317Y-53916235D02*
X165741365Y-53916235D01*
X165741365Y-53916235D02*
X165646127Y-53949568D01*
X165646127Y-53949568D02*
X165598508Y-54016235D01*
X165598508Y-54016235D02*
X165598508Y-54149568D01*
X165598508Y-54149568D02*
X165646127Y-54216235D01*
X165646127Y-54216235D02*
X165741365Y-54249568D01*
X165741365Y-54249568D02*
X165836603Y-54249568D01*
X165836603Y-54249568D02*
X165931841Y-53916235D01*
X166265175Y-54549568D02*
X165598508Y-54549568D01*
X165788984Y-54549568D02*
X165693746Y-54582902D01*
X165693746Y-54582902D02*
X165646127Y-54616235D01*
X165646127Y-54616235D02*
X165598508Y-54682902D01*
X165598508Y-54682902D02*
X165598508Y-54749568D01*
X165598508Y-55282901D02*
X166408032Y-55282901D01*
X166408032Y-55282901D02*
X166503270Y-55249568D01*
X166503270Y-55249568D02*
X166550889Y-55216235D01*
X166550889Y-55216235D02*
X166598508Y-55149568D01*
X166598508Y-55149568D02*
X166598508Y-55049568D01*
X166598508Y-55049568D02*
X166550889Y-54982901D01*
X166217556Y-55282901D02*
X166265175Y-55216235D01*
X166265175Y-55216235D02*
X166265175Y-55082901D01*
X166265175Y-55082901D02*
X166217556Y-55016235D01*
X166217556Y-55016235D02*
X166169936Y-54982901D01*
X166169936Y-54982901D02*
X166074698Y-54949568D01*
X166074698Y-54949568D02*
X165788984Y-54949568D01*
X165788984Y-54949568D02*
X165693746Y-54982901D01*
X165693746Y-54982901D02*
X165646127Y-55016235D01*
X165646127Y-55016235D02*
X165598508Y-55082901D01*
X165598508Y-55082901D02*
X165598508Y-55216235D01*
X165598508Y-55216235D02*
X165646127Y-55282901D01*
X166217556Y-55882901D02*
X166265175Y-55816234D01*
X166265175Y-55816234D02*
X166265175Y-55682901D01*
X166265175Y-55682901D02*
X166217556Y-55616234D01*
X166217556Y-55616234D02*
X166122317Y-55582901D01*
X166122317Y-55582901D02*
X165741365Y-55582901D01*
X165741365Y-55582901D02*
X165646127Y-55616234D01*
X165646127Y-55616234D02*
X165598508Y-55682901D01*
X165598508Y-55682901D02*
X165598508Y-55816234D01*
X165598508Y-55816234D02*
X165646127Y-55882901D01*
X165646127Y-55882901D02*
X165741365Y-55916234D01*
X165741365Y-55916234D02*
X165836603Y-55916234D01*
X165836603Y-55916234D02*
X165931841Y-55582901D01*
X165598508Y-56216234D02*
X166265175Y-56216234D01*
X165693746Y-56216234D02*
X165646127Y-56249568D01*
X165646127Y-56249568D02*
X165598508Y-56316234D01*
X165598508Y-56316234D02*
X165598508Y-56416234D01*
X165598508Y-56416234D02*
X165646127Y-56482901D01*
X165646127Y-56482901D02*
X165741365Y-56516234D01*
X165741365Y-56516234D02*
X166265175Y-56516234D01*
X166217556Y-57149567D02*
X166265175Y-57082901D01*
X166265175Y-57082901D02*
X166265175Y-56949567D01*
X166265175Y-56949567D02*
X166217556Y-56882901D01*
X166217556Y-56882901D02*
X166169936Y-56849567D01*
X166169936Y-56849567D02*
X166074698Y-56816234D01*
X166074698Y-56816234D02*
X165788984Y-56816234D01*
X165788984Y-56816234D02*
X165693746Y-56849567D01*
X165693746Y-56849567D02*
X165646127Y-56882901D01*
X165646127Y-56882901D02*
X165598508Y-56949567D01*
X165598508Y-56949567D02*
X165598508Y-57082901D01*
X165598508Y-57082901D02*
X165646127Y-57149567D01*
X165598508Y-57382901D02*
X166265175Y-57549567D01*
X165598508Y-57716234D02*
X166265175Y-57549567D01*
X166265175Y-57549567D02*
X166503270Y-57482901D01*
X166503270Y-57482901D02*
X166550889Y-57449567D01*
X166550889Y-57449567D02*
X166598508Y-57382901D01*
X167875119Y-52716236D02*
X167875119Y-52382902D01*
X167875119Y-52382902D02*
X166875119Y-52382902D01*
X167827500Y-53216236D02*
X167875119Y-53149569D01*
X167875119Y-53149569D02*
X167875119Y-53016236D01*
X167875119Y-53016236D02*
X167827500Y-52949569D01*
X167827500Y-52949569D02*
X167732261Y-52916236D01*
X167732261Y-52916236D02*
X167351309Y-52916236D01*
X167351309Y-52916236D02*
X167256071Y-52949569D01*
X167256071Y-52949569D02*
X167208452Y-53016236D01*
X167208452Y-53016236D02*
X167208452Y-53149569D01*
X167208452Y-53149569D02*
X167256071Y-53216236D01*
X167256071Y-53216236D02*
X167351309Y-53249569D01*
X167351309Y-53249569D02*
X167446547Y-53249569D01*
X167446547Y-53249569D02*
X167541785Y-52916236D01*
X167875119Y-53849569D02*
X166875119Y-53849569D01*
X167827500Y-53849569D02*
X167875119Y-53782903D01*
X167875119Y-53782903D02*
X167875119Y-53649569D01*
X167875119Y-53649569D02*
X167827500Y-53582903D01*
X167827500Y-53582903D02*
X167779880Y-53549569D01*
X167779880Y-53549569D02*
X167684642Y-53516236D01*
X167684642Y-53516236D02*
X167398928Y-53516236D01*
X167398928Y-53516236D02*
X167303690Y-53549569D01*
X167303690Y-53549569D02*
X167256071Y-53582903D01*
X167256071Y-53582903D02*
X167208452Y-53649569D01*
X167208452Y-53649569D02*
X167208452Y-53782903D01*
X167208452Y-53782903D02*
X167256071Y-53849569D01*
X223357287Y-68769119D02*
X223357287Y-67769119D01*
X223357287Y-68245309D02*
X222900144Y-68245309D01*
X222900144Y-68769119D02*
X222900144Y-67769119D01*
X222176335Y-68769119D02*
X222176335Y-68245309D01*
X222176335Y-68245309D02*
X222214430Y-68150071D01*
X222214430Y-68150071D02*
X222290621Y-68102452D01*
X222290621Y-68102452D02*
X222443002Y-68102452D01*
X222443002Y-68102452D02*
X222519192Y-68150071D01*
X222176335Y-68721500D02*
X222252526Y-68769119D01*
X222252526Y-68769119D02*
X222443002Y-68769119D01*
X222443002Y-68769119D02*
X222519192Y-68721500D01*
X222519192Y-68721500D02*
X222557288Y-68626261D01*
X222557288Y-68626261D02*
X222557288Y-68531023D01*
X222557288Y-68531023D02*
X222519192Y-68435785D01*
X222519192Y-68435785D02*
X222443002Y-68388166D01*
X222443002Y-68388166D02*
X222252526Y-68388166D01*
X222252526Y-68388166D02*
X222176335Y-68340547D01*
X221795382Y-68102452D02*
X221795382Y-68769119D01*
X221795382Y-68197690D02*
X221757287Y-68150071D01*
X221757287Y-68150071D02*
X221681097Y-68102452D01*
X221681097Y-68102452D02*
X221566811Y-68102452D01*
X221566811Y-68102452D02*
X221490620Y-68150071D01*
X221490620Y-68150071D02*
X221452525Y-68245309D01*
X221452525Y-68245309D02*
X221452525Y-68769119D01*
X220728715Y-68769119D02*
X220728715Y-67769119D01*
X220728715Y-68721500D02*
X220804906Y-68769119D01*
X220804906Y-68769119D02*
X220957287Y-68769119D01*
X220957287Y-68769119D02*
X221033477Y-68721500D01*
X221033477Y-68721500D02*
X221071572Y-68673880D01*
X221071572Y-68673880D02*
X221109668Y-68578642D01*
X221109668Y-68578642D02*
X221109668Y-68292928D01*
X221109668Y-68292928D02*
X221071572Y-68197690D01*
X221071572Y-68197690D02*
X221033477Y-68150071D01*
X221033477Y-68150071D02*
X220957287Y-68102452D01*
X220957287Y-68102452D02*
X220804906Y-68102452D01*
X220804906Y-68102452D02*
X220728715Y-68150071D01*
X220385858Y-68721500D02*
X220309667Y-68769119D01*
X220309667Y-68769119D02*
X220157286Y-68769119D01*
X220157286Y-68769119D02*
X220081096Y-68721500D01*
X220081096Y-68721500D02*
X220043000Y-68626261D01*
X220043000Y-68626261D02*
X220043000Y-68578642D01*
X220043000Y-68578642D02*
X220081096Y-68483404D01*
X220081096Y-68483404D02*
X220157286Y-68435785D01*
X220157286Y-68435785D02*
X220271572Y-68435785D01*
X220271572Y-68435785D02*
X220347762Y-68388166D01*
X220347762Y-68388166D02*
X220385858Y-68292928D01*
X220385858Y-68292928D02*
X220385858Y-68245309D01*
X220385858Y-68245309D02*
X220347762Y-68150071D01*
X220347762Y-68150071D02*
X220271572Y-68102452D01*
X220271572Y-68102452D02*
X220157286Y-68102452D01*
X220157286Y-68102452D02*
X220081096Y-68150071D01*
X219395381Y-68721500D02*
X219471572Y-68769119D01*
X219471572Y-68769119D02*
X219623953Y-68769119D01*
X219623953Y-68769119D02*
X219700143Y-68721500D01*
X219700143Y-68721500D02*
X219738239Y-68626261D01*
X219738239Y-68626261D02*
X219738239Y-68245309D01*
X219738239Y-68245309D02*
X219700143Y-68150071D01*
X219700143Y-68150071D02*
X219623953Y-68102452D01*
X219623953Y-68102452D02*
X219471572Y-68102452D01*
X219471572Y-68102452D02*
X219395381Y-68150071D01*
X219395381Y-68150071D02*
X219357286Y-68245309D01*
X219357286Y-68245309D02*
X219357286Y-68340547D01*
X219357286Y-68340547D02*
X219738239Y-68435785D01*
X219128715Y-68102452D02*
X218823953Y-68102452D01*
X219014429Y-67769119D02*
X219014429Y-68626261D01*
X219014429Y-68626261D02*
X218976334Y-68721500D01*
X218976334Y-68721500D02*
X218900144Y-68769119D01*
X218900144Y-68769119D02*
X218823953Y-68769119D01*
X217947762Y-68769119D02*
X217947762Y-67769119D01*
X217947762Y-67769119D02*
X217681096Y-68483404D01*
X217681096Y-68483404D02*
X217414429Y-67769119D01*
X217414429Y-67769119D02*
X217414429Y-68769119D01*
X216919191Y-68769119D02*
X216995381Y-68721500D01*
X216995381Y-68721500D02*
X217033476Y-68673880D01*
X217033476Y-68673880D02*
X217071572Y-68578642D01*
X217071572Y-68578642D02*
X217071572Y-68292928D01*
X217071572Y-68292928D02*
X217033476Y-68197690D01*
X217033476Y-68197690D02*
X216995381Y-68150071D01*
X216995381Y-68150071D02*
X216919191Y-68102452D01*
X216919191Y-68102452D02*
X216804905Y-68102452D01*
X216804905Y-68102452D02*
X216728714Y-68150071D01*
X216728714Y-68150071D02*
X216690619Y-68197690D01*
X216690619Y-68197690D02*
X216652524Y-68292928D01*
X216652524Y-68292928D02*
X216652524Y-68578642D01*
X216652524Y-68578642D02*
X216690619Y-68673880D01*
X216690619Y-68673880D02*
X216728714Y-68721500D01*
X216728714Y-68721500D02*
X216804905Y-68769119D01*
X216804905Y-68769119D02*
X216919191Y-68769119D01*
X215966809Y-68769119D02*
X215966809Y-67769119D01*
X215966809Y-68721500D02*
X216043000Y-68769119D01*
X216043000Y-68769119D02*
X216195381Y-68769119D01*
X216195381Y-68769119D02*
X216271571Y-68721500D01*
X216271571Y-68721500D02*
X216309666Y-68673880D01*
X216309666Y-68673880D02*
X216347762Y-68578642D01*
X216347762Y-68578642D02*
X216347762Y-68292928D01*
X216347762Y-68292928D02*
X216309666Y-68197690D01*
X216309666Y-68197690D02*
X216271571Y-68150071D01*
X216271571Y-68150071D02*
X216195381Y-68102452D01*
X216195381Y-68102452D02*
X216043000Y-68102452D01*
X216043000Y-68102452D02*
X215966809Y-68150071D01*
X215281094Y-68721500D02*
X215357285Y-68769119D01*
X215357285Y-68769119D02*
X215509666Y-68769119D01*
X215509666Y-68769119D02*
X215585856Y-68721500D01*
X215585856Y-68721500D02*
X215623952Y-68626261D01*
X215623952Y-68626261D02*
X215623952Y-68245309D01*
X215623952Y-68245309D02*
X215585856Y-68150071D01*
X215585856Y-68150071D02*
X215509666Y-68102452D01*
X215509666Y-68102452D02*
X215357285Y-68102452D01*
X215357285Y-68102452D02*
X215281094Y-68150071D01*
X215281094Y-68150071D02*
X215242999Y-68245309D01*
X215242999Y-68245309D02*
X215242999Y-68340547D01*
X215242999Y-68340547D02*
X215623952Y-68435785D01*
D11*
X173670190Y-38600819D02*
X173479714Y-38600819D01*
X173479714Y-38600819D02*
X173384476Y-38648438D01*
X173384476Y-38648438D02*
X173289238Y-38743676D01*
X173289238Y-38743676D02*
X173241619Y-38934152D01*
X173241619Y-38934152D02*
X173241619Y-39267485D01*
X173241619Y-39267485D02*
X173289238Y-39457961D01*
X173289238Y-39457961D02*
X173384476Y-39553200D01*
X173384476Y-39553200D02*
X173479714Y-39600819D01*
X173479714Y-39600819D02*
X173670190Y-39600819D01*
X173670190Y-39600819D02*
X173765428Y-39553200D01*
X173765428Y-39553200D02*
X173860666Y-39457961D01*
X173860666Y-39457961D02*
X173908285Y-39267485D01*
X173908285Y-39267485D02*
X173908285Y-38934152D01*
X173908285Y-38934152D02*
X173860666Y-38743676D01*
X173860666Y-38743676D02*
X173765428Y-38648438D01*
X173765428Y-38648438D02*
X173670190Y-38600819D01*
X172813047Y-38600819D02*
X172813047Y-39410342D01*
X172813047Y-39410342D02*
X172765428Y-39505580D01*
X172765428Y-39505580D02*
X172717809Y-39553200D01*
X172717809Y-39553200D02*
X172622571Y-39600819D01*
X172622571Y-39600819D02*
X172432095Y-39600819D01*
X172432095Y-39600819D02*
X172336857Y-39553200D01*
X172336857Y-39553200D02*
X172289238Y-39505580D01*
X172289238Y-39505580D02*
X172241619Y-39410342D01*
X172241619Y-39410342D02*
X172241619Y-38600819D01*
X171908285Y-38600819D02*
X171336857Y-38600819D01*
X171622571Y-39600819D02*
X171622571Y-38600819D01*
X170479714Y-39600819D02*
X171051142Y-39600819D01*
X170765428Y-39600819D02*
X170765428Y-38600819D01*
X170765428Y-38600819D02*
X170860666Y-38743676D01*
X170860666Y-38743676D02*
X170955904Y-38838914D01*
X170955904Y-38838914D02*
X171051142Y-38886533D01*
X230196819Y-67934666D02*
X230911104Y-67934666D01*
X230911104Y-67934666D02*
X231053961Y-67887047D01*
X231053961Y-67887047D02*
X231149200Y-67791809D01*
X231149200Y-67791809D02*
X231196819Y-67648952D01*
X231196819Y-67648952D02*
X231196819Y-67553714D01*
X230196819Y-68887047D02*
X230196819Y-68410857D01*
X230196819Y-68410857D02*
X230673009Y-68363238D01*
X230673009Y-68363238D02*
X230625390Y-68410857D01*
X230625390Y-68410857D02*
X230577771Y-68506095D01*
X230577771Y-68506095D02*
X230577771Y-68744190D01*
X230577771Y-68744190D02*
X230625390Y-68839428D01*
X230625390Y-68839428D02*
X230673009Y-68887047D01*
X230673009Y-68887047D02*
X230768247Y-68934666D01*
X230768247Y-68934666D02*
X231006342Y-68934666D01*
X231006342Y-68934666D02*
X231101580Y-68887047D01*
X231101580Y-68887047D02*
X231149200Y-68839428D01*
X231149200Y-68839428D02*
X231196819Y-68744190D01*
X231196819Y-68744190D02*
X231196819Y-68506095D01*
X231196819Y-68506095D02*
X231149200Y-68410857D01*
X231149200Y-68410857D02*
X231101580Y-68363238D01*
X229035333Y-67844819D02*
X229035333Y-68559104D01*
X229035333Y-68559104D02*
X229082952Y-68701961D01*
X229082952Y-68701961D02*
X229178190Y-68797200D01*
X229178190Y-68797200D02*
X229321047Y-68844819D01*
X229321047Y-68844819D02*
X229416285Y-68844819D01*
X228559142Y-68844819D02*
X228559142Y-67844819D01*
X228559142Y-67844819D02*
X228178190Y-67844819D01*
X228178190Y-67844819D02*
X228082952Y-67892438D01*
X228082952Y-67892438D02*
X228035333Y-67940057D01*
X228035333Y-67940057D02*
X227987714Y-68035295D01*
X227987714Y-68035295D02*
X227987714Y-68178152D01*
X227987714Y-68178152D02*
X228035333Y-68273390D01*
X228035333Y-68273390D02*
X228082952Y-68321009D01*
X228082952Y-68321009D02*
X228178190Y-68368628D01*
X228178190Y-68368628D02*
X228559142Y-68368628D01*
X227035333Y-68844819D02*
X227606761Y-68844819D01*
X227321047Y-68844819D02*
X227321047Y-67844819D01*
X227321047Y-67844819D02*
X227416285Y-67987676D01*
X227416285Y-67987676D02*
X227511523Y-68082914D01*
X227511523Y-68082914D02*
X227606761Y-68130533D01*
X224400580Y-78345833D02*
X224448200Y-78298214D01*
X224448200Y-78298214D02*
X224495819Y-78155357D01*
X224495819Y-78155357D02*
X224495819Y-78060119D01*
X224495819Y-78060119D02*
X224448200Y-77917262D01*
X224448200Y-77917262D02*
X224352961Y-77822024D01*
X224352961Y-77822024D02*
X224257723Y-77774405D01*
X224257723Y-77774405D02*
X224067247Y-77726786D01*
X224067247Y-77726786D02*
X223924390Y-77726786D01*
X223924390Y-77726786D02*
X223733914Y-77774405D01*
X223733914Y-77774405D02*
X223638676Y-77822024D01*
X223638676Y-77822024D02*
X223543438Y-77917262D01*
X223543438Y-77917262D02*
X223495819Y-78060119D01*
X223495819Y-78060119D02*
X223495819Y-78155357D01*
X223495819Y-78155357D02*
X223543438Y-78298214D01*
X223543438Y-78298214D02*
X223591057Y-78345833D01*
X223591057Y-78726786D02*
X223543438Y-78774405D01*
X223543438Y-78774405D02*
X223495819Y-78869643D01*
X223495819Y-78869643D02*
X223495819Y-79107738D01*
X223495819Y-79107738D02*
X223543438Y-79202976D01*
X223543438Y-79202976D02*
X223591057Y-79250595D01*
X223591057Y-79250595D02*
X223686295Y-79298214D01*
X223686295Y-79298214D02*
X223781533Y-79298214D01*
X223781533Y-79298214D02*
X223924390Y-79250595D01*
X223924390Y-79250595D02*
X224495819Y-78679167D01*
X224495819Y-78679167D02*
X224495819Y-79298214D01*
X161053890Y-84138080D02*
X161101509Y-84185700D01*
X161101509Y-84185700D02*
X161244366Y-84233319D01*
X161244366Y-84233319D02*
X161339604Y-84233319D01*
X161339604Y-84233319D02*
X161482461Y-84185700D01*
X161482461Y-84185700D02*
X161577699Y-84090461D01*
X161577699Y-84090461D02*
X161625318Y-83995223D01*
X161625318Y-83995223D02*
X161672937Y-83804747D01*
X161672937Y-83804747D02*
X161672937Y-83661890D01*
X161672937Y-83661890D02*
X161625318Y-83471414D01*
X161625318Y-83471414D02*
X161577699Y-83376176D01*
X161577699Y-83376176D02*
X161482461Y-83280938D01*
X161482461Y-83280938D02*
X161339604Y-83233319D01*
X161339604Y-83233319D02*
X161244366Y-83233319D01*
X161244366Y-83233319D02*
X161101509Y-83280938D01*
X161101509Y-83280938D02*
X161053890Y-83328557D01*
X160720556Y-83233319D02*
X160101509Y-83233319D01*
X160101509Y-83233319D02*
X160434842Y-83614271D01*
X160434842Y-83614271D02*
X160291985Y-83614271D01*
X160291985Y-83614271D02*
X160196747Y-83661890D01*
X160196747Y-83661890D02*
X160149128Y-83709509D01*
X160149128Y-83709509D02*
X160101509Y-83804747D01*
X160101509Y-83804747D02*
X160101509Y-84042842D01*
X160101509Y-84042842D02*
X160149128Y-84138080D01*
X160149128Y-84138080D02*
X160196747Y-84185700D01*
X160196747Y-84185700D02*
X160291985Y-84233319D01*
X160291985Y-84233319D02*
X160577699Y-84233319D01*
X160577699Y-84233319D02*
X160672937Y-84185700D01*
X160672937Y-84185700D02*
X160720556Y-84138080D01*
X160189009Y-88582166D02*
X160189009Y-88248833D01*
X160712819Y-88248833D02*
X159712819Y-88248833D01*
X159712819Y-88248833D02*
X159712819Y-88725023D01*
X160712819Y-89629785D02*
X160712819Y-89058357D01*
X160712819Y-89344071D02*
X159712819Y-89344071D01*
X159712819Y-89344071D02*
X159855676Y-89248833D01*
X159855676Y-89248833D02*
X159950914Y-89153595D01*
X159950914Y-89153595D02*
X159998533Y-89058357D01*
X170074819Y-47472666D02*
X170789104Y-47472666D01*
X170789104Y-47472666D02*
X170931961Y-47425047D01*
X170931961Y-47425047D02*
X171027200Y-47329809D01*
X171027200Y-47329809D02*
X171074819Y-47186952D01*
X171074819Y-47186952D02*
X171074819Y-47091714D01*
X171074819Y-47948857D02*
X170074819Y-47948857D01*
X170074819Y-47948857D02*
X170074819Y-48329809D01*
X170074819Y-48329809D02*
X170122438Y-48425047D01*
X170122438Y-48425047D02*
X170170057Y-48472666D01*
X170170057Y-48472666D02*
X170265295Y-48520285D01*
X170265295Y-48520285D02*
X170408152Y-48520285D01*
X170408152Y-48520285D02*
X170503390Y-48472666D01*
X170503390Y-48472666D02*
X170551009Y-48425047D01*
X170551009Y-48425047D02*
X170598628Y-48329809D01*
X170598628Y-48329809D02*
X170598628Y-47948857D01*
X170170057Y-48901238D02*
X170122438Y-48948857D01*
X170122438Y-48948857D02*
X170074819Y-49044095D01*
X170074819Y-49044095D02*
X170074819Y-49282190D01*
X170074819Y-49282190D02*
X170122438Y-49377428D01*
X170122438Y-49377428D02*
X170170057Y-49425047D01*
X170170057Y-49425047D02*
X170265295Y-49472666D01*
X170265295Y-49472666D02*
X170360533Y-49472666D01*
X170360533Y-49472666D02*
X170503390Y-49425047D01*
X170503390Y-49425047D02*
X171074819Y-48853619D01*
X171074819Y-48853619D02*
X171074819Y-49472666D01*
X220074833Y-80288009D02*
X220408166Y-80288009D01*
X220408166Y-80811819D02*
X220408166Y-79811819D01*
X220408166Y-79811819D02*
X219931976Y-79811819D01*
X219598642Y-79907057D02*
X219551023Y-79859438D01*
X219551023Y-79859438D02*
X219455785Y-79811819D01*
X219455785Y-79811819D02*
X219217690Y-79811819D01*
X219217690Y-79811819D02*
X219122452Y-79859438D01*
X219122452Y-79859438D02*
X219074833Y-79907057D01*
X219074833Y-79907057D02*
X219027214Y-80002295D01*
X219027214Y-80002295D02*
X219027214Y-80097533D01*
X219027214Y-80097533D02*
X219074833Y-80240390D01*
X219074833Y-80240390D02*
X219646261Y-80811819D01*
X219646261Y-80811819D02*
X219027214Y-80811819D01*
X161870819Y-55872666D02*
X162585104Y-55872666D01*
X162585104Y-55872666D02*
X162727961Y-55825047D01*
X162727961Y-55825047D02*
X162823200Y-55729809D01*
X162823200Y-55729809D02*
X162870819Y-55586952D01*
X162870819Y-55586952D02*
X162870819Y-55491714D01*
X162870819Y-56348857D02*
X161870819Y-56348857D01*
X161870819Y-56348857D02*
X161870819Y-56729809D01*
X161870819Y-56729809D02*
X161918438Y-56825047D01*
X161918438Y-56825047D02*
X161966057Y-56872666D01*
X161966057Y-56872666D02*
X162061295Y-56920285D01*
X162061295Y-56920285D02*
X162204152Y-56920285D01*
X162204152Y-56920285D02*
X162299390Y-56872666D01*
X162299390Y-56872666D02*
X162347009Y-56825047D01*
X162347009Y-56825047D02*
X162394628Y-56729809D01*
X162394628Y-56729809D02*
X162394628Y-56348857D01*
X162204152Y-57777428D02*
X162870819Y-57777428D01*
X161823200Y-57539333D02*
X162537485Y-57301238D01*
X162537485Y-57301238D02*
X162537485Y-57920285D01*
X229289333Y-63780819D02*
X229289333Y-64495104D01*
X229289333Y-64495104D02*
X229336952Y-64637961D01*
X229336952Y-64637961D02*
X229432190Y-64733200D01*
X229432190Y-64733200D02*
X229575047Y-64780819D01*
X229575047Y-64780819D02*
X229670285Y-64780819D01*
X228813142Y-64780819D02*
X228813142Y-63780819D01*
X228813142Y-63780819D02*
X228432190Y-63780819D01*
X228432190Y-63780819D02*
X228336952Y-63828438D01*
X228336952Y-63828438D02*
X228289333Y-63876057D01*
X228289333Y-63876057D02*
X228241714Y-63971295D01*
X228241714Y-63971295D02*
X228241714Y-64114152D01*
X228241714Y-64114152D02*
X228289333Y-64209390D01*
X228289333Y-64209390D02*
X228336952Y-64257009D01*
X228336952Y-64257009D02*
X228432190Y-64304628D01*
X228432190Y-64304628D02*
X228813142Y-64304628D01*
X227908380Y-63780819D02*
X227289333Y-63780819D01*
X227289333Y-63780819D02*
X227622666Y-64161771D01*
X227622666Y-64161771D02*
X227479809Y-64161771D01*
X227479809Y-64161771D02*
X227384571Y-64209390D01*
X227384571Y-64209390D02*
X227336952Y-64257009D01*
X227336952Y-64257009D02*
X227289333Y-64352247D01*
X227289333Y-64352247D02*
X227289333Y-64590342D01*
X227289333Y-64590342D02*
X227336952Y-64685580D01*
X227336952Y-64685580D02*
X227384571Y-64733200D01*
X227384571Y-64733200D02*
X227479809Y-64780819D01*
X227479809Y-64780819D02*
X227765523Y-64780819D01*
X227765523Y-64780819D02*
X227860761Y-64733200D01*
X227860761Y-64733200D02*
X227908380Y-64685580D01*
D12*
%TO.C,C1*%
X160871736Y-85691003D02*
X161164270Y-85691003D01*
X160871736Y-86711003D02*
X161164270Y-86711003D01*
%TO.C,JP1*%
X224061000Y-68563000D02*
X224061000Y-67963000D01*
X224761000Y-67263000D02*
X226161000Y-67263000D01*
X226161000Y-69263000D02*
X224761000Y-69263000D01*
X226861000Y-67963000D02*
X226861000Y-68563000D01*
X224061000Y-67963000D02*
G75*
G02*
X224761000Y-67263000I699999J1D01*
G01*
X224761000Y-69263000D02*
G75*
G02*
X224061000Y-68563000I-1J699999D01*
G01*
X226161000Y-67263000D02*
G75*
G02*
X226861000Y-67963000I0J-700000D01*
G01*
X226861000Y-68563000D02*
G75*
G02*
X226161000Y-69263000I-700000J0D01*
G01*
%TO.C,C2*%
X222231000Y-79558767D02*
X222231000Y-79266233D01*
X223251000Y-79558767D02*
X223251000Y-79266233D01*
%TO.C,C3*%
X160711233Y-81746000D02*
X161003767Y-81746000D01*
X160711233Y-82766000D02*
X161003767Y-82766000D01*
%TO.C,F1*%
X161198000Y-89174078D02*
X161198000Y-88656922D01*
X162618000Y-89174078D02*
X162618000Y-88656922D01*
%TO.C,JP2*%
X171420000Y-49006000D02*
X171420000Y-47606000D01*
X172120000Y-46906000D02*
X172720000Y-46906000D01*
X172720000Y-49706000D02*
X172120000Y-49706000D01*
X173420000Y-47606000D02*
X173420000Y-49006000D01*
X171420000Y-47606000D02*
G75*
G02*
X172120000Y-46906000I699999J1D01*
G01*
X172120000Y-49706000D02*
G75*
G02*
X171420000Y-49006000I0J700000D01*
G01*
X172720000Y-46906000D02*
G75*
G02*
X173420000Y-47606000I1J-699999D01*
G01*
X173420000Y-49006000D02*
G75*
G02*
X172720000Y-49706000I-700000J0D01*
G01*
%TO.C,F2*%
X219482922Y-77840000D02*
X220000078Y-77840000D01*
X219482922Y-79260000D02*
X220000078Y-79260000D01*
%TO.C,JP4*%
X161289000Y-54627000D02*
X161289000Y-53227000D01*
X161989000Y-52527000D02*
X162589000Y-52527000D01*
X162589000Y-55327000D02*
X161989000Y-55327000D01*
X163289000Y-53227000D02*
X163289000Y-54627000D01*
X161289000Y-53227000D02*
G75*
G02*
X161989000Y-52527000I699999J1D01*
G01*
X161989000Y-55327000D02*
G75*
G02*
X161289000Y-54627000I0J700000D01*
G01*
X162589000Y-52527000D02*
G75*
G02*
X163289000Y-53227000I1J-699999D01*
G01*
X163289000Y-54627000D02*
G75*
G02*
X162589000Y-55327000I-700000J0D01*
G01*
%TO.C,JP3*%
X223993000Y-64626000D02*
X223993000Y-64026000D01*
X224693000Y-63326000D02*
X226093000Y-63326000D01*
X226093000Y-65326000D02*
X224693000Y-65326000D01*
X226793000Y-64026000D02*
X226793000Y-64626000D01*
X223993000Y-64026000D02*
G75*
G02*
X224693000Y-63326000I700000J0D01*
G01*
X224693000Y-65326000D02*
G75*
G02*
X223993000Y-64626000I0J700000D01*
G01*
X226093000Y-63326000D02*
G75*
G02*
X226793000Y-64026000I1J-699999D01*
G01*
X226793000Y-64626000D02*
G75*
G02*
X226093000Y-65326000I-699999J-1D01*
G01*
%TD*%
%LPC*%
D13*
%TO.C,OUT1*%
X170544000Y-41456000D03*
D14*
X173044000Y-41456000D03*
%TD*%
D15*
%TO.C,J2*%
X164448000Y-92774000D03*
D16*
X161908000Y-92774000D03*
%TD*%
D17*
%TO.C,Em2*%
X155420000Y-59293000D03*
D18*
X155420000Y-56793000D03*
%TD*%
D19*
%TO.C,Vcc*%
X166480000Y-85916000D03*
%TD*%
D20*
%TO.C,U6*%
X222823000Y-54029000D03*
D21*
X225363000Y-54029000D03*
X225363000Y-46409000D03*
X222823000Y-46409000D03*
%TD*%
D22*
%TO.C,J13*%
X173084000Y-92774000D03*
D14*
X170584000Y-92774000D03*
%TD*%
D13*
%TO.C,OUT1*%
X214232000Y-41593000D03*
D14*
X216732000Y-41593000D03*
%TD*%
D20*
%TO.C,U4*%
X162924000Y-58992000D03*
D21*
X165464000Y-58992000D03*
X165464000Y-51372000D03*
X162924000Y-51372000D03*
%TD*%
D19*
%TO.C,Vcc*%
X228320000Y-57956000D03*
%TD*%
D23*
%TO.C,J1*%
X200870000Y-94356000D03*
X186370000Y-94356000D03*
%TD*%
D22*
%TO.C,Em2*%
X225241000Y-92901000D03*
D14*
X222741000Y-92901000D03*
%TD*%
D20*
%TO.C,U3*%
X168639000Y-58992000D03*
D21*
X171179000Y-58992000D03*
X171179000Y-51372000D03*
X168639000Y-51372000D03*
%TD*%
D20*
%TO.C,U2*%
X175060000Y-80074000D03*
D21*
X175060000Y-77534000D03*
X175060000Y-74994000D03*
X175060000Y-72454000D03*
X175060000Y-69914000D03*
X175060000Y-67374000D03*
X175060000Y-64834000D03*
X175060000Y-62294000D03*
X175060000Y-59754000D03*
X175060000Y-57214000D03*
X175060000Y-54674000D03*
X175060000Y-52134000D03*
X175060000Y-49594000D03*
X175060000Y-47054000D03*
X159820000Y-47054000D03*
X159820000Y-49594000D03*
X159820000Y-52134000D03*
X159820000Y-54674000D03*
X159820000Y-57214000D03*
X159820000Y-59754000D03*
X159820000Y-62294000D03*
X159820000Y-64834000D03*
X159820000Y-67374000D03*
X159820000Y-69914000D03*
X159820000Y-72454000D03*
X159820000Y-74994000D03*
X159820000Y-77534000D03*
X159820000Y-80074000D03*
%TD*%
D19*
%TO.C,GND*%
X233320000Y-57956000D03*
%TD*%
D24*
%TO.C,REF\u002A\u002A*%
X155620000Y-92656000D03*
%TD*%
D22*
%TO.C,Em1*%
X216721200Y-92901000D03*
D14*
X214221200Y-92901000D03*
%TD*%
D20*
%TO.C,U5*%
X214187000Y-54029000D03*
D21*
X216727000Y-54029000D03*
X216727000Y-46409000D03*
X214187000Y-46409000D03*
%TD*%
D24*
%TO.C,REF\u002A\u002A*%
X231620000Y-92656000D03*
%TD*%
D25*
%TO.C,User*%
X155020000Y-70379666D03*
D26*
X155020000Y-67839666D03*
%TD*%
D17*
%TO.C,Em1*%
X155420000Y-50697000D03*
D18*
X155420000Y-48197000D03*
%TD*%
D19*
%TO.C,GND*%
X170925000Y-85916000D03*
%TD*%
D15*
%TO.C,J5*%
X233155000Y-73216000D03*
D16*
X233155000Y-70676000D03*
X233155000Y-68136000D03*
X233155000Y-65596000D03*
X233155000Y-63056000D03*
%TD*%
D25*
%TO.C,Power*%
X231758000Y-84392000D03*
D26*
X231758000Y-86932000D03*
%TD*%
D25*
%TO.C,Low Voltage*%
X231758000Y-77529000D03*
D26*
X231758000Y-80069000D03*
%TD*%
D27*
%TO.C,J14*%
X214867000Y-83543000D03*
D18*
X214867000Y-86043000D03*
%TD*%
D24*
%TO.C,REF\u002A\u002A*%
X231620000Y-41656000D03*
%TD*%
D25*
%TO.C,Low Voltage*%
X155020000Y-87296000D03*
D26*
X155020000Y-84756000D03*
%TD*%
D13*
%TO.C,OUT2*%
X222741000Y-41593000D03*
D14*
X225241000Y-41593000D03*
%TD*%
D25*
%TO.C,User*%
X231920000Y-48856000D03*
D26*
X231920000Y-51396000D03*
%TD*%
D13*
%TO.C,O2*%
X161994000Y-41456000D03*
D14*
X164494000Y-41456000D03*
%TD*%
D15*
%TO.C,J6*%
X213465000Y-78550000D03*
D16*
X216005000Y-78550000D03*
%TD*%
D25*
%TO.C,Power*%
X155020000Y-78846333D03*
D26*
X155020000Y-76306333D03*
%TD*%
D24*
%TO.C,REF\u002A\u002A*%
X155620000Y-41656000D03*
%TD*%
D28*
%TO.C,U1*%
X218016500Y-71455000D03*
%TD*%
D29*
%TO.C,C1*%
X161880503Y-86201003D03*
X160155503Y-86201003D03*
%TD*%
D30*
%TO.C,JP1*%
X224811000Y-68263000D03*
D31*
X226111000Y-68263000D03*
%TD*%
D32*
%TO.C,C2*%
X222741000Y-78550000D03*
X222741000Y-80275000D03*
%TD*%
D29*
%TO.C,C3*%
X161720000Y-82256000D03*
X159995000Y-82256000D03*
%TD*%
D33*
%TO.C,F1*%
X161908000Y-87978000D03*
X161908000Y-89853000D03*
%TD*%
D34*
%TO.C,JP2*%
X172420000Y-47656000D03*
D35*
X172420000Y-48956000D03*
%TD*%
D36*
%TO.C,F2*%
X220679000Y-78550000D03*
X218804000Y-78550000D03*
%TD*%
D34*
%TO.C,JP4*%
X162289000Y-53277000D03*
D35*
X162289000Y-54577000D03*
%TD*%
D37*
%TO.C,JP3*%
X226043000Y-64326000D03*
D38*
X224743000Y-64326000D03*
%TD*%
%LPD*%
M02*
