%TF.GenerationSoftware,KiCad,Pcbnew,8.0.9-8.0.9-0~ubuntu22.04.1*%
%TF.CreationDate,2025-11-06T16:29:17+09:00*%
%TF.ProjectId,TweliteEmergencyStop,5477656c-6974-4654-956d-657267656e63,rev?*%
%TF.SameCoordinates,Original*%
%TF.FileFunction,Copper,L2,Bot*%
%TF.FilePolarity,Positive*%
%FSLAX46Y46*%
G04 Gerber Fmt 4.6, Leading zero omitted, Abs format (unit mm)*
G04 Created by KiCad (PCBNEW 8.0.9-8.0.9-0~ubuntu22.04.1) date 2025-11-06 16:29:17*
%MOMM*%
%LPD*%
G01*
G04 APERTURE LIST*
G04 Aperture macros list*
%AMRoundRect*
0 Rectangle with rounded corners*
0 $1 Rounding radius*
0 $2 $3 $4 $5 $6 $7 $8 $9 X,Y pos of 4 corners*
0 Add a 4 corners polygon primitive as box body*
4,1,4,$2,$3,$4,$5,$6,$7,$8,$9,$2,$3,0*
0 Add four circle primitives for the rounded corners*
1,1,$1+$1,$2,$3*
1,1,$1+$1,$4,$5*
1,1,$1+$1,$6,$7*
1,1,$1+$1,$8,$9*
0 Add four rect primitives between the rounded corners*
20,1,$1+$1,$2,$3,$4,$5,0*
20,1,$1+$1,$4,$5,$6,$7,0*
20,1,$1+$1,$6,$7,$8,$9,0*
20,1,$1+$1,$8,$9,$2,$3,0*%
%AMFreePoly0*
4,1,19,0.500000,-0.750000,0.000000,-0.750000,0.000000,-0.744911,-0.071157,-0.744911,-0.207708,-0.704816,-0.327430,-0.627875,-0.420627,-0.520320,-0.479746,-0.390866,-0.500000,-0.250000,-0.500000,0.250000,-0.479746,0.390866,-0.420627,0.520320,-0.327430,0.627875,-0.207708,0.704816,-0.071157,0.744911,0.000000,0.744911,0.000000,0.750000,0.500000,0.750000,0.500000,-0.750000,0.500000,-0.750000,
$1*%
%AMFreePoly1*
4,1,19,0.000000,0.744911,0.071157,0.744911,0.207708,0.704816,0.327430,0.627875,0.420627,0.520320,0.479746,0.390866,0.500000,0.250000,0.500000,-0.250000,0.479746,-0.390866,0.420627,-0.520320,0.327430,-0.627875,0.207708,-0.704816,0.071157,-0.744911,0.000000,-0.744911,0.000000,-0.750000,-0.500000,-0.750000,-0.500000,0.750000,0.000000,0.750000,0.000000,0.744911,0.000000,0.744911,
$1*%
G04 Aperture macros list end*
%TA.AperFunction,ComponentPad*%
%ADD10RoundRect,0.250000X-0.600000X-0.725000X0.600000X-0.725000X0.600000X0.725000X-0.600000X0.725000X0*%
%TD*%
%TA.AperFunction,ComponentPad*%
%ADD11O,1.700000X1.950000*%
%TD*%
%TA.AperFunction,ComponentPad*%
%ADD12R,1.700000X1.700000*%
%TD*%
%TA.AperFunction,ComponentPad*%
%ADD13O,1.700000X1.700000*%
%TD*%
%TA.AperFunction,ComponentPad*%
%ADD14RoundRect,0.250000X0.725000X-0.600000X0.725000X0.600000X-0.725000X0.600000X-0.725000X-0.600000X0*%
%TD*%
%TA.AperFunction,ComponentPad*%
%ADD15O,1.950000X1.700000*%
%TD*%
%TA.AperFunction,ComponentPad*%
%ADD16C,2.000000*%
%TD*%
%TA.AperFunction,ComponentPad*%
%ADD17R,1.600000X1.600000*%
%TD*%
%TA.AperFunction,ComponentPad*%
%ADD18O,1.600000X1.600000*%
%TD*%
%TA.AperFunction,ComponentPad*%
%ADD19RoundRect,0.250000X0.600000X0.725000X-0.600000X0.725000X-0.600000X-0.725000X0.600000X-0.725000X0*%
%TD*%
%TA.AperFunction,ComponentPad*%
%ADD20C,1.700000*%
%TD*%
%TA.AperFunction,ComponentPad*%
%ADD21C,5.600000*%
%TD*%
%TA.AperFunction,ComponentPad*%
%ADD22R,1.800000X1.800000*%
%TD*%
%TA.AperFunction,ComponentPad*%
%ADD23C,1.800000*%
%TD*%
%TA.AperFunction,ComponentPad*%
%ADD24RoundRect,0.250000X-0.725000X0.600000X-0.725000X-0.600000X0.725000X-0.600000X0.725000X0.600000X0*%
%TD*%
%TA.AperFunction,SMDPad,CuDef*%
%ADD25RoundRect,0.237500X0.300000X0.237500X-0.300000X0.237500X-0.300000X-0.237500X0.300000X-0.237500X0*%
%TD*%
%TA.AperFunction,SMDPad,CuDef*%
%ADD26FreePoly0,0.000000*%
%TD*%
%TA.AperFunction,SMDPad,CuDef*%
%ADD27FreePoly1,0.000000*%
%TD*%
%TA.AperFunction,SMDPad,CuDef*%
%ADD28RoundRect,0.237500X-0.237500X0.300000X-0.237500X-0.300000X0.237500X-0.300000X0.237500X0.300000X0*%
%TD*%
%TA.AperFunction,SMDPad,CuDef*%
%ADD29RoundRect,0.243750X-0.456250X0.243750X-0.456250X-0.243750X0.456250X-0.243750X0.456250X0.243750X0*%
%TD*%
%TA.AperFunction,SMDPad,CuDef*%
%ADD30FreePoly0,270.000000*%
%TD*%
%TA.AperFunction,SMDPad,CuDef*%
%ADD31FreePoly1,270.000000*%
%TD*%
%TA.AperFunction,SMDPad,CuDef*%
%ADD32RoundRect,0.243750X0.243750X0.456250X-0.243750X0.456250X-0.243750X-0.456250X0.243750X-0.456250X0*%
%TD*%
%TA.AperFunction,SMDPad,CuDef*%
%ADD33FreePoly0,180.000000*%
%TD*%
%TA.AperFunction,SMDPad,CuDef*%
%ADD34FreePoly1,180.000000*%
%TD*%
%TA.AperFunction,ViaPad*%
%ADD35C,0.600000*%
%TD*%
%TA.AperFunction,Conductor*%
%ADD36C,0.500000*%
%TD*%
%TA.AperFunction,Conductor*%
%ADD37C,0.200000*%
%TD*%
%TA.AperFunction,Conductor*%
%ADD38C,0.300000*%
%TD*%
%TA.AperFunction,Conductor*%
%ADD39C,0.800000*%
%TD*%
G04 APERTURE END LIST*
D10*
%TO.P,OUT1,1,Pin_1*%
%TO.N,Net-(J11-Pin_1)*%
X170544000Y-41456000D03*
D11*
%TO.P,OUT1,2,Pin_2*%
%TO.N,Net-(J11-Pin_2)*%
X173044000Y-41456000D03*
%TD*%
D12*
%TO.P,J2,1,Pin_1*%
%TO.N,/pwr*%
X164448000Y-92774000D03*
D13*
%TO.P,J2,2,Pin_2*%
%TO.N,Net-(J2-Pin_2)*%
X161908000Y-92774000D03*
%TD*%
D14*
%TO.P,Em2,1,Pin_1*%
%TO.N,/DI2_1*%
X155420000Y-59293000D03*
D15*
%TO.P,Em2,2,Pin_2*%
%TO.N,GND*%
X155420000Y-56793000D03*
%TD*%
D16*
%TO.P,Vcc,1,1*%
%TO.N,VCC*%
X166480000Y-85916000D03*
%TD*%
D17*
%TO.P,U6,1*%
%TO.N,Net-(R6-Pad1)*%
X222823000Y-54029000D03*
D18*
%TO.P,U6,2*%
%TO.N,/DO2_2*%
X225363000Y-54029000D03*
%TO.P,U6,3*%
%TO.N,Net-(J10-Pin_1)*%
X225363000Y-46409000D03*
%TO.P,U6,4*%
%TO.N,Net-(J10-Pin_2)*%
X222823000Y-46409000D03*
%TD*%
D19*
%TO.P,J13,1,Pin_1*%
%TO.N,GND*%
X173084000Y-92774000D03*
D11*
%TO.P,J13,2,Pin_2*%
%TO.N,/pwr*%
X170584000Y-92774000D03*
%TD*%
D10*
%TO.P,OUT1,1,Pin_1*%
%TO.N,Net-(J9-Pin_1)*%
X214232000Y-41593000D03*
D11*
%TO.P,OUT1,2,Pin_2*%
%TO.N,Net-(J9-Pin_2)*%
X216732000Y-41593000D03*
%TD*%
D17*
%TO.P,U4,1*%
%TO.N,Net-(R4-Pad1)*%
X162924000Y-58992000D03*
D18*
%TO.P,U4,2*%
%TO.N,/DO2_1*%
X165464000Y-58992000D03*
%TO.P,U4,3*%
%TO.N,Net-(J12-Pin_1)*%
X165464000Y-51372000D03*
%TO.P,U4,4*%
%TO.N,Net-(J12-Pin_2)*%
X162924000Y-51372000D03*
%TD*%
D16*
%TO.P,Vcc,1,1*%
%TO.N,VCC*%
X228320000Y-57956000D03*
%TD*%
D20*
%TO.P,J1,1,Pin_1*%
%TO.N,GND*%
X200870000Y-94356000D03*
%TO.P,J1,2,Pin_2*%
%TO.N,/pwr*%
X186370000Y-94356000D03*
%TD*%
D19*
%TO.P,Em2,1,Pin_1*%
%TO.N,/DI1_2*%
X225241000Y-92901000D03*
D11*
%TO.P,Em2,2,Pin_2*%
%TO.N,GND*%
X222741000Y-92901000D03*
%TD*%
D17*
%TO.P,U3,1*%
%TO.N,Net-(R3-Pad1)*%
X168639000Y-58992000D03*
D18*
%TO.P,U3,2*%
%TO.N,/DO1_1*%
X171179000Y-58992000D03*
%TO.P,U3,3*%
%TO.N,Net-(J11-Pin_1)*%
X171179000Y-51372000D03*
%TO.P,U3,4*%
%TO.N,Net-(J11-Pin_2)*%
X168639000Y-51372000D03*
%TD*%
D17*
%TO.P,U2,1,GND*%
%TO.N,GND*%
X175060000Y-80074000D03*
D18*
%TO.P,U2,2,DIO14/SCL*%
%TO.N,unconnected-(U2-DIO14{slash}SCL-Pad2)*%
X175060000Y-77534000D03*
%TO.P,U2,3,DIO7/RX*%
%TO.N,unconnected-(U2-DIO7{slash}RX-Pad3)*%
X175060000Y-74994000D03*
%TO.P,U2,4,DIO5/PWM1*%
%TO.N,unconnected-(U2-DIO5{slash}PWM1-Pad4)*%
X175060000Y-72454000D03*
%TO.P,U2,5,DIO18/DO1*%
%TO.N,/DO1_1*%
X175060000Y-69914000D03*
%TO.P,U2,6,DO0/PWM2*%
%TO.N,unconnected-(U2-DO0{slash}PWM2-Pad6)*%
X175060000Y-67374000D03*
%TO.P,U2,7,DO1/PWM3*%
%TO.N,unconnected-(U2-DO1{slash}PWM3-Pad7)*%
X175060000Y-64834000D03*
%TO.P,U2,8,DIO19/DO2*%
%TO.N,/DO2_1*%
X175060000Y-62294000D03*
%TO.P,U2,9,DIO4/DO3*%
%TO.N,unconnected-(U2-DIO4{slash}DO3-Pad9)*%
X175060000Y-59754000D03*
%TO.P,U2,10,DIO6/TX*%
%TO.N,unconnected-(U2-DIO6{slash}TX-Pad10)*%
X175060000Y-57214000D03*
%TO.P,U2,11,DIO8/PWM4*%
%TO.N,unconnected-(U2-DIO8{slash}PWM4-Pad11)*%
X175060000Y-54674000D03*
%TO.P,U2,12,DIO9/DO4*%
%TO.N,Net-(D2-K)*%
X175060000Y-52134000D03*
%TO.P,U2,13,DIO10/M1*%
%TO.N,Net-(JP2-B)*%
X175060000Y-49594000D03*
%TO.P,U2,14,GND*%
%TO.N,GND*%
X175060000Y-47054000D03*
%TO.P,U2,15,DIO12/DI1*%
%TO.N,/DI1_1*%
X159820000Y-47054000D03*
%TO.P,U2,16,DIO13/DI2*%
%TO.N,/DI2_1*%
X159820000Y-49594000D03*
%TO.P,U2,17,DIO11/DI3*%
%TO.N,unconnected-(U2-DIO11{slash}DI3-Pad17)*%
X159820000Y-52134000D03*
%TO.P,U2,18,DIO16/DI4*%
%TO.N,Net-(JP4-B)*%
X159820000Y-54674000D03*
%TO.P,U2,19,DIO15/SDA*%
%TO.N,unconnected-(U2-DIO15{slash}SDA-Pad19)*%
X159820000Y-57214000D03*
%TO.P,U2,20,DIO17/BPS*%
%TO.N,unconnected-(U2-DIO17{slash}BPS-Pad20)*%
X159820000Y-59754000D03*
%TO.P,U2,21,~{RESET}*%
%TO.N,unconnected-(U2-~{RESET}-Pad21)*%
X159820000Y-62294000D03*
%TO.P,U2,22,ADC1/AI1*%
%TO.N,VCC*%
X159820000Y-64834000D03*
%TO.P,U2,23,DIO0/AI2*%
X159820000Y-67374000D03*
%TO.P,U2,24,ADC2/AI3*%
X159820000Y-69914000D03*
%TO.P,U2,25,DIO1/AI4*%
X159820000Y-72454000D03*
%TO.P,U2,26,DIO2/M2*%
%TO.N,unconnected-(U2-DIO2{slash}M2-Pad26)*%
X159820000Y-74994000D03*
%TO.P,U2,27,DIO3/M3*%
%TO.N,unconnected-(U2-DIO3{slash}M3-Pad27)*%
X159820000Y-77534000D03*
%TO.P,U2,28,VCC*%
%TO.N,VCC*%
X159820000Y-80074000D03*
%TD*%
D16*
%TO.P,GND,1,1*%
%TO.N,GND*%
X233320000Y-57956000D03*
%TD*%
D21*
%TO.P,REF\u002A\u002A,1*%
%TO.N,N/C*%
X155620000Y-92656000D03*
%TD*%
D19*
%TO.P,Em1,1,Pin_1*%
%TO.N,/DI2_2*%
X216721200Y-92901000D03*
D11*
%TO.P,Em1,2,Pin_2*%
%TO.N,GND*%
X214221200Y-92901000D03*
%TD*%
D17*
%TO.P,U5,1*%
%TO.N,Net-(R5-Pad1)*%
X214187000Y-54029000D03*
D18*
%TO.P,U5,2*%
%TO.N,/DO1_2*%
X216727000Y-54029000D03*
%TO.P,U5,3*%
%TO.N,Net-(J9-Pin_1)*%
X216727000Y-46409000D03*
%TO.P,U5,4*%
%TO.N,Net-(J9-Pin_2)*%
X214187000Y-46409000D03*
%TD*%
D21*
%TO.P,REF\u002A\u002A,1*%
%TO.N,N/C*%
X231620000Y-92656000D03*
%TD*%
D22*
%TO.P,User,1,K*%
%TO.N,Net-(D2-K)*%
X155020000Y-70379666D03*
D23*
%TO.P,User,2,A*%
%TO.N,Net-(D2-A)*%
X155020000Y-67839666D03*
%TD*%
D14*
%TO.P,Em1,1,Pin_1*%
%TO.N,/DI1_1*%
X155420000Y-50697000D03*
D15*
%TO.P,Em1,2,Pin_2*%
%TO.N,GND*%
X155420000Y-48197000D03*
%TD*%
D16*
%TO.P,GND,1,1*%
%TO.N,GND*%
X170925000Y-85916000D03*
%TD*%
D12*
%TO.P,J5,1,Pin_1*%
%TO.N,GND*%
X233155000Y-73216000D03*
D13*
%TO.P,J5,2,Pin_2*%
%TO.N,/TX2*%
X233155000Y-70676000D03*
%TO.P,J5,3,Pin_3*%
%TO.N,/PRG2*%
X233155000Y-68136000D03*
%TO.P,J5,4,Pin_4*%
%TO.N,/RX2*%
X233155000Y-65596000D03*
%TO.P,J5,5,Pin_5*%
%TO.N,/RST2*%
X233155000Y-63056000D03*
%TD*%
D22*
%TO.P,Power,1,K*%
%TO.N,GND*%
X231758000Y-84392000D03*
D23*
%TO.P,Power,2,A*%
%TO.N,Net-(D3-A)*%
X231758000Y-86932000D03*
%TD*%
D22*
%TO.P,Low Voltage,1,K*%
%TO.N,Net-(D6-K)*%
X231758000Y-77529000D03*
D23*
%TO.P,Low Voltage,2,A*%
%TO.N,Net-(D6-A)*%
X231758000Y-80069000D03*
%TD*%
D24*
%TO.P,J14,1,Pin_1*%
%TO.N,GND*%
X214867000Y-83543000D03*
D15*
%TO.P,J14,2,Pin_2*%
%TO.N,/pwr*%
X214867000Y-86043000D03*
%TD*%
D21*
%TO.P,REF\u002A\u002A,1*%
%TO.N,N/C*%
X231620000Y-41656000D03*
%TD*%
D22*
%TO.P,Low Voltage,1,K*%
%TO.N,Net-(D5-K)*%
X155020000Y-87296000D03*
D23*
%TO.P,Low Voltage,2,A*%
%TO.N,Net-(D5-A)*%
X155020000Y-84756000D03*
%TD*%
D10*
%TO.P,OUT2,1,Pin_1*%
%TO.N,Net-(J10-Pin_1)*%
X222741000Y-41593000D03*
D11*
%TO.P,OUT2,2,Pin_2*%
%TO.N,Net-(J10-Pin_2)*%
X225241000Y-41593000D03*
%TD*%
D22*
%TO.P,User,1,K*%
%TO.N,Net-(D1-K)*%
X231920000Y-48856000D03*
D23*
%TO.P,User,2,A*%
%TO.N,Net-(D1-A)*%
X231920000Y-51396000D03*
%TD*%
D10*
%TO.P,O2,1,Pin_1*%
%TO.N,Net-(J12-Pin_1)*%
X161994000Y-41456000D03*
D11*
%TO.P,O2,2,Pin_2*%
%TO.N,Net-(J12-Pin_2)*%
X164494000Y-41456000D03*
%TD*%
D12*
%TO.P,J6,1,Pin_1*%
%TO.N,/pwr*%
X213465000Y-78550000D03*
D13*
%TO.P,J6,2,Pin_2*%
%TO.N,Net-(J6-Pin_2)*%
X216005000Y-78550000D03*
%TD*%
D22*
%TO.P,Power,1,K*%
%TO.N,GND*%
X155020000Y-78846333D03*
D23*
%TO.P,Power,2,A*%
%TO.N,Net-(D4-A)*%
X155020000Y-76306333D03*
%TD*%
D21*
%TO.P,REF\u002A\u002A,1*%
%TO.N,N/C*%
X155620000Y-41656000D03*
%TD*%
D25*
%TO.P,C1,1*%
%TO.N,VCC*%
X161880503Y-86201003D03*
%TO.P,C1,2*%
%TO.N,GND*%
X160155503Y-86201003D03*
%TD*%
D26*
%TO.P,JP1,1,A*%
%TO.N,GND*%
X224811000Y-68263000D03*
D27*
%TO.P,JP1,2,B*%
%TO.N,Net-(JP1-B)*%
X226111000Y-68263000D03*
%TD*%
D28*
%TO.P,C2,1*%
%TO.N,VCC*%
X222741000Y-78550000D03*
%TO.P,C2,2*%
%TO.N,GND*%
X222741000Y-80275000D03*
%TD*%
D25*
%TO.P,C3,1*%
%TO.N,VCC*%
X161720000Y-82256000D03*
%TO.P,C3,2*%
%TO.N,GND*%
X159995000Y-82256000D03*
%TD*%
D29*
%TO.P,F1,1*%
%TO.N,VCC*%
X161908000Y-87978000D03*
%TO.P,F1,2*%
%TO.N,Net-(J2-Pin_2)*%
X161908000Y-89853000D03*
%TD*%
D30*
%TO.P,JP2,1,A*%
%TO.N,GND*%
X172420000Y-47656000D03*
D31*
%TO.P,JP2,2,B*%
%TO.N,Net-(JP2-B)*%
X172420000Y-48956000D03*
%TD*%
D32*
%TO.P,F2,1*%
%TO.N,VCC*%
X220679000Y-78550000D03*
%TO.P,F2,2*%
%TO.N,Net-(J6-Pin_2)*%
X218804000Y-78550000D03*
%TD*%
D30*
%TO.P,JP4,1,A*%
%TO.N,/DI1_1*%
X162289000Y-53277000D03*
D31*
%TO.P,JP4,2,B*%
%TO.N,Net-(JP4-B)*%
X162289000Y-54577000D03*
%TD*%
D33*
%TO.P,JP3,1,A*%
%TO.N,/DI1_2*%
X226043000Y-64326000D03*
D34*
%TO.P,JP3,2,B*%
%TO.N,Net-(JP3-B)*%
X224743000Y-64326000D03*
%TD*%
D35*
%TO.N,VCC*%
X223884000Y-79693000D03*
X161720000Y-83249000D03*
X164702000Y-64834000D03*
X222614000Y-77661000D03*
%TO.N,GND*%
X172576000Y-61278000D03*
X166480000Y-63056000D03*
X228710000Y-45911000D03*
X233790000Y-53531000D03*
X156828000Y-74994000D03*
X223630000Y-70676000D03*
X170290000Y-45276000D03*
X188070000Y-95822000D03*
X219820000Y-45911000D03*
X225916000Y-73216000D03*
X209025000Y-80455000D03*
X218870000Y-62431000D03*
X223249000Y-64326000D03*
X161654000Y-62040000D03*
X159876000Y-88964000D03*
X159622000Y-95568000D03*
X175116000Y-82614000D03*
X230695000Y-70981000D03*
X221090000Y-82995000D03*
X214740000Y-77026000D03*
X167496000Y-42990000D03*
X234495000Y-67131000D03*
X158352000Y-58484000D03*
X233409000Y-88710000D03*
X213470000Y-50356000D03*
X219695000Y-68406000D03*
X199246000Y-95695000D03*
X229520000Y-61556000D03*
X167496000Y-72962000D03*
X222495000Y-59681000D03*
X152510000Y-77280000D03*
X231520000Y-55956000D03*
X161908000Y-47562000D03*
X212835000Y-64961000D03*
X218550000Y-87186000D03*
X229695000Y-55881000D03*
X164448000Y-61532000D03*
X225916000Y-76137000D03*
X224011000Y-76137000D03*
X233155000Y-61151000D03*
X163686000Y-44514000D03*
X221720000Y-69906000D03*
X221695000Y-55456000D03*
X219820000Y-50356000D03*
X170036000Y-47816000D03*
X152510000Y-62040000D03*
X168258000Y-95568000D03*
X223376000Y-82614000D03*
X164194000Y-47562000D03*
X219820000Y-38926000D03*
X173084000Y-50864000D03*
X152510000Y-68898000D03*
X221745000Y-65656000D03*
X226120000Y-59456000D03*
X228075000Y-75756000D03*
X216620000Y-59456000D03*
X228075000Y-38926000D03*
X224265000Y-43371000D03*
X223630000Y-72962000D03*
X208517000Y-89091000D03*
X168258000Y-89980000D03*
X231420000Y-66906000D03*
X216670000Y-64331000D03*
X234425000Y-45911000D03*
X152510000Y-81598000D03*
X152510000Y-89218000D03*
X233155000Y-75629000D03*
X157844000Y-61786000D03*
X158352000Y-81598000D03*
X157844000Y-50356000D03*
X191880000Y-92774000D03*
X226945000Y-55506000D03*
X219670000Y-64281000D03*
X197468000Y-95695000D03*
X212835000Y-58611000D03*
X170290000Y-61278000D03*
X217534000Y-80963000D03*
X166988000Y-47816000D03*
X228075000Y-85027000D03*
X212835000Y-71311000D03*
X216395000Y-55831000D03*
X225916000Y-77534000D03*
X159368000Y-38672000D03*
X158352000Y-52642000D03*
X165718000Y-54674000D03*
X171814000Y-77280000D03*
X159368000Y-44514000D03*
X233155000Y-82106000D03*
X199246000Y-90742000D03*
X208517000Y-95060000D03*
X175116000Y-89980000D03*
X225154000Y-85789000D03*
X163432000Y-68898000D03*
X163686000Y-77280000D03*
X152510000Y-44514000D03*
X178164000Y-88456000D03*
X169528000Y-57468000D03*
X212454000Y-88202000D03*
X173084000Y-65596000D03*
X168258000Y-82614000D03*
X158352000Y-68644000D03*
X158352000Y-85408000D03*
X183752000Y-92774000D03*
X227948000Y-89980000D03*
X158098000Y-65850000D03*
X212835000Y-38926000D03*
X226805000Y-50356000D03*
X158098000Y-71438000D03*
X229345000Y-80201000D03*
X152256000Y-53658000D03*
X171814000Y-68898000D03*
X223445000Y-68156000D03*
X219820000Y-92901000D03*
X178418000Y-95822000D03*
X175624000Y-38672000D03*
X204620000Y-89156000D03*
X208120000Y-84656000D03*
X227070000Y-63356000D03*
X231420000Y-63331000D03*
X219970000Y-59306000D03*
X170290000Y-63056000D03*
X221795000Y-62881000D03*
X167496000Y-38672000D03*
X215375000Y-43371000D03*
X216520000Y-69081000D03*
X227948000Y-73470000D03*
X227440000Y-93536000D03*
X174100000Y-48324000D03*
X173592000Y-53404000D03*
X224845000Y-57406000D03*
%TO.N,Net-(D1-K)*%
X230520000Y-64756000D03*
%TO.N,/DI1_2*%
X227567000Y-66612000D03*
X226805000Y-72454000D03*
%TO.N,/PRG2*%
X221695750Y-71281750D03*
%TO.N,/DI2_2*%
X225871500Y-70631500D03*
%TO.N,Net-(JP1-B)*%
X227605000Y-68898000D03*
%TO.N,/DO2_2*%
X221090000Y-73216000D03*
%TO.N,/DO1_2*%
X217915000Y-75756000D03*
%TO.N,Net-(JP3-B)*%
X224836500Y-61722500D03*
%TD*%
D36*
%TO.N,VCC*%
X161804000Y-82256000D02*
X161720000Y-82256000D01*
D37*
X223884000Y-79693000D02*
X222741000Y-78550000D01*
D36*
X161720000Y-82256000D02*
X161720000Y-83249000D01*
D38*
X222614000Y-77661000D02*
X222614000Y-78423000D01*
D36*
X158372000Y-78908000D02*
X158372000Y-73902000D01*
X161880503Y-86201003D02*
X161880503Y-87950503D01*
D38*
X164702000Y-64834000D02*
X159820000Y-64834000D01*
D36*
X161720000Y-82256000D02*
X158372000Y-78908000D01*
X161880503Y-87950503D02*
X161908000Y-87978000D01*
X159820000Y-65032000D02*
X159622000Y-64834000D01*
X159820000Y-72454000D02*
X159820000Y-65032000D01*
X158372000Y-73902000D02*
X159820000Y-72454000D01*
X161720000Y-86040500D02*
X161880503Y-86201003D01*
D38*
X162165506Y-85916000D02*
X161880503Y-86201003D01*
D36*
X161720000Y-83249000D02*
X161720000Y-86040500D01*
D39*
X220679000Y-78550000D02*
X222741000Y-78550000D01*
D38*
X166480000Y-85916000D02*
X162165506Y-85916000D01*
X222614000Y-78423000D02*
X222741000Y-78550000D01*
%TO.N,Net-(D1-K)*%
X230520000Y-64756000D02*
X230520000Y-50256000D01*
X230520000Y-50256000D02*
X231920000Y-48856000D01*
D37*
%TO.N,/DI1_1*%
X162289000Y-53277000D02*
X160920000Y-51908000D01*
X160920000Y-48154000D02*
X159820000Y-47054000D01*
X160920000Y-51908000D02*
X160920000Y-48154000D01*
%TO.N,/DI1_2*%
X226043000Y-65088000D02*
X226043000Y-64326000D01*
X227567000Y-66612000D02*
X226043000Y-65088000D01*
D38*
X226805000Y-91337000D02*
X225241000Y-92901000D01*
X226805000Y-72454000D02*
X226805000Y-91337000D01*
D37*
%TO.N,/PRG2*%
X221695750Y-71281750D02*
X223317500Y-69660000D01*
X223317500Y-69660000D02*
X231631000Y-69660000D01*
X231631000Y-69660000D02*
X233155000Y-68136000D01*
D39*
%TO.N,Net-(J2-Pin_2)*%
X161908000Y-89853000D02*
X161908000Y-92774000D01*
%TO.N,Net-(J6-Pin_2)*%
X216005000Y-78550000D02*
X218804000Y-78550000D01*
D38*
%TO.N,/DI2_2*%
X225871500Y-70631500D02*
X225065000Y-71438000D01*
X225065000Y-71438000D02*
X225065000Y-84557200D01*
X225065000Y-84557200D02*
X216721200Y-92901000D01*
%TO.N,Net-(J9-Pin_1)*%
X214232000Y-41593000D02*
X214232000Y-43914000D01*
X214232000Y-43914000D02*
X216727000Y-46409000D01*
%TO.N,Net-(J10-Pin_1)*%
X222741000Y-41593000D02*
X222741000Y-43787000D01*
X222741000Y-43787000D02*
X225363000Y-46409000D01*
D37*
%TO.N,Net-(J11-Pin_2)*%
X168639000Y-51372000D02*
X168639000Y-45861000D01*
X168639000Y-45861000D02*
X173044000Y-41456000D01*
%TO.N,Net-(J12-Pin_2)*%
X162924000Y-43026000D02*
X164494000Y-41456000D01*
X162924000Y-51372000D02*
X162924000Y-43026000D01*
D38*
%TO.N,Net-(JP1-B)*%
X226111000Y-68263000D02*
X226970000Y-68263000D01*
X226970000Y-68263000D02*
X227605000Y-68898000D01*
D37*
%TO.N,Net-(JP2-B)*%
X172420000Y-48956000D02*
X173058000Y-49594000D01*
X173058000Y-49594000D02*
X174862000Y-49594000D01*
D38*
%TO.N,/DO2_2*%
X221090000Y-73216000D02*
X220895750Y-73021750D01*
X220895750Y-58496250D02*
X225363000Y-54029000D01*
X220895750Y-73021750D02*
X220895750Y-58496250D01*
%TO.N,/DO1_2*%
X215392236Y-55363764D02*
X215392236Y-73233236D01*
X216727000Y-54029000D02*
X215392236Y-55363764D01*
X215392236Y-73233236D02*
X217915000Y-75756000D01*
D37*
%TO.N,/DO2_1*%
X168766000Y-62294000D02*
X174862000Y-62294000D01*
X165464000Y-58992000D02*
X168766000Y-62294000D01*
D39*
%TO.N,/pwr*%
X206104000Y-86043000D02*
X197791000Y-94356000D01*
X170584000Y-92774000D02*
X170584000Y-92814000D01*
X170584000Y-92814000D02*
X172126000Y-94356000D01*
X164448000Y-92774000D02*
X170584000Y-92774000D01*
X172126000Y-94356000D02*
X186370000Y-94356000D01*
X213817000Y-84993000D02*
X213782990Y-84993000D01*
X214867000Y-86043000D02*
X213817000Y-84993000D01*
X213782990Y-84993000D02*
X212962000Y-84172010D01*
X212962000Y-79053000D02*
X213465000Y-78550000D01*
X197791000Y-94356000D02*
X186370000Y-94356000D01*
X214867000Y-86043000D02*
X206104000Y-86043000D01*
X212962000Y-84172010D02*
X212962000Y-79053000D01*
D37*
%TO.N,Net-(JP3-B)*%
X224743000Y-61816000D02*
X224743000Y-64326000D01*
X224836500Y-61722500D02*
X224743000Y-61816000D01*
%TO.N,Net-(JP4-B)*%
X162289000Y-54577000D02*
X159917000Y-54577000D01*
X159917000Y-54577000D02*
X159820000Y-54674000D01*
%TD*%
%TA.AperFunction,Conductor*%
%TO.N,GND*%
G36*
X176328952Y-37776185D02*
G01*
X176374707Y-37828989D01*
X176385913Y-37880549D01*
X176385798Y-38174444D01*
X176366087Y-38241475D01*
X176355514Y-38255595D01*
X176341623Y-38271626D01*
X176281834Y-38402543D01*
X176261353Y-38545000D01*
X176281834Y-38687456D01*
X176341622Y-38818371D01*
X176341625Y-38818377D01*
X176355224Y-38834070D01*
X176384250Y-38897625D01*
X176385512Y-38915321D01*
X176385307Y-39445010D01*
X176365596Y-39512042D01*
X176355022Y-39526162D01*
X176341625Y-39541622D01*
X176341622Y-39541628D01*
X176281834Y-39672543D01*
X176261353Y-39815000D01*
X176281834Y-39957456D01*
X176341621Y-40088370D01*
X176341622Y-40088371D01*
X176341623Y-40088373D01*
X176354736Y-40103506D01*
X176383759Y-40167060D01*
X176385021Y-40184754D01*
X176384815Y-40715578D01*
X176365104Y-40782610D01*
X176354532Y-40796728D01*
X176341624Y-40811625D01*
X176341621Y-40811629D01*
X176281834Y-40942543D01*
X176261353Y-41085000D01*
X176281834Y-41227456D01*
X176304696Y-41277515D01*
X176341623Y-41358373D01*
X176354244Y-41372938D01*
X176383269Y-41436493D01*
X176384531Y-41454189D01*
X176384324Y-41986143D01*
X176364613Y-42053175D01*
X176354042Y-42067292D01*
X176341625Y-42081622D01*
X176341623Y-42081625D01*
X176281834Y-42212543D01*
X176261353Y-42355000D01*
X176281834Y-42497456D01*
X176324615Y-42591131D01*
X176341623Y-42628373D01*
X176353752Y-42642371D01*
X176382778Y-42705925D01*
X176384040Y-42723622D01*
X176383833Y-43256710D01*
X176364122Y-43323742D01*
X176353551Y-43337859D01*
X176341625Y-43351623D01*
X176341622Y-43351628D01*
X176281834Y-43482543D01*
X176261353Y-43625000D01*
X176281834Y-43767456D01*
X176341622Y-43898371D01*
X176341623Y-43898373D01*
X176353262Y-43911805D01*
X176382287Y-43975361D01*
X176383549Y-43993056D01*
X176383342Y-44527278D01*
X176363631Y-44594310D01*
X176353059Y-44608428D01*
X176341624Y-44621625D01*
X176341621Y-44621629D01*
X176281834Y-44752543D01*
X176261353Y-44895000D01*
X176281834Y-45037456D01*
X176341622Y-45168371D01*
X176341625Y-45168377D01*
X176352770Y-45181238D01*
X176381796Y-45244793D01*
X176383058Y-45262489D01*
X176382850Y-45797844D01*
X176363139Y-45864876D01*
X176352568Y-45878992D01*
X176341628Y-45891618D01*
X176341623Y-45891625D01*
X176281834Y-46022543D01*
X176261353Y-46165000D01*
X176281834Y-46307456D01*
X176341622Y-46438371D01*
X176341625Y-46438377D01*
X176352281Y-46450674D01*
X176381306Y-46514230D01*
X176382568Y-46531924D01*
X176382360Y-47068410D01*
X176362649Y-47135442D01*
X176352077Y-47149560D01*
X176341624Y-47161624D01*
X176341623Y-47161626D01*
X176281834Y-47292543D01*
X176261353Y-47435000D01*
X176281834Y-47577456D01*
X176304696Y-47627515D01*
X176341623Y-47708373D01*
X176351790Y-47720106D01*
X176380815Y-47783662D01*
X176382077Y-47801357D01*
X176381868Y-48338979D01*
X176362157Y-48406011D01*
X176351586Y-48420128D01*
X176341624Y-48431625D01*
X176341621Y-48431629D01*
X176281834Y-48562543D01*
X176261353Y-48705000D01*
X176281834Y-48847456D01*
X176304696Y-48897515D01*
X176341623Y-48978373D01*
X176351298Y-48989539D01*
X176380324Y-49053093D01*
X176381586Y-49070790D01*
X176381377Y-49609544D01*
X176361666Y-49676576D01*
X176351096Y-49690692D01*
X176341625Y-49701622D01*
X176341623Y-49701625D01*
X176284996Y-49825621D01*
X176267459Y-49845859D01*
X176274987Y-49872369D01*
X176273730Y-49888909D01*
X176261353Y-49974998D01*
X176261353Y-49975000D01*
X176261890Y-49978733D01*
X176281834Y-50117456D01*
X176341621Y-50248370D01*
X176341624Y-50248374D01*
X176350808Y-50258973D01*
X176379833Y-50322529D01*
X176381095Y-50340223D01*
X176380886Y-50880111D01*
X176361175Y-50947143D01*
X176350604Y-50961260D01*
X176341625Y-50971622D01*
X176341623Y-50971625D01*
X176281834Y-51102543D01*
X176261353Y-51245000D01*
X176281834Y-51387456D01*
X176341622Y-51518371D01*
X176341623Y-51518373D01*
X176350317Y-51528406D01*
X176379343Y-51591962D01*
X176380605Y-51609658D01*
X176380395Y-52150679D01*
X176360684Y-52217711D01*
X176350113Y-52231828D01*
X176341624Y-52241625D01*
X176341621Y-52241629D01*
X176284996Y-52365621D01*
X176267459Y-52385859D01*
X176274987Y-52412369D01*
X176273730Y-52428909D01*
X176262140Y-52509525D01*
X176261353Y-52515000D01*
X176261890Y-52518733D01*
X176281834Y-52657456D01*
X176299779Y-52696749D01*
X176341623Y-52788373D01*
X176349825Y-52797839D01*
X176378851Y-52861393D01*
X176380114Y-52879091D01*
X176379904Y-53421245D01*
X176360193Y-53488277D01*
X176349621Y-53502395D01*
X176341625Y-53511622D01*
X176341622Y-53511628D01*
X176281834Y-53642543D01*
X176261353Y-53785000D01*
X176281834Y-53927456D01*
X176303662Y-53975251D01*
X176341623Y-54058373D01*
X176349336Y-54067274D01*
X176378361Y-54130830D01*
X176379623Y-54148525D01*
X176379412Y-54691812D01*
X176359701Y-54758844D01*
X176349131Y-54772960D01*
X176341625Y-54781622D01*
X176341623Y-54781625D01*
X176284996Y-54905621D01*
X176267459Y-54925859D01*
X176274987Y-54952369D01*
X176273730Y-54968909D01*
X176266543Y-55018899D01*
X176261353Y-55055000D01*
X176261890Y-55058733D01*
X176281834Y-55197456D01*
X176322066Y-55285550D01*
X176341623Y-55328373D01*
X176348844Y-55336706D01*
X176377870Y-55400261D01*
X176379132Y-55417958D01*
X176378921Y-55962380D01*
X176359210Y-56029412D01*
X176348640Y-56043528D01*
X176341624Y-56051625D01*
X176341621Y-56051629D01*
X176281834Y-56182543D01*
X176261353Y-56325000D01*
X176281834Y-56467456D01*
X176341622Y-56598371D01*
X176341623Y-56598373D01*
X176348355Y-56606142D01*
X176377380Y-56669698D01*
X176378642Y-56687393D01*
X176378430Y-57232946D01*
X176358719Y-57299978D01*
X176348151Y-57314092D01*
X176341624Y-57321625D01*
X176341621Y-57321629D01*
X176284996Y-57445621D01*
X176267459Y-57465859D01*
X176274987Y-57492369D01*
X176273730Y-57508909D01*
X176261353Y-57594998D01*
X176261353Y-57595000D01*
X176261890Y-57598733D01*
X176281834Y-57737456D01*
X176341622Y-57868371D01*
X176341623Y-57868373D01*
X176347863Y-57875574D01*
X176376889Y-57939130D01*
X176378151Y-57956826D01*
X176377939Y-58503512D01*
X176358228Y-58570544D01*
X176347658Y-58584659D01*
X176341628Y-58591618D01*
X176341623Y-58591625D01*
X176281834Y-58722543D01*
X176261353Y-58865000D01*
X176281834Y-59007456D01*
X176304696Y-59057515D01*
X176341623Y-59138373D01*
X176347371Y-59145007D01*
X176376397Y-59208561D01*
X176377660Y-59226259D01*
X176377447Y-59774080D01*
X176357736Y-59841112D01*
X176347166Y-59855228D01*
X176341626Y-59861622D01*
X176341623Y-59861625D01*
X176284996Y-59985621D01*
X176267459Y-60005859D01*
X176274987Y-60032369D01*
X176273730Y-60048909D01*
X176265539Y-60105882D01*
X176261353Y-60135000D01*
X176261890Y-60138733D01*
X176281834Y-60277456D01*
X176304696Y-60327515D01*
X176341623Y-60408373D01*
X176341624Y-60408374D01*
X176346883Y-60414443D01*
X176375908Y-60477999D01*
X176377170Y-60495694D01*
X176376957Y-61044647D01*
X176357246Y-61111679D01*
X176346675Y-61125796D01*
X176341624Y-61131625D01*
X176341621Y-61131629D01*
X176281834Y-61262543D01*
X176261353Y-61405000D01*
X176281834Y-61547456D01*
X176341622Y-61678371D01*
X176341623Y-61678373D01*
X176346390Y-61683874D01*
X176375416Y-61747429D01*
X176376679Y-61765127D01*
X176376465Y-62315213D01*
X176356754Y-62382245D01*
X176346186Y-62396359D01*
X176341625Y-62401622D01*
X176341623Y-62401625D01*
X176284996Y-62525621D01*
X176267459Y-62545859D01*
X176274987Y-62572369D01*
X176273730Y-62588909D01*
X176261353Y-62674998D01*
X176261353Y-62675000D01*
X176261890Y-62678733D01*
X176281834Y-62817456D01*
X176341622Y-62948371D01*
X176341625Y-62948377D01*
X176345901Y-62953311D01*
X176374926Y-63016867D01*
X176376188Y-63034561D01*
X176375974Y-63585780D01*
X176356263Y-63652812D01*
X176345694Y-63666927D01*
X176341624Y-63671624D01*
X176341623Y-63671626D01*
X176281834Y-63802543D01*
X176261353Y-63945000D01*
X176281834Y-64087456D01*
X176341622Y-64218371D01*
X176341623Y-64218373D01*
X176345409Y-64222742D01*
X176374435Y-64286298D01*
X176375697Y-64303994D01*
X176375483Y-64856348D01*
X176355772Y-64923380D01*
X176345202Y-64937495D01*
X176341627Y-64941621D01*
X176341621Y-64941629D01*
X176284996Y-65065621D01*
X176267459Y-65085859D01*
X176274987Y-65112369D01*
X176273730Y-65128909D01*
X176272348Y-65138524D01*
X176261353Y-65215000D01*
X176261890Y-65218733D01*
X176281834Y-65357456D01*
X176335230Y-65474375D01*
X176341623Y-65488373D01*
X176344917Y-65492174D01*
X176373943Y-65555729D01*
X176375206Y-65573427D01*
X176374992Y-66126913D01*
X176355282Y-66193945D01*
X176344714Y-66208058D01*
X176341625Y-66211622D01*
X176341623Y-66211625D01*
X176281834Y-66342543D01*
X176261353Y-66485000D01*
X176281834Y-66627456D01*
X176304696Y-66677515D01*
X176341623Y-66758373D01*
X176344429Y-66761611D01*
X176346209Y-66765509D01*
X176346418Y-66765834D01*
X176346371Y-66765864D01*
X176373454Y-66825166D01*
X176374716Y-66842862D01*
X176374501Y-67397480D01*
X176354790Y-67464512D01*
X176344222Y-67478626D01*
X176341624Y-67481624D01*
X176341623Y-67481626D01*
X176284996Y-67605621D01*
X176267459Y-67625859D01*
X176274987Y-67652369D01*
X176273730Y-67668909D01*
X176261353Y-67754998D01*
X176261353Y-67755000D01*
X176261890Y-67758733D01*
X176281834Y-67897456D01*
X176304696Y-67947515D01*
X176341623Y-68028373D01*
X176343936Y-68031042D01*
X176345403Y-68034255D01*
X176346418Y-68035834D01*
X176346191Y-68035979D01*
X176372962Y-68094597D01*
X176374225Y-68112295D01*
X176374010Y-68668048D01*
X176354299Y-68735080D01*
X176343730Y-68749194D01*
X176341627Y-68751621D01*
X176341621Y-68751629D01*
X176281834Y-68882543D01*
X176261353Y-69025000D01*
X176281834Y-69167456D01*
X176338164Y-69290799D01*
X176341623Y-69298373D01*
X176343448Y-69300479D01*
X176344605Y-69303013D01*
X176346418Y-69305834D01*
X176346012Y-69306094D01*
X176372472Y-69364035D01*
X176373734Y-69381729D01*
X176373518Y-69938615D01*
X176353807Y-70005647D01*
X176343242Y-70019757D01*
X176341627Y-70021621D01*
X176341623Y-70021627D01*
X176284996Y-70145621D01*
X176267459Y-70165859D01*
X176274987Y-70192369D01*
X176273730Y-70208909D01*
X176261353Y-70294998D01*
X176261353Y-70295000D01*
X176261890Y-70298733D01*
X176281834Y-70437456D01*
X176304696Y-70487515D01*
X176341623Y-70568373D01*
X176341624Y-70568374D01*
X176342956Y-70569911D01*
X176343800Y-70571760D01*
X176346418Y-70575833D01*
X176345832Y-70576209D01*
X176371982Y-70633467D01*
X176373244Y-70651163D01*
X176373027Y-71209181D01*
X176353316Y-71276213D01*
X176342750Y-71290324D01*
X176341628Y-71291618D01*
X176341623Y-71291625D01*
X176281834Y-71422543D01*
X176261353Y-71565000D01*
X176281834Y-71707456D01*
X176341622Y-71838371D01*
X176341623Y-71838373D01*
X176342462Y-71839341D01*
X176342994Y-71840506D01*
X176346418Y-71845834D01*
X176345652Y-71846326D01*
X176371490Y-71902896D01*
X176372753Y-71920596D01*
X176372536Y-72479749D01*
X176352825Y-72546781D01*
X176342259Y-72560893D01*
X176341624Y-72561625D01*
X176341621Y-72561629D01*
X176284996Y-72685621D01*
X176267459Y-72705859D01*
X176274987Y-72732369D01*
X176273730Y-72748909D01*
X176263522Y-72819913D01*
X176261353Y-72835000D01*
X176261890Y-72838733D01*
X176281834Y-72977456D01*
X176304696Y-73027515D01*
X176341623Y-73108373D01*
X176341975Y-73108779D01*
X176342198Y-73109267D01*
X176346418Y-73115834D01*
X176345473Y-73116440D01*
X176371000Y-73172335D01*
X176372262Y-73190030D01*
X176372044Y-73750316D01*
X176352333Y-73817348D01*
X176341771Y-73831454D01*
X176341629Y-73831617D01*
X176341623Y-73831627D01*
X176281834Y-73962543D01*
X176261353Y-74105000D01*
X176281834Y-74247456D01*
X176299347Y-74285803D01*
X176341623Y-74378373D01*
X176341627Y-74378378D01*
X176346418Y-74385833D01*
X176345293Y-74386555D01*
X176370509Y-74441765D01*
X176371772Y-74459464D01*
X176371554Y-75020881D01*
X176351843Y-75087913D01*
X176341915Y-75101171D01*
X176341623Y-75101625D01*
X176284996Y-75225621D01*
X176267459Y-75245859D01*
X176274987Y-75272369D01*
X176273730Y-75288909D01*
X176261353Y-75374998D01*
X176261353Y-75375000D01*
X176261890Y-75378733D01*
X176281834Y-75517456D01*
X176341622Y-75648371D01*
X176346418Y-75655834D01*
X176345113Y-75656672D01*
X176370017Y-75711194D01*
X176371280Y-75728896D01*
X176371062Y-76291449D01*
X176351351Y-76358481D01*
X176342317Y-76370546D01*
X176341623Y-76371626D01*
X176281834Y-76502543D01*
X176261353Y-76645000D01*
X176281834Y-76787456D01*
X176341622Y-76918371D01*
X176346418Y-76925834D01*
X176344935Y-76926786D01*
X176369527Y-76980633D01*
X176370790Y-76998331D01*
X176370571Y-77562017D01*
X176350860Y-77629049D01*
X176342722Y-77639917D01*
X176341623Y-77641627D01*
X176284996Y-77765621D01*
X176267459Y-77785859D01*
X176274987Y-77812369D01*
X176273730Y-77828909D01*
X176261353Y-77914998D01*
X176261353Y-77915000D01*
X176261890Y-77918733D01*
X176281834Y-78057456D01*
X176341622Y-78188371D01*
X176346418Y-78195834D01*
X176344754Y-78196902D01*
X176369036Y-78250061D01*
X176370299Y-78267764D01*
X176370080Y-78832582D01*
X176350369Y-78899614D01*
X176343126Y-78909287D01*
X176341623Y-78911625D01*
X176281834Y-79042543D01*
X176261353Y-79185000D01*
X176281834Y-79327456D01*
X176341621Y-79458370D01*
X176346416Y-79465830D01*
X176344574Y-79467013D01*
X176368546Y-79519503D01*
X176369808Y-79537197D01*
X176369589Y-80103149D01*
X176349878Y-80170181D01*
X176343528Y-80178661D01*
X176341623Y-80181626D01*
X176281834Y-80312543D01*
X176261353Y-80455000D01*
X176281834Y-80597456D01*
X176341622Y-80728371D01*
X176346418Y-80735834D01*
X176344396Y-80737133D01*
X176368055Y-80788929D01*
X176369318Y-80806632D01*
X176369098Y-81373717D01*
X176349387Y-81440749D01*
X176343929Y-81448038D01*
X176341623Y-81451627D01*
X176281834Y-81582543D01*
X176261353Y-81725000D01*
X176281834Y-81867456D01*
X176341623Y-81998373D01*
X176346418Y-82005835D01*
X176344217Y-82007248D01*
X176367565Y-82058372D01*
X176368827Y-82076066D01*
X176368607Y-82644282D01*
X176348896Y-82711314D01*
X176344334Y-82717407D01*
X176341623Y-82721625D01*
X176281834Y-82852543D01*
X176261353Y-82995000D01*
X176281834Y-83137456D01*
X176304696Y-83187515D01*
X176341623Y-83268373D01*
X176341627Y-83268378D01*
X176346418Y-83275833D01*
X176344037Y-83277362D01*
X176367074Y-83327801D01*
X176368337Y-83345500D01*
X176368116Y-83914849D01*
X176348405Y-83981881D01*
X176344736Y-83986781D01*
X176341623Y-83991626D01*
X176281834Y-84122543D01*
X176261353Y-84265000D01*
X176281834Y-84407456D01*
X176341622Y-84538371D01*
X176346418Y-84545834D01*
X176343856Y-84547480D01*
X176366581Y-84597217D01*
X176367846Y-84614933D01*
X176367625Y-85185417D01*
X176347914Y-85252449D01*
X176345142Y-85256150D01*
X176341621Y-85261629D01*
X176281834Y-85392543D01*
X176261353Y-85535000D01*
X176281834Y-85677456D01*
X176341621Y-85808370D01*
X176346416Y-85815830D01*
X176343678Y-85817589D01*
X176366093Y-85866669D01*
X176367355Y-85884366D01*
X176367134Y-86455983D01*
X176347424Y-86523015D01*
X176345542Y-86525527D01*
X176341622Y-86531628D01*
X176281834Y-86662543D01*
X176261353Y-86805000D01*
X176281834Y-86947456D01*
X176335230Y-87064375D01*
X176341623Y-87078373D01*
X176435872Y-87187143D01*
X176556947Y-87264953D01*
X176556950Y-87264954D01*
X176556949Y-87264954D01*
X176695036Y-87305499D01*
X176695038Y-87305500D01*
X176695039Y-87305500D01*
X176838962Y-87305500D01*
X176838962Y-87305499D01*
X176946121Y-87274035D01*
X176977050Y-87264954D01*
X176977050Y-87264953D01*
X176977053Y-87264953D01*
X177098128Y-87187143D01*
X177192377Y-87078373D01*
X177220554Y-87016672D01*
X177266307Y-86963872D01*
X177333346Y-86944187D01*
X177350854Y-86945429D01*
X198611000Y-89980000D01*
X198614644Y-92683119D01*
X197578584Y-93719181D01*
X197517261Y-93752666D01*
X197490903Y-93755500D01*
X187294803Y-93755500D01*
X187227764Y-93735815D01*
X187198950Y-93710165D01*
X187116410Y-93609590D01*
X187007743Y-93520410D01*
X186956450Y-93478315D01*
X186773954Y-93380768D01*
X186575934Y-93320700D01*
X186575932Y-93320699D01*
X186575934Y-93320699D01*
X186370000Y-93300417D01*
X186164067Y-93320699D01*
X185966043Y-93380769D01*
X185936430Y-93396598D01*
X185783550Y-93478315D01*
X185783548Y-93478316D01*
X185783547Y-93478317D01*
X185623589Y-93609590D01*
X185541050Y-93710165D01*
X185483305Y-93749499D01*
X185445197Y-93755500D01*
X172426097Y-93755500D01*
X172359058Y-93735815D01*
X172338416Y-93719181D01*
X171670819Y-93051584D01*
X171637334Y-92990261D01*
X171634500Y-92963903D01*
X171634500Y-92545534D01*
X171634499Y-92545530D01*
X171599593Y-92370046D01*
X171594130Y-92342580D01*
X171514941Y-92151402D01*
X171399977Y-91979345D01*
X171399975Y-91979342D01*
X171305633Y-91885000D01*
X176261353Y-91885000D01*
X176281834Y-92027456D01*
X176304696Y-92077515D01*
X176341623Y-92158373D01*
X176435872Y-92267143D01*
X176556947Y-92344953D01*
X176556950Y-92344954D01*
X176556949Y-92344954D01*
X176695036Y-92385499D01*
X176695038Y-92385500D01*
X176695039Y-92385500D01*
X176838962Y-92385500D01*
X176838962Y-92385499D01*
X176977053Y-92344953D01*
X177098128Y-92267143D01*
X177192377Y-92158373D01*
X177252165Y-92027457D01*
X177272647Y-91885000D01*
X177252165Y-91742543D01*
X177192377Y-91611627D01*
X177098128Y-91502857D01*
X176977053Y-91425047D01*
X176977051Y-91425046D01*
X176977049Y-91425045D01*
X176977050Y-91425045D01*
X176838963Y-91384500D01*
X176838961Y-91384500D01*
X176695039Y-91384500D01*
X176695036Y-91384500D01*
X176556949Y-91425045D01*
X176435873Y-91502856D01*
X176341623Y-91611626D01*
X176341622Y-91611628D01*
X176281834Y-91742543D01*
X176261353Y-91885000D01*
X171305633Y-91885000D01*
X171253657Y-91833024D01*
X171107151Y-91735133D01*
X171081598Y-91718059D01*
X171019857Y-91692485D01*
X170890420Y-91638870D01*
X170890412Y-91638868D01*
X170687469Y-91598500D01*
X170687465Y-91598500D01*
X170480535Y-91598500D01*
X170480530Y-91598500D01*
X170277587Y-91638868D01*
X170277579Y-91638870D01*
X170086403Y-91718058D01*
X169914342Y-91833024D01*
X169768024Y-91979342D01*
X169675117Y-92118390D01*
X169621504Y-92163196D01*
X169572014Y-92173500D01*
X165622500Y-92173500D01*
X165555461Y-92153815D01*
X165509706Y-92101011D01*
X165498500Y-92049500D01*
X165498500Y-91904249D01*
X165498499Y-91904247D01*
X165486868Y-91845770D01*
X165486867Y-91845769D01*
X165442552Y-91779447D01*
X165376230Y-91735132D01*
X165376229Y-91735131D01*
X165317752Y-91723500D01*
X165317748Y-91723500D01*
X163578252Y-91723500D01*
X163578247Y-91723500D01*
X163519770Y-91735131D01*
X163519769Y-91735132D01*
X163453447Y-91779447D01*
X163409132Y-91845769D01*
X163409131Y-91845770D01*
X163397500Y-91904247D01*
X163397500Y-93643752D01*
X163409131Y-93702229D01*
X163409132Y-93702230D01*
X163453447Y-93768552D01*
X163519769Y-93812867D01*
X163519770Y-93812868D01*
X163578247Y-93824499D01*
X163578250Y-93824500D01*
X163578252Y-93824500D01*
X165317750Y-93824500D01*
X165317751Y-93824499D01*
X165332568Y-93821552D01*
X165376229Y-93812868D01*
X165376229Y-93812867D01*
X165376231Y-93812867D01*
X165442552Y-93768552D01*
X165486867Y-93702231D01*
X165486867Y-93702229D01*
X165486868Y-93702229D01*
X165498499Y-93643752D01*
X165498500Y-93643750D01*
X165498500Y-93498500D01*
X165518185Y-93431461D01*
X165570989Y-93385706D01*
X165622500Y-93374500D01*
X169572014Y-93374500D01*
X169639053Y-93394185D01*
X169675117Y-93429610D01*
X169768024Y-93568657D01*
X169914342Y-93714975D01*
X169914345Y-93714977D01*
X170086402Y-93829941D01*
X170277580Y-93909130D01*
X170480530Y-93949499D01*
X170480534Y-93949500D01*
X170480535Y-93949500D01*
X170687466Y-93949500D01*
X170700223Y-93946962D01*
X170774932Y-93932101D01*
X170844519Y-93938327D01*
X170886802Y-93966037D01*
X171641139Y-94720374D01*
X171641149Y-94720385D01*
X171645479Y-94724715D01*
X171645480Y-94724716D01*
X171757284Y-94836520D01*
X171844095Y-94886639D01*
X171844097Y-94886641D01*
X171894213Y-94915576D01*
X171894215Y-94915577D01*
X172046942Y-94956500D01*
X172046943Y-94956500D01*
X185445197Y-94956500D01*
X185512236Y-94976185D01*
X185541050Y-95001835D01*
X185623590Y-95102410D01*
X185783550Y-95233685D01*
X185966046Y-95331232D01*
X186164066Y-95391300D01*
X186164065Y-95391300D01*
X186182529Y-95393118D01*
X186370000Y-95411583D01*
X186575934Y-95391300D01*
X186773954Y-95331232D01*
X186956450Y-95233685D01*
X187116410Y-95102410D01*
X187198950Y-95001835D01*
X187256695Y-94962501D01*
X187294803Y-94956500D01*
X197704331Y-94956500D01*
X197704347Y-94956501D01*
X197711943Y-94956501D01*
X197870054Y-94956501D01*
X197870057Y-94956501D01*
X198022785Y-94915577D01*
X198072904Y-94886639D01*
X198159716Y-94836520D01*
X198271520Y-94724716D01*
X198271520Y-94724714D01*
X198281728Y-94714507D01*
X198281729Y-94714504D01*
X198616930Y-94379304D01*
X198619865Y-96555500D01*
X176907876Y-96555500D01*
X176840837Y-96535815D01*
X176795082Y-96483011D01*
X176785138Y-96413853D01*
X176814163Y-96350297D01*
X176872941Y-96312523D01*
X176872942Y-96312523D01*
X176977050Y-96281954D01*
X176977050Y-96281953D01*
X176977053Y-96281953D01*
X177098128Y-96204143D01*
X177192377Y-96095373D01*
X177252165Y-95964457D01*
X177272647Y-95822000D01*
X177252165Y-95679543D01*
X177192377Y-95548627D01*
X177098128Y-95439857D01*
X176977053Y-95362047D01*
X176977051Y-95362046D01*
X176977049Y-95362045D01*
X176977050Y-95362045D01*
X176838963Y-95321500D01*
X176838961Y-95321500D01*
X176695039Y-95321500D01*
X176695036Y-95321500D01*
X176556949Y-95362045D01*
X176435873Y-95439856D01*
X176341623Y-95548626D01*
X176341622Y-95548628D01*
X176281834Y-95679543D01*
X176261353Y-95822000D01*
X176281834Y-95964456D01*
X176304696Y-96014515D01*
X176341623Y-96095373D01*
X176435872Y-96204143D01*
X176556947Y-96281953D01*
X176556950Y-96281954D01*
X176556949Y-96281954D01*
X176661058Y-96312523D01*
X176719837Y-96350297D01*
X176748862Y-96413852D01*
X176738919Y-96483011D01*
X176693164Y-96535815D01*
X176626125Y-96555500D01*
X151844500Y-96555500D01*
X151777461Y-96535815D01*
X151731706Y-96483011D01*
X151720500Y-96431500D01*
X151720500Y-92655996D01*
X152614415Y-92655996D01*
X152614415Y-92656003D01*
X152634738Y-93004927D01*
X152634739Y-93004938D01*
X152695428Y-93349127D01*
X152695430Y-93349134D01*
X152795674Y-93683972D01*
X152934107Y-94004895D01*
X152934113Y-94004908D01*
X153108870Y-94307597D01*
X153317584Y-94587949D01*
X153317589Y-94587955D01*
X153436980Y-94714501D01*
X153557442Y-94842183D01*
X153644909Y-94915576D01*
X153825186Y-95066847D01*
X153825194Y-95066853D01*
X154117203Y-95258911D01*
X154117207Y-95258913D01*
X154429549Y-95415777D01*
X154757989Y-95535319D01*
X155098086Y-95615923D01*
X155445241Y-95656500D01*
X155445248Y-95656500D01*
X155794752Y-95656500D01*
X155794759Y-95656500D01*
X156141914Y-95615923D01*
X156482011Y-95535319D01*
X156810451Y-95415777D01*
X157122793Y-95258913D01*
X157414811Y-95066849D01*
X157682558Y-94842183D01*
X157922412Y-94587953D01*
X158131130Y-94307596D01*
X158305889Y-94004904D01*
X158444326Y-93683971D01*
X158544569Y-93349136D01*
X158549584Y-93320699D01*
X158605260Y-93004938D01*
X158605259Y-93004938D01*
X158605262Y-93004927D01*
X158618711Y-92774000D01*
X160852417Y-92774000D01*
X160872699Y-92979932D01*
X160902734Y-93078944D01*
X160932768Y-93177954D01*
X161030315Y-93360450D01*
X161059981Y-93396598D01*
X161161589Y-93520410D01*
X161220377Y-93568655D01*
X161321550Y-93651685D01*
X161504046Y-93749232D01*
X161702066Y-93809300D01*
X161702065Y-93809300D01*
X161720529Y-93811118D01*
X161908000Y-93829583D01*
X162113934Y-93809300D01*
X162311954Y-93749232D01*
X162494450Y-93651685D01*
X162654410Y-93520410D01*
X162785685Y-93360450D01*
X162883232Y-93177954D01*
X162943300Y-92979934D01*
X162963583Y-92774000D01*
X162943300Y-92568066D01*
X162883232Y-92370046D01*
X162785685Y-92187550D01*
X162654410Y-92027590D01*
X162605481Y-91987435D01*
X162553835Y-91945050D01*
X162514501Y-91887305D01*
X162508500Y-91849197D01*
X162508500Y-90615000D01*
X176261353Y-90615000D01*
X176281834Y-90757456D01*
X176304696Y-90807515D01*
X176341623Y-90888373D01*
X176435872Y-90997143D01*
X176556947Y-91074953D01*
X176556950Y-91074954D01*
X176556949Y-91074954D01*
X176695036Y-91115499D01*
X176695038Y-91115500D01*
X176695039Y-91115500D01*
X176838962Y-91115500D01*
X176838962Y-91115499D01*
X176977053Y-91074953D01*
X177098128Y-90997143D01*
X177192377Y-90888373D01*
X177252165Y-90757457D01*
X177272647Y-90615000D01*
X177252165Y-90472543D01*
X177192377Y-90341627D01*
X177098128Y-90232857D01*
X176977053Y-90155047D01*
X176977051Y-90155046D01*
X176977049Y-90155045D01*
X176977050Y-90155045D01*
X176838963Y-90114500D01*
X176838961Y-90114500D01*
X176695039Y-90114500D01*
X176695036Y-90114500D01*
X176556949Y-90155045D01*
X176435873Y-90232856D01*
X176341623Y-90341626D01*
X176341622Y-90341628D01*
X176281834Y-90472543D01*
X176261353Y-90615000D01*
X162508500Y-90615000D01*
X162508500Y-90603384D01*
X162528185Y-90536345D01*
X162567361Y-90500366D01*
X162566702Y-90499473D01*
X162603191Y-90472543D01*
X162681930Y-90414430D01*
X162761455Y-90306679D01*
X162782986Y-90245146D01*
X162805684Y-90180281D01*
X162805684Y-90180278D01*
X162805686Y-90180274D01*
X162808500Y-90150264D01*
X162808500Y-89555736D01*
X162805686Y-89525726D01*
X162805684Y-89525722D01*
X162805684Y-89525718D01*
X162761455Y-89399321D01*
X162761454Y-89399319D01*
X162721364Y-89345000D01*
X176261353Y-89345000D01*
X176281834Y-89487456D01*
X176304696Y-89537515D01*
X176341623Y-89618373D01*
X176435872Y-89727143D01*
X176556947Y-89804953D01*
X176556950Y-89804954D01*
X176556949Y-89804954D01*
X176695036Y-89845499D01*
X176695038Y-89845500D01*
X176695039Y-89845500D01*
X176838962Y-89845500D01*
X176838962Y-89845499D01*
X176977053Y-89804953D01*
X177098128Y-89727143D01*
X177192377Y-89618373D01*
X177252165Y-89487457D01*
X177272647Y-89345000D01*
X177252165Y-89202543D01*
X177192377Y-89071627D01*
X177098128Y-88962857D01*
X176977053Y-88885047D01*
X176977051Y-88885046D01*
X176977049Y-88885045D01*
X176977050Y-88885045D01*
X176838963Y-88844500D01*
X176838961Y-88844500D01*
X176695039Y-88844500D01*
X176695036Y-88844500D01*
X176556949Y-88885045D01*
X176435873Y-88962856D01*
X176341623Y-89071626D01*
X176341622Y-89071628D01*
X176281834Y-89202543D01*
X176261353Y-89345000D01*
X162721364Y-89345000D01*
X162681930Y-89291569D01*
X162574180Y-89212045D01*
X162574178Y-89212044D01*
X162447781Y-89167815D01*
X162447769Y-89167813D01*
X162417768Y-89165000D01*
X162417764Y-89165000D01*
X161398236Y-89165000D01*
X161398232Y-89165000D01*
X161368230Y-89167813D01*
X161368218Y-89167815D01*
X161241821Y-89212044D01*
X161241819Y-89212045D01*
X161134069Y-89291569D01*
X161054545Y-89399319D01*
X161054544Y-89399321D01*
X161010315Y-89525718D01*
X161010313Y-89525730D01*
X161007500Y-89555731D01*
X161007500Y-90150268D01*
X161010313Y-90180269D01*
X161010315Y-90180281D01*
X161054544Y-90306678D01*
X161054545Y-90306680D01*
X161134069Y-90414430D01*
X161249298Y-90499473D01*
X161248469Y-90500595D01*
X161291511Y-90542478D01*
X161307500Y-90603384D01*
X161307500Y-91849197D01*
X161287815Y-91916236D01*
X161262165Y-91945050D01*
X161161590Y-92027589D01*
X161030317Y-92187547D01*
X160932769Y-92370043D01*
X160872699Y-92568067D01*
X160852417Y-92774000D01*
X158618711Y-92774000D01*
X158622561Y-92707902D01*
X158625585Y-92656003D01*
X158625585Y-92655996D01*
X158619151Y-92545530D01*
X158605262Y-92307073D01*
X158584187Y-92187550D01*
X158544571Y-91962872D01*
X158544569Y-91962865D01*
X158528097Y-91907845D01*
X158444326Y-91628029D01*
X158305889Y-91307096D01*
X158171862Y-91074954D01*
X158131129Y-91004402D01*
X157922415Y-90724050D01*
X157922410Y-90724044D01*
X157727013Y-90516937D01*
X157682558Y-90469817D01*
X157529786Y-90341626D01*
X157414813Y-90245152D01*
X157414805Y-90245146D01*
X157122796Y-90053088D01*
X156810458Y-89896226D01*
X156810452Y-89896223D01*
X156482012Y-89776681D01*
X156482009Y-89776680D01*
X156141915Y-89696077D01*
X156098519Y-89691004D01*
X155794759Y-89655500D01*
X155445241Y-89655500D01*
X155141480Y-89691004D01*
X155098085Y-89696077D01*
X155098083Y-89696077D01*
X154757990Y-89776680D01*
X154757987Y-89776681D01*
X154429547Y-89896223D01*
X154429541Y-89896226D01*
X154117203Y-90053088D01*
X153825194Y-90245146D01*
X153825186Y-90245152D01*
X153557442Y-90469817D01*
X153557440Y-90469819D01*
X153317589Y-90724044D01*
X153317584Y-90724050D01*
X153108870Y-91004402D01*
X152934113Y-91307091D01*
X152934107Y-91307104D01*
X152795674Y-91628027D01*
X152695430Y-91962865D01*
X152695428Y-91962872D01*
X152634739Y-92307061D01*
X152634738Y-92307072D01*
X152614415Y-92655996D01*
X151720500Y-92655996D01*
X151720500Y-86376247D01*
X153919500Y-86376247D01*
X153919500Y-88215752D01*
X153931131Y-88274229D01*
X153931132Y-88274230D01*
X153975447Y-88340552D01*
X154041769Y-88384867D01*
X154041770Y-88384868D01*
X154100247Y-88396499D01*
X154100250Y-88396500D01*
X154100252Y-88396500D01*
X155939750Y-88396500D01*
X155939751Y-88396499D01*
X155954568Y-88393552D01*
X155998229Y-88384868D01*
X155998229Y-88384867D01*
X155998231Y-88384867D01*
X156064552Y-88340552D01*
X156108867Y-88274231D01*
X156108867Y-88274229D01*
X156108868Y-88274229D01*
X156120499Y-88215752D01*
X156120500Y-88215750D01*
X156120500Y-86376249D01*
X156120499Y-86376247D01*
X156108868Y-86317770D01*
X156108867Y-86317769D01*
X156064552Y-86251447D01*
X155998230Y-86207132D01*
X155998229Y-86207131D01*
X155939752Y-86195500D01*
X155939748Y-86195500D01*
X154100252Y-86195500D01*
X154100247Y-86195500D01*
X154041770Y-86207131D01*
X154041769Y-86207132D01*
X153975447Y-86251447D01*
X153931132Y-86317769D01*
X153931131Y-86317770D01*
X153919500Y-86376247D01*
X151720500Y-86376247D01*
X151720500Y-84755999D01*
X153914785Y-84755999D01*
X153914785Y-84756000D01*
X153933602Y-84959082D01*
X153989417Y-85155247D01*
X153989422Y-85155260D01*
X154080327Y-85337821D01*
X154203237Y-85500581D01*
X154353958Y-85637980D01*
X154353960Y-85637982D01*
X154411381Y-85673535D01*
X154527363Y-85745348D01*
X154717544Y-85819024D01*
X154918024Y-85856500D01*
X154918026Y-85856500D01*
X155121974Y-85856500D01*
X155121976Y-85856500D01*
X155322456Y-85819024D01*
X155512637Y-85745348D01*
X155686041Y-85637981D01*
X155836764Y-85500579D01*
X155959673Y-85337821D01*
X156050582Y-85155250D01*
X156106397Y-84959083D01*
X156125215Y-84756000D01*
X156106397Y-84552917D01*
X156050582Y-84356750D01*
X155959673Y-84174179D01*
X155836764Y-84011421D01*
X155836762Y-84011418D01*
X155686041Y-83874019D01*
X155686039Y-83874017D01*
X155512642Y-83766655D01*
X155512635Y-83766651D01*
X155417546Y-83729814D01*
X155322456Y-83692976D01*
X155121976Y-83655500D01*
X154918024Y-83655500D01*
X154717544Y-83692976D01*
X154717541Y-83692976D01*
X154717541Y-83692977D01*
X154527364Y-83766651D01*
X154527357Y-83766655D01*
X154353960Y-83874017D01*
X154353958Y-83874019D01*
X154203237Y-84011418D01*
X154080327Y-84174178D01*
X153989422Y-84356739D01*
X153989417Y-84356752D01*
X153933602Y-84552917D01*
X153914785Y-84755999D01*
X151720500Y-84755999D01*
X151720500Y-76306332D01*
X153914785Y-76306332D01*
X153914785Y-76306333D01*
X153933602Y-76509415D01*
X153989417Y-76705580D01*
X153989422Y-76705593D01*
X154080327Y-76888154D01*
X154203237Y-77050914D01*
X154353958Y-77188313D01*
X154353960Y-77188315D01*
X154453141Y-77249725D01*
X154527363Y-77295681D01*
X154717544Y-77369357D01*
X154918024Y-77406833D01*
X154918026Y-77406833D01*
X155121974Y-77406833D01*
X155121976Y-77406833D01*
X155322456Y-77369357D01*
X155512637Y-77295681D01*
X155686041Y-77188314D01*
X155836764Y-77050912D01*
X155959673Y-76888154D01*
X156050582Y-76705583D01*
X156106397Y-76509416D01*
X156125215Y-76306333D01*
X156121186Y-76262857D01*
X156106397Y-76103250D01*
X156076832Y-75999341D01*
X156050582Y-75907083D01*
X155959673Y-75724512D01*
X155857643Y-75589402D01*
X155836762Y-75561751D01*
X155686041Y-75424352D01*
X155686039Y-75424350D01*
X155512642Y-75316988D01*
X155512635Y-75316984D01*
X155329038Y-75245859D01*
X155322456Y-75243309D01*
X155121976Y-75205833D01*
X154918024Y-75205833D01*
X154717544Y-75243309D01*
X154717541Y-75243309D01*
X154717541Y-75243310D01*
X154527364Y-75316984D01*
X154527357Y-75316988D01*
X154353960Y-75424350D01*
X154353958Y-75424352D01*
X154203237Y-75561751D01*
X154080327Y-75724511D01*
X153989422Y-75907072D01*
X153989417Y-75907085D01*
X153933602Y-76103250D01*
X153914785Y-76306332D01*
X151720500Y-76306332D01*
X151720500Y-73842691D01*
X157921500Y-73842691D01*
X157921500Y-78967308D01*
X157941658Y-79042542D01*
X157941659Y-79042542D01*
X157952202Y-79081889D01*
X157964736Y-79103598D01*
X158011511Y-79184614D01*
X158011513Y-79184616D01*
X158780920Y-79954023D01*
X158814405Y-80015346D01*
X158816642Y-80053854D01*
X158814659Y-80073995D01*
X158814659Y-80073999D01*
X158833975Y-80270129D01*
X158833976Y-80270132D01*
X158890055Y-80455000D01*
X158891188Y-80458733D01*
X158984086Y-80632532D01*
X158984090Y-80632539D01*
X159109116Y-80784883D01*
X159261460Y-80909909D01*
X159261467Y-80909913D01*
X159435266Y-81002811D01*
X159435269Y-81002811D01*
X159435273Y-81002814D01*
X159623868Y-81060024D01*
X159820000Y-81079341D01*
X159840139Y-81077357D01*
X159908786Y-81090375D01*
X159939976Y-81113079D01*
X160945681Y-82118784D01*
X160979166Y-82180107D01*
X160982000Y-82206465D01*
X160982000Y-82546260D01*
X160984774Y-82575849D01*
X161028384Y-82700476D01*
X161106788Y-82806710D01*
X161111899Y-82811821D01*
X161145384Y-82873144D01*
X161140400Y-82942836D01*
X161140160Y-82943473D01*
X161083763Y-83092181D01*
X161064722Y-83248999D01*
X161064722Y-83249000D01*
X161083762Y-83405818D01*
X161139780Y-83553523D01*
X161139781Y-83553524D01*
X161229518Y-83683532D01*
X161234491Y-83689145D01*
X161233044Y-83690426D01*
X161264850Y-83741120D01*
X161269500Y-83774759D01*
X161269500Y-85606496D01*
X161249815Y-85673535D01*
X161245271Y-85680128D01*
X161188887Y-85756526D01*
X161145277Y-85881153D01*
X161142503Y-85910742D01*
X161142503Y-86491263D01*
X161145277Y-86520852D01*
X161188887Y-86645479D01*
X161267291Y-86751713D01*
X161267292Y-86751714D01*
X161379636Y-86834627D01*
X161421887Y-86890274D01*
X161430003Y-86934397D01*
X161430003Y-87183214D01*
X161410318Y-87250253D01*
X161357514Y-87296008D01*
X161346958Y-87300255D01*
X161241821Y-87337044D01*
X161241819Y-87337045D01*
X161134069Y-87416569D01*
X161054545Y-87524319D01*
X161054544Y-87524321D01*
X161010315Y-87650718D01*
X161010313Y-87650730D01*
X161007500Y-87680731D01*
X161007500Y-88275268D01*
X161010313Y-88305269D01*
X161010315Y-88305281D01*
X161054544Y-88431678D01*
X161054545Y-88431680D01*
X161134069Y-88539430D01*
X161241819Y-88618954D01*
X161241821Y-88618955D01*
X161368218Y-88663184D01*
X161368222Y-88663184D01*
X161368226Y-88663186D01*
X161383231Y-88664593D01*
X161398232Y-88666000D01*
X161398236Y-88666000D01*
X162417768Y-88666000D01*
X162431101Y-88664749D01*
X162447774Y-88663186D01*
X162447778Y-88663184D01*
X162447781Y-88663184D01*
X162518845Y-88638316D01*
X162574179Y-88618955D01*
X162681930Y-88539430D01*
X162761455Y-88431679D01*
X162805686Y-88305274D01*
X162808500Y-88275264D01*
X162808500Y-88075000D01*
X176261353Y-88075000D01*
X176281834Y-88217456D01*
X176321938Y-88305269D01*
X176341623Y-88348373D01*
X176435872Y-88457143D01*
X176556947Y-88534953D01*
X176556950Y-88534954D01*
X176556949Y-88534954D01*
X176695036Y-88575499D01*
X176695038Y-88575500D01*
X176695039Y-88575500D01*
X176838962Y-88575500D01*
X176838962Y-88575499D01*
X176977053Y-88534953D01*
X177098128Y-88457143D01*
X177192377Y-88348373D01*
X177252165Y-88217457D01*
X177272647Y-88075000D01*
X177252165Y-87932543D01*
X177192377Y-87801627D01*
X177098128Y-87692857D01*
X176977053Y-87615047D01*
X176977051Y-87615046D01*
X176977049Y-87615045D01*
X176977050Y-87615045D01*
X176838963Y-87574500D01*
X176838961Y-87574500D01*
X176695039Y-87574500D01*
X176695036Y-87574500D01*
X176556949Y-87615045D01*
X176435873Y-87692856D01*
X176341623Y-87801626D01*
X176341622Y-87801628D01*
X176281834Y-87932543D01*
X176261353Y-88075000D01*
X162808500Y-88075000D01*
X162808500Y-87680736D01*
X162805686Y-87650726D01*
X162805684Y-87650722D01*
X162805684Y-87650718D01*
X162761455Y-87524321D01*
X162761454Y-87524319D01*
X162681930Y-87416569D01*
X162574180Y-87337045D01*
X162574178Y-87337044D01*
X162447781Y-87292815D01*
X162447772Y-87292813D01*
X162443417Y-87292405D01*
X162378510Y-87266542D01*
X162337889Y-87209694D01*
X162331003Y-87168947D01*
X162331003Y-86934397D01*
X162350688Y-86867358D01*
X162381370Y-86834627D01*
X162421513Y-86805000D01*
X162493714Y-86751714D01*
X162572119Y-86645478D01*
X162615728Y-86520852D01*
X162618503Y-86491259D01*
X162618503Y-86390500D01*
X162638188Y-86323461D01*
X162690992Y-86277706D01*
X162742503Y-86266500D01*
X165237938Y-86266500D01*
X165304977Y-86286185D01*
X165350732Y-86338989D01*
X165353421Y-86346287D01*
X165353700Y-86346180D01*
X165355769Y-86351523D01*
X165355771Y-86351528D01*
X165355773Y-86351532D01*
X165355775Y-86351537D01*
X165454936Y-86550679D01*
X165454943Y-86550691D01*
X165589020Y-86728238D01*
X165753437Y-86878123D01*
X165753439Y-86878125D01*
X165942595Y-86995245D01*
X165942596Y-86995245D01*
X165942599Y-86995247D01*
X166150060Y-87075618D01*
X166368757Y-87116500D01*
X166368759Y-87116500D01*
X166591241Y-87116500D01*
X166591243Y-87116500D01*
X166809940Y-87075618D01*
X167017401Y-86995247D01*
X167206562Y-86878124D01*
X167370981Y-86728236D01*
X167505058Y-86550689D01*
X167604229Y-86351528D01*
X167665115Y-86137536D01*
X167685643Y-85916000D01*
X167675933Y-85811216D01*
X167665115Y-85694464D01*
X167665114Y-85694462D01*
X167660275Y-85677456D01*
X167604229Y-85480472D01*
X167604224Y-85480461D01*
X167505061Y-85281316D01*
X167505056Y-85281308D01*
X167370979Y-85103761D01*
X167206562Y-84953876D01*
X167206560Y-84953874D01*
X167017404Y-84836754D01*
X167017398Y-84836752D01*
X166809940Y-84756382D01*
X166591243Y-84715500D01*
X166368757Y-84715500D01*
X166150060Y-84756382D01*
X166018864Y-84807207D01*
X165942601Y-84836752D01*
X165942595Y-84836754D01*
X165753439Y-84953874D01*
X165753437Y-84953876D01*
X165589020Y-85103761D01*
X165454943Y-85281308D01*
X165454936Y-85281320D01*
X165355775Y-85480462D01*
X165353700Y-85485820D01*
X165351263Y-85484875D01*
X165319874Y-85534572D01*
X165256548Y-85564095D01*
X165237938Y-85565500D01*
X162390293Y-85565500D01*
X162349338Y-85558541D01*
X162323290Y-85549426D01*
X162255729Y-85525785D01*
X162256640Y-85523180D01*
X162206716Y-85495844D01*
X162173303Y-85434482D01*
X162170500Y-85408266D01*
X162170500Y-83774759D01*
X162190185Y-83707720D01*
X162205846Y-83689444D01*
X162205509Y-83689145D01*
X162210481Y-83683532D01*
X162210481Y-83683531D01*
X162210483Y-83683530D01*
X162300220Y-83553523D01*
X162356237Y-83405818D01*
X162375278Y-83249000D01*
X162367812Y-83187515D01*
X162356237Y-83092182D01*
X162356237Y-83092181D01*
X162300220Y-82944477D01*
X162300217Y-82944473D01*
X162299839Y-82943475D01*
X162294472Y-82873811D01*
X162327619Y-82812305D01*
X162328100Y-82811822D01*
X162333207Y-82806713D01*
X162333211Y-82806711D01*
X162411616Y-82700475D01*
X162455225Y-82575849D01*
X162458000Y-82546256D01*
X162458000Y-81965744D01*
X162455225Y-81936151D01*
X162411616Y-81811525D01*
X162333211Y-81705289D01*
X162333210Y-81705288D01*
X162226976Y-81626884D01*
X162102348Y-81583274D01*
X162102349Y-81583274D01*
X162072760Y-81580500D01*
X162072756Y-81580500D01*
X161732965Y-81580500D01*
X161665926Y-81560815D01*
X161645284Y-81544181D01*
X160748014Y-80646911D01*
X160714529Y-80585588D01*
X160719513Y-80515896D01*
X160726336Y-80500779D01*
X160748814Y-80458727D01*
X160806024Y-80270132D01*
X160825341Y-80074000D01*
X160806024Y-79877868D01*
X160748814Y-79689273D01*
X160748811Y-79689269D01*
X160748811Y-79689266D01*
X160655913Y-79515467D01*
X160655909Y-79515460D01*
X160530883Y-79363116D01*
X160378539Y-79238090D01*
X160378532Y-79238086D01*
X160204733Y-79145188D01*
X160204727Y-79145186D01*
X160016132Y-79087976D01*
X160016129Y-79087975D01*
X159820000Y-79068659D01*
X159623870Y-79087975D01*
X159435266Y-79145188D01*
X159393222Y-79167662D01*
X159324819Y-79181904D01*
X159259575Y-79156904D01*
X159247088Y-79145985D01*
X158858819Y-78757716D01*
X158825334Y-78696393D01*
X158822500Y-78670035D01*
X158822500Y-78242196D01*
X158842185Y-78175157D01*
X158894989Y-78129402D01*
X158964147Y-78119458D01*
X159027703Y-78148483D01*
X159042351Y-78163529D01*
X159069740Y-78196902D01*
X159109117Y-78244883D01*
X159261460Y-78369909D01*
X159261467Y-78369913D01*
X159435266Y-78462811D01*
X159435269Y-78462811D01*
X159435273Y-78462814D01*
X159623868Y-78520024D01*
X159820000Y-78539341D01*
X160016132Y-78520024D01*
X160204727Y-78462814D01*
X160378538Y-78369910D01*
X160530883Y-78244883D01*
X160655910Y-78092538D01*
X160748814Y-77918727D01*
X160806024Y-77730132D01*
X160825341Y-77534000D01*
X174054659Y-77534000D01*
X174073975Y-77730129D01*
X174086841Y-77772543D01*
X174130055Y-77915000D01*
X174131188Y-77918733D01*
X174224086Y-78092532D01*
X174224090Y-78092539D01*
X174349116Y-78244883D01*
X174501460Y-78369909D01*
X174501467Y-78369913D01*
X174675266Y-78462811D01*
X174675269Y-78462811D01*
X174675273Y-78462814D01*
X174863868Y-78520024D01*
X175060000Y-78539341D01*
X175256132Y-78520024D01*
X175444727Y-78462814D01*
X175618538Y-78369910D01*
X175770883Y-78244883D01*
X175895910Y-78092538D01*
X175988814Y-77918727D01*
X176032332Y-77775264D01*
X176055200Y-77740371D01*
X176048799Y-77701955D01*
X176053362Y-77655625D01*
X176065341Y-77534000D01*
X176046024Y-77337868D01*
X175988814Y-77149273D01*
X175988811Y-77149269D01*
X175988811Y-77149266D01*
X175895913Y-76975467D01*
X175895909Y-76975460D01*
X175770883Y-76823116D01*
X175618539Y-76698090D01*
X175618532Y-76698086D01*
X175444733Y-76605188D01*
X175444727Y-76605186D01*
X175256132Y-76547976D01*
X175256129Y-76547975D01*
X175060000Y-76528659D01*
X174863870Y-76547975D01*
X174675266Y-76605188D01*
X174501467Y-76698086D01*
X174501460Y-76698090D01*
X174349116Y-76823116D01*
X174224090Y-76975460D01*
X174224086Y-76975467D01*
X174131188Y-77149266D01*
X174073975Y-77337870D01*
X174054659Y-77534000D01*
X160825341Y-77534000D01*
X160806024Y-77337868D01*
X160748814Y-77149273D01*
X160748811Y-77149269D01*
X160748811Y-77149266D01*
X160655913Y-76975467D01*
X160655909Y-76975460D01*
X160530883Y-76823116D01*
X160378539Y-76698090D01*
X160378532Y-76698086D01*
X160204733Y-76605188D01*
X160204727Y-76605186D01*
X160016132Y-76547976D01*
X160016129Y-76547975D01*
X159820000Y-76528659D01*
X159623870Y-76547975D01*
X159435266Y-76605188D01*
X159261467Y-76698086D01*
X159261460Y-76698090D01*
X159109116Y-76823116D01*
X159042353Y-76904468D01*
X158984607Y-76943802D01*
X158914763Y-76945673D01*
X158854994Y-76909485D01*
X158824279Y-76846729D01*
X158822500Y-76825803D01*
X158822500Y-75702196D01*
X158842185Y-75635157D01*
X158894989Y-75589402D01*
X158964147Y-75579458D01*
X159027703Y-75608483D01*
X159042351Y-75623529D01*
X159069551Y-75656672D01*
X159109117Y-75704883D01*
X159261460Y-75829909D01*
X159261467Y-75829913D01*
X159435266Y-75922811D01*
X159435269Y-75922811D01*
X159435273Y-75922814D01*
X159623868Y-75980024D01*
X159820000Y-75999341D01*
X160016132Y-75980024D01*
X160204727Y-75922814D01*
X160378538Y-75829910D01*
X160530883Y-75704883D01*
X160655910Y-75552538D01*
X160748814Y-75378727D01*
X160806024Y-75190132D01*
X160825341Y-74994000D01*
X174054659Y-74994000D01*
X174073975Y-75190129D01*
X174086841Y-75232543D01*
X174130055Y-75375000D01*
X174131188Y-75378733D01*
X174224086Y-75552532D01*
X174224090Y-75552539D01*
X174349116Y-75704883D01*
X174501460Y-75829909D01*
X174501467Y-75829913D01*
X174675266Y-75922811D01*
X174675269Y-75922811D01*
X174675273Y-75922814D01*
X174863868Y-75980024D01*
X175060000Y-75999341D01*
X175256132Y-75980024D01*
X175444727Y-75922814D01*
X175618538Y-75829910D01*
X175770883Y-75704883D01*
X175895910Y-75552538D01*
X175988814Y-75378727D01*
X176032332Y-75235264D01*
X176055200Y-75200371D01*
X176048799Y-75161955D01*
X176053362Y-75115625D01*
X176065341Y-74994000D01*
X176046024Y-74797868D01*
X175988814Y-74609273D01*
X175988811Y-74609269D01*
X175988811Y-74609266D01*
X175895913Y-74435467D01*
X175895909Y-74435460D01*
X175770883Y-74283116D01*
X175618539Y-74158090D01*
X175618532Y-74158086D01*
X175444733Y-74065188D01*
X175444727Y-74065186D01*
X175256132Y-74007976D01*
X175256129Y-74007975D01*
X175060000Y-73988659D01*
X174863870Y-74007975D01*
X174675266Y-74065188D01*
X174501467Y-74158086D01*
X174501460Y-74158090D01*
X174349116Y-74283116D01*
X174224090Y-74435460D01*
X174224086Y-74435467D01*
X174131188Y-74609266D01*
X174073975Y-74797870D01*
X174054659Y-74994000D01*
X160825341Y-74994000D01*
X160806024Y-74797868D01*
X160748814Y-74609273D01*
X160748811Y-74609269D01*
X160748811Y-74609266D01*
X160655913Y-74435467D01*
X160655909Y-74435460D01*
X160530883Y-74283116D01*
X160378539Y-74158090D01*
X160378532Y-74158086D01*
X160204733Y-74065188D01*
X160204727Y-74065186D01*
X160016132Y-74007976D01*
X160016129Y-74007975D01*
X159820000Y-73988659D01*
X159623870Y-74007975D01*
X159435266Y-74065188D01*
X159261467Y-74158086D01*
X159261460Y-74158090D01*
X159109116Y-74283116D01*
X159042353Y-74364468D01*
X158984607Y-74403802D01*
X158914763Y-74405673D01*
X158854994Y-74369485D01*
X158824279Y-74306729D01*
X158822500Y-74285803D01*
X158822500Y-74139964D01*
X158842185Y-74072925D01*
X158858815Y-74052287D01*
X159454086Y-73457015D01*
X159515407Y-73423532D01*
X159577758Y-73426036D01*
X159623868Y-73440024D01*
X159820000Y-73459341D01*
X160016132Y-73440024D01*
X160204727Y-73382814D01*
X160378538Y-73289910D01*
X160530883Y-73164883D01*
X160655910Y-73012538D01*
X160748814Y-72838727D01*
X160806024Y-72650132D01*
X160825341Y-72454000D01*
X174054659Y-72454000D01*
X174073975Y-72650129D01*
X174086841Y-72692543D01*
X174130055Y-72835000D01*
X174131188Y-72838733D01*
X174224086Y-73012532D01*
X174224090Y-73012539D01*
X174349116Y-73164883D01*
X174501460Y-73289909D01*
X174501467Y-73289913D01*
X174675266Y-73382811D01*
X174675269Y-73382811D01*
X174675273Y-73382814D01*
X174863868Y-73440024D01*
X175060000Y-73459341D01*
X175256132Y-73440024D01*
X175444727Y-73382814D01*
X175618538Y-73289910D01*
X175770883Y-73164883D01*
X175895910Y-73012538D01*
X175988814Y-72838727D01*
X176032332Y-72695264D01*
X176055200Y-72660371D01*
X176048799Y-72621955D01*
X176053362Y-72575625D01*
X176065341Y-72454000D01*
X176046024Y-72257868D01*
X175988814Y-72069273D01*
X175988811Y-72069269D01*
X175988811Y-72069266D01*
X175895913Y-71895467D01*
X175895909Y-71895460D01*
X175770883Y-71743116D01*
X175618539Y-71618090D01*
X175618532Y-71618086D01*
X175444733Y-71525188D01*
X175444727Y-71525186D01*
X175296314Y-71480165D01*
X175256129Y-71467975D01*
X175060000Y-71448659D01*
X174863870Y-71467975D01*
X174675266Y-71525188D01*
X174501467Y-71618086D01*
X174501460Y-71618090D01*
X174349116Y-71743116D01*
X174224090Y-71895460D01*
X174224086Y-71895467D01*
X174131188Y-72069266D01*
X174073975Y-72257870D01*
X174054659Y-72454000D01*
X160825341Y-72454000D01*
X160806024Y-72257868D01*
X160748814Y-72069273D01*
X160748811Y-72069269D01*
X160748811Y-72069266D01*
X160655913Y-71895467D01*
X160655909Y-71895460D01*
X160530883Y-71743116D01*
X160378539Y-71618090D01*
X160336045Y-71595376D01*
X160286201Y-71546413D01*
X160270500Y-71486019D01*
X160270500Y-70881979D01*
X160290185Y-70814940D01*
X160336047Y-70772621D01*
X160378538Y-70749910D01*
X160530883Y-70624883D01*
X160655910Y-70472538D01*
X160748814Y-70298727D01*
X160806024Y-70110132D01*
X160825341Y-69914000D01*
X174054659Y-69914000D01*
X174073975Y-70110129D01*
X174086841Y-70152543D01*
X174130055Y-70295000D01*
X174131188Y-70298733D01*
X174224086Y-70472532D01*
X174224090Y-70472539D01*
X174349116Y-70624883D01*
X174501460Y-70749909D01*
X174501467Y-70749913D01*
X174675266Y-70842811D01*
X174675269Y-70842811D01*
X174675273Y-70842814D01*
X174863868Y-70900024D01*
X175060000Y-70919341D01*
X175256132Y-70900024D01*
X175444727Y-70842814D01*
X175618538Y-70749910D01*
X175770883Y-70624883D01*
X175895910Y-70472538D01*
X175988814Y-70298727D01*
X176032332Y-70155264D01*
X176055200Y-70120371D01*
X176048799Y-70081955D01*
X176053362Y-70035625D01*
X176065341Y-69914000D01*
X176046024Y-69717868D01*
X175988814Y-69529273D01*
X175988811Y-69529269D01*
X175988811Y-69529266D01*
X175895913Y-69355467D01*
X175895909Y-69355460D01*
X175770883Y-69203116D01*
X175618539Y-69078090D01*
X175618532Y-69078086D01*
X175444733Y-68985188D01*
X175444727Y-68985186D01*
X175256132Y-68927976D01*
X175256129Y-68927975D01*
X175060000Y-68908659D01*
X174863870Y-68927975D01*
X174675266Y-68985188D01*
X174501467Y-69078086D01*
X174501460Y-69078090D01*
X174349116Y-69203116D01*
X174224090Y-69355460D01*
X174224086Y-69355467D01*
X174131188Y-69529266D01*
X174073975Y-69717870D01*
X174054659Y-69914000D01*
X160825341Y-69914000D01*
X160806024Y-69717868D01*
X160748814Y-69529273D01*
X160748811Y-69529269D01*
X160748811Y-69529266D01*
X160655913Y-69355467D01*
X160655909Y-69355460D01*
X160530883Y-69203116D01*
X160378539Y-69078090D01*
X160336045Y-69055376D01*
X160286201Y-69006413D01*
X160270500Y-68946019D01*
X160270500Y-68341979D01*
X160290185Y-68274940D01*
X160336047Y-68232621D01*
X160378538Y-68209910D01*
X160530883Y-68084883D01*
X160655910Y-67932538D01*
X160748814Y-67758727D01*
X160806024Y-67570132D01*
X160825341Y-67374000D01*
X174054659Y-67374000D01*
X174073975Y-67570129D01*
X174086841Y-67612543D01*
X174130055Y-67755000D01*
X174131188Y-67758733D01*
X174224086Y-67932532D01*
X174224090Y-67932539D01*
X174349116Y-68084883D01*
X174501460Y-68209909D01*
X174501467Y-68209913D01*
X174675266Y-68302811D01*
X174675269Y-68302811D01*
X174675273Y-68302814D01*
X174863868Y-68360024D01*
X175060000Y-68379341D01*
X175256132Y-68360024D01*
X175444727Y-68302814D01*
X175618538Y-68209910D01*
X175770883Y-68084883D01*
X175895910Y-67932538D01*
X175988814Y-67758727D01*
X176032332Y-67615264D01*
X176055200Y-67580371D01*
X176048799Y-67541955D01*
X176050959Y-67520026D01*
X176065341Y-67374000D01*
X176046024Y-67177868D01*
X175988814Y-66989273D01*
X175988811Y-66989269D01*
X175988811Y-66989266D01*
X175895913Y-66815467D01*
X175895909Y-66815460D01*
X175770883Y-66663116D01*
X175618539Y-66538090D01*
X175618532Y-66538086D01*
X175444733Y-66445188D01*
X175444727Y-66445186D01*
X175256132Y-66387976D01*
X175256129Y-66387975D01*
X175060000Y-66368659D01*
X174863870Y-66387975D01*
X174675266Y-66445188D01*
X174501467Y-66538086D01*
X174501460Y-66538090D01*
X174349116Y-66663116D01*
X174224090Y-66815460D01*
X174224086Y-66815467D01*
X174131188Y-66989266D01*
X174073975Y-67177870D01*
X174054659Y-67374000D01*
X160825341Y-67374000D01*
X160806024Y-67177868D01*
X160748814Y-66989273D01*
X160748811Y-66989269D01*
X160748811Y-66989266D01*
X160655913Y-66815467D01*
X160655909Y-66815460D01*
X160530883Y-66663116D01*
X160378539Y-66538090D01*
X160336045Y-66515376D01*
X160286201Y-66466413D01*
X160270500Y-66406019D01*
X160270500Y-65801979D01*
X160290185Y-65734940D01*
X160336047Y-65692621D01*
X160378538Y-65669910D01*
X160530883Y-65544883D01*
X160655910Y-65392538D01*
X160674662Y-65357456D01*
X160732074Y-65250047D01*
X160781036Y-65200203D01*
X160841432Y-65184500D01*
X164088436Y-65184500D01*
X164155475Y-65204185D01*
X164190487Y-65238062D01*
X164211515Y-65268528D01*
X164211516Y-65268529D01*
X164211517Y-65268530D01*
X164329760Y-65373283D01*
X164329762Y-65373284D01*
X164469634Y-65446696D01*
X164623014Y-65484500D01*
X164623015Y-65484500D01*
X164780985Y-65484500D01*
X164934365Y-65446696D01*
X165074240Y-65373283D01*
X165192483Y-65268530D01*
X165282220Y-65138523D01*
X165338237Y-64990818D01*
X165357278Y-64834000D01*
X174054659Y-64834000D01*
X174073975Y-65030129D01*
X174086841Y-65072543D01*
X174130055Y-65215000D01*
X174131188Y-65218733D01*
X174224086Y-65392532D01*
X174224090Y-65392539D01*
X174349116Y-65544883D01*
X174501460Y-65669909D01*
X174501467Y-65669913D01*
X174675266Y-65762811D01*
X174675269Y-65762811D01*
X174675273Y-65762814D01*
X174863868Y-65820024D01*
X175060000Y-65839341D01*
X175256132Y-65820024D01*
X175444727Y-65762814D01*
X175618538Y-65669910D01*
X175770883Y-65544883D01*
X175895910Y-65392538D01*
X175988814Y-65218727D01*
X176032332Y-65075264D01*
X176055200Y-65040371D01*
X176048799Y-65001955D01*
X176053362Y-64955625D01*
X176065341Y-64834000D01*
X176046024Y-64637868D01*
X175988814Y-64449273D01*
X175988811Y-64449269D01*
X175988811Y-64449266D01*
X175895913Y-64275467D01*
X175895909Y-64275460D01*
X175770883Y-64123116D01*
X175618539Y-63998090D01*
X175618532Y-63998086D01*
X175444733Y-63905188D01*
X175444727Y-63905186D01*
X175256132Y-63847976D01*
X175256129Y-63847975D01*
X175060000Y-63828659D01*
X174863870Y-63847975D01*
X174675266Y-63905188D01*
X174501467Y-63998086D01*
X174501460Y-63998090D01*
X174349116Y-64123116D01*
X174224090Y-64275460D01*
X174224086Y-64275467D01*
X174131188Y-64449266D01*
X174073975Y-64637870D01*
X174054659Y-64834000D01*
X165357278Y-64834000D01*
X165347692Y-64755047D01*
X165338237Y-64677181D01*
X165316992Y-64621164D01*
X165282220Y-64529477D01*
X165192483Y-64399470D01*
X165074240Y-64294717D01*
X165074238Y-64294716D01*
X165074237Y-64294715D01*
X164934365Y-64221303D01*
X164780986Y-64183500D01*
X164780985Y-64183500D01*
X164623015Y-64183500D01*
X164623014Y-64183500D01*
X164469634Y-64221303D01*
X164329762Y-64294715D01*
X164211515Y-64399471D01*
X164190487Y-64429938D01*
X164136205Y-64473930D01*
X164088436Y-64483500D01*
X160841432Y-64483500D01*
X160774393Y-64463815D01*
X160732074Y-64417953D01*
X160655913Y-64275467D01*
X160655909Y-64275460D01*
X160530883Y-64123116D01*
X160378539Y-63998090D01*
X160378532Y-63998086D01*
X160204733Y-63905188D01*
X160204727Y-63905186D01*
X160016132Y-63847976D01*
X160016129Y-63847975D01*
X159820000Y-63828659D01*
X159623870Y-63847975D01*
X159435266Y-63905188D01*
X159261467Y-63998086D01*
X159261460Y-63998090D01*
X159109116Y-64123116D01*
X158984090Y-64275460D01*
X158984086Y-64275467D01*
X158891188Y-64449266D01*
X158833975Y-64637870D01*
X158814659Y-64834000D01*
X158833975Y-65030129D01*
X158846841Y-65072543D01*
X158890055Y-65215000D01*
X158891188Y-65218733D01*
X158984086Y-65392532D01*
X158984090Y-65392539D01*
X159109116Y-65544883D01*
X159261460Y-65669909D01*
X159261461Y-65669909D01*
X159261462Y-65669910D01*
X159303952Y-65692621D01*
X159353796Y-65741581D01*
X159369500Y-65801979D01*
X159369500Y-66406019D01*
X159349815Y-66473058D01*
X159303955Y-66515376D01*
X159261460Y-66538090D01*
X159109116Y-66663116D01*
X158984090Y-66815460D01*
X158984086Y-66815467D01*
X158891188Y-66989266D01*
X158833975Y-67177870D01*
X158814659Y-67374000D01*
X158833975Y-67570129D01*
X158846841Y-67612543D01*
X158890055Y-67755000D01*
X158891188Y-67758733D01*
X158984086Y-67932532D01*
X158984090Y-67932539D01*
X159109116Y-68084883D01*
X159261460Y-68209909D01*
X159261461Y-68209909D01*
X159261462Y-68209910D01*
X159303952Y-68232621D01*
X159353796Y-68281581D01*
X159369500Y-68341979D01*
X159369500Y-68946019D01*
X159349815Y-69013058D01*
X159303955Y-69055376D01*
X159261460Y-69078090D01*
X159109116Y-69203116D01*
X158984090Y-69355460D01*
X158984086Y-69355467D01*
X158891188Y-69529266D01*
X158833975Y-69717870D01*
X158814659Y-69914000D01*
X158833975Y-70110129D01*
X158846841Y-70152543D01*
X158890055Y-70295000D01*
X158891188Y-70298733D01*
X158984086Y-70472532D01*
X158984090Y-70472539D01*
X159109116Y-70624883D01*
X159261460Y-70749909D01*
X159261461Y-70749909D01*
X159261462Y-70749910D01*
X159303952Y-70772621D01*
X159353796Y-70821581D01*
X159369500Y-70881979D01*
X159369500Y-71486019D01*
X159349815Y-71553058D01*
X159303955Y-71595376D01*
X159261460Y-71618090D01*
X159109116Y-71743116D01*
X158984090Y-71895460D01*
X158984086Y-71895467D01*
X158891188Y-72069266D01*
X158833975Y-72257870D01*
X158814659Y-72454000D01*
X158833975Y-72650129D01*
X158833976Y-72650132D01*
X158844741Y-72685621D01*
X158847962Y-72696237D01*
X158848585Y-72766104D01*
X158816982Y-72819913D01*
X158011513Y-73625383D01*
X158011509Y-73625389D01*
X157952201Y-73728112D01*
X157952200Y-73728117D01*
X157921500Y-73842691D01*
X151720500Y-73842691D01*
X151720500Y-69459913D01*
X153919500Y-69459913D01*
X153919500Y-71299418D01*
X153931131Y-71357895D01*
X153931132Y-71357896D01*
X153975447Y-71424218D01*
X154041769Y-71468533D01*
X154041770Y-71468534D01*
X154100247Y-71480165D01*
X154100250Y-71480166D01*
X154100252Y-71480166D01*
X155939750Y-71480166D01*
X155939751Y-71480165D01*
X155954568Y-71477218D01*
X155998229Y-71468534D01*
X155998229Y-71468533D01*
X155998231Y-71468533D01*
X156064552Y-71424218D01*
X156108867Y-71357897D01*
X156108867Y-71357895D01*
X156108868Y-71357895D01*
X156117552Y-71314234D01*
X156120500Y-71299414D01*
X156120500Y-69459918D01*
X156120500Y-69459915D01*
X156120499Y-69459913D01*
X156108868Y-69401436D01*
X156108867Y-69401435D01*
X156064552Y-69335113D01*
X155998230Y-69290798D01*
X155998229Y-69290797D01*
X155939752Y-69279166D01*
X155939748Y-69279166D01*
X154100252Y-69279166D01*
X154100247Y-69279166D01*
X154041770Y-69290797D01*
X154041769Y-69290798D01*
X153975447Y-69335113D01*
X153931132Y-69401435D01*
X153931131Y-69401436D01*
X153919500Y-69459913D01*
X151720500Y-69459913D01*
X151720500Y-67839665D01*
X153914785Y-67839665D01*
X153914785Y-67839666D01*
X153933602Y-68042748D01*
X153989417Y-68238913D01*
X153989422Y-68238926D01*
X154080327Y-68421487D01*
X154203237Y-68584247D01*
X154353958Y-68721646D01*
X154353960Y-68721648D01*
X154424986Y-68765625D01*
X154527363Y-68829014D01*
X154717544Y-68902690D01*
X154918024Y-68940166D01*
X154918026Y-68940166D01*
X155121974Y-68940166D01*
X155121976Y-68940166D01*
X155322456Y-68902690D01*
X155512637Y-68829014D01*
X155686041Y-68721647D01*
X155836764Y-68584245D01*
X155959673Y-68421487D01*
X156050582Y-68238916D01*
X156106397Y-68042749D01*
X156125215Y-67839666D01*
X156106397Y-67636583D01*
X156050582Y-67440416D01*
X156017510Y-67373999D01*
X155978197Y-67295047D01*
X155959673Y-67257845D01*
X155836764Y-67095087D01*
X155836762Y-67095084D01*
X155686041Y-66957685D01*
X155686039Y-66957683D01*
X155512642Y-66850321D01*
X155512635Y-66850317D01*
X155417546Y-66813480D01*
X155322456Y-66776642D01*
X155121976Y-66739166D01*
X154918024Y-66739166D01*
X154717544Y-66776642D01*
X154717541Y-66776642D01*
X154717541Y-66776643D01*
X154527364Y-66850317D01*
X154527357Y-66850321D01*
X154353960Y-66957683D01*
X154353958Y-66957685D01*
X154203237Y-67095084D01*
X154080327Y-67257844D01*
X153989422Y-67440405D01*
X153989417Y-67440418D01*
X153933602Y-67636583D01*
X153914785Y-67839665D01*
X151720500Y-67839665D01*
X151720500Y-62294000D01*
X158814659Y-62294000D01*
X158833975Y-62490129D01*
X158846841Y-62532543D01*
X158890055Y-62675000D01*
X158891188Y-62678733D01*
X158984086Y-62852532D01*
X158984090Y-62852539D01*
X159109116Y-63004883D01*
X159261460Y-63129909D01*
X159261467Y-63129913D01*
X159435266Y-63222811D01*
X159435269Y-63222811D01*
X159435273Y-63222814D01*
X159623868Y-63280024D01*
X159820000Y-63299341D01*
X160016132Y-63280024D01*
X160204727Y-63222814D01*
X160378538Y-63129910D01*
X160530883Y-63004883D01*
X160655910Y-62852538D01*
X160748814Y-62678727D01*
X160806024Y-62490132D01*
X160825341Y-62294000D01*
X160806024Y-62097868D01*
X160748814Y-61909273D01*
X160748811Y-61909269D01*
X160748811Y-61909266D01*
X160655913Y-61735467D01*
X160655909Y-61735460D01*
X160530883Y-61583116D01*
X160378539Y-61458090D01*
X160378532Y-61458086D01*
X160204733Y-61365188D01*
X160204727Y-61365186D01*
X160016132Y-61307976D01*
X160016129Y-61307975D01*
X159820000Y-61288659D01*
X159623870Y-61307975D01*
X159435266Y-61365188D01*
X159261467Y-61458086D01*
X159261460Y-61458090D01*
X159109116Y-61583116D01*
X158984090Y-61735460D01*
X158984086Y-61735467D01*
X158891188Y-61909266D01*
X158833975Y-62097870D01*
X158814659Y-62294000D01*
X151720500Y-62294000D01*
X151720500Y-58638730D01*
X154244500Y-58638730D01*
X154244500Y-59947269D01*
X154247353Y-59977699D01*
X154247353Y-59977701D01*
X154292206Y-60105880D01*
X154292207Y-60105882D01*
X154372850Y-60215150D01*
X154482118Y-60295793D01*
X154524845Y-60310744D01*
X154610299Y-60340646D01*
X154640730Y-60343500D01*
X154640734Y-60343500D01*
X156199270Y-60343500D01*
X156229699Y-60340646D01*
X156229701Y-60340646D01*
X156310027Y-60312538D01*
X156357882Y-60295793D01*
X156467150Y-60215150D01*
X156547793Y-60105882D01*
X156573516Y-60032369D01*
X156592646Y-59977701D01*
X156592646Y-59977699D01*
X156595500Y-59947269D01*
X156595500Y-59754000D01*
X158814659Y-59754000D01*
X158833975Y-59950129D01*
X158846828Y-59992499D01*
X158890055Y-60135000D01*
X158891188Y-60138733D01*
X158984086Y-60312532D01*
X158984090Y-60312539D01*
X159109116Y-60464883D01*
X159261460Y-60589909D01*
X159261467Y-60589913D01*
X159435266Y-60682811D01*
X159435269Y-60682811D01*
X159435273Y-60682814D01*
X159623868Y-60740024D01*
X159820000Y-60759341D01*
X160016132Y-60740024D01*
X160204727Y-60682814D01*
X160378538Y-60589910D01*
X160530883Y-60464883D01*
X160655910Y-60312538D01*
X160748814Y-60138727D01*
X160806024Y-59950132D01*
X160825341Y-59754000D01*
X160806024Y-59557868D01*
X160748814Y-59369273D01*
X160748811Y-59369269D01*
X160748811Y-59369266D01*
X160655913Y-59195467D01*
X160655909Y-59195460D01*
X160530883Y-59043116D01*
X160378539Y-58918090D01*
X160378532Y-58918086D01*
X160204733Y-58825188D01*
X160204727Y-58825186D01*
X160016132Y-58767976D01*
X160016129Y-58767975D01*
X159820000Y-58748659D01*
X159623870Y-58767975D01*
X159435266Y-58825188D01*
X159261467Y-58918086D01*
X159261460Y-58918090D01*
X159109116Y-59043116D01*
X158984090Y-59195460D01*
X158984086Y-59195467D01*
X158891188Y-59369266D01*
X158833975Y-59557870D01*
X158814659Y-59754000D01*
X156595500Y-59754000D01*
X156595500Y-58638730D01*
X156592646Y-58608300D01*
X156592646Y-58608298D01*
X156547793Y-58480119D01*
X156547792Y-58480117D01*
X156513359Y-58433462D01*
X156467150Y-58370850D01*
X156357882Y-58290207D01*
X156357880Y-58290206D01*
X156229700Y-58245353D01*
X156199270Y-58242500D01*
X156199266Y-58242500D01*
X154640734Y-58242500D01*
X154640730Y-58242500D01*
X154610300Y-58245353D01*
X154610298Y-58245353D01*
X154482119Y-58290206D01*
X154482117Y-58290207D01*
X154372850Y-58370850D01*
X154292207Y-58480117D01*
X154292206Y-58480119D01*
X154247353Y-58608298D01*
X154247353Y-58608300D01*
X154244500Y-58638730D01*
X151720500Y-58638730D01*
X151720500Y-57214000D01*
X158814659Y-57214000D01*
X158833975Y-57410129D01*
X158846841Y-57452543D01*
X158890055Y-57595000D01*
X158891188Y-57598733D01*
X158984086Y-57772532D01*
X158984090Y-57772539D01*
X159109116Y-57924883D01*
X159261460Y-58049909D01*
X159261467Y-58049913D01*
X159435266Y-58142811D01*
X159435269Y-58142811D01*
X159435273Y-58142814D01*
X159623868Y-58200024D01*
X159820000Y-58219341D01*
X160016132Y-58200024D01*
X160107700Y-58172247D01*
X161923500Y-58172247D01*
X161923500Y-59811752D01*
X161935131Y-59870229D01*
X161935132Y-59870230D01*
X161979447Y-59936552D01*
X162045769Y-59980867D01*
X162045770Y-59980868D01*
X162104247Y-59992499D01*
X162104250Y-59992500D01*
X162104252Y-59992500D01*
X163743750Y-59992500D01*
X163743751Y-59992499D01*
X163758568Y-59989552D01*
X163802229Y-59980868D01*
X163802229Y-59980867D01*
X163802231Y-59980867D01*
X163868552Y-59936552D01*
X163912867Y-59870231D01*
X163912867Y-59870229D01*
X163912868Y-59870229D01*
X163924499Y-59811752D01*
X163924500Y-59811750D01*
X163924500Y-58992000D01*
X164458659Y-58992000D01*
X164477975Y-59188129D01*
X164480201Y-59195467D01*
X164519480Y-59324953D01*
X164535188Y-59376733D01*
X164628086Y-59550532D01*
X164628090Y-59550539D01*
X164753116Y-59702883D01*
X164905460Y-59827909D01*
X164905467Y-59827913D01*
X165079266Y-59920811D01*
X165079269Y-59920811D01*
X165079273Y-59920814D01*
X165267868Y-59978024D01*
X165464000Y-59997341D01*
X165660132Y-59978024D01*
X165848727Y-59920814D01*
X165848732Y-59920811D01*
X165848736Y-59920810D01*
X165854355Y-59918483D01*
X165855232Y-59920602D01*
X165913609Y-59908429D01*
X165978861Y-59933408D01*
X165991380Y-59944351D01*
X168525540Y-62478511D01*
X168581489Y-62534460D01*
X168581491Y-62534461D01*
X168581495Y-62534464D01*
X168647150Y-62572369D01*
X168650011Y-62574021D01*
X168726438Y-62594500D01*
X174013672Y-62594500D01*
X174080711Y-62614185D01*
X174126466Y-62666989D01*
X174128787Y-62673131D01*
X174128856Y-62673103D01*
X174131185Y-62678726D01*
X174224086Y-62852532D01*
X174224090Y-62852539D01*
X174349116Y-63004883D01*
X174501460Y-63129909D01*
X174501467Y-63129913D01*
X174675266Y-63222811D01*
X174675269Y-63222811D01*
X174675273Y-63222814D01*
X174863868Y-63280024D01*
X175060000Y-63299341D01*
X175256132Y-63280024D01*
X175444727Y-63222814D01*
X175618538Y-63129910D01*
X175770883Y-63004883D01*
X175895910Y-62852538D01*
X175988814Y-62678727D01*
X176032332Y-62535264D01*
X176055200Y-62500371D01*
X176048799Y-62461955D01*
X176053362Y-62415625D01*
X176065341Y-62294000D01*
X176046024Y-62097868D01*
X175988814Y-61909273D01*
X175988811Y-61909269D01*
X175988811Y-61909266D01*
X175895913Y-61735467D01*
X175895909Y-61735460D01*
X175770883Y-61583116D01*
X175618539Y-61458090D01*
X175618532Y-61458086D01*
X175444733Y-61365188D01*
X175444727Y-61365186D01*
X175256132Y-61307976D01*
X175256129Y-61307975D01*
X175060000Y-61288659D01*
X174863870Y-61307975D01*
X174675266Y-61365188D01*
X174501467Y-61458086D01*
X174501460Y-61458090D01*
X174349116Y-61583116D01*
X174224090Y-61735460D01*
X174224086Y-61735467D01*
X174131185Y-61909273D01*
X174128856Y-61914897D01*
X174126739Y-61914020D01*
X174094055Y-61963917D01*
X174030249Y-61992387D01*
X174013672Y-61993500D01*
X168941833Y-61993500D01*
X168874794Y-61973815D01*
X168854152Y-61957181D01*
X166416351Y-59519380D01*
X166382866Y-59458057D01*
X166387850Y-59388365D01*
X166390550Y-59382383D01*
X166390483Y-59382355D01*
X166392810Y-59376736D01*
X166392811Y-59376732D01*
X166392814Y-59376727D01*
X166450024Y-59188132D01*
X166469341Y-58992000D01*
X166450024Y-58795868D01*
X166392814Y-58607273D01*
X166392811Y-58607269D01*
X166392811Y-58607266D01*
X166299913Y-58433467D01*
X166299909Y-58433460D01*
X166174883Y-58281116D01*
X166042226Y-58172247D01*
X167638500Y-58172247D01*
X167638500Y-59811752D01*
X167650131Y-59870229D01*
X167650132Y-59870230D01*
X167694447Y-59936552D01*
X167760769Y-59980867D01*
X167760770Y-59980868D01*
X167819247Y-59992499D01*
X167819250Y-59992500D01*
X167819252Y-59992500D01*
X169458750Y-59992500D01*
X169458751Y-59992499D01*
X169473568Y-59989552D01*
X169517229Y-59980868D01*
X169517229Y-59980867D01*
X169517231Y-59980867D01*
X169583552Y-59936552D01*
X169627867Y-59870231D01*
X169627867Y-59870229D01*
X169627868Y-59870229D01*
X169639499Y-59811752D01*
X169639500Y-59811750D01*
X169639500Y-58992000D01*
X170173659Y-58992000D01*
X170192975Y-59188129D01*
X170195201Y-59195467D01*
X170234480Y-59324953D01*
X170250188Y-59376733D01*
X170343086Y-59550532D01*
X170343090Y-59550539D01*
X170468116Y-59702883D01*
X170620460Y-59827909D01*
X170620467Y-59827913D01*
X170794266Y-59920811D01*
X170794269Y-59920811D01*
X170794273Y-59920814D01*
X170982868Y-59978024D01*
X171179000Y-59997341D01*
X171375132Y-59978024D01*
X171563727Y-59920814D01*
X171563735Y-59920810D01*
X171712839Y-59841112D01*
X171737538Y-59827910D01*
X171827597Y-59754000D01*
X174054659Y-59754000D01*
X174073975Y-59950129D01*
X174086828Y-59992499D01*
X174130055Y-60135000D01*
X174131188Y-60138733D01*
X174224086Y-60312532D01*
X174224090Y-60312539D01*
X174349116Y-60464883D01*
X174501460Y-60589909D01*
X174501467Y-60589913D01*
X174675266Y-60682811D01*
X174675269Y-60682811D01*
X174675273Y-60682814D01*
X174863868Y-60740024D01*
X175060000Y-60759341D01*
X175256132Y-60740024D01*
X175444727Y-60682814D01*
X175618538Y-60589910D01*
X175770883Y-60464883D01*
X175895910Y-60312538D01*
X175988814Y-60138727D01*
X176032332Y-59995264D01*
X176055200Y-59960371D01*
X176048799Y-59921955D01*
X176065341Y-59754000D01*
X176046024Y-59557868D01*
X175988814Y-59369273D01*
X175988811Y-59369269D01*
X175988811Y-59369266D01*
X175895913Y-59195467D01*
X175895909Y-59195460D01*
X175770883Y-59043116D01*
X175618539Y-58918090D01*
X175618532Y-58918086D01*
X175444733Y-58825188D01*
X175444727Y-58825186D01*
X175256132Y-58767976D01*
X175256129Y-58767975D01*
X175060000Y-58748659D01*
X174863870Y-58767975D01*
X174675266Y-58825188D01*
X174501467Y-58918086D01*
X174501460Y-58918090D01*
X174349116Y-59043116D01*
X174224090Y-59195460D01*
X174224086Y-59195467D01*
X174131188Y-59369266D01*
X174073975Y-59557870D01*
X174054659Y-59754000D01*
X171827597Y-59754000D01*
X171889883Y-59702883D01*
X172014910Y-59550538D01*
X172066323Y-59454351D01*
X172107811Y-59376733D01*
X172107811Y-59376732D01*
X172107814Y-59376727D01*
X172165024Y-59188132D01*
X172184341Y-58992000D01*
X172165024Y-58795868D01*
X172107814Y-58607273D01*
X172107811Y-58607269D01*
X172107811Y-58607266D01*
X172014913Y-58433467D01*
X172014909Y-58433460D01*
X171889883Y-58281116D01*
X171737539Y-58156090D01*
X171737532Y-58156086D01*
X171563733Y-58063188D01*
X171563727Y-58063186D01*
X171375132Y-58005976D01*
X171375129Y-58005975D01*
X171179000Y-57986659D01*
X170982870Y-58005975D01*
X170794266Y-58063188D01*
X170620467Y-58156086D01*
X170620460Y-58156090D01*
X170468116Y-58281116D01*
X170343090Y-58433460D01*
X170343086Y-58433467D01*
X170250188Y-58607266D01*
X170192975Y-58795870D01*
X170173659Y-58992000D01*
X169639500Y-58992000D01*
X169639500Y-58172249D01*
X169639499Y-58172247D01*
X169627868Y-58113770D01*
X169627867Y-58113769D01*
X169583552Y-58047447D01*
X169517230Y-58003132D01*
X169517229Y-58003131D01*
X169458752Y-57991500D01*
X169458748Y-57991500D01*
X167819252Y-57991500D01*
X167819247Y-57991500D01*
X167760770Y-58003131D01*
X167760769Y-58003132D01*
X167694447Y-58047447D01*
X167650132Y-58113769D01*
X167650131Y-58113770D01*
X167638500Y-58172247D01*
X166042226Y-58172247D01*
X166022539Y-58156090D01*
X166022532Y-58156086D01*
X165848733Y-58063188D01*
X165848727Y-58063186D01*
X165660132Y-58005976D01*
X165660129Y-58005975D01*
X165464000Y-57986659D01*
X165267870Y-58005975D01*
X165079266Y-58063188D01*
X164905467Y-58156086D01*
X164905460Y-58156090D01*
X164753116Y-58281116D01*
X164628090Y-58433460D01*
X164628086Y-58433467D01*
X164535188Y-58607266D01*
X164477975Y-58795870D01*
X164458659Y-58992000D01*
X163924500Y-58992000D01*
X163924500Y-58172249D01*
X163924499Y-58172247D01*
X163912868Y-58113770D01*
X163912867Y-58113769D01*
X163868552Y-58047447D01*
X163802230Y-58003132D01*
X163802229Y-58003131D01*
X163743752Y-57991500D01*
X163743748Y-57991500D01*
X162104252Y-57991500D01*
X162104247Y-57991500D01*
X162045770Y-58003131D01*
X162045769Y-58003132D01*
X161979447Y-58047447D01*
X161935132Y-58113769D01*
X161935131Y-58113770D01*
X161923500Y-58172247D01*
X160107700Y-58172247D01*
X160204727Y-58142814D01*
X160259065Y-58113770D01*
X160293245Y-58095500D01*
X160378538Y-58049910D01*
X160530883Y-57924883D01*
X160655910Y-57772538D01*
X160748814Y-57598727D01*
X160806024Y-57410132D01*
X160825341Y-57214000D01*
X174054659Y-57214000D01*
X174073975Y-57410129D01*
X174086841Y-57452543D01*
X174130055Y-57595000D01*
X174131188Y-57598733D01*
X174224086Y-57772532D01*
X174224090Y-57772539D01*
X174349116Y-57924883D01*
X174501460Y-58049909D01*
X174501467Y-58049913D01*
X174675266Y-58142811D01*
X174675269Y-58142811D01*
X174675273Y-58142814D01*
X174863868Y-58200024D01*
X175060000Y-58219341D01*
X175256132Y-58200024D01*
X175444727Y-58142814D01*
X175499065Y-58113770D01*
X175533245Y-58095500D01*
X175618538Y-58049910D01*
X175770883Y-57924883D01*
X175895910Y-57772538D01*
X175988814Y-57598727D01*
X176032332Y-57455264D01*
X176055200Y-57420371D01*
X176048799Y-57381955D01*
X176053362Y-57335625D01*
X176065341Y-57214000D01*
X176046024Y-57017868D01*
X175988814Y-56829273D01*
X175988811Y-56829269D01*
X175988811Y-56829266D01*
X175895913Y-56655467D01*
X175895909Y-56655460D01*
X175770883Y-56503116D01*
X175618539Y-56378090D01*
X175618532Y-56378086D01*
X175444733Y-56285188D01*
X175444727Y-56285186D01*
X175256132Y-56227976D01*
X175256129Y-56227975D01*
X175060000Y-56208659D01*
X174863870Y-56227975D01*
X174675266Y-56285188D01*
X174501467Y-56378086D01*
X174501460Y-56378090D01*
X174349116Y-56503116D01*
X174224090Y-56655460D01*
X174224086Y-56655467D01*
X174131188Y-56829266D01*
X174073975Y-57017870D01*
X174054659Y-57214000D01*
X160825341Y-57214000D01*
X160806024Y-57017868D01*
X160748814Y-56829273D01*
X160748811Y-56829269D01*
X160748811Y-56829266D01*
X160655913Y-56655467D01*
X160655909Y-56655460D01*
X160530883Y-56503116D01*
X160378539Y-56378090D01*
X160378532Y-56378086D01*
X160204733Y-56285188D01*
X160204727Y-56285186D01*
X160016132Y-56227976D01*
X160016129Y-56227975D01*
X159820000Y-56208659D01*
X159623870Y-56227975D01*
X159435266Y-56285188D01*
X159261467Y-56378086D01*
X159261460Y-56378090D01*
X159109116Y-56503116D01*
X158984090Y-56655460D01*
X158984086Y-56655467D01*
X158891188Y-56829266D01*
X158833975Y-57017870D01*
X158814659Y-57214000D01*
X151720500Y-57214000D01*
X151720500Y-50042730D01*
X154244500Y-50042730D01*
X154244500Y-51351269D01*
X154247353Y-51381699D01*
X154247353Y-51381701D01*
X154290280Y-51504375D01*
X154292207Y-51509882D01*
X154372850Y-51619150D01*
X154482118Y-51699793D01*
X154524845Y-51714744D01*
X154610299Y-51744646D01*
X154640730Y-51747500D01*
X154640734Y-51747500D01*
X156199270Y-51747500D01*
X156229699Y-51744646D01*
X156229701Y-51744646D01*
X156293790Y-51722219D01*
X156357882Y-51699793D01*
X156467150Y-51619150D01*
X156547793Y-51509882D01*
X156573115Y-51437515D01*
X156592646Y-51381701D01*
X156592646Y-51381699D01*
X156595500Y-51351269D01*
X156595500Y-50042730D01*
X156592646Y-50012300D01*
X156592646Y-50012298D01*
X156547793Y-49884119D01*
X156547792Y-49884117D01*
X156540338Y-49874017D01*
X156467150Y-49774850D01*
X156357882Y-49694207D01*
X156357880Y-49694206D01*
X156229700Y-49649353D01*
X156199270Y-49646500D01*
X156199266Y-49646500D01*
X154640734Y-49646500D01*
X154640730Y-49646500D01*
X154610300Y-49649353D01*
X154610298Y-49649353D01*
X154482119Y-49694206D01*
X154482117Y-49694207D01*
X154372850Y-49774850D01*
X154292207Y-49884117D01*
X154292206Y-49884119D01*
X154247353Y-50012298D01*
X154247353Y-50012300D01*
X154244500Y-50042730D01*
X151720500Y-50042730D01*
X151720500Y-47054000D01*
X158814659Y-47054000D01*
X158833975Y-47250129D01*
X158833976Y-47250132D01*
X158890055Y-47435000D01*
X158891188Y-47438733D01*
X158984086Y-47612532D01*
X158984090Y-47612539D01*
X159109116Y-47764883D01*
X159261460Y-47889909D01*
X159261467Y-47889913D01*
X159435266Y-47982811D01*
X159435269Y-47982811D01*
X159435273Y-47982814D01*
X159623868Y-48040024D01*
X159820000Y-48059341D01*
X160016132Y-48040024D01*
X160204727Y-47982814D01*
X160204732Y-47982811D01*
X160204736Y-47982810D01*
X160210355Y-47980483D01*
X160211232Y-47982602D01*
X160269609Y-47970429D01*
X160334861Y-47995408D01*
X160347380Y-48006351D01*
X160583181Y-48242152D01*
X160616666Y-48303475D01*
X160619500Y-48329833D01*
X160619500Y-48693666D01*
X160599815Y-48760705D01*
X160547011Y-48806460D01*
X160477853Y-48816404D01*
X160416835Y-48789519D01*
X160378539Y-48758091D01*
X160378532Y-48758086D01*
X160204733Y-48665188D01*
X160204727Y-48665186D01*
X160016132Y-48607976D01*
X160016129Y-48607975D01*
X159820000Y-48588659D01*
X159623870Y-48607975D01*
X159435266Y-48665188D01*
X159261467Y-48758086D01*
X159261460Y-48758090D01*
X159109116Y-48883116D01*
X158984090Y-49035460D01*
X158984086Y-49035467D01*
X158891188Y-49209266D01*
X158833975Y-49397870D01*
X158814659Y-49594000D01*
X158833975Y-49790129D01*
X158846841Y-49832543D01*
X158890055Y-49975000D01*
X158891188Y-49978733D01*
X158984086Y-50152532D01*
X158984090Y-50152539D01*
X159109116Y-50304883D01*
X159261460Y-50429909D01*
X159261467Y-50429913D01*
X159435266Y-50522811D01*
X159435269Y-50522811D01*
X159435273Y-50522814D01*
X159623868Y-50580024D01*
X159820000Y-50599341D01*
X160016132Y-50580024D01*
X160204727Y-50522814D01*
X160378538Y-50429910D01*
X160416834Y-50398480D01*
X160481144Y-50371167D01*
X160550011Y-50382957D01*
X160601572Y-50430109D01*
X160619500Y-50494333D01*
X160619500Y-51233666D01*
X160599815Y-51300705D01*
X160547011Y-51346460D01*
X160477853Y-51356404D01*
X160416835Y-51329519D01*
X160378539Y-51298091D01*
X160378532Y-51298086D01*
X160204733Y-51205188D01*
X160204727Y-51205186D01*
X160016132Y-51147976D01*
X160016129Y-51147975D01*
X159820000Y-51128659D01*
X159623870Y-51147975D01*
X159435266Y-51205188D01*
X159261467Y-51298086D01*
X159261460Y-51298090D01*
X159109116Y-51423116D01*
X158984090Y-51575460D01*
X158984086Y-51575467D01*
X158891188Y-51749266D01*
X158833975Y-51937870D01*
X158814659Y-52134000D01*
X158833975Y-52330129D01*
X158844981Y-52366409D01*
X158890055Y-52515000D01*
X158891188Y-52518733D01*
X158984086Y-52692532D01*
X158984090Y-52692539D01*
X159109116Y-52844883D01*
X159261460Y-52969909D01*
X159261467Y-52969913D01*
X159435266Y-53062811D01*
X159435269Y-53062811D01*
X159435273Y-53062814D01*
X159623868Y-53120024D01*
X159820000Y-53139341D01*
X160016132Y-53120024D01*
X160204727Y-53062814D01*
X160378538Y-52969910D01*
X160530883Y-52844883D01*
X160655910Y-52692538D01*
X160748814Y-52518727D01*
X160771836Y-52442831D01*
X160810132Y-52384395D01*
X160873945Y-52355939D01*
X160943012Y-52366499D01*
X160978177Y-52391148D01*
X161389356Y-52802327D01*
X161422841Y-52863650D01*
X161417857Y-52933342D01*
X161408499Y-52952040D01*
X161408748Y-52952176D01*
X161406626Y-52956061D01*
X161382331Y-53009260D01*
X161341825Y-53147210D01*
X161341822Y-53147222D01*
X161333500Y-53205109D01*
X161333500Y-53777004D01*
X161338651Y-53822728D01*
X161360144Y-53867356D01*
X161371496Y-53936297D01*
X161355943Y-53973339D01*
X161359913Y-53975251D01*
X161353850Y-53987839D01*
X161333500Y-54076995D01*
X161333500Y-54152500D01*
X161313815Y-54219539D01*
X161261011Y-54265294D01*
X161209500Y-54276500D01*
X160816309Y-54276500D01*
X160749270Y-54256815D01*
X160706951Y-54210953D01*
X160655909Y-54115460D01*
X160530883Y-53963116D01*
X160378539Y-53838090D01*
X160378532Y-53838086D01*
X160204733Y-53745188D01*
X160204727Y-53745186D01*
X160016132Y-53687976D01*
X160016129Y-53687975D01*
X159820000Y-53668659D01*
X159623870Y-53687975D01*
X159435266Y-53745188D01*
X159261467Y-53838086D01*
X159261460Y-53838090D01*
X159109116Y-53963116D01*
X158984090Y-54115460D01*
X158984086Y-54115467D01*
X158891188Y-54289266D01*
X158833975Y-54477870D01*
X158814659Y-54674000D01*
X158833975Y-54870129D01*
X158845180Y-54907065D01*
X158890055Y-55055000D01*
X158891188Y-55058733D01*
X158984086Y-55232532D01*
X158984090Y-55232539D01*
X159109116Y-55384883D01*
X159261460Y-55509909D01*
X159261467Y-55509913D01*
X159435266Y-55602811D01*
X159435269Y-55602811D01*
X159435273Y-55602814D01*
X159623868Y-55660024D01*
X159820000Y-55679341D01*
X160016132Y-55660024D01*
X160204727Y-55602814D01*
X160378538Y-55509910D01*
X160530883Y-55384883D01*
X160655910Y-55232538D01*
X160748814Y-55058727D01*
X160761066Y-55018335D01*
X160777094Y-54965504D01*
X160815392Y-54907065D01*
X160879204Y-54878609D01*
X160895754Y-54877500D01*
X161325780Y-54877500D01*
X161392819Y-54897185D01*
X161430095Y-54934460D01*
X161484360Y-55018898D01*
X161484361Y-55018899D01*
X161522666Y-55063105D01*
X161555276Y-55091362D01*
X161631315Y-55157250D01*
X161631322Y-55157255D01*
X161631327Y-55157259D01*
X161667141Y-55180275D01*
X161680527Y-55188878D01*
X161680543Y-55188887D01*
X161808921Y-55247515D01*
X161811317Y-55248609D01*
X161867439Y-55265088D01*
X161867441Y-55265088D01*
X161867443Y-55265089D01*
X161909878Y-55271189D01*
X162009754Y-55285550D01*
X162009755Y-55285550D01*
X162068242Y-55285550D01*
X162068245Y-55285550D01*
X162080681Y-55283761D01*
X162098327Y-55282500D01*
X162479673Y-55282500D01*
X162497318Y-55283761D01*
X162509755Y-55285550D01*
X162509758Y-55285550D01*
X162568245Y-55285550D01*
X162568246Y-55285550D01*
X162682480Y-55269125D01*
X162710556Y-55265089D01*
X162710557Y-55265088D01*
X162710561Y-55265088D01*
X162766683Y-55248609D01*
X162810278Y-55228699D01*
X162897456Y-55188887D01*
X162897460Y-55188884D01*
X162897468Y-55188881D01*
X162946673Y-55157259D01*
X162946681Y-55157252D01*
X162946684Y-55157250D01*
X162975590Y-55132202D01*
X163055334Y-55063105D01*
X163093639Y-55018899D01*
X163160238Y-54915268D01*
X163171368Y-54897950D01*
X163171368Y-54897949D01*
X163171371Y-54897945D01*
X163195669Y-54844740D01*
X163236176Y-54706785D01*
X163240890Y-54674000D01*
X174054659Y-54674000D01*
X174073975Y-54870129D01*
X174085180Y-54907065D01*
X174130055Y-55055000D01*
X174131188Y-55058733D01*
X174224086Y-55232532D01*
X174224090Y-55232539D01*
X174349116Y-55384883D01*
X174501460Y-55509909D01*
X174501467Y-55509913D01*
X174675266Y-55602811D01*
X174675269Y-55602811D01*
X174675273Y-55602814D01*
X174863868Y-55660024D01*
X175060000Y-55679341D01*
X175256132Y-55660024D01*
X175444727Y-55602814D01*
X175618538Y-55509910D01*
X175770883Y-55384883D01*
X175895910Y-55232538D01*
X175988814Y-55058727D01*
X176032332Y-54915264D01*
X176055200Y-54880371D01*
X176048799Y-54841955D01*
X176053362Y-54795625D01*
X176065341Y-54674000D01*
X176046024Y-54477868D01*
X175988814Y-54289273D01*
X175988811Y-54289269D01*
X175988811Y-54289266D01*
X175895913Y-54115467D01*
X175895909Y-54115460D01*
X175770883Y-53963116D01*
X175618539Y-53838090D01*
X175618532Y-53838086D01*
X175444733Y-53745188D01*
X175444727Y-53745186D01*
X175256132Y-53687976D01*
X175256129Y-53687975D01*
X175060000Y-53668659D01*
X174863870Y-53687975D01*
X174675266Y-53745188D01*
X174501467Y-53838086D01*
X174501460Y-53838090D01*
X174349116Y-53963116D01*
X174224090Y-54115460D01*
X174224086Y-54115467D01*
X174131188Y-54289266D01*
X174073975Y-54477870D01*
X174054659Y-54674000D01*
X163240890Y-54674000D01*
X163244500Y-54648889D01*
X163244500Y-54077000D01*
X163239348Y-54031272D01*
X163218431Y-53987839D01*
X163217856Y-53986644D01*
X163206504Y-53917703D01*
X163222086Y-53880677D01*
X163218087Y-53878752D01*
X163224148Y-53866164D01*
X163224147Y-53866164D01*
X163224149Y-53866163D01*
X163244500Y-53777000D01*
X163244500Y-53205111D01*
X163236176Y-53147215D01*
X163195669Y-53009260D01*
X163171371Y-52956055D01*
X163171368Y-52956051D01*
X163171368Y-52956049D01*
X163093639Y-52835101D01*
X163093638Y-52835100D01*
X163071845Y-52809950D01*
X163055334Y-52790895D01*
X163029983Y-52768929D01*
X162946684Y-52696749D01*
X162946675Y-52696743D01*
X162946673Y-52696741D01*
X162933282Y-52688135D01*
X162897472Y-52665121D01*
X162897461Y-52665115D01*
X162763677Y-52604018D01*
X162710873Y-52558263D01*
X162696562Y-52509525D01*
X162659371Y-52551682D01*
X162592158Y-52570767D01*
X162575619Y-52569510D01*
X162568247Y-52568450D01*
X162568246Y-52568450D01*
X162509755Y-52568450D01*
X162509753Y-52568450D01*
X162497319Y-52570238D01*
X162479673Y-52571500D01*
X162098327Y-52571500D01*
X162080681Y-52570238D01*
X162068246Y-52568450D01*
X162068245Y-52568450D01*
X162056783Y-52568450D01*
X161989744Y-52548765D01*
X161969102Y-52532131D01*
X161256819Y-51819848D01*
X161223334Y-51758525D01*
X161220500Y-51732167D01*
X161220500Y-48114439D01*
X161200020Y-48038009D01*
X161200017Y-48038004D01*
X161160464Y-47969495D01*
X161160458Y-47969487D01*
X160772351Y-47581380D01*
X160738866Y-47520057D01*
X160743850Y-47450365D01*
X160746550Y-47444383D01*
X160746483Y-47444355D01*
X160748810Y-47438736D01*
X160748811Y-47438732D01*
X160748814Y-47438727D01*
X160806024Y-47250132D01*
X160825341Y-47054000D01*
X160806024Y-46857868D01*
X160748814Y-46669273D01*
X160748811Y-46669269D01*
X160748811Y-46669266D01*
X160655913Y-46495467D01*
X160655909Y-46495460D01*
X160530883Y-46343116D01*
X160378539Y-46218090D01*
X160378532Y-46218086D01*
X160204733Y-46125188D01*
X160204727Y-46125186D01*
X160016132Y-46067976D01*
X160016129Y-46067975D01*
X159820000Y-46048659D01*
X159623870Y-46067975D01*
X159435266Y-46125188D01*
X159261467Y-46218086D01*
X159261460Y-46218090D01*
X159109116Y-46343116D01*
X158984090Y-46495460D01*
X158984086Y-46495467D01*
X158891188Y-46669266D01*
X158833975Y-46857870D01*
X158814659Y-47054000D01*
X151720500Y-47054000D01*
X151720500Y-41655996D01*
X152614415Y-41655996D01*
X152614415Y-41656003D01*
X152634738Y-42004927D01*
X152634739Y-42004938D01*
X152695428Y-42349127D01*
X152695430Y-42349134D01*
X152795674Y-42683972D01*
X152934107Y-43004895D01*
X152934113Y-43004908D01*
X153108870Y-43307597D01*
X153317584Y-43587949D01*
X153317589Y-43587955D01*
X153441463Y-43719253D01*
X153557442Y-43842183D01*
X153716158Y-43975361D01*
X153825186Y-44066847D01*
X153825194Y-44066853D01*
X154117203Y-44258911D01*
X154117207Y-44258913D01*
X154429549Y-44415777D01*
X154757989Y-44535319D01*
X155098086Y-44615923D01*
X155445241Y-44656500D01*
X155445248Y-44656500D01*
X155794752Y-44656500D01*
X155794759Y-44656500D01*
X156141914Y-44615923D01*
X156482011Y-44535319D01*
X156810451Y-44415777D01*
X157122793Y-44258913D01*
X157414811Y-44066849D01*
X157682558Y-43842183D01*
X157922412Y-43587953D01*
X158131130Y-43307596D01*
X158305889Y-43004904D01*
X158444326Y-42683971D01*
X158544569Y-42349136D01*
X158561934Y-42250657D01*
X158605260Y-42004938D01*
X158605259Y-42004938D01*
X158605262Y-42004927D01*
X158625585Y-41656000D01*
X158605262Y-41307073D01*
X158600050Y-41277515D01*
X158544571Y-40962872D01*
X158544569Y-40962865D01*
X158505811Y-40833403D01*
X158458906Y-40676730D01*
X160943500Y-40676730D01*
X160943500Y-42235269D01*
X160946353Y-42265699D01*
X160946353Y-42265701D01*
X160991206Y-42393880D01*
X160991207Y-42393882D01*
X161071850Y-42503150D01*
X161181118Y-42583793D01*
X161202089Y-42591131D01*
X161309299Y-42628646D01*
X161339730Y-42631500D01*
X162594167Y-42631500D01*
X162661206Y-42651185D01*
X162706961Y-42703989D01*
X162716905Y-42773147D01*
X162687880Y-42836703D01*
X162684087Y-42840775D01*
X162683535Y-42841495D01*
X162643982Y-42910004D01*
X162643979Y-42910009D01*
X162623500Y-42986439D01*
X162623500Y-50325671D01*
X162603815Y-50392710D01*
X162551011Y-50438465D01*
X162544871Y-50440786D01*
X162544900Y-50440855D01*
X162539269Y-50443187D01*
X162365467Y-50536086D01*
X162365460Y-50536090D01*
X162213116Y-50661116D01*
X162088090Y-50813460D01*
X162088086Y-50813467D01*
X161995188Y-50987266D01*
X161937975Y-51175870D01*
X161918659Y-51372000D01*
X161937975Y-51568129D01*
X161940201Y-51575467D01*
X161979480Y-51704953D01*
X161995188Y-51756733D01*
X162088086Y-51930532D01*
X162088090Y-51930539D01*
X162213116Y-52082883D01*
X162365460Y-52207909D01*
X162365467Y-52207913D01*
X162539266Y-52300811D01*
X162539269Y-52300811D01*
X162539273Y-52300814D01*
X162629263Y-52328112D01*
X162687699Y-52366409D01*
X162712741Y-52422565D01*
X162763678Y-52378430D01*
X162827341Y-52367821D01*
X162924000Y-52377341D01*
X163120132Y-52358024D01*
X163308727Y-52300814D01*
X163482538Y-52207910D01*
X163634883Y-52082883D01*
X163759910Y-51930538D01*
X163852814Y-51756727D01*
X163910024Y-51568132D01*
X163929341Y-51372000D01*
X164458659Y-51372000D01*
X164477975Y-51568129D01*
X164480201Y-51575467D01*
X164519480Y-51704953D01*
X164535188Y-51756733D01*
X164628086Y-51930532D01*
X164628090Y-51930539D01*
X164753116Y-52082883D01*
X164905460Y-52207909D01*
X164905467Y-52207913D01*
X165079266Y-52300811D01*
X165079269Y-52300811D01*
X165079273Y-52300814D01*
X165267868Y-52358024D01*
X165464000Y-52377341D01*
X165660132Y-52358024D01*
X165848727Y-52300814D01*
X166022538Y-52207910D01*
X166174883Y-52082883D01*
X166299910Y-51930538D01*
X166392814Y-51756727D01*
X166450024Y-51568132D01*
X166469341Y-51372000D01*
X167633659Y-51372000D01*
X167652975Y-51568129D01*
X167655201Y-51575467D01*
X167694480Y-51704953D01*
X167710188Y-51756733D01*
X167803086Y-51930532D01*
X167803090Y-51930539D01*
X167928116Y-52082883D01*
X168080460Y-52207909D01*
X168080467Y-52207913D01*
X168254266Y-52300811D01*
X168254269Y-52300811D01*
X168254273Y-52300814D01*
X168442868Y-52358024D01*
X168639000Y-52377341D01*
X168835132Y-52358024D01*
X169023727Y-52300814D01*
X169197538Y-52207910D01*
X169349883Y-52082883D01*
X169474910Y-51930538D01*
X169567814Y-51756727D01*
X169625024Y-51568132D01*
X169644341Y-51372000D01*
X170173659Y-51372000D01*
X170192975Y-51568129D01*
X170195201Y-51575467D01*
X170234480Y-51704953D01*
X170250188Y-51756733D01*
X170343086Y-51930532D01*
X170343090Y-51930539D01*
X170468116Y-52082883D01*
X170620460Y-52207909D01*
X170620467Y-52207913D01*
X170794266Y-52300811D01*
X170794269Y-52300811D01*
X170794273Y-52300814D01*
X170982868Y-52358024D01*
X171179000Y-52377341D01*
X171375132Y-52358024D01*
X171563727Y-52300814D01*
X171737538Y-52207910D01*
X171827597Y-52134000D01*
X174054659Y-52134000D01*
X174073975Y-52330129D01*
X174084981Y-52366409D01*
X174130055Y-52515000D01*
X174131188Y-52518733D01*
X174224086Y-52692532D01*
X174224090Y-52692539D01*
X174349116Y-52844883D01*
X174501460Y-52969909D01*
X174501467Y-52969913D01*
X174675266Y-53062811D01*
X174675269Y-53062811D01*
X174675273Y-53062814D01*
X174863868Y-53120024D01*
X175060000Y-53139341D01*
X175256132Y-53120024D01*
X175444727Y-53062814D01*
X175618538Y-52969910D01*
X175770883Y-52844883D01*
X175895910Y-52692538D01*
X175961946Y-52568994D01*
X175988812Y-52518731D01*
X175988812Y-52518730D01*
X175988814Y-52518727D01*
X176032332Y-52375264D01*
X176055200Y-52340371D01*
X176048799Y-52301955D01*
X176065341Y-52134000D01*
X176046024Y-51937868D01*
X175988814Y-51749273D01*
X175988811Y-51749269D01*
X175988811Y-51749266D01*
X175895913Y-51575467D01*
X175895909Y-51575460D01*
X175770883Y-51423116D01*
X175618539Y-51298090D01*
X175618532Y-51298086D01*
X175444733Y-51205188D01*
X175444727Y-51205186D01*
X175256132Y-51147976D01*
X175256129Y-51147975D01*
X175060000Y-51128659D01*
X174863870Y-51147975D01*
X174675266Y-51205188D01*
X174501467Y-51298086D01*
X174501460Y-51298090D01*
X174349116Y-51423116D01*
X174224090Y-51575460D01*
X174224086Y-51575467D01*
X174131188Y-51749266D01*
X174073975Y-51937870D01*
X174054659Y-52134000D01*
X171827597Y-52134000D01*
X171889883Y-52082883D01*
X172014910Y-51930538D01*
X172107814Y-51756727D01*
X172165024Y-51568132D01*
X172184341Y-51372000D01*
X172165024Y-51175868D01*
X172107814Y-50987273D01*
X172107811Y-50987269D01*
X172107811Y-50987266D01*
X172014913Y-50813467D01*
X172014909Y-50813460D01*
X171889883Y-50661116D01*
X171737539Y-50536090D01*
X171737532Y-50536086D01*
X171563733Y-50443188D01*
X171563727Y-50443186D01*
X171375132Y-50385976D01*
X171375129Y-50385975D01*
X171179000Y-50366659D01*
X170982870Y-50385975D01*
X170794266Y-50443188D01*
X170620467Y-50536086D01*
X170620460Y-50536090D01*
X170468116Y-50661116D01*
X170343090Y-50813460D01*
X170343086Y-50813467D01*
X170250188Y-50987266D01*
X170192975Y-51175870D01*
X170173659Y-51372000D01*
X169644341Y-51372000D01*
X169625024Y-51175868D01*
X169567814Y-50987273D01*
X169567811Y-50987269D01*
X169567811Y-50987266D01*
X169474913Y-50813467D01*
X169474909Y-50813460D01*
X169349883Y-50661116D01*
X169197539Y-50536090D01*
X169197532Y-50536086D01*
X169023730Y-50443187D01*
X169018100Y-50440855D01*
X169018974Y-50438744D01*
X168969058Y-50406024D01*
X168940608Y-50342209D01*
X168939500Y-50325671D01*
X168939500Y-48455995D01*
X171464500Y-48455995D01*
X171464500Y-49027890D01*
X171472822Y-49085777D01*
X171472824Y-49085785D01*
X171513331Y-49223740D01*
X171531680Y-49263917D01*
X171537629Y-49276944D01*
X171537631Y-49276950D01*
X171615341Y-49397868D01*
X171615361Y-49397899D01*
X171653666Y-49442105D01*
X171686276Y-49470362D01*
X171762315Y-49536250D01*
X171762322Y-49536255D01*
X171762327Y-49536259D01*
X171798141Y-49559275D01*
X171811527Y-49567878D01*
X171811543Y-49567887D01*
X171902760Y-49609544D01*
X171942317Y-49627609D01*
X171998439Y-49644088D01*
X171998441Y-49644088D01*
X171998443Y-49644089D01*
X172035064Y-49649354D01*
X172140754Y-49664550D01*
X172140755Y-49664550D01*
X172199242Y-49664550D01*
X172199245Y-49664550D01*
X172211681Y-49662761D01*
X172229327Y-49661500D01*
X172610673Y-49661500D01*
X172628318Y-49662761D01*
X172640755Y-49664550D01*
X172640758Y-49664550D01*
X172652217Y-49664550D01*
X172719256Y-49684235D01*
X172739898Y-49700869D01*
X172817540Y-49778511D01*
X172873489Y-49834460D01*
X172873491Y-49834461D01*
X172873495Y-49834464D01*
X172939150Y-49872369D01*
X172942011Y-49874021D01*
X173018438Y-49894500D01*
X174013672Y-49894500D01*
X174080711Y-49914185D01*
X174126466Y-49966989D01*
X174128787Y-49973131D01*
X174128856Y-49973103D01*
X174131185Y-49978726D01*
X174224086Y-50152532D01*
X174224090Y-50152539D01*
X174349116Y-50304883D01*
X174501460Y-50429909D01*
X174501467Y-50429913D01*
X174675266Y-50522811D01*
X174675269Y-50522811D01*
X174675273Y-50522814D01*
X174863868Y-50580024D01*
X175060000Y-50599341D01*
X175256132Y-50580024D01*
X175444727Y-50522814D01*
X175618538Y-50429910D01*
X175770883Y-50304883D01*
X175895910Y-50152538D01*
X175988814Y-49978727D01*
X176032332Y-49835264D01*
X176055200Y-49800371D01*
X176048799Y-49761955D01*
X176053362Y-49715625D01*
X176065341Y-49594000D01*
X176046024Y-49397868D01*
X175988814Y-49209273D01*
X175988811Y-49209269D01*
X175988811Y-49209266D01*
X175895913Y-49035467D01*
X175895909Y-49035460D01*
X175770883Y-48883116D01*
X175618539Y-48758090D01*
X175618532Y-48758086D01*
X175444733Y-48665188D01*
X175444727Y-48665186D01*
X175256132Y-48607976D01*
X175256129Y-48607975D01*
X175060000Y-48588659D01*
X174863870Y-48607975D01*
X174675266Y-48665188D01*
X174501467Y-48758086D01*
X174501460Y-48758090D01*
X174349116Y-48883116D01*
X174224090Y-49035460D01*
X174224086Y-49035467D01*
X174131185Y-49209273D01*
X174128856Y-49214897D01*
X174126739Y-49214020D01*
X174094055Y-49263917D01*
X174030249Y-49292387D01*
X174013672Y-49293500D01*
X173471830Y-49293500D01*
X173404791Y-49273815D01*
X173359036Y-49221011D01*
X173349092Y-49151853D01*
X173352853Y-49134565D01*
X173353099Y-49133725D01*
X173367176Y-49085785D01*
X173375500Y-49027889D01*
X173375500Y-48456000D01*
X173370348Y-48410272D01*
X173370241Y-48410050D01*
X173330666Y-48327873D01*
X173259163Y-48270851D01*
X173170004Y-48250500D01*
X173170000Y-48250500D01*
X172729328Y-48250500D01*
X172711682Y-48249238D01*
X172699246Y-48247450D01*
X172640755Y-48247450D01*
X172640753Y-48247450D01*
X172628319Y-48249238D01*
X172610673Y-48250500D01*
X172229327Y-48250500D01*
X172211681Y-48249238D01*
X172199246Y-48247450D01*
X172199245Y-48247450D01*
X172140754Y-48247450D01*
X172128317Y-48249238D01*
X172110672Y-48250500D01*
X171669995Y-48250500D01*
X171624271Y-48255651D01*
X171541873Y-48295333D01*
X171484851Y-48366836D01*
X171464500Y-48455995D01*
X168939500Y-48455995D01*
X168939500Y-46036832D01*
X168959185Y-45969793D01*
X168975814Y-45949156D01*
X172394494Y-42530475D01*
X172455815Y-42496992D01*
X172525507Y-42501976D01*
X172540679Y-42509736D01*
X172541035Y-42509072D01*
X172546398Y-42511938D01*
X172546402Y-42511941D01*
X172737580Y-42591130D01*
X172926187Y-42628646D01*
X172940530Y-42631499D01*
X172940534Y-42631500D01*
X172940535Y-42631500D01*
X173147466Y-42631500D01*
X173147467Y-42631499D01*
X173350420Y-42591130D01*
X173541598Y-42511941D01*
X173713655Y-42396977D01*
X173859977Y-42250655D01*
X173974941Y-42078598D01*
X174054130Y-41887420D01*
X174094500Y-41684465D01*
X174094500Y-41227535D01*
X174054130Y-41024580D01*
X173974941Y-40833402D01*
X173859977Y-40661345D01*
X173859975Y-40661342D01*
X173713657Y-40515024D01*
X173627626Y-40457541D01*
X173541598Y-40400059D01*
X173350420Y-40320870D01*
X173350412Y-40320868D01*
X173147469Y-40280500D01*
X173147465Y-40280500D01*
X172940535Y-40280500D01*
X172940530Y-40280500D01*
X172737587Y-40320868D01*
X172737579Y-40320870D01*
X172546403Y-40400058D01*
X172374342Y-40515024D01*
X172228024Y-40661342D01*
X172113058Y-40833403D01*
X172033870Y-41024579D01*
X172033868Y-41024587D01*
X171993500Y-41227530D01*
X171993500Y-41684469D01*
X172033868Y-41887412D01*
X172033870Y-41887420D01*
X172047192Y-41919581D01*
X172054661Y-41989050D01*
X172023386Y-42051529D01*
X172020312Y-42054715D01*
X171806181Y-42268847D01*
X171744858Y-42302332D01*
X171675167Y-42297348D01*
X171619233Y-42255477D01*
X171594816Y-42190012D01*
X171594500Y-42181166D01*
X171594500Y-40676730D01*
X171591646Y-40646300D01*
X171591646Y-40646298D01*
X171546793Y-40518119D01*
X171546792Y-40518117D01*
X171466150Y-40408850D01*
X171356882Y-40328207D01*
X171356880Y-40328206D01*
X171228700Y-40283353D01*
X171198270Y-40280500D01*
X171198266Y-40280500D01*
X169889734Y-40280500D01*
X169889730Y-40280500D01*
X169859300Y-40283353D01*
X169859298Y-40283353D01*
X169731119Y-40328206D01*
X169731117Y-40328207D01*
X169621850Y-40408850D01*
X169541207Y-40518117D01*
X169541206Y-40518119D01*
X169496353Y-40646298D01*
X169496353Y-40646300D01*
X169493500Y-40676730D01*
X169493500Y-42235269D01*
X169496353Y-42265699D01*
X169496353Y-42265701D01*
X169541206Y-42393880D01*
X169541207Y-42393882D01*
X169621850Y-42503150D01*
X169731118Y-42583793D01*
X169752089Y-42591131D01*
X169859299Y-42628646D01*
X169889730Y-42631500D01*
X171144166Y-42631500D01*
X171211205Y-42651185D01*
X171256960Y-42703989D01*
X171266904Y-42773147D01*
X171237879Y-42836703D01*
X171231847Y-42843181D01*
X168454489Y-45620540D01*
X168398541Y-45676487D01*
X168398535Y-45676495D01*
X168358982Y-45745004D01*
X168358979Y-45745009D01*
X168338500Y-45821439D01*
X168338500Y-50325671D01*
X168318815Y-50392710D01*
X168266011Y-50438465D01*
X168259871Y-50440786D01*
X168259900Y-50440855D01*
X168254269Y-50443187D01*
X168080467Y-50536086D01*
X168080460Y-50536090D01*
X167928116Y-50661116D01*
X167803090Y-50813460D01*
X167803086Y-50813467D01*
X167710188Y-50987266D01*
X167652975Y-51175870D01*
X167633659Y-51372000D01*
X166469341Y-51372000D01*
X166450024Y-51175868D01*
X166392814Y-50987273D01*
X166392811Y-50987269D01*
X166392811Y-50987266D01*
X166299913Y-50813467D01*
X166299909Y-50813460D01*
X166174883Y-50661116D01*
X166022539Y-50536090D01*
X166022532Y-50536086D01*
X165848733Y-50443188D01*
X165848727Y-50443186D01*
X165660132Y-50385976D01*
X165660129Y-50385975D01*
X165464000Y-50366659D01*
X165267870Y-50385975D01*
X165079266Y-50443188D01*
X164905467Y-50536086D01*
X164905460Y-50536090D01*
X164753116Y-50661116D01*
X164628090Y-50813460D01*
X164628086Y-50813467D01*
X164535188Y-50987266D01*
X164477975Y-51175870D01*
X164458659Y-51372000D01*
X163929341Y-51372000D01*
X163910024Y-51175868D01*
X163852814Y-50987273D01*
X163852811Y-50987269D01*
X163852811Y-50987266D01*
X163759913Y-50813467D01*
X163759909Y-50813460D01*
X163634883Y-50661116D01*
X163482539Y-50536090D01*
X163482532Y-50536086D01*
X163308730Y-50443187D01*
X163303100Y-50440855D01*
X163303974Y-50438744D01*
X163254058Y-50406024D01*
X163225608Y-50342209D01*
X163224500Y-50325671D01*
X163224500Y-43201832D01*
X163244185Y-43134793D01*
X163260815Y-43114155D01*
X163844494Y-42530475D01*
X163905815Y-42496992D01*
X163975506Y-42501976D01*
X163990679Y-42509736D01*
X163991035Y-42509072D01*
X163996398Y-42511938D01*
X163996402Y-42511941D01*
X164187580Y-42591130D01*
X164376187Y-42628646D01*
X164390530Y-42631499D01*
X164390534Y-42631500D01*
X164390535Y-42631500D01*
X164597466Y-42631500D01*
X164597467Y-42631499D01*
X164800420Y-42591130D01*
X164991598Y-42511941D01*
X165163655Y-42396977D01*
X165309977Y-42250655D01*
X165424941Y-42078598D01*
X165504130Y-41887420D01*
X165544500Y-41684465D01*
X165544500Y-41227535D01*
X165504130Y-41024580D01*
X165424941Y-40833402D01*
X165309977Y-40661345D01*
X165309975Y-40661342D01*
X165163657Y-40515024D01*
X165077626Y-40457541D01*
X164991598Y-40400059D01*
X164800420Y-40320870D01*
X164800412Y-40320868D01*
X164597469Y-40280500D01*
X164597465Y-40280500D01*
X164390535Y-40280500D01*
X164390530Y-40280500D01*
X164187587Y-40320868D01*
X164187579Y-40320870D01*
X163996403Y-40400058D01*
X163824342Y-40515024D01*
X163678024Y-40661342D01*
X163563058Y-40833403D01*
X163483870Y-41024579D01*
X163483868Y-41024587D01*
X163443500Y-41227530D01*
X163443500Y-41684469D01*
X163483868Y-41887412D01*
X163483870Y-41887420D01*
X163497192Y-41919581D01*
X163504661Y-41989050D01*
X163473386Y-42051529D01*
X163470312Y-42054715D01*
X163256181Y-42268847D01*
X163194858Y-42302332D01*
X163125167Y-42297348D01*
X163069233Y-42255477D01*
X163044816Y-42190012D01*
X163044500Y-42181166D01*
X163044500Y-40676730D01*
X163041646Y-40646300D01*
X163041646Y-40646298D01*
X162996793Y-40518119D01*
X162996792Y-40518117D01*
X162916150Y-40408850D01*
X162806882Y-40328207D01*
X162806880Y-40328206D01*
X162678700Y-40283353D01*
X162648270Y-40280500D01*
X162648266Y-40280500D01*
X161339734Y-40280500D01*
X161339730Y-40280500D01*
X161309300Y-40283353D01*
X161309298Y-40283353D01*
X161181119Y-40328206D01*
X161181117Y-40328207D01*
X161071850Y-40408850D01*
X160991207Y-40518117D01*
X160991206Y-40518119D01*
X160946353Y-40646298D01*
X160946353Y-40646300D01*
X160943500Y-40676730D01*
X158458906Y-40676730D01*
X158444326Y-40628029D01*
X158305889Y-40307096D01*
X158188345Y-40103504D01*
X158131129Y-40004402D01*
X157922415Y-39724050D01*
X157922410Y-39724044D01*
X157806433Y-39601117D01*
X157682558Y-39469817D01*
X157497458Y-39314500D01*
X157414813Y-39245152D01*
X157414805Y-39245146D01*
X157122796Y-39053088D01*
X156810458Y-38896226D01*
X156810452Y-38896223D01*
X156482012Y-38776681D01*
X156482009Y-38776680D01*
X156141915Y-38696077D01*
X156098519Y-38691004D01*
X155794759Y-38655500D01*
X155445241Y-38655500D01*
X155141480Y-38691004D01*
X155098085Y-38696077D01*
X155098083Y-38696077D01*
X154757990Y-38776680D01*
X154757987Y-38776681D01*
X154429547Y-38896223D01*
X154429541Y-38896226D01*
X154117203Y-39053088D01*
X153825194Y-39245146D01*
X153825186Y-39245152D01*
X153557442Y-39469817D01*
X153557440Y-39469819D01*
X153317589Y-39724044D01*
X153317584Y-39724050D01*
X153108870Y-40004402D01*
X152934113Y-40307091D01*
X152934107Y-40307104D01*
X152795674Y-40628027D01*
X152695430Y-40962865D01*
X152695428Y-40962872D01*
X152634739Y-41307061D01*
X152634738Y-41307072D01*
X152614415Y-41655996D01*
X151720500Y-41655996D01*
X151720500Y-37880500D01*
X151740185Y-37813461D01*
X151792989Y-37767706D01*
X151844500Y-37756500D01*
X176261913Y-37756500D01*
X176328952Y-37776185D01*
G37*
%TD.AperFunction*%
%TD*%
%TA.AperFunction,Conductor*%
%TO.N,GND*%
G36*
X235180132Y-37759868D02*
G01*
X235183500Y-37768000D01*
X235183500Y-96544000D01*
X235180132Y-96552132D01*
X235172000Y-96555500D01*
X198619865Y-96555500D01*
X198619550Y-96322500D01*
X198618875Y-95822000D01*
X210024353Y-95822000D01*
X210044834Y-95964454D01*
X210104623Y-96095373D01*
X210104623Y-96095374D01*
X210123319Y-96116950D01*
X210198872Y-96204143D01*
X210319947Y-96281953D01*
X210400636Y-96305645D01*
X210458038Y-96322500D01*
X210458039Y-96322500D01*
X210601961Y-96322500D01*
X210740053Y-96281953D01*
X210861128Y-96204143D01*
X210955377Y-96095373D01*
X211015165Y-95964457D01*
X211035647Y-95822000D01*
X211015165Y-95679543D01*
X210955377Y-95548627D01*
X210955376Y-95548625D01*
X210861128Y-95439857D01*
X210861124Y-95439854D01*
X210740054Y-95362047D01*
X210601962Y-95321500D01*
X210601961Y-95321500D01*
X210458039Y-95321500D01*
X210458038Y-95321500D01*
X210319945Y-95362047D01*
X210198875Y-95439854D01*
X210198871Y-95439857D01*
X210104623Y-95548625D01*
X210104623Y-95548626D01*
X210044834Y-95679545D01*
X210024353Y-95822000D01*
X198618875Y-95822000D01*
X198618478Y-95527050D01*
X198617163Y-94552000D01*
X210024353Y-94552000D01*
X210044834Y-94694454D01*
X210104623Y-94825373D01*
X210104623Y-94825374D01*
X210198871Y-94934142D01*
X210198872Y-94934143D01*
X210319947Y-95011953D01*
X210400636Y-95035645D01*
X210458038Y-95052500D01*
X210458039Y-95052500D01*
X210601961Y-95052500D01*
X210740053Y-95011953D01*
X210861128Y-94934143D01*
X210955377Y-94825373D01*
X211015165Y-94694457D01*
X211035647Y-94552000D01*
X211015165Y-94409543D01*
X210955377Y-94278627D01*
X210955376Y-94278625D01*
X210861128Y-94169857D01*
X210861124Y-94169854D01*
X210740054Y-94092047D01*
X210601962Y-94051500D01*
X210601961Y-94051500D01*
X210458039Y-94051500D01*
X210458038Y-94051500D01*
X210319945Y-94092047D01*
X210198875Y-94169854D01*
X210198871Y-94169857D01*
X210104623Y-94278625D01*
X210104623Y-94278626D01*
X210044834Y-94409545D01*
X210024353Y-94552000D01*
X198617163Y-94552000D01*
X198616930Y-94379303D01*
X199714233Y-93282000D01*
X210024353Y-93282000D01*
X210044834Y-93424454D01*
X210104623Y-93555373D01*
X210104623Y-93555374D01*
X210198871Y-93664142D01*
X210198875Y-93664145D01*
X210271314Y-93710699D01*
X210319947Y-93741953D01*
X210400636Y-93765645D01*
X210458038Y-93782500D01*
X210458039Y-93782500D01*
X210601961Y-93782500D01*
X210740053Y-93741953D01*
X210861128Y-93664143D01*
X210955377Y-93555373D01*
X211015165Y-93424457D01*
X211035647Y-93282000D01*
X211015165Y-93139543D01*
X210955377Y-93008627D01*
X210955376Y-93008625D01*
X210861128Y-92899857D01*
X210861124Y-92899854D01*
X210740054Y-92822047D01*
X210601962Y-92781500D01*
X210601961Y-92781500D01*
X210458039Y-92781500D01*
X210458038Y-92781500D01*
X210319945Y-92822047D01*
X210198875Y-92899854D01*
X210198871Y-92899857D01*
X210104623Y-93008625D01*
X210104623Y-93008626D01*
X210044834Y-93139545D01*
X210024353Y-93282000D01*
X199714233Y-93282000D01*
X200984234Y-92012000D01*
X210024353Y-92012000D01*
X210044834Y-92154454D01*
X210104623Y-92285373D01*
X210104623Y-92285374D01*
X210198871Y-92394142D01*
X210198872Y-92394143D01*
X210319947Y-92471953D01*
X210400636Y-92495645D01*
X210458038Y-92512500D01*
X210458039Y-92512500D01*
X210601961Y-92512500D01*
X210740053Y-92471953D01*
X210861128Y-92394143D01*
X210955377Y-92285373D01*
X211015165Y-92154457D01*
X211019871Y-92121728D01*
X215670700Y-92121728D01*
X215670700Y-93680271D01*
X215673554Y-93710702D01*
X215718407Y-93838883D01*
X215718408Y-93838884D01*
X215799050Y-93948150D01*
X215852075Y-93987284D01*
X215908315Y-94028791D01*
X215908316Y-94028792D01*
X215908317Y-94028792D01*
X215908318Y-94028793D01*
X215963295Y-94048030D01*
X216036497Y-94073645D01*
X216036498Y-94073645D01*
X216036501Y-94073646D01*
X216066934Y-94076500D01*
X216066942Y-94076500D01*
X217375458Y-94076500D01*
X217375466Y-94076500D01*
X217405899Y-94073646D01*
X217534082Y-94028793D01*
X217643350Y-93948150D01*
X217723993Y-93838882D01*
X217768846Y-93710699D01*
X217771700Y-93680266D01*
X217771700Y-92350946D01*
X217775068Y-92342814D01*
X217996154Y-92121728D01*
X224190500Y-92121728D01*
X224190500Y-93680271D01*
X224193354Y-93710702D01*
X224238207Y-93838883D01*
X224238208Y-93838884D01*
X224318850Y-93948150D01*
X224371875Y-93987284D01*
X224428115Y-94028791D01*
X224428116Y-94028792D01*
X224428117Y-94028792D01*
X224428118Y-94028793D01*
X224483095Y-94048030D01*
X224556297Y-94073645D01*
X224556298Y-94073645D01*
X224556301Y-94073646D01*
X224586734Y-94076500D01*
X224586742Y-94076500D01*
X225895258Y-94076500D01*
X225895266Y-94076500D01*
X225925699Y-94073646D01*
X226053882Y-94028793D01*
X226163150Y-93948150D01*
X226243793Y-93838882D01*
X226288646Y-93710699D01*
X226291500Y-93680266D01*
X226291500Y-92656000D01*
X228614415Y-92656000D01*
X228634738Y-93004930D01*
X228695430Y-93349133D01*
X228695432Y-93349140D01*
X228795674Y-93683974D01*
X228934107Y-94004898D01*
X228934114Y-94004911D01*
X229108869Y-94307596D01*
X229317574Y-94587937D01*
X229317580Y-94587943D01*
X229317582Y-94587945D01*
X229317588Y-94587953D01*
X229557442Y-94842183D01*
X229557448Y-94842188D01*
X229557451Y-94842191D01*
X229825174Y-95066838D01*
X229825184Y-95066845D01*
X229825189Y-95066849D01*
X229940041Y-95142388D01*
X230117204Y-95258912D01*
X230241828Y-95321500D01*
X230429549Y-95415777D01*
X230429554Y-95415779D01*
X230429563Y-95415783D01*
X230757986Y-95535318D01*
X230757984Y-95535318D01*
X230814132Y-95548625D01*
X231098086Y-95615923D01*
X231358452Y-95646355D01*
X231445239Y-95656500D01*
X231445241Y-95656500D01*
X231794761Y-95656500D01*
X231871904Y-95647482D01*
X232141914Y-95615923D01*
X232482011Y-95535319D01*
X232504730Y-95527050D01*
X232810436Y-95415783D01*
X232810441Y-95415780D01*
X232810451Y-95415777D01*
X233122793Y-95258913D01*
X233414811Y-95066849D01*
X233414820Y-95066841D01*
X233414825Y-95066838D01*
X233629577Y-94886639D01*
X233682558Y-94842183D01*
X233922412Y-94587953D01*
X233922420Y-94587941D01*
X233922425Y-94587937D01*
X234131130Y-94307596D01*
X234305885Y-94004911D01*
X234305892Y-94004898D01*
X234395819Y-93796423D01*
X234444326Y-93683971D01*
X234544569Y-93349136D01*
X234605262Y-93004927D01*
X234625585Y-92656000D01*
X234605262Y-92307073D01*
X234544569Y-91962864D01*
X234444873Y-91629857D01*
X234444325Y-91628025D01*
X234305892Y-91307101D01*
X234305885Y-91307088D01*
X234131130Y-91004403D01*
X233922425Y-90724062D01*
X233922419Y-90724056D01*
X233922417Y-90724054D01*
X233922412Y-90724047D01*
X233682558Y-90469817D01*
X233682551Y-90469811D01*
X233682548Y-90469808D01*
X233414825Y-90245161D01*
X233414813Y-90245153D01*
X233414811Y-90245151D01*
X233362272Y-90210595D01*
X233122795Y-90053087D01*
X232810453Y-89896224D01*
X232810436Y-89896216D01*
X232482013Y-89776681D01*
X232482015Y-89776681D01*
X232141918Y-89696078D01*
X232141914Y-89696077D01*
X232141909Y-89696076D01*
X232141907Y-89696076D01*
X231794761Y-89655500D01*
X231794759Y-89655500D01*
X231445241Y-89655500D01*
X231445239Y-89655500D01*
X231098092Y-89696076D01*
X231098087Y-89696076D01*
X231098086Y-89696077D01*
X231098084Y-89696077D01*
X231098081Y-89696078D01*
X230757985Y-89776681D01*
X230429563Y-89896216D01*
X230429546Y-89896224D01*
X230117204Y-90053087D01*
X229825193Y-90245148D01*
X229825174Y-90245161D01*
X229557451Y-90469808D01*
X229557438Y-90469821D01*
X229317580Y-90724056D01*
X229317574Y-90724062D01*
X229108869Y-91004403D01*
X228934114Y-91307088D01*
X228934107Y-91307101D01*
X228795675Y-91628025D01*
X228795674Y-91628025D01*
X228695432Y-91962859D01*
X228695430Y-91962866D01*
X228634738Y-92307069D01*
X228614415Y-92656000D01*
X226291500Y-92656000D01*
X226291500Y-92350946D01*
X226294868Y-92342814D01*
X226674823Y-91962859D01*
X227085470Y-91552212D01*
X227131614Y-91472288D01*
X227155500Y-91383144D01*
X227155500Y-86932000D01*
X230652785Y-86932000D01*
X230671602Y-87135080D01*
X230727418Y-87331251D01*
X230818327Y-87513822D01*
X230818329Y-87513825D01*
X230941228Y-87676570D01*
X230941231Y-87676573D01*
X230941236Y-87676579D01*
X231091959Y-87813981D01*
X231265363Y-87921348D01*
X231265371Y-87921351D01*
X231265373Y-87921352D01*
X231455538Y-87995022D01*
X231455539Y-87995022D01*
X231455544Y-87995024D01*
X231656024Y-88032500D01*
X231859976Y-88032500D01*
X232060456Y-87995024D01*
X232250637Y-87921348D01*
X232424041Y-87813981D01*
X232574764Y-87676579D01*
X232697673Y-87513821D01*
X232788582Y-87331250D01*
X232844397Y-87135083D01*
X232863215Y-86932000D01*
X232844397Y-86728917D01*
X232788582Y-86532750D01*
X232697673Y-86350179D01*
X232697672Y-86350178D01*
X232697672Y-86350177D01*
X232697670Y-86350174D01*
X232574771Y-86187429D01*
X232574767Y-86187426D01*
X232574764Y-86187421D01*
X232424041Y-86050019D01*
X232424040Y-86050018D01*
X232337339Y-85996335D01*
X232250637Y-85942652D01*
X232250632Y-85942650D01*
X232250626Y-85942647D01*
X232060461Y-85868977D01*
X231859978Y-85831500D01*
X231859976Y-85831500D01*
X231656024Y-85831500D01*
X231656021Y-85831500D01*
X231455538Y-85868977D01*
X231265373Y-85942647D01*
X231265361Y-85942653D01*
X231091959Y-86050018D01*
X231003659Y-86130514D01*
X230941236Y-86187421D01*
X230941234Y-86187423D01*
X230941228Y-86187429D01*
X230818329Y-86350174D01*
X230818327Y-86350177D01*
X230727418Y-86532748D01*
X230671602Y-86728919D01*
X230652785Y-86932000D01*
X227155500Y-86932000D01*
X227155500Y-80069000D01*
X230652785Y-80069000D01*
X230671602Y-80272080D01*
X230727418Y-80468251D01*
X230818327Y-80650822D01*
X230818329Y-80650825D01*
X230941228Y-80813570D01*
X230941231Y-80813573D01*
X230941236Y-80813579D01*
X231091959Y-80950981D01*
X231265363Y-81058348D01*
X231265371Y-81058351D01*
X231265373Y-81058352D01*
X231455538Y-81132022D01*
X231455539Y-81132022D01*
X231455544Y-81132024D01*
X231656024Y-81169500D01*
X231859976Y-81169500D01*
X232060456Y-81132024D01*
X232250637Y-81058348D01*
X232424041Y-80950981D01*
X232574764Y-80813579D01*
X232697673Y-80650821D01*
X232788582Y-80468250D01*
X232844397Y-80272083D01*
X232863215Y-80069000D01*
X232844397Y-79865917D01*
X232788582Y-79669750D01*
X232697673Y-79487179D01*
X232697672Y-79487178D01*
X232697672Y-79487177D01*
X232697670Y-79487174D01*
X232574771Y-79324429D01*
X232574767Y-79324426D01*
X232574764Y-79324421D01*
X232424041Y-79187019D01*
X232424040Y-79187018D01*
X232335274Y-79132057D01*
X232250637Y-79079652D01*
X232250632Y-79079650D01*
X232250626Y-79079647D01*
X232060461Y-79005977D01*
X231859978Y-78968500D01*
X231859976Y-78968500D01*
X231656024Y-78968500D01*
X231656021Y-78968500D01*
X231455538Y-79005977D01*
X231265373Y-79079647D01*
X231265361Y-79079653D01*
X231091959Y-79187018D01*
X231032070Y-79241615D01*
X230941236Y-79324421D01*
X230941234Y-79324423D01*
X230941228Y-79324429D01*
X230818329Y-79487174D01*
X230818327Y-79487177D01*
X230727418Y-79669748D01*
X230671602Y-79865919D01*
X230652785Y-80069000D01*
X227155500Y-80069000D01*
X227155500Y-76609252D01*
X230657500Y-76609252D01*
X230657500Y-78448748D01*
X230669133Y-78507231D01*
X230669134Y-78507232D01*
X230713446Y-78573550D01*
X230713448Y-78573552D01*
X230779769Y-78617867D01*
X230838252Y-78629500D01*
X230838254Y-78629500D01*
X232677746Y-78629500D01*
X232677748Y-78629500D01*
X232736231Y-78617867D01*
X232802552Y-78573552D01*
X232846867Y-78507231D01*
X232858500Y-78448748D01*
X232858500Y-76609252D01*
X232846867Y-76550769D01*
X232802552Y-76484448D01*
X232802550Y-76484446D01*
X232736232Y-76440134D01*
X232736233Y-76440134D01*
X232736231Y-76440133D01*
X232736229Y-76440132D01*
X232736228Y-76440132D01*
X232706788Y-76434276D01*
X232677748Y-76428500D01*
X230838252Y-76428500D01*
X230814988Y-76433127D01*
X230779771Y-76440132D01*
X230779767Y-76440134D01*
X230713449Y-76484446D01*
X230713446Y-76484449D01*
X230669134Y-76550767D01*
X230669132Y-76550771D01*
X230663421Y-76579485D01*
X230657500Y-76609252D01*
X227155500Y-76609252D01*
X227155500Y-73011644D01*
X227158868Y-73003512D01*
X227161650Y-73001464D01*
X227177240Y-72993283D01*
X227295483Y-72888530D01*
X227385220Y-72758523D01*
X227441237Y-72610818D01*
X227460278Y-72454000D01*
X227441237Y-72297182D01*
X227385220Y-72149477D01*
X227295483Y-72019470D01*
X227295480Y-72019467D01*
X227295478Y-72019465D01*
X227177242Y-71914719D01*
X227177240Y-71914717D01*
X227037365Y-71841304D01*
X226883985Y-71803500D01*
X226726015Y-71803500D01*
X226572635Y-71841304D01*
X226572633Y-71841305D01*
X226432761Y-71914716D01*
X226432757Y-71914719D01*
X226314521Y-72019465D01*
X226314515Y-72019472D01*
X226224780Y-72149477D01*
X226168763Y-72297183D01*
X226168762Y-72297184D01*
X226149722Y-72453998D01*
X226149722Y-72454001D01*
X226168762Y-72610815D01*
X226168763Y-72610818D01*
X226224780Y-72758523D01*
X226314517Y-72888530D01*
X226314519Y-72888532D01*
X226314521Y-72888534D01*
X226340419Y-72911477D01*
X226432760Y-72993283D01*
X226448345Y-73001462D01*
X226453979Y-73008222D01*
X226454500Y-73011644D01*
X226454500Y-91187053D01*
X226451132Y-91195185D01*
X225922449Y-91723867D01*
X225914317Y-91727235D01*
X225913244Y-91727185D01*
X225895273Y-91725500D01*
X225895266Y-91725500D01*
X224586734Y-91725500D01*
X224586728Y-91725500D01*
X224556297Y-91728354D01*
X224428116Y-91773207D01*
X224428115Y-91773208D01*
X224318851Y-91853849D01*
X224318849Y-91853851D01*
X224238208Y-91963115D01*
X224238207Y-91963116D01*
X224193354Y-92091297D01*
X224190500Y-92121728D01*
X217996154Y-92121728D01*
X221533740Y-88584142D01*
X225345470Y-84772412D01*
X225391614Y-84692488D01*
X225398879Y-84665373D01*
X225415500Y-84603344D01*
X225415500Y-71587944D01*
X225418867Y-71579813D01*
X225727090Y-71271589D01*
X225735221Y-71268222D01*
X225737971Y-71268555D01*
X225792515Y-71282000D01*
X225792518Y-71282000D01*
X225950482Y-71282000D01*
X225950485Y-71282000D01*
X226103865Y-71244196D01*
X226243740Y-71170783D01*
X226361983Y-71066030D01*
X226451720Y-70936023D01*
X226507737Y-70788318D01*
X226521375Y-70676000D01*
X232099417Y-70676000D01*
X232119700Y-70881934D01*
X232119700Y-70881936D01*
X232119701Y-70881938D01*
X232136942Y-70938773D01*
X232175545Y-71066034D01*
X232179766Y-71079947D01*
X232179769Y-71079957D01*
X232267557Y-71244195D01*
X232277315Y-71262450D01*
X232408590Y-71422410D01*
X232568550Y-71553685D01*
X232751046Y-71651232D01*
X232949066Y-71711300D01*
X233155000Y-71731583D01*
X233360934Y-71711300D01*
X233558954Y-71651232D01*
X233741450Y-71553685D01*
X233901410Y-71422410D01*
X234032685Y-71262450D01*
X234130232Y-71079954D01*
X234190300Y-70881934D01*
X234210583Y-70676000D01*
X234190300Y-70470066D01*
X234130232Y-70272046D01*
X234107482Y-70229485D01*
X234034112Y-70092219D01*
X234032685Y-70089550D01*
X233901410Y-69929590D01*
X233741450Y-69798315D01*
X233741448Y-69798314D01*
X233741447Y-69798313D01*
X233558957Y-69700769D01*
X233558947Y-69700766D01*
X233360938Y-69640701D01*
X233360936Y-69640700D01*
X233360934Y-69640700D01*
X233155000Y-69620417D01*
X232949066Y-69640700D01*
X232949063Y-69640700D01*
X232949061Y-69640701D01*
X232751052Y-69700766D01*
X232751042Y-69700769D01*
X232568552Y-69798313D01*
X232408590Y-69929590D01*
X232277313Y-70089552D01*
X232179769Y-70272042D01*
X232179766Y-70272052D01*
X232119701Y-70470061D01*
X232119700Y-70470063D01*
X232119700Y-70470066D01*
X232099417Y-70676000D01*
X226521375Y-70676000D01*
X226526778Y-70631500D01*
X226526575Y-70629832D01*
X226507737Y-70474684D01*
X226507737Y-70474682D01*
X226451720Y-70326977D01*
X226361983Y-70196970D01*
X226361980Y-70196967D01*
X226361978Y-70196965D01*
X226243742Y-70092219D01*
X226243740Y-70092217D01*
X226103865Y-70018804D01*
X225959269Y-69983165D01*
X225952182Y-69977949D01*
X225950857Y-69969248D01*
X225956074Y-69962159D01*
X225962023Y-69960500D01*
X231670562Y-69960500D01*
X231746989Y-69940021D01*
X231815511Y-69900460D01*
X231871460Y-69844511D01*
X232649671Y-69066298D01*
X232657802Y-69062931D01*
X232663220Y-69064288D01*
X232701762Y-69084889D01*
X232751036Y-69111227D01*
X232751046Y-69111232D01*
X232949066Y-69171300D01*
X233155000Y-69191583D01*
X233360934Y-69171300D01*
X233558954Y-69111232D01*
X233741450Y-69013685D01*
X233901410Y-68882410D01*
X234032685Y-68722450D01*
X234130232Y-68539954D01*
X234190300Y-68341934D01*
X234210583Y-68136000D01*
X234190300Y-67930066D01*
X234130232Y-67732046D01*
X234107482Y-67689485D01*
X234032686Y-67549552D01*
X234032685Y-67549550D01*
X233901410Y-67389590D01*
X233741450Y-67258315D01*
X233741448Y-67258314D01*
X233741447Y-67258313D01*
X233558957Y-67160769D01*
X233558947Y-67160766D01*
X233360938Y-67100701D01*
X233360936Y-67100700D01*
X233360934Y-67100700D01*
X233155000Y-67080417D01*
X232949066Y-67100700D01*
X232949063Y-67100700D01*
X232949061Y-67100701D01*
X232751052Y-67160766D01*
X232751042Y-67160769D01*
X232574471Y-67255148D01*
X232569062Y-67256506D01*
X227745192Y-67261394D01*
X227737057Y-67258034D01*
X227733680Y-67249906D01*
X227737040Y-67241771D01*
X227742424Y-67238730D01*
X227799365Y-67224696D01*
X227939240Y-67151283D01*
X228057483Y-67046530D01*
X228147220Y-66916523D01*
X228203237Y-66768818D01*
X228222278Y-66612000D01*
X228203237Y-66455182D01*
X228147220Y-66307477D01*
X228057483Y-66177470D01*
X228057480Y-66177467D01*
X228057478Y-66177465D01*
X227939242Y-66072719D01*
X227939240Y-66072717D01*
X227799365Y-65999304D01*
X227645985Y-65961500D01*
X227488015Y-65961500D01*
X227376745Y-65988924D01*
X227368043Y-65987599D01*
X227365861Y-65985890D01*
X226975971Y-65596000D01*
X232099417Y-65596000D01*
X232119700Y-65801934D01*
X232119700Y-65801936D01*
X232119701Y-65801938D01*
X232179766Y-65999947D01*
X232179769Y-65999957D01*
X232239391Y-66111500D01*
X232277315Y-66182450D01*
X232408590Y-66342410D01*
X232568550Y-66473685D01*
X232751046Y-66571232D01*
X232949066Y-66631300D01*
X233155000Y-66651583D01*
X233360934Y-66631300D01*
X233558954Y-66571232D01*
X233741450Y-66473685D01*
X233901410Y-66342410D01*
X234032685Y-66182450D01*
X234130232Y-65999954D01*
X234190300Y-65801934D01*
X234210583Y-65596000D01*
X234190300Y-65390066D01*
X234130232Y-65192046D01*
X234107482Y-65149485D01*
X234032686Y-65009552D01*
X234032685Y-65009550D01*
X233901410Y-64849590D01*
X233741450Y-64718315D01*
X233741448Y-64718314D01*
X233741447Y-64718313D01*
X233558957Y-64620769D01*
X233558947Y-64620766D01*
X233360938Y-64560701D01*
X233360936Y-64560700D01*
X233360934Y-64560700D01*
X233155000Y-64540417D01*
X232949066Y-64560700D01*
X232949063Y-64560700D01*
X232949061Y-64560701D01*
X232751052Y-64620766D01*
X232751042Y-64620769D01*
X232568552Y-64718313D01*
X232408590Y-64849590D01*
X232277313Y-65009552D01*
X232179769Y-65192042D01*
X232179766Y-65192052D01*
X232119701Y-65390061D01*
X232119700Y-65390063D01*
X232119700Y-65390066D01*
X232099417Y-65596000D01*
X226975971Y-65596000D01*
X226507407Y-65127436D01*
X226504039Y-65119304D01*
X226507407Y-65111172D01*
X226507998Y-65110622D01*
X226529105Y-65092334D01*
X226623259Y-64983673D01*
X226654881Y-64934468D01*
X226714609Y-64803683D01*
X226728611Y-64755998D01*
X229864722Y-64755998D01*
X229864722Y-64756001D01*
X229883762Y-64912815D01*
X229883763Y-64912818D01*
X229939780Y-65060523D01*
X230029517Y-65190530D01*
X230029519Y-65190532D01*
X230029521Y-65190534D01*
X230081594Y-65236666D01*
X230147760Y-65295283D01*
X230287635Y-65368696D01*
X230441015Y-65406500D01*
X230441018Y-65406500D01*
X230598982Y-65406500D01*
X230598985Y-65406500D01*
X230752365Y-65368696D01*
X230892240Y-65295283D01*
X231010483Y-65190530D01*
X231100220Y-65060523D01*
X231156237Y-64912818D01*
X231175278Y-64756000D01*
X231174253Y-64747561D01*
X231156237Y-64599184D01*
X231156237Y-64599182D01*
X231100220Y-64451477D01*
X231010483Y-64321470D01*
X231010480Y-64321467D01*
X231010478Y-64321465D01*
X230892242Y-64216719D01*
X230892240Y-64216717D01*
X230891587Y-64216374D01*
X230876654Y-64208535D01*
X230871020Y-64201773D01*
X230870500Y-64198353D01*
X230870500Y-63056000D01*
X232099417Y-63056000D01*
X232119700Y-63261934D01*
X232172487Y-63435953D01*
X232179766Y-63459947D01*
X232179769Y-63459957D01*
X232239391Y-63571500D01*
X232277315Y-63642450D01*
X232408590Y-63802410D01*
X232568550Y-63933685D01*
X232751046Y-64031232D01*
X232949066Y-64091300D01*
X233155000Y-64111583D01*
X233360934Y-64091300D01*
X233558954Y-64031232D01*
X233741450Y-63933685D01*
X233901410Y-63802410D01*
X234032685Y-63642450D01*
X234130232Y-63459954D01*
X234190300Y-63261934D01*
X234210583Y-63056000D01*
X234190300Y-62850066D01*
X234130232Y-62652046D01*
X234107482Y-62609485D01*
X234032686Y-62469552D01*
X234032685Y-62469550D01*
X233901410Y-62309590D01*
X233741450Y-62178315D01*
X233741448Y-62178314D01*
X233741447Y-62178313D01*
X233558957Y-62080769D01*
X233558947Y-62080766D01*
X233360938Y-62020701D01*
X233360936Y-62020700D01*
X233360934Y-62020700D01*
X233155000Y-62000417D01*
X232949066Y-62020700D01*
X232949063Y-62020700D01*
X232949061Y-62020701D01*
X232751052Y-62080766D01*
X232751042Y-62080769D01*
X232568552Y-62178313D01*
X232408590Y-62309590D01*
X232277313Y-62469552D01*
X232179769Y-62652042D01*
X232179766Y-62652052D01*
X232119701Y-62850061D01*
X232119700Y-62850063D01*
X232119700Y-62850066D01*
X232099417Y-63056000D01*
X230870500Y-63056000D01*
X230870500Y-51806151D01*
X230873868Y-51798019D01*
X230882000Y-51794651D01*
X230890132Y-51798019D01*
X230892294Y-51801025D01*
X230980327Y-51977822D01*
X230980329Y-51977825D01*
X231103228Y-52140570D01*
X231103231Y-52140573D01*
X231103236Y-52140579D01*
X231253959Y-52277981D01*
X231427363Y-52385348D01*
X231427371Y-52385351D01*
X231427373Y-52385352D01*
X231617538Y-52459022D01*
X231617539Y-52459022D01*
X231617544Y-52459024D01*
X231818024Y-52496500D01*
X232021976Y-52496500D01*
X232222456Y-52459024D01*
X232412637Y-52385348D01*
X232586041Y-52277981D01*
X232736764Y-52140579D01*
X232859673Y-51977821D01*
X232950582Y-51795250D01*
X233006397Y-51599083D01*
X233025215Y-51396000D01*
X233006397Y-51192917D01*
X232950582Y-50996750D01*
X232859673Y-50814179D01*
X232859672Y-50814178D01*
X232859672Y-50814177D01*
X232859670Y-50814174D01*
X232736771Y-50651429D01*
X232736767Y-50651426D01*
X232736764Y-50651421D01*
X232586041Y-50514019D01*
X232586040Y-50514018D01*
X232499339Y-50460335D01*
X232412637Y-50406652D01*
X232412632Y-50406650D01*
X232412626Y-50406647D01*
X232222461Y-50332977D01*
X232021978Y-50295500D01*
X232021976Y-50295500D01*
X231818024Y-50295500D01*
X231818021Y-50295500D01*
X231617538Y-50332977D01*
X231427373Y-50406647D01*
X231427361Y-50406653D01*
X231253959Y-50514018D01*
X231165659Y-50594514D01*
X231103236Y-50651421D01*
X231103234Y-50651423D01*
X231103228Y-50651429D01*
X230980329Y-50814174D01*
X230980327Y-50814177D01*
X230892294Y-50990974D01*
X230885655Y-50996752D01*
X230876874Y-50996142D01*
X230871096Y-50989503D01*
X230870500Y-50985848D01*
X230870500Y-50405946D01*
X230873868Y-50397814D01*
X231311814Y-49959868D01*
X231319946Y-49956500D01*
X232839746Y-49956500D01*
X232839748Y-49956500D01*
X232898231Y-49944867D01*
X232964552Y-49900552D01*
X233008867Y-49834231D01*
X233020500Y-49775748D01*
X233020500Y-47936252D01*
X233008867Y-47877769D01*
X232964552Y-47811448D01*
X232964550Y-47811446D01*
X232898232Y-47767134D01*
X232898233Y-47767134D01*
X232898231Y-47767133D01*
X232898229Y-47767132D01*
X232898228Y-47767132D01*
X232868788Y-47761276D01*
X232839748Y-47755500D01*
X231000252Y-47755500D01*
X230976988Y-47760127D01*
X230941771Y-47767132D01*
X230941767Y-47767134D01*
X230875449Y-47811446D01*
X230875446Y-47811449D01*
X230831134Y-47877767D01*
X230831132Y-47877771D01*
X230819500Y-47936253D01*
X230819500Y-49456054D01*
X230816132Y-49464186D01*
X230239529Y-50040788D01*
X230193388Y-50120707D01*
X230193384Y-50120717D01*
X230169500Y-50209856D01*
X230169500Y-64198353D01*
X230166132Y-64206485D01*
X230163346Y-64208535D01*
X230147761Y-64216716D01*
X230147757Y-64216719D01*
X230029521Y-64321465D01*
X230029515Y-64321472D01*
X229939780Y-64451477D01*
X229898358Y-64560700D01*
X229883763Y-64599183D01*
X229883762Y-64599184D01*
X229864722Y-64755998D01*
X226728611Y-64755998D01*
X226731088Y-64747561D01*
X226751550Y-64605246D01*
X226751550Y-64546755D01*
X226748617Y-64526353D01*
X226748500Y-64524717D01*
X226748500Y-64127281D01*
X226748617Y-64125645D01*
X226749200Y-64121587D01*
X226751550Y-64105245D01*
X226751550Y-64046754D01*
X226731088Y-63904439D01*
X226714609Y-63848317D01*
X226654881Y-63717532D01*
X226654873Y-63717519D01*
X226623262Y-63668331D01*
X226623261Y-63668330D01*
X226623260Y-63668329D01*
X226623259Y-63668327D01*
X226529105Y-63559666D01*
X226484899Y-63521361D01*
X226484893Y-63521356D01*
X226363957Y-63443636D01*
X226363949Y-63443631D01*
X226363945Y-63443629D01*
X226363940Y-63443627D01*
X226363937Y-63443625D01*
X226337815Y-63431696D01*
X226310740Y-63419331D01*
X226253393Y-63402492D01*
X226172783Y-63378823D01*
X226136719Y-63373638D01*
X226114889Y-63370500D01*
X225543000Y-63370500D01*
X225527757Y-63372217D01*
X225497270Y-63375652D01*
X225414874Y-63415333D01*
X225401824Y-63431696D01*
X225394120Y-63435953D01*
X225385663Y-63433516D01*
X225367876Y-63419331D01*
X225332163Y-63390851D01*
X225243000Y-63370500D01*
X225242997Y-63370500D01*
X225055000Y-63370500D01*
X225046868Y-63367132D01*
X225043500Y-63359000D01*
X225043500Y-62350456D01*
X225046868Y-62342324D01*
X225052246Y-62339291D01*
X225068865Y-62335196D01*
X225208740Y-62261783D01*
X225326983Y-62157030D01*
X225416720Y-62027023D01*
X225472737Y-61879318D01*
X225491778Y-61722500D01*
X225472737Y-61565682D01*
X225416720Y-61417977D01*
X225326983Y-61287970D01*
X225326980Y-61287967D01*
X225326978Y-61287965D01*
X225208742Y-61183219D01*
X225208740Y-61183217D01*
X225068865Y-61109804D01*
X224915485Y-61072000D01*
X224757515Y-61072000D01*
X224604135Y-61109804D01*
X224604133Y-61109805D01*
X224464261Y-61183216D01*
X224464257Y-61183219D01*
X224346021Y-61287965D01*
X224346015Y-61287972D01*
X224256280Y-61417977D01*
X224200263Y-61565683D01*
X224200262Y-61565684D01*
X224181222Y-61722498D01*
X224181222Y-61722501D01*
X224200262Y-61879315D01*
X224200263Y-61879318D01*
X224256280Y-62027023D01*
X224346017Y-62157030D01*
X224346019Y-62157032D01*
X224346021Y-62157034D01*
X224438626Y-62239073D01*
X224442479Y-62246987D01*
X224442500Y-62247681D01*
X224442500Y-63426901D01*
X224439132Y-63435033D01*
X224435778Y-63437361D01*
X224422055Y-63443629D01*
X224422051Y-63443631D01*
X224422042Y-63443636D01*
X224301106Y-63521356D01*
X224301095Y-63521365D01*
X224256899Y-63559662D01*
X224256891Y-63559670D01*
X224162738Y-63668330D01*
X224162737Y-63668331D01*
X224131126Y-63717519D01*
X224131115Y-63717539D01*
X224071391Y-63848316D01*
X224071391Y-63848317D01*
X224054913Y-63904432D01*
X224054912Y-63904439D01*
X224034450Y-64046754D01*
X224034450Y-64105245D01*
X224036799Y-64121587D01*
X224037383Y-64125645D01*
X224037500Y-64127281D01*
X224037500Y-64524717D01*
X224037383Y-64526353D01*
X224034450Y-64546755D01*
X224034450Y-64605246D01*
X224036682Y-64620768D01*
X224054913Y-64747567D01*
X224071391Y-64803682D01*
X224071391Y-64803683D01*
X224131115Y-64934460D01*
X224131126Y-64934480D01*
X224162737Y-64983668D01*
X224162738Y-64983669D01*
X224162741Y-64983673D01*
X224256895Y-65092334D01*
X224277990Y-65110613D01*
X224301095Y-65130634D01*
X224301106Y-65130643D01*
X224422042Y-65208363D01*
X224422045Y-65208365D01*
X224422055Y-65208371D01*
X224475260Y-65232669D01*
X224613215Y-65273176D01*
X224671111Y-65281500D01*
X224671114Y-65281500D01*
X225242999Y-65281500D01*
X225243000Y-65281500D01*
X225288728Y-65276348D01*
X225371127Y-65236666D01*
X225384175Y-65220302D01*
X225391877Y-65216046D01*
X225400335Y-65218483D01*
X225402619Y-65220304D01*
X225453837Y-65261149D01*
X225543000Y-65281500D01*
X225806765Y-65281500D01*
X225814897Y-65284868D01*
X226940476Y-66410447D01*
X226943844Y-66418579D01*
X226943097Y-66422656D01*
X226930762Y-66455183D01*
X226911722Y-66611998D01*
X226911722Y-66612001D01*
X226930762Y-66768815D01*
X226930763Y-66768818D01*
X226986780Y-66916523D01*
X227076517Y-67046530D01*
X227076519Y-67046532D01*
X227076521Y-67046534D01*
X227105214Y-67071953D01*
X227194760Y-67151283D01*
X227334635Y-67224696D01*
X227393028Y-67239088D01*
X227400116Y-67244304D01*
X227401441Y-67253005D01*
X227396224Y-67260094D01*
X227390287Y-67261753D01*
X226160999Y-67262999D01*
X226182940Y-67288499D01*
X226185691Y-67296860D01*
X226181724Y-67304717D01*
X226174223Y-67307500D01*
X225611000Y-67307500D01*
X225595757Y-67309217D01*
X225565270Y-67312652D01*
X225482873Y-67352333D01*
X225425852Y-67423835D01*
X225425851Y-67423836D01*
X225425851Y-67423837D01*
X225405500Y-67513000D01*
X225405500Y-67513003D01*
X225405500Y-67961717D01*
X225405383Y-67963353D01*
X225402450Y-67983756D01*
X225402450Y-68042242D01*
X225405383Y-68062645D01*
X225405500Y-68064281D01*
X225405500Y-68461717D01*
X225405383Y-68463353D01*
X225402450Y-68483757D01*
X225402450Y-68542243D01*
X225405383Y-68562645D01*
X225405500Y-68564281D01*
X225405500Y-69013000D01*
X225405762Y-69015322D01*
X225410652Y-69058729D01*
X225450333Y-69141126D01*
X225450334Y-69141127D01*
X225521837Y-69198149D01*
X225611000Y-69218500D01*
X225611003Y-69218500D01*
X226182886Y-69218500D01*
X226182889Y-69218500D01*
X226240785Y-69210176D01*
X226378740Y-69169669D01*
X226431945Y-69145371D01*
X226526057Y-69084889D01*
X226552893Y-69067643D01*
X226552893Y-69067642D01*
X226552899Y-69067639D01*
X226597105Y-69029334D01*
X226691259Y-68920673D01*
X226722881Y-68871468D01*
X226782609Y-68740683D01*
X226799088Y-68684561D01*
X226807887Y-68623363D01*
X226812378Y-68615794D01*
X226819270Y-68613500D01*
X226820054Y-68613500D01*
X226828186Y-68616868D01*
X226963043Y-68751725D01*
X226966411Y-68759857D01*
X226966327Y-68761243D01*
X226949722Y-68897998D01*
X226949722Y-68898001D01*
X226968762Y-69054815D01*
X226968763Y-69054818D01*
X227024780Y-69202523D01*
X227114517Y-69332530D01*
X227114519Y-69332532D01*
X227114521Y-69332534D01*
X227122262Y-69339392D01*
X227126115Y-69347306D01*
X227123244Y-69355626D01*
X227115330Y-69359479D01*
X227114636Y-69359500D01*
X223277938Y-69359500D01*
X223201512Y-69379978D01*
X223169432Y-69398500D01*
X223132989Y-69419539D01*
X221896887Y-70655640D01*
X221888755Y-70659008D01*
X221886003Y-70658674D01*
X221803565Y-70638356D01*
X221774735Y-70631250D01*
X221616765Y-70631250D01*
X221463385Y-70669054D01*
X221463383Y-70669055D01*
X221323511Y-70742466D01*
X221323507Y-70742469D01*
X221265376Y-70793968D01*
X221257055Y-70796839D01*
X221249142Y-70792986D01*
X221246250Y-70785360D01*
X221246250Y-58646195D01*
X221249617Y-58638064D01*
X221931681Y-57956000D01*
X227114357Y-57956000D01*
X227134884Y-58177533D01*
X227195771Y-58391529D01*
X227294942Y-58590690D01*
X227294944Y-58590693D01*
X227429011Y-58768227D01*
X227429014Y-58768230D01*
X227429019Y-58768236D01*
X227593438Y-58918124D01*
X227782599Y-59035247D01*
X227990060Y-59115618D01*
X228208754Y-59156499D01*
X228208755Y-59156500D01*
X228208757Y-59156500D01*
X228431245Y-59156500D01*
X228431245Y-59156499D01*
X228649940Y-59115618D01*
X228857401Y-59035247D01*
X229046562Y-58918124D01*
X229210981Y-58768236D01*
X229345058Y-58590689D01*
X229444229Y-58391528D01*
X229505115Y-58177536D01*
X229525643Y-57956000D01*
X229505115Y-57734464D01*
X229444229Y-57520472D01*
X229345058Y-57321311D01*
X229345057Y-57321310D01*
X229345057Y-57321309D01*
X229345055Y-57321306D01*
X229210988Y-57143772D01*
X229210984Y-57143769D01*
X229210981Y-57143764D01*
X229046562Y-56993876D01*
X229046561Y-56993875D01*
X228914251Y-56911953D01*
X228857401Y-56876753D01*
X228857396Y-56876751D01*
X228857390Y-56876748D01*
X228649942Y-56796382D01*
X228431245Y-56755500D01*
X228431243Y-56755500D01*
X228208757Y-56755500D01*
X228208754Y-56755500D01*
X227990058Y-56796382D01*
X227990057Y-56796382D01*
X227782609Y-56876748D01*
X227782597Y-56876754D01*
X227593438Y-56993875D01*
X227497114Y-57081686D01*
X227429019Y-57143764D01*
X227429017Y-57143766D01*
X227429011Y-57143772D01*
X227294944Y-57321306D01*
X227294942Y-57321309D01*
X227195771Y-57520470D01*
X227134884Y-57734466D01*
X227114357Y-57956000D01*
X221931681Y-57956000D01*
X224940698Y-54946982D01*
X224948829Y-54943615D01*
X224954248Y-54944972D01*
X224978273Y-54957814D01*
X225166868Y-55015024D01*
X225363000Y-55034341D01*
X225559132Y-55015024D01*
X225747727Y-54957814D01*
X225921538Y-54864910D01*
X226073883Y-54739883D01*
X226198910Y-54587538D01*
X226291814Y-54413727D01*
X226349024Y-54225132D01*
X226368341Y-54029000D01*
X226349024Y-53832868D01*
X226291814Y-53644273D01*
X226198910Y-53470462D01*
X226073883Y-53318117D01*
X225921538Y-53193090D01*
X225921536Y-53193089D01*
X225921535Y-53193088D01*
X225747730Y-53100187D01*
X225747720Y-53100184D01*
X225559136Y-53042977D01*
X225559134Y-53042976D01*
X225559132Y-53042976D01*
X225363000Y-53023659D01*
X225166868Y-53042976D01*
X225166865Y-53042976D01*
X225166863Y-53042977D01*
X224978279Y-53100184D01*
X224978269Y-53100187D01*
X224804464Y-53193088D01*
X224652117Y-53318117D01*
X224527088Y-53470464D01*
X224434187Y-53644269D01*
X224434184Y-53644279D01*
X224376977Y-53832863D01*
X224376976Y-53832865D01*
X224376976Y-53832868D01*
X224357659Y-54029000D01*
X224376976Y-54225132D01*
X224376976Y-54225134D01*
X224376977Y-54225136D01*
X224434184Y-54413720D01*
X224434187Y-54413730D01*
X224447025Y-54437748D01*
X224447888Y-54446508D01*
X224445015Y-54451301D01*
X220615279Y-58281038D01*
X220569138Y-58360957D01*
X220569134Y-58360967D01*
X220545250Y-58450106D01*
X220545250Y-72856505D01*
X220543214Y-72863038D01*
X220509781Y-72911473D01*
X220453763Y-73059183D01*
X220453762Y-73059184D01*
X220434722Y-73215998D01*
X220434722Y-73216001D01*
X220453762Y-73372815D01*
X220453763Y-73372818D01*
X220509780Y-73520523D01*
X220599517Y-73650530D01*
X220599519Y-73650532D01*
X220599521Y-73650534D01*
X220667084Y-73710388D01*
X220717760Y-73755283D01*
X220857635Y-73828696D01*
X221011015Y-73866500D01*
X221011018Y-73866500D01*
X221168982Y-73866500D01*
X221168985Y-73866500D01*
X221322365Y-73828696D01*
X221462240Y-73755283D01*
X221580483Y-73650530D01*
X221670220Y-73520523D01*
X221726237Y-73372818D01*
X221745278Y-73216000D01*
X221726237Y-73059182D01*
X221670220Y-72911477D01*
X221580483Y-72781470D01*
X221580480Y-72781467D01*
X221580478Y-72781465D01*
X221462242Y-72676719D01*
X221462240Y-72676717D01*
X221322365Y-72603304D01*
X221287304Y-72594662D01*
X221254998Y-72586699D01*
X221247908Y-72581482D01*
X221246250Y-72575533D01*
X221246250Y-71778138D01*
X221249618Y-71770006D01*
X221257750Y-71766638D01*
X221265373Y-71769529D01*
X221323510Y-71821033D01*
X221463385Y-71894446D01*
X221616765Y-71932250D01*
X221616768Y-71932250D01*
X221774732Y-71932250D01*
X221774735Y-71932250D01*
X221928115Y-71894446D01*
X222067990Y-71821033D01*
X222186233Y-71716280D01*
X222275970Y-71586273D01*
X222331987Y-71438568D01*
X222351028Y-71281750D01*
X222349794Y-71271590D01*
X222331987Y-71124934D01*
X222331987Y-71124932D01*
X222319651Y-71092405D01*
X222319917Y-71083609D01*
X222322269Y-71080200D01*
X223438603Y-69963868D01*
X223446735Y-69960500D01*
X225780977Y-69960500D01*
X225789109Y-69963868D01*
X225792477Y-69972000D01*
X225789109Y-69980132D01*
X225783730Y-69983165D01*
X225639135Y-70018804D01*
X225639133Y-70018805D01*
X225499261Y-70092216D01*
X225499257Y-70092219D01*
X225381021Y-70196965D01*
X225381015Y-70196972D01*
X225329196Y-70272046D01*
X225291280Y-70326977D01*
X225274883Y-70370214D01*
X225235263Y-70474683D01*
X225235262Y-70474684D01*
X225216424Y-70629833D01*
X225216222Y-70631500D01*
X225229695Y-70742466D01*
X225232827Y-70768256D01*
X225230464Y-70776734D01*
X225229543Y-70777774D01*
X224784529Y-71222788D01*
X224750344Y-71282000D01*
X224738388Y-71302707D01*
X224738384Y-71302717D01*
X224714500Y-71391856D01*
X224714500Y-84407253D01*
X224711132Y-84415385D01*
X217402649Y-91723867D01*
X217394517Y-91727235D01*
X217393444Y-91727185D01*
X217375473Y-91725500D01*
X217375466Y-91725500D01*
X216066934Y-91725500D01*
X216066928Y-91725500D01*
X216036497Y-91728354D01*
X215908316Y-91773207D01*
X215908315Y-91773208D01*
X215799051Y-91853849D01*
X215799049Y-91853851D01*
X215718408Y-91963115D01*
X215718407Y-91963116D01*
X215673554Y-92091297D01*
X215670700Y-92121728D01*
X211019871Y-92121728D01*
X211035647Y-92012000D01*
X211015165Y-91869543D01*
X210955377Y-91738627D01*
X210955376Y-91738625D01*
X210861128Y-91629857D01*
X210861124Y-91629854D01*
X210740054Y-91552047D01*
X210601962Y-91511500D01*
X210601961Y-91511500D01*
X210458039Y-91511500D01*
X210458038Y-91511500D01*
X210319945Y-91552047D01*
X210198875Y-91629854D01*
X210198871Y-91629857D01*
X210104623Y-91738625D01*
X210104623Y-91738626D01*
X210044834Y-91869545D01*
X210024353Y-92012000D01*
X200984234Y-92012000D01*
X202254234Y-90742000D01*
X210024353Y-90742000D01*
X210044834Y-90884454D01*
X210104623Y-91015373D01*
X210104623Y-91015374D01*
X210198871Y-91124142D01*
X210198875Y-91124145D01*
X210309415Y-91195185D01*
X210319947Y-91201953D01*
X210400636Y-91225645D01*
X210458038Y-91242500D01*
X210458039Y-91242500D01*
X210601961Y-91242500D01*
X210740053Y-91201953D01*
X210861128Y-91124143D01*
X210955377Y-91015373D01*
X211015165Y-90884457D01*
X211035647Y-90742000D01*
X211015165Y-90599543D01*
X210955377Y-90468627D01*
X210955376Y-90468625D01*
X210861128Y-90359857D01*
X210861124Y-90359854D01*
X210740054Y-90282047D01*
X210601962Y-90241500D01*
X210601961Y-90241500D01*
X210458039Y-90241500D01*
X210458038Y-90241500D01*
X210319945Y-90282047D01*
X210198875Y-90359854D01*
X210198871Y-90359857D01*
X210104623Y-90468625D01*
X210104623Y-90468626D01*
X210044834Y-90599545D01*
X210024353Y-90742000D01*
X202254234Y-90742000D01*
X203524235Y-89472000D01*
X210024353Y-89472000D01*
X210044834Y-89614454D01*
X210044834Y-89614455D01*
X210044835Y-89614457D01*
X210098230Y-89731375D01*
X210104623Y-89745373D01*
X210104623Y-89745374D01*
X210123319Y-89766950D01*
X210198872Y-89854143D01*
X210319947Y-89931953D01*
X210400636Y-89955645D01*
X210458038Y-89972500D01*
X210458039Y-89972500D01*
X210601961Y-89972500D01*
X210740053Y-89931953D01*
X210861128Y-89854143D01*
X210955377Y-89745373D01*
X211015165Y-89614457D01*
X211035647Y-89472000D01*
X211015165Y-89329543D01*
X210955377Y-89198627D01*
X210955376Y-89198625D01*
X210861128Y-89089857D01*
X210861124Y-89089854D01*
X210740054Y-89012047D01*
X210601962Y-88971500D01*
X210601961Y-88971500D01*
X210458039Y-88971500D01*
X210458038Y-88971500D01*
X210319945Y-89012047D01*
X210198875Y-89089854D01*
X210198871Y-89089857D01*
X210104623Y-89198625D01*
X210104623Y-89198626D01*
X210044834Y-89329545D01*
X210024353Y-89472000D01*
X203524235Y-89472000D01*
X204794235Y-88202000D01*
X210024353Y-88202000D01*
X210044834Y-88344454D01*
X210104623Y-88475373D01*
X210104623Y-88475374D01*
X210123319Y-88496950D01*
X210198872Y-88584143D01*
X210319947Y-88661953D01*
X210400636Y-88685645D01*
X210458038Y-88702500D01*
X210458039Y-88702500D01*
X210601961Y-88702500D01*
X210740053Y-88661953D01*
X210861128Y-88584143D01*
X210955377Y-88475373D01*
X211015165Y-88344457D01*
X211035647Y-88202000D01*
X211015165Y-88059543D01*
X210955377Y-87928627D01*
X210955376Y-87928625D01*
X210861128Y-87819857D01*
X210861124Y-87819854D01*
X210740054Y-87742047D01*
X210601962Y-87701500D01*
X210601961Y-87701500D01*
X210458039Y-87701500D01*
X210458038Y-87701500D01*
X210319945Y-87742047D01*
X210198875Y-87819854D01*
X210198871Y-87819857D01*
X210104623Y-87928625D01*
X210104623Y-87928626D01*
X210044834Y-88059545D01*
X210024353Y-88202000D01*
X204794235Y-88202000D01*
X206349367Y-86646868D01*
X206357499Y-86643500D01*
X213873668Y-86643500D01*
X213881800Y-86646868D01*
X213883230Y-86648611D01*
X213926023Y-86712655D01*
X214072345Y-86858977D01*
X214244402Y-86973941D01*
X214435580Y-87053130D01*
X214638535Y-87093500D01*
X214638536Y-87093500D01*
X215095464Y-87093500D01*
X215095465Y-87093500D01*
X215298420Y-87053130D01*
X215489598Y-86973941D01*
X215661655Y-86858977D01*
X215807977Y-86712655D01*
X215922941Y-86540598D01*
X216002130Y-86349420D01*
X216042500Y-86146465D01*
X216042500Y-85939535D01*
X216002130Y-85736580D01*
X215922941Y-85545402D01*
X215807977Y-85373345D01*
X215661655Y-85227023D01*
X215661651Y-85227020D01*
X215489600Y-85112060D01*
X215298419Y-85032869D01*
X215298414Y-85032868D01*
X215135614Y-85000486D01*
X215095465Y-84992500D01*
X215095464Y-84992500D01*
X214670499Y-84992500D01*
X214662367Y-84989132D01*
X214297521Y-84624286D01*
X214297520Y-84624284D01*
X214185716Y-84512480D01*
X214185715Y-84512479D01*
X214106559Y-84466779D01*
X214104177Y-84464952D01*
X213565868Y-83926643D01*
X213562500Y-83918511D01*
X213562500Y-79612000D01*
X213565868Y-79603868D01*
X213574000Y-79600500D01*
X214334746Y-79600500D01*
X214334748Y-79600500D01*
X214393231Y-79588867D01*
X214459552Y-79544552D01*
X214503867Y-79478231D01*
X214515500Y-79419748D01*
X214515500Y-78550000D01*
X214949417Y-78550000D01*
X214969700Y-78755934D01*
X214969700Y-78755936D01*
X214969701Y-78755938D01*
X214989503Y-78821216D01*
X215022457Y-78929854D01*
X215029766Y-78953947D01*
X215029769Y-78953957D01*
X215127313Y-79136447D01*
X215127315Y-79136450D01*
X215258590Y-79296410D01*
X215418550Y-79427685D01*
X215468631Y-79454454D01*
X215562287Y-79504515D01*
X215601046Y-79525232D01*
X215799066Y-79585300D01*
X216005000Y-79605583D01*
X216210934Y-79585300D01*
X216408954Y-79525232D01*
X216591450Y-79427685D01*
X216751410Y-79296410D01*
X216867705Y-79154704D01*
X216875468Y-79150555D01*
X216876595Y-79150500D01*
X218131903Y-79150500D01*
X218140035Y-79153868D01*
X218142758Y-79158202D01*
X218163045Y-79216180D01*
X218163046Y-79216181D01*
X218194254Y-79258465D01*
X218242570Y-79323930D01*
X218326087Y-79385569D01*
X218350318Y-79403453D01*
X218350319Y-79403454D01*
X218350320Y-79403454D01*
X218350321Y-79403455D01*
X218476726Y-79447686D01*
X218506736Y-79450500D01*
X218506744Y-79450500D01*
X219101256Y-79450500D01*
X219101264Y-79450500D01*
X219131274Y-79447686D01*
X219257679Y-79403455D01*
X219365430Y-79323930D01*
X219444955Y-79216179D01*
X219489186Y-79089774D01*
X219492000Y-79059764D01*
X219492000Y-78040236D01*
X219491999Y-78040230D01*
X219991000Y-78040230D01*
X219991000Y-78040236D01*
X219991000Y-79059764D01*
X219993814Y-79089774D01*
X219993814Y-79089776D01*
X219993815Y-79089777D01*
X220038045Y-79216180D01*
X220038046Y-79216181D01*
X220069254Y-79258465D01*
X220117570Y-79323930D01*
X220201087Y-79385569D01*
X220225318Y-79403453D01*
X220225319Y-79403454D01*
X220225320Y-79403454D01*
X220225321Y-79403455D01*
X220351726Y-79447686D01*
X220381736Y-79450500D01*
X220381744Y-79450500D01*
X220976256Y-79450500D01*
X220976264Y-79450500D01*
X221006274Y-79447686D01*
X221132679Y-79403455D01*
X221240430Y-79323930D01*
X221319955Y-79216179D01*
X221340242Y-79158202D01*
X221346107Y-79151639D01*
X221351097Y-79150500D01*
X222175102Y-79150500D01*
X222183234Y-79153868D01*
X222184354Y-79155171D01*
X222190284Y-79163205D01*
X222190286Y-79163207D01*
X222190289Y-79163211D01*
X222296525Y-79241616D01*
X222421151Y-79285225D01*
X222450744Y-79288000D01*
X222450752Y-79288000D01*
X223031248Y-79288000D01*
X223031256Y-79288000D01*
X223046693Y-79286551D01*
X223055102Y-79289145D01*
X223055898Y-79289869D01*
X223257476Y-79491447D01*
X223260844Y-79499579D01*
X223260097Y-79503656D01*
X223247762Y-79536183D01*
X223228722Y-79692998D01*
X223228722Y-79693001D01*
X223247762Y-79849815D01*
X223247763Y-79849818D01*
X223303780Y-79997523D01*
X223393517Y-80127530D01*
X223393519Y-80127532D01*
X223393521Y-80127534D01*
X223461084Y-80187388D01*
X223511760Y-80232283D01*
X223651635Y-80305696D01*
X223805015Y-80343500D01*
X223805018Y-80343500D01*
X223962982Y-80343500D01*
X223962985Y-80343500D01*
X224116365Y-80305696D01*
X224256240Y-80232283D01*
X224374483Y-80127530D01*
X224464220Y-79997523D01*
X224520237Y-79849818D01*
X224539278Y-79693000D01*
X224520237Y-79536182D01*
X224464220Y-79388477D01*
X224374483Y-79258470D01*
X224374480Y-79258467D01*
X224374478Y-79258465D01*
X224274104Y-79169543D01*
X224256240Y-79153717D01*
X224116365Y-79080304D01*
X223962985Y-79042500D01*
X223805015Y-79042500D01*
X223693745Y-79069924D01*
X223685043Y-79068599D01*
X223682861Y-79066890D01*
X223419868Y-78803897D01*
X223416500Y-78795765D01*
X223416500Y-78197252D01*
X223416500Y-78197244D01*
X223413725Y-78167651D01*
X223370116Y-78043025D01*
X223291711Y-77936789D01*
X223231068Y-77892032D01*
X223226526Y-77884495D01*
X223227144Y-77878706D01*
X223250237Y-77817818D01*
X223269278Y-77661000D01*
X223268223Y-77652315D01*
X223256462Y-77555448D01*
X223250237Y-77504182D01*
X223194220Y-77356477D01*
X223104483Y-77226470D01*
X223104480Y-77226467D01*
X223104478Y-77226465D01*
X222986242Y-77121719D01*
X222986240Y-77121717D01*
X222846365Y-77048304D01*
X222692985Y-77010500D01*
X222535015Y-77010500D01*
X222381635Y-77048304D01*
X222381633Y-77048305D01*
X222241761Y-77121716D01*
X222241757Y-77121719D01*
X222123521Y-77226465D01*
X222123515Y-77226472D01*
X222119732Y-77231953D01*
X222033780Y-77356477D01*
X221981467Y-77494417D01*
X221977763Y-77504183D01*
X221977762Y-77504184D01*
X221958722Y-77660998D01*
X221958722Y-77661001D01*
X221977762Y-77817815D01*
X221977762Y-77817816D01*
X221977763Y-77817818D01*
X222005909Y-77892034D01*
X222021795Y-77933922D01*
X222021529Y-77942720D01*
X222015120Y-77948753D01*
X222011042Y-77949500D01*
X221351097Y-77949500D01*
X221342965Y-77946132D01*
X221340242Y-77941798D01*
X221319954Y-77883819D01*
X221319953Y-77883818D01*
X221300995Y-77858132D01*
X221240430Y-77776070D01*
X221186554Y-77736307D01*
X221132681Y-77696546D01*
X221132680Y-77696545D01*
X221006277Y-77652315D01*
X221006276Y-77652314D01*
X221006274Y-77652314D01*
X220988116Y-77650611D01*
X220976269Y-77649500D01*
X220976264Y-77649500D01*
X220381736Y-77649500D01*
X220381730Y-77649500D01*
X220367513Y-77650833D01*
X220351726Y-77652314D01*
X220351723Y-77652314D01*
X220351722Y-77652315D01*
X220225319Y-77696545D01*
X220225318Y-77696546D01*
X220117571Y-77776069D01*
X220117569Y-77776071D01*
X220038046Y-77883818D01*
X220038045Y-77883819D01*
X219993815Y-78010222D01*
X219993814Y-78010226D01*
X219992333Y-78026013D01*
X219991000Y-78040230D01*
X219491999Y-78040230D01*
X219489186Y-78010226D01*
X219444955Y-77883821D01*
X219365430Y-77776070D01*
X219311554Y-77736307D01*
X219257681Y-77696546D01*
X219257680Y-77696545D01*
X219131277Y-77652315D01*
X219131276Y-77652314D01*
X219131274Y-77652314D01*
X219113116Y-77650611D01*
X219101269Y-77649500D01*
X219101264Y-77649500D01*
X218506736Y-77649500D01*
X218506730Y-77649500D01*
X218492513Y-77650833D01*
X218476726Y-77652314D01*
X218476723Y-77652314D01*
X218476722Y-77652315D01*
X218350319Y-77696545D01*
X218350318Y-77696546D01*
X218242571Y-77776069D01*
X218242569Y-77776071D01*
X218163046Y-77883818D01*
X218163045Y-77883819D01*
X218142758Y-77941798D01*
X218136893Y-77948361D01*
X218131903Y-77949500D01*
X216876595Y-77949500D01*
X216868463Y-77946132D01*
X216867705Y-77945296D01*
X216823994Y-77892034D01*
X216751410Y-77803590D01*
X216591450Y-77672315D01*
X216591448Y-77672314D01*
X216591447Y-77672313D01*
X216408957Y-77574769D01*
X216408947Y-77574766D01*
X216210938Y-77514701D01*
X216210936Y-77514700D01*
X216210934Y-77514700D01*
X216005000Y-77494417D01*
X215799066Y-77514700D01*
X215799063Y-77514700D01*
X215799061Y-77514701D01*
X215601052Y-77574766D01*
X215601042Y-77574769D01*
X215418552Y-77672313D01*
X215258590Y-77803590D01*
X215127313Y-77963552D01*
X215029769Y-78146042D01*
X215029766Y-78146052D01*
X214969701Y-78344061D01*
X214969700Y-78344063D01*
X214969700Y-78344066D01*
X214949417Y-78550000D01*
X214515500Y-78550000D01*
X214515500Y-77680252D01*
X214503867Y-77621769D01*
X214459552Y-77555448D01*
X214459550Y-77555446D01*
X214415338Y-77525904D01*
X214393231Y-77511133D01*
X214393229Y-77511132D01*
X214393228Y-77511132D01*
X214358286Y-77504182D01*
X214334748Y-77499500D01*
X212595252Y-77499500D01*
X212571988Y-77504127D01*
X212536771Y-77511132D01*
X212536767Y-77511134D01*
X212470449Y-77555446D01*
X212470446Y-77555449D01*
X212426134Y-77621767D01*
X212426132Y-77621771D01*
X212414500Y-77680253D01*
X212414500Y-78797216D01*
X212412959Y-78802966D01*
X212402422Y-78821216D01*
X212361499Y-78973943D01*
X212361499Y-79132977D01*
X212361500Y-79132990D01*
X212361500Y-84092239D01*
X212361499Y-84092257D01*
X212361499Y-84251066D01*
X212402422Y-84403793D01*
X212412883Y-84421912D01*
X212477860Y-84534457D01*
X212481480Y-84540726D01*
X212593284Y-84652530D01*
X212593286Y-84652531D01*
X213302468Y-85361713D01*
X213302470Y-85361716D01*
X213363622Y-85422868D01*
X213366990Y-85431000D01*
X213363622Y-85439132D01*
X213355490Y-85442500D01*
X206024942Y-85442500D01*
X205984019Y-85453465D01*
X205872217Y-85483422D01*
X205735284Y-85562479D01*
X205623478Y-85674286D01*
X198614644Y-92683118D01*
X198614607Y-92656000D01*
X198611000Y-89980000D01*
X204315416Y-84392000D01*
X210024353Y-84392000D01*
X210044834Y-84534454D01*
X210044834Y-84534455D01*
X210044835Y-84534457D01*
X210104623Y-84665373D01*
X210198872Y-84774143D01*
X210319947Y-84851953D01*
X210400636Y-84875645D01*
X210458038Y-84892500D01*
X210458039Y-84892500D01*
X210601961Y-84892500D01*
X210740053Y-84851953D01*
X210861128Y-84774143D01*
X210955377Y-84665373D01*
X211015165Y-84534457D01*
X211035647Y-84392000D01*
X211015165Y-84249543D01*
X210955377Y-84118627D01*
X210955376Y-84118625D01*
X210861128Y-84009857D01*
X210861124Y-84009854D01*
X210740054Y-83932047D01*
X210601962Y-83891500D01*
X210601961Y-83891500D01*
X210458039Y-83891500D01*
X210458038Y-83891500D01*
X210319945Y-83932047D01*
X210198875Y-84009854D01*
X210198871Y-84009857D01*
X210104623Y-84118625D01*
X210104623Y-84118626D01*
X210044834Y-84249545D01*
X210024353Y-84392000D01*
X204315416Y-84392000D01*
X205611874Y-83122000D01*
X210024353Y-83122000D01*
X210044834Y-83264454D01*
X210104623Y-83395373D01*
X210104623Y-83395374D01*
X210123319Y-83416950D01*
X210198872Y-83504143D01*
X210319947Y-83581953D01*
X210400636Y-83605645D01*
X210458038Y-83622500D01*
X210458039Y-83622500D01*
X210601961Y-83622500D01*
X210740053Y-83581953D01*
X210861128Y-83504143D01*
X210955377Y-83395373D01*
X211015165Y-83264457D01*
X211035647Y-83122000D01*
X211015165Y-82979543D01*
X210955377Y-82848627D01*
X210955376Y-82848625D01*
X210861128Y-82739857D01*
X210861124Y-82739854D01*
X210740054Y-82662047D01*
X210601962Y-82621500D01*
X210601961Y-82621500D01*
X210458039Y-82621500D01*
X210458038Y-82621500D01*
X210319945Y-82662047D01*
X210198875Y-82739854D01*
X210198871Y-82739857D01*
X210104623Y-82848625D01*
X210104623Y-82848626D01*
X210044834Y-82979545D01*
X210024353Y-83122000D01*
X205611874Y-83122000D01*
X206908332Y-81852000D01*
X210024353Y-81852000D01*
X210044834Y-81994454D01*
X210104623Y-82125373D01*
X210104623Y-82125374D01*
X210123319Y-82146950D01*
X210198872Y-82234143D01*
X210319947Y-82311953D01*
X210400636Y-82335645D01*
X210458038Y-82352500D01*
X210458039Y-82352500D01*
X210601961Y-82352500D01*
X210740053Y-82311953D01*
X210861128Y-82234143D01*
X210955377Y-82125373D01*
X211015165Y-81994457D01*
X211035647Y-81852000D01*
X211015165Y-81709543D01*
X210955377Y-81578627D01*
X210955376Y-81578625D01*
X210861128Y-81469857D01*
X210861124Y-81469854D01*
X210740054Y-81392047D01*
X210601962Y-81351500D01*
X210601961Y-81351500D01*
X210458039Y-81351500D01*
X210458038Y-81351500D01*
X210319945Y-81392047D01*
X210198875Y-81469854D01*
X210198871Y-81469857D01*
X210104623Y-81578625D01*
X210104623Y-81578626D01*
X210044834Y-81709545D01*
X210024353Y-81852000D01*
X206908332Y-81852000D01*
X208204790Y-80582000D01*
X210024353Y-80582000D01*
X210044834Y-80724454D01*
X210104623Y-80855373D01*
X210104623Y-80855374D01*
X210123319Y-80876950D01*
X210198872Y-80964143D01*
X210319947Y-81041953D01*
X210375784Y-81058348D01*
X210458038Y-81082500D01*
X210458039Y-81082500D01*
X210601961Y-81082500D01*
X210740053Y-81041953D01*
X210861128Y-80964143D01*
X210955377Y-80855373D01*
X211015165Y-80724457D01*
X211035647Y-80582000D01*
X211015165Y-80439543D01*
X210955377Y-80308627D01*
X210955376Y-80308625D01*
X210861128Y-80199857D01*
X210861124Y-80199854D01*
X210740054Y-80122047D01*
X210601962Y-80081500D01*
X210601961Y-80081500D01*
X210458039Y-80081500D01*
X210458038Y-80081500D01*
X210319945Y-80122047D01*
X210198875Y-80199854D01*
X210198871Y-80199857D01*
X210104623Y-80308625D01*
X210104623Y-80308626D01*
X210044834Y-80439545D01*
X210024353Y-80582000D01*
X208204790Y-80582000D01*
X209501248Y-79312000D01*
X210024353Y-79312000D01*
X210044834Y-79454454D01*
X210044834Y-79454455D01*
X210044835Y-79454457D01*
X210085981Y-79544553D01*
X210104623Y-79585373D01*
X210104623Y-79585374D01*
X210197882Y-79693001D01*
X210198872Y-79694143D01*
X210319947Y-79771953D01*
X210400636Y-79795645D01*
X210458038Y-79812500D01*
X210458039Y-79812500D01*
X210601961Y-79812500D01*
X210740053Y-79771953D01*
X210861128Y-79694143D01*
X210955377Y-79585373D01*
X211015165Y-79454457D01*
X211035647Y-79312000D01*
X211015165Y-79169543D01*
X210955377Y-79038627D01*
X210955376Y-79038625D01*
X210861128Y-78929857D01*
X210861124Y-78929854D01*
X210740054Y-78852047D01*
X210601962Y-78811500D01*
X210601961Y-78811500D01*
X210458039Y-78811500D01*
X210458038Y-78811500D01*
X210319945Y-78852047D01*
X210198875Y-78929854D01*
X210198871Y-78929857D01*
X210104623Y-79038625D01*
X210104623Y-79038626D01*
X210044834Y-79169545D01*
X210024353Y-79312000D01*
X209501248Y-79312000D01*
X210321460Y-78508527D01*
X210329622Y-78505245D01*
X210332741Y-78505709D01*
X210383671Y-78520664D01*
X210458038Y-78542500D01*
X210458039Y-78542500D01*
X210601961Y-78542500D01*
X210740053Y-78501953D01*
X210861128Y-78424143D01*
X210955377Y-78315373D01*
X211015165Y-78184457D01*
X211035647Y-78042000D01*
X211015165Y-77899543D01*
X210996252Y-77858131D01*
X210995939Y-77849336D01*
X210998663Y-77845145D01*
X211057000Y-77788000D01*
X211092274Y-55317620D01*
X215041736Y-55317620D01*
X215041736Y-73279379D01*
X215047856Y-73302220D01*
X215065620Y-73368518D01*
X215065624Y-73368528D01*
X215111765Y-73448447D01*
X217273043Y-75609725D01*
X217276411Y-75617857D01*
X217276327Y-75619243D01*
X217259722Y-75755998D01*
X217259722Y-75756001D01*
X217278762Y-75912815D01*
X217278763Y-75912818D01*
X217334780Y-76060523D01*
X217424517Y-76190530D01*
X217424519Y-76190532D01*
X217424521Y-76190534D01*
X217492084Y-76250388D01*
X217542760Y-76295283D01*
X217682635Y-76368696D01*
X217836015Y-76406500D01*
X217836018Y-76406500D01*
X217993982Y-76406500D01*
X217993985Y-76406500D01*
X218147365Y-76368696D01*
X218287240Y-76295283D01*
X218405483Y-76190530D01*
X218495220Y-76060523D01*
X218551237Y-75912818D01*
X218570278Y-75756000D01*
X218551237Y-75599182D01*
X218495220Y-75451477D01*
X218405483Y-75321470D01*
X218405480Y-75321467D01*
X218405478Y-75321465D01*
X218287242Y-75216719D01*
X218287240Y-75216717D01*
X218147365Y-75143304D01*
X217993985Y-75105500D01*
X217836015Y-75105500D01*
X217781473Y-75118941D01*
X217772771Y-75117616D01*
X217770589Y-75115907D01*
X215746104Y-73091422D01*
X215742736Y-73083290D01*
X215742736Y-72819756D01*
X215746104Y-72811624D01*
X215754236Y-72808256D01*
X215762368Y-72811624D01*
X215764195Y-72814006D01*
X215883646Y-73020902D01*
X215883648Y-73020905D01*
X215883649Y-73020906D01*
X216047281Y-73234153D01*
X216237347Y-73424219D01*
X216450594Y-73587851D01*
X216450597Y-73587853D01*
X216683373Y-73722246D01*
X216683374Y-73722246D01*
X216683377Y-73722248D01*
X216931710Y-73825111D01*
X216996618Y-73842503D01*
X217191333Y-73894677D01*
X217191334Y-73894677D01*
X217191345Y-73894680D01*
X217457839Y-73929765D01*
X217457843Y-73929765D01*
X217726629Y-73929765D01*
X217726633Y-73929765D01*
X217993127Y-73894680D01*
X217993138Y-73894677D01*
X217993139Y-73894677D01*
X218098296Y-73866500D01*
X218252762Y-73825111D01*
X218501095Y-73722248D01*
X218733878Y-73587851D01*
X218947125Y-73424219D01*
X219985720Y-72385625D01*
X220149351Y-72172377D01*
X220283748Y-71939595D01*
X220386611Y-71691262D01*
X220456180Y-71431627D01*
X220491265Y-71165133D01*
X220491265Y-70896339D01*
X220456180Y-70629845D01*
X220452072Y-70614515D01*
X220386612Y-70370215D01*
X220386612Y-70370214D01*
X220386611Y-70370210D01*
X220283748Y-70121877D01*
X220266623Y-70092216D01*
X220149353Y-69889097D01*
X220115141Y-69844511D01*
X219985720Y-69675846D01*
X219795654Y-69485780D01*
X219582406Y-69322149D01*
X219582405Y-69322148D01*
X219582402Y-69322146D01*
X219349626Y-69187753D01*
X219157545Y-69108190D01*
X219101290Y-69084889D01*
X219101289Y-69084888D01*
X219101285Y-69084887D01*
X218841666Y-69015322D01*
X218841659Y-69015321D01*
X218841655Y-69015320D01*
X218626498Y-68986993D01*
X218575162Y-68980235D01*
X218575161Y-68980235D01*
X218306367Y-68980235D01*
X218306365Y-68980235D01*
X218203692Y-68993752D01*
X218039873Y-69015320D01*
X218039869Y-69015320D01*
X218039861Y-69015322D01*
X218039860Y-69015322D01*
X217780243Y-69084887D01*
X217780242Y-69084887D01*
X217531901Y-69187753D01*
X217299126Y-69322146D01*
X217219155Y-69383510D01*
X217085875Y-69485780D01*
X217085870Y-69485784D01*
X217085870Y-69485785D01*
X217085868Y-69485786D01*
X216047287Y-70524368D01*
X216047286Y-70524369D01*
X216047281Y-70524375D01*
X215946557Y-70655640D01*
X215883646Y-70737625D01*
X215764195Y-70944523D01*
X215757212Y-70949881D01*
X215748486Y-70948732D01*
X215743128Y-70941749D01*
X215742736Y-70938773D01*
X215742736Y-55513709D01*
X215746104Y-55505577D01*
X216023210Y-55228471D01*
X216304698Y-54946982D01*
X216312829Y-54943615D01*
X216318248Y-54944972D01*
X216342273Y-54957814D01*
X216530868Y-55015024D01*
X216727000Y-55034341D01*
X216923132Y-55015024D01*
X217111727Y-54957814D01*
X217285538Y-54864910D01*
X217437883Y-54739883D01*
X217562910Y-54587538D01*
X217655814Y-54413727D01*
X217713024Y-54225132D01*
X217732341Y-54029000D01*
X217713024Y-53832868D01*
X217655814Y-53644273D01*
X217562910Y-53470462D01*
X217437883Y-53318117D01*
X217305231Y-53209252D01*
X221822500Y-53209252D01*
X221822500Y-54848748D01*
X221834133Y-54907231D01*
X221834134Y-54907232D01*
X221878446Y-54973550D01*
X221878448Y-54973552D01*
X221944769Y-55017867D01*
X222003252Y-55029500D01*
X222003254Y-55029500D01*
X223642746Y-55029500D01*
X223642748Y-55029500D01*
X223701231Y-55017867D01*
X223767552Y-54973552D01*
X223811867Y-54907231D01*
X223823500Y-54848748D01*
X223823500Y-53209252D01*
X223811867Y-53150769D01*
X223767552Y-53084448D01*
X223767550Y-53084446D01*
X223705487Y-53042977D01*
X223701231Y-53040133D01*
X223701229Y-53040132D01*
X223701228Y-53040132D01*
X223671788Y-53034276D01*
X223642748Y-53028500D01*
X222003252Y-53028500D01*
X221979988Y-53033127D01*
X221944771Y-53040132D01*
X221944767Y-53040134D01*
X221878449Y-53084446D01*
X221878446Y-53084449D01*
X221834134Y-53150767D01*
X221834132Y-53150771D01*
X221825715Y-53193088D01*
X221822500Y-53209252D01*
X217305231Y-53209252D01*
X217285538Y-53193090D01*
X217285536Y-53193089D01*
X217285535Y-53193088D01*
X217111730Y-53100187D01*
X217111720Y-53100184D01*
X216923136Y-53042977D01*
X216923134Y-53042976D01*
X216923132Y-53042976D01*
X216727000Y-53023659D01*
X216530868Y-53042976D01*
X216530865Y-53042976D01*
X216530863Y-53042977D01*
X216342279Y-53100184D01*
X216342269Y-53100187D01*
X216168464Y-53193088D01*
X216016117Y-53318117D01*
X215891088Y-53470464D01*
X215798187Y-53644269D01*
X215798184Y-53644279D01*
X215740977Y-53832863D01*
X215740976Y-53832865D01*
X215740976Y-53832868D01*
X215721659Y-54029000D01*
X215740976Y-54225132D01*
X215740976Y-54225134D01*
X215740977Y-54225136D01*
X215798184Y-54413720D01*
X215798187Y-54413730D01*
X215811025Y-54437748D01*
X215811888Y-54446508D01*
X215809015Y-54451301D01*
X215111765Y-55148552D01*
X215092455Y-55182000D01*
X215065624Y-55228471D01*
X215065620Y-55228481D01*
X215041736Y-55317620D01*
X211092274Y-55317620D01*
X211095584Y-53209252D01*
X213186500Y-53209252D01*
X213186500Y-54848748D01*
X213198133Y-54907231D01*
X213198134Y-54907232D01*
X213242446Y-54973550D01*
X213242448Y-54973552D01*
X213308769Y-55017867D01*
X213367252Y-55029500D01*
X213367254Y-55029500D01*
X215006746Y-55029500D01*
X215006748Y-55029500D01*
X215065231Y-55017867D01*
X215131552Y-54973552D01*
X215175867Y-54907231D01*
X215187500Y-54848748D01*
X215187500Y-53209252D01*
X215175867Y-53150769D01*
X215131552Y-53084448D01*
X215131550Y-53084446D01*
X215069487Y-53042977D01*
X215065231Y-53040133D01*
X215065229Y-53040132D01*
X215065228Y-53040132D01*
X215035788Y-53034276D01*
X215006748Y-53028500D01*
X213367252Y-53028500D01*
X213343988Y-53033127D01*
X213308771Y-53040132D01*
X213308767Y-53040134D01*
X213242449Y-53084446D01*
X213242446Y-53084449D01*
X213198134Y-53150767D01*
X213198132Y-53150771D01*
X213189715Y-53193088D01*
X213186500Y-53209252D01*
X211095584Y-53209252D01*
X211106259Y-46409000D01*
X213181659Y-46409000D01*
X213200976Y-46605132D01*
X213200976Y-46605134D01*
X213200977Y-46605136D01*
X213258184Y-46793720D01*
X213258187Y-46793730D01*
X213351088Y-46967535D01*
X213351090Y-46967538D01*
X213476117Y-47119883D01*
X213628462Y-47244910D01*
X213802273Y-47337814D01*
X213990868Y-47395024D01*
X214187000Y-47414341D01*
X214383132Y-47395024D01*
X214571727Y-47337814D01*
X214745538Y-47244910D01*
X214897883Y-47119883D01*
X215022910Y-46967538D01*
X215115814Y-46793727D01*
X215173024Y-46605132D01*
X215192341Y-46409000D01*
X215173024Y-46212868D01*
X215115814Y-46024273D01*
X215102973Y-46000250D01*
X215022911Y-45850464D01*
X215022910Y-45850462D01*
X214897883Y-45698117D01*
X214745538Y-45573090D01*
X214745536Y-45573089D01*
X214745535Y-45573088D01*
X214571730Y-45480187D01*
X214571720Y-45480184D01*
X214383136Y-45422977D01*
X214383134Y-45422976D01*
X214383132Y-45422976D01*
X214187000Y-45403659D01*
X213990868Y-45422976D01*
X213990865Y-45422976D01*
X213990863Y-45422977D01*
X213802279Y-45480184D01*
X213802269Y-45480187D01*
X213628464Y-45573088D01*
X213476117Y-45698117D01*
X213351088Y-45850464D01*
X213258187Y-46024269D01*
X213258184Y-46024279D01*
X213200977Y-46212863D01*
X213200976Y-46212865D01*
X213200976Y-46212868D01*
X213181659Y-46409000D01*
X211106259Y-46409000D01*
X211115043Y-40813728D01*
X213181500Y-40813728D01*
X213181500Y-42372271D01*
X213184354Y-42402702D01*
X213229207Y-42530883D01*
X213229208Y-42530884D01*
X213268731Y-42584435D01*
X213309850Y-42640150D01*
X213369226Y-42683971D01*
X213419115Y-42720791D01*
X213419116Y-42720792D01*
X213419117Y-42720792D01*
X213419118Y-42720793D01*
X213440089Y-42728131D01*
X213547297Y-42765645D01*
X213547298Y-42765645D01*
X213547301Y-42765646D01*
X213577734Y-42768500D01*
X213870000Y-42768500D01*
X213878132Y-42771868D01*
X213881500Y-42780000D01*
X213881500Y-43960143D01*
X213898978Y-44025373D01*
X213905384Y-44049282D01*
X213905388Y-44049292D01*
X213951529Y-44129211D01*
X215809015Y-45986697D01*
X215812383Y-45994829D01*
X215811025Y-46000250D01*
X215798186Y-46024269D01*
X215740977Y-46212863D01*
X215740976Y-46212865D01*
X215740976Y-46212868D01*
X215721659Y-46409000D01*
X215740976Y-46605132D01*
X215740976Y-46605134D01*
X215740977Y-46605136D01*
X215798184Y-46793720D01*
X215798187Y-46793730D01*
X215891088Y-46967535D01*
X215891090Y-46967538D01*
X216016117Y-47119883D01*
X216168462Y-47244910D01*
X216342273Y-47337814D01*
X216530868Y-47395024D01*
X216727000Y-47414341D01*
X216923132Y-47395024D01*
X217111727Y-47337814D01*
X217285538Y-47244910D01*
X217437883Y-47119883D01*
X217562910Y-46967538D01*
X217655814Y-46793727D01*
X217713024Y-46605132D01*
X217732341Y-46409000D01*
X221817659Y-46409000D01*
X221836976Y-46605132D01*
X221836976Y-46605134D01*
X221836977Y-46605136D01*
X221894184Y-46793720D01*
X221894187Y-46793730D01*
X221987088Y-46967535D01*
X221987090Y-46967538D01*
X222112117Y-47119883D01*
X222264462Y-47244910D01*
X222438273Y-47337814D01*
X222626868Y-47395024D01*
X222823000Y-47414341D01*
X223019132Y-47395024D01*
X223207727Y-47337814D01*
X223381538Y-47244910D01*
X223533883Y-47119883D01*
X223658910Y-46967538D01*
X223751814Y-46793727D01*
X223809024Y-46605132D01*
X223828341Y-46409000D01*
X223809024Y-46212868D01*
X223751814Y-46024273D01*
X223738973Y-46000250D01*
X223658911Y-45850464D01*
X223658910Y-45850462D01*
X223533883Y-45698117D01*
X223381538Y-45573090D01*
X223381536Y-45573089D01*
X223381535Y-45573088D01*
X223207730Y-45480187D01*
X223207720Y-45480184D01*
X223019136Y-45422977D01*
X223019134Y-45422976D01*
X223019132Y-45422976D01*
X222823000Y-45403659D01*
X222626868Y-45422976D01*
X222626865Y-45422976D01*
X222626863Y-45422977D01*
X222438279Y-45480184D01*
X222438269Y-45480187D01*
X222264464Y-45573088D01*
X222112117Y-45698117D01*
X221987088Y-45850464D01*
X221894187Y-46024269D01*
X221894184Y-46024279D01*
X221836977Y-46212863D01*
X221836976Y-46212865D01*
X221836976Y-46212868D01*
X221817659Y-46409000D01*
X217732341Y-46409000D01*
X217713024Y-46212868D01*
X217655814Y-46024273D01*
X217642973Y-46000250D01*
X217562911Y-45850464D01*
X217562910Y-45850462D01*
X217437883Y-45698117D01*
X217285538Y-45573090D01*
X217285536Y-45573089D01*
X217285535Y-45573088D01*
X217111730Y-45480187D01*
X217111720Y-45480184D01*
X216923136Y-45422977D01*
X216923134Y-45422976D01*
X216923132Y-45422976D01*
X216727000Y-45403659D01*
X216530868Y-45422976D01*
X216530865Y-45422976D01*
X216530863Y-45422977D01*
X216342269Y-45480186D01*
X216318250Y-45493025D01*
X216309490Y-45493888D01*
X216304697Y-45491015D01*
X214585868Y-43772186D01*
X214582500Y-43764054D01*
X214582500Y-42780000D01*
X214585868Y-42771868D01*
X214594000Y-42768500D01*
X214886258Y-42768500D01*
X214886266Y-42768500D01*
X214916699Y-42765646D01*
X215044882Y-42720793D01*
X215154150Y-42640150D01*
X215234793Y-42530882D01*
X215279646Y-42402699D01*
X215282500Y-42372266D01*
X215282500Y-41364535D01*
X215681500Y-41364535D01*
X215681500Y-41821464D01*
X215721868Y-42024414D01*
X215721869Y-42024419D01*
X215753117Y-42099857D01*
X215798171Y-42208627D01*
X215801060Y-42215600D01*
X215910617Y-42379565D01*
X215916023Y-42387655D01*
X216062345Y-42533977D01*
X216234402Y-42648941D01*
X216425580Y-42728130D01*
X216628535Y-42768500D01*
X216628536Y-42768500D01*
X216835464Y-42768500D01*
X216835465Y-42768500D01*
X217038420Y-42728130D01*
X217229598Y-42648941D01*
X217401655Y-42533977D01*
X217547977Y-42387655D01*
X217662941Y-42215598D01*
X217742130Y-42024420D01*
X217782500Y-41821465D01*
X217782500Y-41364535D01*
X217742130Y-41161580D01*
X217662941Y-40970402D01*
X217558256Y-40813728D01*
X221690500Y-40813728D01*
X221690500Y-42372271D01*
X221693354Y-42402702D01*
X221738207Y-42530883D01*
X221738208Y-42530884D01*
X221777731Y-42584435D01*
X221818850Y-42640150D01*
X221878226Y-42683971D01*
X221928115Y-42720791D01*
X221928116Y-42720792D01*
X221928117Y-42720792D01*
X221928118Y-42720793D01*
X221949089Y-42728131D01*
X222056297Y-42765645D01*
X222056298Y-42765645D01*
X222056301Y-42765646D01*
X222086734Y-42768500D01*
X222379000Y-42768500D01*
X222387132Y-42771868D01*
X222390500Y-42780000D01*
X222390500Y-43833143D01*
X222406929Y-43894457D01*
X222414384Y-43922282D01*
X222414388Y-43922292D01*
X222460529Y-44002211D01*
X224445015Y-45986697D01*
X224448383Y-45994829D01*
X224447025Y-46000250D01*
X224434186Y-46024269D01*
X224376977Y-46212863D01*
X224376976Y-46212865D01*
X224376976Y-46212868D01*
X224357659Y-46409000D01*
X224376976Y-46605132D01*
X224376976Y-46605134D01*
X224376977Y-46605136D01*
X224434184Y-46793720D01*
X224434187Y-46793730D01*
X224527088Y-46967535D01*
X224527090Y-46967538D01*
X224652117Y-47119883D01*
X224804462Y-47244910D01*
X224978273Y-47337814D01*
X225166868Y-47395024D01*
X225363000Y-47414341D01*
X225559132Y-47395024D01*
X225747727Y-47337814D01*
X225921538Y-47244910D01*
X226073883Y-47119883D01*
X226198910Y-46967538D01*
X226291814Y-46793727D01*
X226349024Y-46605132D01*
X226368341Y-46409000D01*
X226349024Y-46212868D01*
X226291814Y-46024273D01*
X226278973Y-46000250D01*
X226198911Y-45850464D01*
X226198910Y-45850462D01*
X226073883Y-45698117D01*
X225921538Y-45573090D01*
X225921536Y-45573089D01*
X225921535Y-45573088D01*
X225747730Y-45480187D01*
X225747720Y-45480184D01*
X225559136Y-45422977D01*
X225559134Y-45422976D01*
X225559132Y-45422976D01*
X225363000Y-45403659D01*
X225166868Y-45422976D01*
X225166865Y-45422976D01*
X225166863Y-45422977D01*
X224978269Y-45480186D01*
X224954250Y-45493025D01*
X224945490Y-45493888D01*
X224940697Y-45491015D01*
X223094868Y-43645186D01*
X223091500Y-43637054D01*
X223091500Y-42780000D01*
X223094868Y-42771868D01*
X223103000Y-42768500D01*
X223395258Y-42768500D01*
X223395266Y-42768500D01*
X223425699Y-42765646D01*
X223553882Y-42720793D01*
X223663150Y-42640150D01*
X223743793Y-42530882D01*
X223788646Y-42402699D01*
X223791500Y-42372266D01*
X223791500Y-41364535D01*
X224190500Y-41364535D01*
X224190500Y-41821464D01*
X224230868Y-42024414D01*
X224230869Y-42024419D01*
X224262117Y-42099857D01*
X224307171Y-42208627D01*
X224310060Y-42215600D01*
X224419617Y-42379565D01*
X224425023Y-42387655D01*
X224571345Y-42533977D01*
X224743402Y-42648941D01*
X224934580Y-42728130D01*
X225137535Y-42768500D01*
X225137536Y-42768500D01*
X225344464Y-42768500D01*
X225344465Y-42768500D01*
X225547420Y-42728130D01*
X225738598Y-42648941D01*
X225910655Y-42533977D01*
X226056977Y-42387655D01*
X226171941Y-42215598D01*
X226251130Y-42024420D01*
X226291500Y-41821465D01*
X226291500Y-41656000D01*
X228614415Y-41656000D01*
X228634738Y-42004930D01*
X228695430Y-42349133D01*
X228695432Y-42349140D01*
X228795674Y-42683974D01*
X228934107Y-43004898D01*
X228934114Y-43004911D01*
X229108869Y-43307596D01*
X229317574Y-43587937D01*
X229317580Y-43587943D01*
X229317582Y-43587945D01*
X229317588Y-43587953D01*
X229557442Y-43842183D01*
X229557448Y-43842188D01*
X229557451Y-43842191D01*
X229825174Y-44066838D01*
X229825184Y-44066845D01*
X229825189Y-44066849D01*
X229920007Y-44129212D01*
X230117204Y-44258912D01*
X230275454Y-44338387D01*
X230429549Y-44415777D01*
X230429554Y-44415779D01*
X230429563Y-44415783D01*
X230757986Y-44535318D01*
X230757984Y-44535318D01*
X230820907Y-44550230D01*
X231098086Y-44615923D01*
X231358452Y-44646355D01*
X231445239Y-44656500D01*
X231445241Y-44656500D01*
X231794761Y-44656500D01*
X231871904Y-44647482D01*
X232141914Y-44615923D01*
X232482011Y-44535319D01*
X232519979Y-44521500D01*
X232810436Y-44415783D01*
X232810441Y-44415780D01*
X232810451Y-44415777D01*
X233122793Y-44258913D01*
X233132544Y-44252500D01*
X233194192Y-44211953D01*
X233414811Y-44066849D01*
X233414820Y-44066841D01*
X233414825Y-44066838D01*
X233620260Y-43894457D01*
X233682558Y-43842183D01*
X233922412Y-43587953D01*
X233922420Y-43587941D01*
X233922425Y-43587937D01*
X234131130Y-43307596D01*
X234305885Y-43004911D01*
X234305892Y-43004898D01*
X234402903Y-42780000D01*
X234444326Y-42683971D01*
X234544569Y-42349136D01*
X234605262Y-42004927D01*
X234625585Y-41656000D01*
X234605262Y-41307073D01*
X234544569Y-40962864D01*
X234451509Y-40652023D01*
X234444325Y-40628025D01*
X234305892Y-40307101D01*
X234305885Y-40307088D01*
X234131130Y-40004403D01*
X233922425Y-39724062D01*
X233922419Y-39724056D01*
X233922417Y-39724054D01*
X233922412Y-39724047D01*
X233682558Y-39469817D01*
X233682551Y-39469811D01*
X233682548Y-39469808D01*
X233414825Y-39245161D01*
X233414813Y-39245153D01*
X233414811Y-39245151D01*
X233304351Y-39172500D01*
X233122795Y-39053087D01*
X232810453Y-38896224D01*
X232810436Y-38896216D01*
X232482013Y-38776681D01*
X232482015Y-38776681D01*
X232141918Y-38696078D01*
X232141914Y-38696077D01*
X232141909Y-38696076D01*
X232141907Y-38696076D01*
X231794761Y-38655500D01*
X231794759Y-38655500D01*
X231445241Y-38655500D01*
X231445239Y-38655500D01*
X231098092Y-38696076D01*
X231098087Y-38696076D01*
X231098086Y-38696077D01*
X231098084Y-38696077D01*
X231098081Y-38696078D01*
X230757985Y-38776681D01*
X230429563Y-38896216D01*
X230429546Y-38896224D01*
X230117204Y-39053087D01*
X229825193Y-39245148D01*
X229825174Y-39245161D01*
X229557451Y-39469808D01*
X229557438Y-39469821D01*
X229317580Y-39724056D01*
X229317574Y-39724062D01*
X229108869Y-40004403D01*
X228934114Y-40307088D01*
X228934107Y-40307101D01*
X228795675Y-40628025D01*
X228795674Y-40628025D01*
X228695432Y-40962859D01*
X228695430Y-40962866D01*
X228634738Y-41307069D01*
X228614415Y-41656000D01*
X226291500Y-41656000D01*
X226291500Y-41364535D01*
X226251130Y-41161580D01*
X226171941Y-40970402D01*
X226056977Y-40798345D01*
X225910655Y-40652023D01*
X225910651Y-40652020D01*
X225738600Y-40537060D01*
X225547419Y-40457869D01*
X225547414Y-40457868D01*
X225384614Y-40425486D01*
X225344465Y-40417500D01*
X225137535Y-40417500D01*
X225123187Y-40420354D01*
X224934585Y-40457868D01*
X224934580Y-40457869D01*
X224743399Y-40537060D01*
X224571348Y-40652020D01*
X224425020Y-40798348D01*
X224310060Y-40970399D01*
X224230869Y-41161580D01*
X224230868Y-41161585D01*
X224190500Y-41364535D01*
X223791500Y-41364535D01*
X223791500Y-40813734D01*
X223788646Y-40783301D01*
X223743793Y-40655118D01*
X223663150Y-40545850D01*
X223608516Y-40505528D01*
X223553884Y-40465208D01*
X223553883Y-40465207D01*
X223425702Y-40420354D01*
X223395271Y-40417500D01*
X223395266Y-40417500D01*
X222086734Y-40417500D01*
X222086728Y-40417500D01*
X222056297Y-40420354D01*
X221928116Y-40465207D01*
X221928115Y-40465208D01*
X221818851Y-40545849D01*
X221818849Y-40545851D01*
X221738208Y-40655115D01*
X221738207Y-40655116D01*
X221693354Y-40783297D01*
X221690500Y-40813728D01*
X217558256Y-40813728D01*
X217547977Y-40798345D01*
X217401655Y-40652023D01*
X217401651Y-40652020D01*
X217229600Y-40537060D01*
X217038419Y-40457869D01*
X217038414Y-40457868D01*
X216875614Y-40425486D01*
X216835465Y-40417500D01*
X216628535Y-40417500D01*
X216614187Y-40420354D01*
X216425585Y-40457868D01*
X216425580Y-40457869D01*
X216234399Y-40537060D01*
X216062348Y-40652020D01*
X215916020Y-40798348D01*
X215801060Y-40970399D01*
X215721869Y-41161580D01*
X215721868Y-41161585D01*
X215681500Y-41364535D01*
X215282500Y-41364535D01*
X215282500Y-40813734D01*
X215279646Y-40783301D01*
X215234793Y-40655118D01*
X215154150Y-40545850D01*
X215099516Y-40505528D01*
X215044884Y-40465208D01*
X215044883Y-40465207D01*
X214916702Y-40420354D01*
X214886271Y-40417500D01*
X214886266Y-40417500D01*
X213577734Y-40417500D01*
X213577728Y-40417500D01*
X213547297Y-40420354D01*
X213419116Y-40465207D01*
X213419115Y-40465208D01*
X213309851Y-40545849D01*
X213309849Y-40545851D01*
X213229208Y-40655115D01*
X213229207Y-40655116D01*
X213184354Y-40783297D01*
X213181500Y-40813728D01*
X211115043Y-40813728D01*
X211119824Y-37767981D01*
X211123205Y-37759856D01*
X211131324Y-37756500D01*
X235172000Y-37756500D01*
X235180132Y-37759868D01*
G37*
%TD.AperFunction*%
%TD*%
M02*
