%TF.GenerationSoftware,KiCad,Pcbnew,8.0.9-8.0.9-0~ubuntu22.04.1*%
%TF.CreationDate,2025-11-06T16:29:17+09:00*%
%TF.ProjectId,TweliteEmergencyStop,5477656c-6974-4654-956d-657267656e63,rev?*%
%TF.SameCoordinates,Original*%
%TF.FileFunction,Legend,Top*%
%TF.FilePolarity,Positive*%
%FSLAX46Y46*%
G04 Gerber Fmt 4.6, Leading zero omitted, Abs format (unit mm)*
G04 Created by KiCad (PCBNEW 8.0.9-8.0.9-0~ubuntu22.04.1) date 2025-11-06 16:29:17*
%MOMM*%
%LPD*%
G01*
G04 APERTURE LIST*
G04 Aperture macros list*
%AMRoundRect*
0 Rectangle with rounded corners*
0 $1 Rounding radius*
0 $2 $3 $4 $5 $6 $7 $8 $9 X,Y pos of 4 corners*
0 Add a 4 corners polygon primitive as box body*
4,1,4,$2,$3,$4,$5,$6,$7,$8,$9,$2,$3,0*
0 Add four circle primitives for the rounded corners*
1,1,$1+$1,$2,$3*
1,1,$1+$1,$4,$5*
1,1,$1+$1,$6,$7*
1,1,$1+$1,$8,$9*
0 Add four rect primitives between the rounded corners*
20,1,$1+$1,$2,$3,$4,$5,0*
20,1,$1+$1,$4,$5,$6,$7,0*
20,1,$1+$1,$6,$7,$8,$9,0*
20,1,$1+$1,$8,$9,$2,$3,0*%
%AMHorizOval*
0 Thick line with rounded ends*
0 $1 width*
0 $2 $3 position (X,Y) of the first rounded end (center of the circle)*
0 $4 $5 position (X,Y) of the second rounded end (center of the circle)*
0 Add line between two ends*
20,1,$1,$2,$3,$4,$5,0*
0 Add two circle primitives to create the rounded ends*
1,1,$1,$2,$3*
1,1,$1,$4,$5*%
G04 Aperture macros list end*
%ADD10C,0.125000*%
%ADD11C,0.150000*%
%ADD12C,0.100000*%
%ADD13C,0.120000*%
%ADD14C,0.254000*%
%ADD15C,0.300000*%
%ADD16C,0.059995*%
%ADD17RoundRect,0.250000X-0.600000X-0.725000X0.600000X-0.725000X0.600000X0.725000X-0.600000X0.725000X0*%
%ADD18O,1.700000X1.950000*%
%ADD19R,1.700000X1.700000*%
%ADD20O,1.700000X1.700000*%
%ADD21R,1.000000X0.600000*%
%ADD22RoundRect,0.250000X0.725000X-0.600000X0.725000X0.600000X-0.725000X0.600000X-0.725000X-0.600000X0*%
%ADD23O,1.950000X1.700000*%
%ADD24RoundRect,0.237500X-0.250000X-0.237500X0.250000X-0.237500X0.250000X0.237500X-0.250000X0.237500X0*%
%ADD25C,2.000000*%
%ADD26R,1.600000X1.600000*%
%ADD27O,1.600000X1.600000*%
%ADD28RoundRect,0.250000X0.600000X0.725000X-0.600000X0.725000X-0.600000X-0.725000X0.600000X-0.725000X0*%
%ADD29R,0.600000X1.000000*%
%ADD30RoundRect,0.237500X-0.237500X0.250000X-0.237500X-0.250000X0.237500X-0.250000X0.237500X0.250000X0*%
%ADD31C,1.700000*%
%ADD32C,5.600000*%
%ADD33R,1.800000X1.800000*%
%ADD34C,1.800000*%
%ADD35RoundRect,0.237500X0.250000X0.237500X-0.250000X0.237500X-0.250000X-0.237500X0.250000X-0.237500X0*%
%ADD36RoundRect,0.250000X-0.725000X0.600000X-0.725000X-0.600000X0.725000X-0.600000X0.725000X0.600000X0*%
%ADD37RoundRect,0.237500X0.300000X0.237500X-0.300000X0.237500X-0.300000X-0.237500X0.300000X-0.237500X0*%
%ADD38HorizOval,3.100000X0.424264X0.424264X-0.424264X-0.424264X0*%
%ADD39O,0.900000X1.400000*%
%ADD40O,1.400000X0.900000*%
%ADD41O,1.200000X0.900000*%
G04 APERTURE END LIST*
D10*
X230409378Y-66527119D02*
X230159378Y-66050928D01*
X229980807Y-66527119D02*
X229980807Y-65527119D01*
X229980807Y-65527119D02*
X230266521Y-65527119D01*
X230266521Y-65527119D02*
X230337950Y-65574738D01*
X230337950Y-65574738D02*
X230373664Y-65622357D01*
X230373664Y-65622357D02*
X230409378Y-65717595D01*
X230409378Y-65717595D02*
X230409378Y-65860452D01*
X230409378Y-65860452D02*
X230373664Y-65955690D01*
X230373664Y-65955690D02*
X230337950Y-66003309D01*
X230337950Y-66003309D02*
X230266521Y-66050928D01*
X230266521Y-66050928D02*
X229980807Y-66050928D01*
X230659378Y-65527119D02*
X231159378Y-66527119D01*
X231159378Y-65527119D02*
X230659378Y-66527119D01*
X229680807Y-69027119D02*
X229680807Y-68027119D01*
X229680807Y-68027119D02*
X229966521Y-68027119D01*
X229966521Y-68027119D02*
X230037950Y-68074738D01*
X230037950Y-68074738D02*
X230073664Y-68122357D01*
X230073664Y-68122357D02*
X230109378Y-68217595D01*
X230109378Y-68217595D02*
X230109378Y-68360452D01*
X230109378Y-68360452D02*
X230073664Y-68455690D01*
X230073664Y-68455690D02*
X230037950Y-68503309D01*
X230037950Y-68503309D02*
X229966521Y-68550928D01*
X229966521Y-68550928D02*
X229680807Y-68550928D01*
X230859378Y-69027119D02*
X230609378Y-68550928D01*
X230430807Y-69027119D02*
X230430807Y-68027119D01*
X230430807Y-68027119D02*
X230716521Y-68027119D01*
X230716521Y-68027119D02*
X230787950Y-68074738D01*
X230787950Y-68074738D02*
X230823664Y-68122357D01*
X230823664Y-68122357D02*
X230859378Y-68217595D01*
X230859378Y-68217595D02*
X230859378Y-68360452D01*
X230859378Y-68360452D02*
X230823664Y-68455690D01*
X230823664Y-68455690D02*
X230787950Y-68503309D01*
X230787950Y-68503309D02*
X230716521Y-68550928D01*
X230716521Y-68550928D02*
X230430807Y-68550928D01*
X231573664Y-68074738D02*
X231502236Y-68027119D01*
X231502236Y-68027119D02*
X231395093Y-68027119D01*
X231395093Y-68027119D02*
X231287950Y-68074738D01*
X231287950Y-68074738D02*
X231216521Y-68169976D01*
X231216521Y-68169976D02*
X231180807Y-68265214D01*
X231180807Y-68265214D02*
X231145093Y-68455690D01*
X231145093Y-68455690D02*
X231145093Y-68598547D01*
X231145093Y-68598547D02*
X231180807Y-68789023D01*
X231180807Y-68789023D02*
X231216521Y-68884261D01*
X231216521Y-68884261D02*
X231287950Y-68979500D01*
X231287950Y-68979500D02*
X231395093Y-69027119D01*
X231395093Y-69027119D02*
X231466521Y-69027119D01*
X231466521Y-69027119D02*
X231573664Y-68979500D01*
X231573664Y-68979500D02*
X231609378Y-68931880D01*
X231609378Y-68931880D02*
X231609378Y-68598547D01*
X231609378Y-68598547D02*
X231466521Y-68598547D01*
X218881500Y-79077383D02*
X218929119Y-78963097D01*
X218929119Y-78963097D02*
X218929119Y-78772621D01*
X218929119Y-78772621D02*
X218881500Y-78696430D01*
X218881500Y-78696430D02*
X218833880Y-78658335D01*
X218833880Y-78658335D02*
X218738642Y-78620240D01*
X218738642Y-78620240D02*
X218643404Y-78620240D01*
X218643404Y-78620240D02*
X218548166Y-78658335D01*
X218548166Y-78658335D02*
X218500547Y-78696430D01*
X218500547Y-78696430D02*
X218452928Y-78772621D01*
X218452928Y-78772621D02*
X218405309Y-78925002D01*
X218405309Y-78925002D02*
X218357690Y-79001192D01*
X218357690Y-79001192D02*
X218310071Y-79039287D01*
X218310071Y-79039287D02*
X218214833Y-79077383D01*
X218214833Y-79077383D02*
X218119595Y-79077383D01*
X218119595Y-79077383D02*
X218024357Y-79039287D01*
X218024357Y-79039287D02*
X217976738Y-79001192D01*
X217976738Y-79001192D02*
X217929119Y-78925002D01*
X217929119Y-78925002D02*
X217929119Y-78734525D01*
X217929119Y-78734525D02*
X217976738Y-78620240D01*
X217929119Y-78353573D02*
X218929119Y-78163097D01*
X218929119Y-78163097D02*
X218214833Y-78010716D01*
X218214833Y-78010716D02*
X218929119Y-77858335D01*
X218929119Y-77858335D02*
X217929119Y-77667859D01*
X164212712Y-95947119D02*
X164212712Y-94947119D01*
X164212712Y-94947119D02*
X164517474Y-94947119D01*
X164517474Y-94947119D02*
X164593664Y-94994738D01*
X164593664Y-94994738D02*
X164631759Y-95042357D01*
X164631759Y-95042357D02*
X164669855Y-95137595D01*
X164669855Y-95137595D02*
X164669855Y-95280452D01*
X164669855Y-95280452D02*
X164631759Y-95375690D01*
X164631759Y-95375690D02*
X164593664Y-95423309D01*
X164593664Y-95423309D02*
X164517474Y-95470928D01*
X164517474Y-95470928D02*
X164212712Y-95470928D01*
X165126997Y-95947119D02*
X165050807Y-95899500D01*
X165050807Y-95899500D02*
X165012712Y-95851880D01*
X165012712Y-95851880D02*
X164974616Y-95756642D01*
X164974616Y-95756642D02*
X164974616Y-95470928D01*
X164974616Y-95470928D02*
X165012712Y-95375690D01*
X165012712Y-95375690D02*
X165050807Y-95328071D01*
X165050807Y-95328071D02*
X165126997Y-95280452D01*
X165126997Y-95280452D02*
X165241283Y-95280452D01*
X165241283Y-95280452D02*
X165317474Y-95328071D01*
X165317474Y-95328071D02*
X165355569Y-95375690D01*
X165355569Y-95375690D02*
X165393664Y-95470928D01*
X165393664Y-95470928D02*
X165393664Y-95756642D01*
X165393664Y-95756642D02*
X165355569Y-95851880D01*
X165355569Y-95851880D02*
X165317474Y-95899500D01*
X165317474Y-95899500D02*
X165241283Y-95947119D01*
X165241283Y-95947119D02*
X165126997Y-95947119D01*
X165660331Y-95280452D02*
X165812712Y-95947119D01*
X165812712Y-95947119D02*
X165965093Y-95470928D01*
X165965093Y-95470928D02*
X166117474Y-95947119D01*
X166117474Y-95947119D02*
X166269855Y-95280452D01*
X166879379Y-95899500D02*
X166803188Y-95947119D01*
X166803188Y-95947119D02*
X166650807Y-95947119D01*
X166650807Y-95947119D02*
X166574617Y-95899500D01*
X166574617Y-95899500D02*
X166536521Y-95804261D01*
X166536521Y-95804261D02*
X166536521Y-95423309D01*
X166536521Y-95423309D02*
X166574617Y-95328071D01*
X166574617Y-95328071D02*
X166650807Y-95280452D01*
X166650807Y-95280452D02*
X166803188Y-95280452D01*
X166803188Y-95280452D02*
X166879379Y-95328071D01*
X166879379Y-95328071D02*
X166917474Y-95423309D01*
X166917474Y-95423309D02*
X166917474Y-95518547D01*
X166917474Y-95518547D02*
X166536521Y-95613785D01*
X167260331Y-95947119D02*
X167260331Y-95280452D01*
X167260331Y-95470928D02*
X167298426Y-95375690D01*
X167298426Y-95375690D02*
X167336521Y-95328071D01*
X167336521Y-95328071D02*
X167412712Y-95280452D01*
X167412712Y-95280452D02*
X167488902Y-95280452D01*
X161126616Y-95899500D02*
X161240902Y-95947119D01*
X161240902Y-95947119D02*
X161431378Y-95947119D01*
X161431378Y-95947119D02*
X161507569Y-95899500D01*
X161507569Y-95899500D02*
X161545664Y-95851880D01*
X161545664Y-95851880D02*
X161583759Y-95756642D01*
X161583759Y-95756642D02*
X161583759Y-95661404D01*
X161583759Y-95661404D02*
X161545664Y-95566166D01*
X161545664Y-95566166D02*
X161507569Y-95518547D01*
X161507569Y-95518547D02*
X161431378Y-95470928D01*
X161431378Y-95470928D02*
X161278997Y-95423309D01*
X161278997Y-95423309D02*
X161202807Y-95375690D01*
X161202807Y-95375690D02*
X161164712Y-95328071D01*
X161164712Y-95328071D02*
X161126616Y-95232833D01*
X161126616Y-95232833D02*
X161126616Y-95137595D01*
X161126616Y-95137595D02*
X161164712Y-95042357D01*
X161164712Y-95042357D02*
X161202807Y-94994738D01*
X161202807Y-94994738D02*
X161278997Y-94947119D01*
X161278997Y-94947119D02*
X161469474Y-94947119D01*
X161469474Y-94947119D02*
X161583759Y-94994738D01*
X161850426Y-94947119D02*
X162040902Y-95947119D01*
X162040902Y-95947119D02*
X162193283Y-95232833D01*
X162193283Y-95232833D02*
X162345664Y-95947119D01*
X162345664Y-95947119D02*
X162536141Y-94947119D01*
X230209378Y-64027119D02*
X229959378Y-63550928D01*
X229780807Y-64027119D02*
X229780807Y-63027119D01*
X229780807Y-63027119D02*
X230066521Y-63027119D01*
X230066521Y-63027119D02*
X230137950Y-63074738D01*
X230137950Y-63074738D02*
X230173664Y-63122357D01*
X230173664Y-63122357D02*
X230209378Y-63217595D01*
X230209378Y-63217595D02*
X230209378Y-63360452D01*
X230209378Y-63360452D02*
X230173664Y-63455690D01*
X230173664Y-63455690D02*
X230137950Y-63503309D01*
X230137950Y-63503309D02*
X230066521Y-63550928D01*
X230066521Y-63550928D02*
X229780807Y-63550928D01*
X230495093Y-63979500D02*
X230602236Y-64027119D01*
X230602236Y-64027119D02*
X230780807Y-64027119D01*
X230780807Y-64027119D02*
X230852236Y-63979500D01*
X230852236Y-63979500D02*
X230887950Y-63931880D01*
X230887950Y-63931880D02*
X230923664Y-63836642D01*
X230923664Y-63836642D02*
X230923664Y-63741404D01*
X230923664Y-63741404D02*
X230887950Y-63646166D01*
X230887950Y-63646166D02*
X230852236Y-63598547D01*
X230852236Y-63598547D02*
X230780807Y-63550928D01*
X230780807Y-63550928D02*
X230637950Y-63503309D01*
X230637950Y-63503309D02*
X230566521Y-63455690D01*
X230566521Y-63455690D02*
X230530807Y-63408071D01*
X230530807Y-63408071D02*
X230495093Y-63312833D01*
X230495093Y-63312833D02*
X230495093Y-63217595D01*
X230495093Y-63217595D02*
X230530807Y-63122357D01*
X230530807Y-63122357D02*
X230566521Y-63074738D01*
X230566521Y-63074738D02*
X230637950Y-63027119D01*
X230637950Y-63027119D02*
X230816521Y-63027119D01*
X230816521Y-63027119D02*
X230923664Y-63074738D01*
X231137950Y-63027119D02*
X231566522Y-63027119D01*
X231352236Y-64027119D02*
X231352236Y-63027119D01*
X230073664Y-70827119D02*
X230502236Y-70827119D01*
X230287950Y-71827119D02*
X230287950Y-70827119D01*
X230680807Y-70827119D02*
X231180807Y-71827119D01*
X231180807Y-70827119D02*
X230680807Y-71827119D01*
X219691119Y-86405287D02*
X218691119Y-86405287D01*
X218691119Y-86405287D02*
X218691119Y-86100525D01*
X218691119Y-86100525D02*
X218738738Y-86024335D01*
X218738738Y-86024335D02*
X218786357Y-85986240D01*
X218786357Y-85986240D02*
X218881595Y-85948144D01*
X218881595Y-85948144D02*
X219024452Y-85948144D01*
X219024452Y-85948144D02*
X219119690Y-85986240D01*
X219119690Y-85986240D02*
X219167309Y-86024335D01*
X219167309Y-86024335D02*
X219214928Y-86100525D01*
X219214928Y-86100525D02*
X219214928Y-86405287D01*
X219691119Y-85491002D02*
X219643500Y-85567192D01*
X219643500Y-85567192D02*
X219595880Y-85605287D01*
X219595880Y-85605287D02*
X219500642Y-85643383D01*
X219500642Y-85643383D02*
X219214928Y-85643383D01*
X219214928Y-85643383D02*
X219119690Y-85605287D01*
X219119690Y-85605287D02*
X219072071Y-85567192D01*
X219072071Y-85567192D02*
X219024452Y-85491002D01*
X219024452Y-85491002D02*
X219024452Y-85376716D01*
X219024452Y-85376716D02*
X219072071Y-85300525D01*
X219072071Y-85300525D02*
X219119690Y-85262430D01*
X219119690Y-85262430D02*
X219214928Y-85224335D01*
X219214928Y-85224335D02*
X219500642Y-85224335D01*
X219500642Y-85224335D02*
X219595880Y-85262430D01*
X219595880Y-85262430D02*
X219643500Y-85300525D01*
X219643500Y-85300525D02*
X219691119Y-85376716D01*
X219691119Y-85376716D02*
X219691119Y-85491002D01*
X219024452Y-84957668D02*
X219691119Y-84805287D01*
X219691119Y-84805287D02*
X219214928Y-84652906D01*
X219214928Y-84652906D02*
X219691119Y-84500525D01*
X219691119Y-84500525D02*
X219024452Y-84348144D01*
X219643500Y-83738620D02*
X219691119Y-83814811D01*
X219691119Y-83814811D02*
X219691119Y-83967192D01*
X219691119Y-83967192D02*
X219643500Y-84043382D01*
X219643500Y-84043382D02*
X219548261Y-84081478D01*
X219548261Y-84081478D02*
X219167309Y-84081478D01*
X219167309Y-84081478D02*
X219072071Y-84043382D01*
X219072071Y-84043382D02*
X219024452Y-83967192D01*
X219024452Y-83967192D02*
X219024452Y-83814811D01*
X219024452Y-83814811D02*
X219072071Y-83738620D01*
X219072071Y-83738620D02*
X219167309Y-83700525D01*
X219167309Y-83700525D02*
X219262547Y-83700525D01*
X219262547Y-83700525D02*
X219357785Y-84081478D01*
X219691119Y-83357668D02*
X219024452Y-83357668D01*
X219214928Y-83357668D02*
X219119690Y-83319573D01*
X219119690Y-83319573D02*
X219072071Y-83281478D01*
X219072071Y-83281478D02*
X219024452Y-83205287D01*
X219024452Y-83205287D02*
X219024452Y-83129097D01*
X230173664Y-73174738D02*
X230102236Y-73127119D01*
X230102236Y-73127119D02*
X229995093Y-73127119D01*
X229995093Y-73127119D02*
X229887950Y-73174738D01*
X229887950Y-73174738D02*
X229816521Y-73269976D01*
X229816521Y-73269976D02*
X229780807Y-73365214D01*
X229780807Y-73365214D02*
X229745093Y-73555690D01*
X229745093Y-73555690D02*
X229745093Y-73698547D01*
X229745093Y-73698547D02*
X229780807Y-73889023D01*
X229780807Y-73889023D02*
X229816521Y-73984261D01*
X229816521Y-73984261D02*
X229887950Y-74079500D01*
X229887950Y-74079500D02*
X229995093Y-74127119D01*
X229995093Y-74127119D02*
X230066521Y-74127119D01*
X230066521Y-74127119D02*
X230173664Y-74079500D01*
X230173664Y-74079500D02*
X230209378Y-74031880D01*
X230209378Y-74031880D02*
X230209378Y-73698547D01*
X230209378Y-73698547D02*
X230066521Y-73698547D01*
X230530807Y-74127119D02*
X230530807Y-73127119D01*
X230530807Y-73127119D02*
X230959378Y-74127119D01*
X230959378Y-74127119D02*
X230959378Y-73127119D01*
X231316521Y-74127119D02*
X231316521Y-73127119D01*
X231316521Y-73127119D02*
X231495092Y-73127119D01*
X231495092Y-73127119D02*
X231602235Y-73174738D01*
X231602235Y-73174738D02*
X231673664Y-73269976D01*
X231673664Y-73269976D02*
X231709378Y-73365214D01*
X231709378Y-73365214D02*
X231745092Y-73555690D01*
X231745092Y-73555690D02*
X231745092Y-73698547D01*
X231745092Y-73698547D02*
X231709378Y-73889023D01*
X231709378Y-73889023D02*
X231673664Y-73984261D01*
X231673664Y-73984261D02*
X231602235Y-74079500D01*
X231602235Y-74079500D02*
X231495092Y-74127119D01*
X231495092Y-74127119D02*
X231316521Y-74127119D01*
D11*
X166232819Y-93107333D02*
X166947104Y-93107333D01*
X166947104Y-93107333D02*
X167089961Y-93154952D01*
X167089961Y-93154952D02*
X167185200Y-93250190D01*
X167185200Y-93250190D02*
X167232819Y-93393047D01*
X167232819Y-93393047D02*
X167232819Y-93488285D01*
X166328057Y-92678761D02*
X166280438Y-92631142D01*
X166280438Y-92631142D02*
X166232819Y-92535904D01*
X166232819Y-92535904D02*
X166232819Y-92297809D01*
X166232819Y-92297809D02*
X166280438Y-92202571D01*
X166280438Y-92202571D02*
X166328057Y-92154952D01*
X166328057Y-92154952D02*
X166423295Y-92107333D01*
X166423295Y-92107333D02*
X166518533Y-92107333D01*
X166518533Y-92107333D02*
X166661390Y-92154952D01*
X166661390Y-92154952D02*
X167232819Y-92726380D01*
X167232819Y-92726380D02*
X167232819Y-92107333D01*
X224900095Y-77242819D02*
X224900095Y-78052342D01*
X224900095Y-78052342D02*
X224947714Y-78147580D01*
X224947714Y-78147580D02*
X224995333Y-78195200D01*
X224995333Y-78195200D02*
X225090571Y-78242819D01*
X225090571Y-78242819D02*
X225281047Y-78242819D01*
X225281047Y-78242819D02*
X225376285Y-78195200D01*
X225376285Y-78195200D02*
X225423904Y-78147580D01*
X225423904Y-78147580D02*
X225471523Y-78052342D01*
X225471523Y-78052342D02*
X225471523Y-77242819D01*
X226090571Y-77671390D02*
X225995333Y-77623771D01*
X225995333Y-77623771D02*
X225947714Y-77576152D01*
X225947714Y-77576152D02*
X225900095Y-77480914D01*
X225900095Y-77480914D02*
X225900095Y-77433295D01*
X225900095Y-77433295D02*
X225947714Y-77338057D01*
X225947714Y-77338057D02*
X225995333Y-77290438D01*
X225995333Y-77290438D02*
X226090571Y-77242819D01*
X226090571Y-77242819D02*
X226281047Y-77242819D01*
X226281047Y-77242819D02*
X226376285Y-77290438D01*
X226376285Y-77290438D02*
X226423904Y-77338057D01*
X226423904Y-77338057D02*
X226471523Y-77433295D01*
X226471523Y-77433295D02*
X226471523Y-77480914D01*
X226471523Y-77480914D02*
X226423904Y-77576152D01*
X226423904Y-77576152D02*
X226376285Y-77623771D01*
X226376285Y-77623771D02*
X226281047Y-77671390D01*
X226281047Y-77671390D02*
X226090571Y-77671390D01*
X226090571Y-77671390D02*
X225995333Y-77719009D01*
X225995333Y-77719009D02*
X225947714Y-77766628D01*
X225947714Y-77766628D02*
X225900095Y-77861866D01*
X225900095Y-77861866D02*
X225900095Y-78052342D01*
X225900095Y-78052342D02*
X225947714Y-78147580D01*
X225947714Y-78147580D02*
X225995333Y-78195200D01*
X225995333Y-78195200D02*
X226090571Y-78242819D01*
X226090571Y-78242819D02*
X226281047Y-78242819D01*
X226281047Y-78242819D02*
X226376285Y-78195200D01*
X226376285Y-78195200D02*
X226423904Y-78147580D01*
X226423904Y-78147580D02*
X226471523Y-78052342D01*
X226471523Y-78052342D02*
X226471523Y-77861866D01*
X226471523Y-77861866D02*
X226423904Y-77766628D01*
X226423904Y-77766628D02*
X226376285Y-77719009D01*
X226376285Y-77719009D02*
X226281047Y-77671390D01*
X152186285Y-62987009D02*
X152452951Y-62987009D01*
X152567237Y-63510819D02*
X152186285Y-63510819D01*
X152186285Y-63510819D02*
X152186285Y-62510819D01*
X152186285Y-62510819D02*
X152567237Y-62510819D01*
X152910095Y-63510819D02*
X152910095Y-62844152D01*
X152910095Y-62939390D02*
X152948190Y-62891771D01*
X152948190Y-62891771D02*
X153024380Y-62844152D01*
X153024380Y-62844152D02*
X153138666Y-62844152D01*
X153138666Y-62844152D02*
X153214857Y-62891771D01*
X153214857Y-62891771D02*
X153252952Y-62987009D01*
X153252952Y-62987009D02*
X153252952Y-63510819D01*
X153252952Y-62987009D02*
X153291047Y-62891771D01*
X153291047Y-62891771D02*
X153367238Y-62844152D01*
X153367238Y-62844152D02*
X153481523Y-62844152D01*
X153481523Y-62844152D02*
X153557714Y-62891771D01*
X153557714Y-62891771D02*
X153595809Y-62987009D01*
X153595809Y-62987009D02*
X153595809Y-63510819D01*
X153938666Y-62606057D02*
X153976762Y-62558438D01*
X153976762Y-62558438D02*
X154052952Y-62510819D01*
X154052952Y-62510819D02*
X154243428Y-62510819D01*
X154243428Y-62510819D02*
X154319619Y-62558438D01*
X154319619Y-62558438D02*
X154357714Y-62606057D01*
X154357714Y-62606057D02*
X154395809Y-62701295D01*
X154395809Y-62701295D02*
X154395809Y-62796533D01*
X154395809Y-62796533D02*
X154357714Y-62939390D01*
X154357714Y-62939390D02*
X153900571Y-63510819D01*
X153900571Y-63510819D02*
X154395809Y-63510819D01*
X155840833Y-63858819D02*
X155507500Y-63382628D01*
X155269405Y-63858819D02*
X155269405Y-62858819D01*
X155269405Y-62858819D02*
X155650357Y-62858819D01*
X155650357Y-62858819D02*
X155745595Y-62906438D01*
X155745595Y-62906438D02*
X155793214Y-62954057D01*
X155793214Y-62954057D02*
X155840833Y-63049295D01*
X155840833Y-63049295D02*
X155840833Y-63192152D01*
X155840833Y-63192152D02*
X155793214Y-63287390D01*
X155793214Y-63287390D02*
X155745595Y-63335009D01*
X155745595Y-63335009D02*
X155650357Y-63382628D01*
X155650357Y-63382628D02*
X155269405Y-63382628D01*
X156221786Y-62954057D02*
X156269405Y-62906438D01*
X156269405Y-62906438D02*
X156364643Y-62858819D01*
X156364643Y-62858819D02*
X156602738Y-62858819D01*
X156602738Y-62858819D02*
X156697976Y-62906438D01*
X156697976Y-62906438D02*
X156745595Y-62954057D01*
X156745595Y-62954057D02*
X156793214Y-63049295D01*
X156793214Y-63049295D02*
X156793214Y-63144533D01*
X156793214Y-63144533D02*
X156745595Y-63287390D01*
X156745595Y-63287390D02*
X156174167Y-63858819D01*
X156174167Y-63858819D02*
X156793214Y-63858819D01*
X165289524Y-87870819D02*
X165622857Y-88870819D01*
X165622857Y-88870819D02*
X165956190Y-87870819D01*
X166718095Y-88823200D02*
X166622857Y-88870819D01*
X166622857Y-88870819D02*
X166432381Y-88870819D01*
X166432381Y-88870819D02*
X166337143Y-88823200D01*
X166337143Y-88823200D02*
X166289524Y-88775580D01*
X166289524Y-88775580D02*
X166241905Y-88680342D01*
X166241905Y-88680342D02*
X166241905Y-88394628D01*
X166241905Y-88394628D02*
X166289524Y-88299390D01*
X166289524Y-88299390D02*
X166337143Y-88251771D01*
X166337143Y-88251771D02*
X166432381Y-88204152D01*
X166432381Y-88204152D02*
X166622857Y-88204152D01*
X166622857Y-88204152D02*
X166718095Y-88251771D01*
X167575238Y-88823200D02*
X167480000Y-88870819D01*
X167480000Y-88870819D02*
X167289524Y-88870819D01*
X167289524Y-88870819D02*
X167194286Y-88823200D01*
X167194286Y-88823200D02*
X167146667Y-88775580D01*
X167146667Y-88775580D02*
X167099048Y-88680342D01*
X167099048Y-88680342D02*
X167099048Y-88394628D01*
X167099048Y-88394628D02*
X167146667Y-88299390D01*
X167146667Y-88299390D02*
X167194286Y-88251771D01*
X167194286Y-88251771D02*
X167289524Y-88204152D01*
X167289524Y-88204152D02*
X167480000Y-88204152D01*
X167480000Y-88204152D02*
X167575238Y-88251771D01*
X219947819Y-50980904D02*
X220757342Y-50980904D01*
X220757342Y-50980904D02*
X220852580Y-50933285D01*
X220852580Y-50933285D02*
X220900200Y-50885666D01*
X220900200Y-50885666D02*
X220947819Y-50790428D01*
X220947819Y-50790428D02*
X220947819Y-50599952D01*
X220947819Y-50599952D02*
X220900200Y-50504714D01*
X220900200Y-50504714D02*
X220852580Y-50457095D01*
X220852580Y-50457095D02*
X220757342Y-50409476D01*
X220757342Y-50409476D02*
X219947819Y-50409476D01*
X219947819Y-49504714D02*
X219947819Y-49695190D01*
X219947819Y-49695190D02*
X219995438Y-49790428D01*
X219995438Y-49790428D02*
X220043057Y-49838047D01*
X220043057Y-49838047D02*
X220185914Y-49933285D01*
X220185914Y-49933285D02*
X220376390Y-49980904D01*
X220376390Y-49980904D02*
X220757342Y-49980904D01*
X220757342Y-49980904D02*
X220852580Y-49933285D01*
X220852580Y-49933285D02*
X220900200Y-49885666D01*
X220900200Y-49885666D02*
X220947819Y-49790428D01*
X220947819Y-49790428D02*
X220947819Y-49599952D01*
X220947819Y-49599952D02*
X220900200Y-49504714D01*
X220900200Y-49504714D02*
X220852580Y-49457095D01*
X220852580Y-49457095D02*
X220757342Y-49409476D01*
X220757342Y-49409476D02*
X220519247Y-49409476D01*
X220519247Y-49409476D02*
X220424009Y-49457095D01*
X220424009Y-49457095D02*
X220376390Y-49504714D01*
X220376390Y-49504714D02*
X220328771Y-49599952D01*
X220328771Y-49599952D02*
X220328771Y-49790428D01*
X220328771Y-49790428D02*
X220376390Y-49885666D01*
X220376390Y-49885666D02*
X220424009Y-49933285D01*
X220424009Y-49933285D02*
X220519247Y-49980904D01*
X170877476Y-90450819D02*
X170877476Y-91165104D01*
X170877476Y-91165104D02*
X170829857Y-91307961D01*
X170829857Y-91307961D02*
X170734619Y-91403200D01*
X170734619Y-91403200D02*
X170591762Y-91450819D01*
X170591762Y-91450819D02*
X170496524Y-91450819D01*
X171877476Y-91450819D02*
X171306048Y-91450819D01*
X171591762Y-91450819D02*
X171591762Y-90450819D01*
X171591762Y-90450819D02*
X171496524Y-90593676D01*
X171496524Y-90593676D02*
X171401286Y-90688914D01*
X171401286Y-90688914D02*
X171306048Y-90736533D01*
X172210810Y-90450819D02*
X172829857Y-90450819D01*
X172829857Y-90450819D02*
X172496524Y-90831771D01*
X172496524Y-90831771D02*
X172639381Y-90831771D01*
X172639381Y-90831771D02*
X172734619Y-90879390D01*
X172734619Y-90879390D02*
X172782238Y-90927009D01*
X172782238Y-90927009D02*
X172829857Y-91022247D01*
X172829857Y-91022247D02*
X172829857Y-91260342D01*
X172829857Y-91260342D02*
X172782238Y-91355580D01*
X172782238Y-91355580D02*
X172734619Y-91403200D01*
X172734619Y-91403200D02*
X172639381Y-91450819D01*
X172639381Y-91450819D02*
X172353667Y-91450819D01*
X172353667Y-91450819D02*
X172258429Y-91403200D01*
X172258429Y-91403200D02*
X172210810Y-91355580D01*
X218258048Y-46000819D02*
X218410429Y-46000819D01*
X218410429Y-46000819D02*
X218486619Y-46048438D01*
X218486619Y-46048438D02*
X218562810Y-46143676D01*
X218562810Y-46143676D02*
X218600905Y-46334152D01*
X218600905Y-46334152D02*
X218600905Y-46667485D01*
X218600905Y-46667485D02*
X218562810Y-46857961D01*
X218562810Y-46857961D02*
X218486619Y-46953200D01*
X218486619Y-46953200D02*
X218410429Y-47000819D01*
X218410429Y-47000819D02*
X218258048Y-47000819D01*
X218258048Y-47000819D02*
X218181857Y-46953200D01*
X218181857Y-46953200D02*
X218105667Y-46857961D01*
X218105667Y-46857961D02*
X218067571Y-46667485D01*
X218067571Y-46667485D02*
X218067571Y-46334152D01*
X218067571Y-46334152D02*
X218105667Y-46143676D01*
X218105667Y-46143676D02*
X218181857Y-46048438D01*
X218181857Y-46048438D02*
X218258048Y-46000819D01*
X218943762Y-46000819D02*
X218943762Y-46810342D01*
X218943762Y-46810342D02*
X218981857Y-46905580D01*
X218981857Y-46905580D02*
X219019952Y-46953200D01*
X219019952Y-46953200D02*
X219096143Y-47000819D01*
X219096143Y-47000819D02*
X219248524Y-47000819D01*
X219248524Y-47000819D02*
X219324714Y-46953200D01*
X219324714Y-46953200D02*
X219362809Y-46905580D01*
X219362809Y-46905580D02*
X219400905Y-46810342D01*
X219400905Y-46810342D02*
X219400905Y-46000819D01*
X219667571Y-46000819D02*
X220124714Y-46000819D01*
X219896142Y-47000819D02*
X219896142Y-46000819D01*
X220810428Y-47000819D02*
X220353285Y-47000819D01*
X220581857Y-47000819D02*
X220581857Y-46000819D01*
X220581857Y-46000819D02*
X220505666Y-46143676D01*
X220505666Y-46143676D02*
X220429476Y-46238914D01*
X220429476Y-46238914D02*
X220353285Y-46286533D01*
X162378819Y-86962894D02*
X163188342Y-86962894D01*
X163188342Y-86962894D02*
X163283580Y-86915275D01*
X163283580Y-86915275D02*
X163331200Y-86867656D01*
X163331200Y-86867656D02*
X163378819Y-86772418D01*
X163378819Y-86772418D02*
X163378819Y-86581942D01*
X163378819Y-86581942D02*
X163331200Y-86486704D01*
X163331200Y-86486704D02*
X163283580Y-86439085D01*
X163283580Y-86439085D02*
X163188342Y-86391466D01*
X163188342Y-86391466D02*
X162378819Y-86391466D01*
X162378819Y-86010513D02*
X162378819Y-85343847D01*
X162378819Y-85343847D02*
X163378819Y-85772418D01*
X163653819Y-55953904D02*
X164463342Y-55953904D01*
X164463342Y-55953904D02*
X164558580Y-55906285D01*
X164558580Y-55906285D02*
X164606200Y-55858666D01*
X164606200Y-55858666D02*
X164653819Y-55763428D01*
X164653819Y-55763428D02*
X164653819Y-55572952D01*
X164653819Y-55572952D02*
X164606200Y-55477714D01*
X164606200Y-55477714D02*
X164558580Y-55430095D01*
X164558580Y-55430095D02*
X164463342Y-55382476D01*
X164463342Y-55382476D02*
X163653819Y-55382476D01*
X163987152Y-54477714D02*
X164653819Y-54477714D01*
X163606200Y-54715809D02*
X164320485Y-54953904D01*
X164320485Y-54953904D02*
X164320485Y-54334857D01*
X227129524Y-55210819D02*
X227462857Y-56210819D01*
X227462857Y-56210819D02*
X227796190Y-55210819D01*
X228558095Y-56163200D02*
X228462857Y-56210819D01*
X228462857Y-56210819D02*
X228272381Y-56210819D01*
X228272381Y-56210819D02*
X228177143Y-56163200D01*
X228177143Y-56163200D02*
X228129524Y-56115580D01*
X228129524Y-56115580D02*
X228081905Y-56020342D01*
X228081905Y-56020342D02*
X228081905Y-55734628D01*
X228081905Y-55734628D02*
X228129524Y-55639390D01*
X228129524Y-55639390D02*
X228177143Y-55591771D01*
X228177143Y-55591771D02*
X228272381Y-55544152D01*
X228272381Y-55544152D02*
X228462857Y-55544152D01*
X228462857Y-55544152D02*
X228558095Y-55591771D01*
X229415238Y-56163200D02*
X229320000Y-56210819D01*
X229320000Y-56210819D02*
X229129524Y-56210819D01*
X229129524Y-56210819D02*
X229034286Y-56163200D01*
X229034286Y-56163200D02*
X228986667Y-56115580D01*
X228986667Y-56115580D02*
X228939048Y-56020342D01*
X228939048Y-56020342D02*
X228939048Y-55734628D01*
X228939048Y-55734628D02*
X228986667Y-55639390D01*
X228986667Y-55639390D02*
X229034286Y-55591771D01*
X229034286Y-55591771D02*
X229129524Y-55544152D01*
X229129524Y-55544152D02*
X229320000Y-55544152D01*
X229320000Y-55544152D02*
X229415238Y-55591771D01*
X164804819Y-62422666D02*
X164328628Y-62755999D01*
X164804819Y-62994094D02*
X163804819Y-62994094D01*
X163804819Y-62994094D02*
X163804819Y-62613142D01*
X163804819Y-62613142D02*
X163852438Y-62517904D01*
X163852438Y-62517904D02*
X163900057Y-62470285D01*
X163900057Y-62470285D02*
X163995295Y-62422666D01*
X163995295Y-62422666D02*
X164138152Y-62422666D01*
X164138152Y-62422666D02*
X164233390Y-62470285D01*
X164233390Y-62470285D02*
X164281009Y-62517904D01*
X164281009Y-62517904D02*
X164328628Y-62613142D01*
X164328628Y-62613142D02*
X164328628Y-62994094D01*
X164138152Y-61565523D02*
X164804819Y-61565523D01*
X163757200Y-61803618D02*
X164471485Y-62041713D01*
X164471485Y-62041713D02*
X164471485Y-61422666D01*
D12*
X193362580Y-70922666D02*
X192648295Y-70922666D01*
X192648295Y-70922666D02*
X192505438Y-70875047D01*
X192505438Y-70875047D02*
X192410200Y-70779809D01*
X192410200Y-70779809D02*
X192362580Y-70636952D01*
X192362580Y-70636952D02*
X192362580Y-70541714D01*
X192362580Y-71922666D02*
X192362580Y-71351238D01*
X192362580Y-71636952D02*
X193362580Y-71636952D01*
X193362580Y-71636952D02*
X193219723Y-71541714D01*
X193219723Y-71541714D02*
X193124485Y-71446476D01*
X193124485Y-71446476D02*
X193076866Y-71351238D01*
D11*
X222905285Y-88133009D02*
X223171951Y-88133009D01*
X223286237Y-88656819D02*
X222905285Y-88656819D01*
X222905285Y-88656819D02*
X222905285Y-87656819D01*
X222905285Y-87656819D02*
X223286237Y-87656819D01*
X223629095Y-88656819D02*
X223629095Y-87990152D01*
X223629095Y-88085390D02*
X223667190Y-88037771D01*
X223667190Y-88037771D02*
X223743380Y-87990152D01*
X223743380Y-87990152D02*
X223857666Y-87990152D01*
X223857666Y-87990152D02*
X223933857Y-88037771D01*
X223933857Y-88037771D02*
X223971952Y-88133009D01*
X223971952Y-88133009D02*
X223971952Y-88656819D01*
X223971952Y-88133009D02*
X224010047Y-88037771D01*
X224010047Y-88037771D02*
X224086238Y-87990152D01*
X224086238Y-87990152D02*
X224200523Y-87990152D01*
X224200523Y-87990152D02*
X224276714Y-88037771D01*
X224276714Y-88037771D02*
X224314809Y-88133009D01*
X224314809Y-88133009D02*
X224314809Y-88656819D01*
X224657666Y-87752057D02*
X224695762Y-87704438D01*
X224695762Y-87704438D02*
X224771952Y-87656819D01*
X224771952Y-87656819D02*
X224962428Y-87656819D01*
X224962428Y-87656819D02*
X225038619Y-87704438D01*
X225038619Y-87704438D02*
X225076714Y-87752057D01*
X225076714Y-87752057D02*
X225114809Y-87847295D01*
X225114809Y-87847295D02*
X225114809Y-87942533D01*
X225114809Y-87942533D02*
X225076714Y-88085390D01*
X225076714Y-88085390D02*
X224619571Y-88656819D01*
X224619571Y-88656819D02*
X225114809Y-88656819D01*
X169368819Y-55953904D02*
X170178342Y-55953904D01*
X170178342Y-55953904D02*
X170273580Y-55906285D01*
X170273580Y-55906285D02*
X170321200Y-55858666D01*
X170321200Y-55858666D02*
X170368819Y-55763428D01*
X170368819Y-55763428D02*
X170368819Y-55572952D01*
X170368819Y-55572952D02*
X170321200Y-55477714D01*
X170321200Y-55477714D02*
X170273580Y-55430095D01*
X170273580Y-55430095D02*
X170178342Y-55382476D01*
X170178342Y-55382476D02*
X169368819Y-55382476D01*
X169368819Y-55001523D02*
X169368819Y-54382476D01*
X169368819Y-54382476D02*
X169749771Y-54715809D01*
X169749771Y-54715809D02*
X169749771Y-54572952D01*
X169749771Y-54572952D02*
X169797390Y-54477714D01*
X169797390Y-54477714D02*
X169845009Y-54430095D01*
X169845009Y-54430095D02*
X169940247Y-54382476D01*
X169940247Y-54382476D02*
X170178342Y-54382476D01*
X170178342Y-54382476D02*
X170273580Y-54430095D01*
X170273580Y-54430095D02*
X170321200Y-54477714D01*
X170321200Y-54477714D02*
X170368819Y-54572952D01*
X170368819Y-54572952D02*
X170368819Y-54858666D01*
X170368819Y-54858666D02*
X170321200Y-54953904D01*
X170321200Y-54953904D02*
X170273580Y-55001523D01*
X166956095Y-65010819D02*
X166956095Y-65820342D01*
X166956095Y-65820342D02*
X167003714Y-65915580D01*
X167003714Y-65915580D02*
X167051333Y-65963200D01*
X167051333Y-65963200D02*
X167146571Y-66010819D01*
X167146571Y-66010819D02*
X167337047Y-66010819D01*
X167337047Y-66010819D02*
X167432285Y-65963200D01*
X167432285Y-65963200D02*
X167479904Y-65915580D01*
X167479904Y-65915580D02*
X167527523Y-65820342D01*
X167527523Y-65820342D02*
X167527523Y-65010819D01*
X167956095Y-65106057D02*
X168003714Y-65058438D01*
X168003714Y-65058438D02*
X168098952Y-65010819D01*
X168098952Y-65010819D02*
X168337047Y-65010819D01*
X168337047Y-65010819D02*
X168432285Y-65058438D01*
X168432285Y-65058438D02*
X168479904Y-65106057D01*
X168479904Y-65106057D02*
X168527523Y-65201295D01*
X168527523Y-65201295D02*
X168527523Y-65296533D01*
X168527523Y-65296533D02*
X168479904Y-65439390D01*
X168479904Y-65439390D02*
X167908476Y-66010819D01*
X167908476Y-66010819D02*
X168527523Y-66010819D01*
X232558095Y-55258438D02*
X232462857Y-55210819D01*
X232462857Y-55210819D02*
X232320000Y-55210819D01*
X232320000Y-55210819D02*
X232177143Y-55258438D01*
X232177143Y-55258438D02*
X232081905Y-55353676D01*
X232081905Y-55353676D02*
X232034286Y-55448914D01*
X232034286Y-55448914D02*
X231986667Y-55639390D01*
X231986667Y-55639390D02*
X231986667Y-55782247D01*
X231986667Y-55782247D02*
X232034286Y-55972723D01*
X232034286Y-55972723D02*
X232081905Y-56067961D01*
X232081905Y-56067961D02*
X232177143Y-56163200D01*
X232177143Y-56163200D02*
X232320000Y-56210819D01*
X232320000Y-56210819D02*
X232415238Y-56210819D01*
X232415238Y-56210819D02*
X232558095Y-56163200D01*
X232558095Y-56163200D02*
X232605714Y-56115580D01*
X232605714Y-56115580D02*
X232605714Y-55782247D01*
X232605714Y-55782247D02*
X232415238Y-55782247D01*
X233034286Y-56210819D02*
X233034286Y-55210819D01*
X233034286Y-55210819D02*
X233605714Y-56210819D01*
X233605714Y-56210819D02*
X233605714Y-55210819D01*
X234081905Y-56210819D02*
X234081905Y-55210819D01*
X234081905Y-55210819D02*
X234320000Y-55210819D01*
X234320000Y-55210819D02*
X234462857Y-55258438D01*
X234462857Y-55258438D02*
X234558095Y-55353676D01*
X234558095Y-55353676D02*
X234605714Y-55448914D01*
X234605714Y-55448914D02*
X234653333Y-55639390D01*
X234653333Y-55639390D02*
X234653333Y-55782247D01*
X234653333Y-55782247D02*
X234605714Y-55972723D01*
X234605714Y-55972723D02*
X234558095Y-56067961D01*
X234558095Y-56067961D02*
X234462857Y-56163200D01*
X234462857Y-56163200D02*
X234320000Y-56210819D01*
X234320000Y-56210819D02*
X234081905Y-56210819D01*
X218734285Y-88133009D02*
X219000951Y-88133009D01*
X219115237Y-88656819D02*
X218734285Y-88656819D01*
X218734285Y-88656819D02*
X218734285Y-87656819D01*
X218734285Y-87656819D02*
X219115237Y-87656819D01*
X219458095Y-88656819D02*
X219458095Y-87990152D01*
X219458095Y-88085390D02*
X219496190Y-88037771D01*
X219496190Y-88037771D02*
X219572380Y-87990152D01*
X219572380Y-87990152D02*
X219686666Y-87990152D01*
X219686666Y-87990152D02*
X219762857Y-88037771D01*
X219762857Y-88037771D02*
X219800952Y-88133009D01*
X219800952Y-88133009D02*
X219800952Y-88656819D01*
X219800952Y-88133009D02*
X219839047Y-88037771D01*
X219839047Y-88037771D02*
X219915238Y-87990152D01*
X219915238Y-87990152D02*
X220029523Y-87990152D01*
X220029523Y-87990152D02*
X220105714Y-88037771D01*
X220105714Y-88037771D02*
X220143809Y-88133009D01*
X220143809Y-88133009D02*
X220143809Y-88656819D01*
X220943809Y-88656819D02*
X220486666Y-88656819D01*
X220715238Y-88656819D02*
X220715238Y-87656819D01*
X220715238Y-87656819D02*
X220639047Y-87799676D01*
X220639047Y-87799676D02*
X220562857Y-87894914D01*
X220562857Y-87894914D02*
X220486666Y-87942533D01*
X211311819Y-50980904D02*
X212121342Y-50980904D01*
X212121342Y-50980904D02*
X212216580Y-50933285D01*
X212216580Y-50933285D02*
X212264200Y-50885666D01*
X212264200Y-50885666D02*
X212311819Y-50790428D01*
X212311819Y-50790428D02*
X212311819Y-50599952D01*
X212311819Y-50599952D02*
X212264200Y-50504714D01*
X212264200Y-50504714D02*
X212216580Y-50457095D01*
X212216580Y-50457095D02*
X212121342Y-50409476D01*
X212121342Y-50409476D02*
X211311819Y-50409476D01*
X211311819Y-49457095D02*
X211311819Y-49933285D01*
X211311819Y-49933285D02*
X211788009Y-49980904D01*
X211788009Y-49980904D02*
X211740390Y-49933285D01*
X211740390Y-49933285D02*
X211692771Y-49838047D01*
X211692771Y-49838047D02*
X211692771Y-49599952D01*
X211692771Y-49599952D02*
X211740390Y-49504714D01*
X211740390Y-49504714D02*
X211788009Y-49457095D01*
X211788009Y-49457095D02*
X211883247Y-49409476D01*
X211883247Y-49409476D02*
X212121342Y-49409476D01*
X212121342Y-49409476D02*
X212216580Y-49457095D01*
X212216580Y-49457095D02*
X212264200Y-49504714D01*
X212264200Y-49504714D02*
X212311819Y-49599952D01*
X212311819Y-49599952D02*
X212311819Y-49838047D01*
X212311819Y-49838047D02*
X212264200Y-49933285D01*
X212264200Y-49933285D02*
X212216580Y-49980904D01*
X152272000Y-65050819D02*
X152272000Y-65860342D01*
X152272000Y-65860342D02*
X152305334Y-65955580D01*
X152305334Y-65955580D02*
X152338667Y-66003200D01*
X152338667Y-66003200D02*
X152405334Y-66050819D01*
X152405334Y-66050819D02*
X152538667Y-66050819D01*
X152538667Y-66050819D02*
X152605334Y-66003200D01*
X152605334Y-66003200D02*
X152638667Y-65955580D01*
X152638667Y-65955580D02*
X152672000Y-65860342D01*
X152672000Y-65860342D02*
X152672000Y-65050819D01*
X152972000Y-66003200D02*
X153038667Y-66050819D01*
X153038667Y-66050819D02*
X153172000Y-66050819D01*
X153172000Y-66050819D02*
X153238667Y-66003200D01*
X153238667Y-66003200D02*
X153272000Y-65907961D01*
X153272000Y-65907961D02*
X153272000Y-65860342D01*
X153272000Y-65860342D02*
X153238667Y-65765104D01*
X153238667Y-65765104D02*
X153172000Y-65717485D01*
X153172000Y-65717485D02*
X153072000Y-65717485D01*
X153072000Y-65717485D02*
X153005333Y-65669866D01*
X153005333Y-65669866D02*
X152972000Y-65574628D01*
X152972000Y-65574628D02*
X152972000Y-65527009D01*
X152972000Y-65527009D02*
X153005333Y-65431771D01*
X153005333Y-65431771D02*
X153072000Y-65384152D01*
X153072000Y-65384152D02*
X153172000Y-65384152D01*
X153172000Y-65384152D02*
X153238667Y-65431771D01*
X153838667Y-66003200D02*
X153772000Y-66050819D01*
X153772000Y-66050819D02*
X153638667Y-66050819D01*
X153638667Y-66050819D02*
X153572000Y-66003200D01*
X153572000Y-66003200D02*
X153538667Y-65907961D01*
X153538667Y-65907961D02*
X153538667Y-65527009D01*
X153538667Y-65527009D02*
X153572000Y-65431771D01*
X153572000Y-65431771D02*
X153638667Y-65384152D01*
X153638667Y-65384152D02*
X153772000Y-65384152D01*
X153772000Y-65384152D02*
X153838667Y-65431771D01*
X153838667Y-65431771D02*
X153872000Y-65527009D01*
X153872000Y-65527009D02*
X153872000Y-65622247D01*
X153872000Y-65622247D02*
X153538667Y-65717485D01*
X154172000Y-66050819D02*
X154172000Y-65384152D01*
X154172000Y-65574628D02*
X154205334Y-65479390D01*
X154205334Y-65479390D02*
X154238667Y-65431771D01*
X154238667Y-65431771D02*
X154305334Y-65384152D01*
X154305334Y-65384152D02*
X154372000Y-65384152D01*
X157402000Y-44699009D02*
X157635334Y-44699009D01*
X157735334Y-45222819D02*
X157402000Y-45222819D01*
X157402000Y-45222819D02*
X157402000Y-44222819D01*
X157402000Y-44222819D02*
X157735334Y-44222819D01*
X158035333Y-45222819D02*
X158035333Y-44556152D01*
X158035333Y-44651390D02*
X158068667Y-44603771D01*
X158068667Y-44603771D02*
X158135333Y-44556152D01*
X158135333Y-44556152D02*
X158235333Y-44556152D01*
X158235333Y-44556152D02*
X158302000Y-44603771D01*
X158302000Y-44603771D02*
X158335333Y-44699009D01*
X158335333Y-44699009D02*
X158335333Y-45222819D01*
X158335333Y-44699009D02*
X158368667Y-44603771D01*
X158368667Y-44603771D02*
X158435333Y-44556152D01*
X158435333Y-44556152D02*
X158535333Y-44556152D01*
X158535333Y-44556152D02*
X158602000Y-44603771D01*
X158602000Y-44603771D02*
X158635333Y-44699009D01*
X158635333Y-44699009D02*
X158635333Y-45222819D01*
X159335333Y-45222819D02*
X158935333Y-45222819D01*
X159135333Y-45222819D02*
X159135333Y-44222819D01*
X159135333Y-44222819D02*
X159068666Y-44365676D01*
X159068666Y-44365676D02*
X159002000Y-44460914D01*
X159002000Y-44460914D02*
X158935333Y-44508533D01*
X170290095Y-87918438D02*
X170194857Y-87870819D01*
X170194857Y-87870819D02*
X170052000Y-87870819D01*
X170052000Y-87870819D02*
X169909143Y-87918438D01*
X169909143Y-87918438D02*
X169813905Y-88013676D01*
X169813905Y-88013676D02*
X169766286Y-88108914D01*
X169766286Y-88108914D02*
X169718667Y-88299390D01*
X169718667Y-88299390D02*
X169718667Y-88442247D01*
X169718667Y-88442247D02*
X169766286Y-88632723D01*
X169766286Y-88632723D02*
X169813905Y-88727961D01*
X169813905Y-88727961D02*
X169909143Y-88823200D01*
X169909143Y-88823200D02*
X170052000Y-88870819D01*
X170052000Y-88870819D02*
X170147238Y-88870819D01*
X170147238Y-88870819D02*
X170290095Y-88823200D01*
X170290095Y-88823200D02*
X170337714Y-88775580D01*
X170337714Y-88775580D02*
X170337714Y-88442247D01*
X170337714Y-88442247D02*
X170147238Y-88442247D01*
X170766286Y-88870819D02*
X170766286Y-87870819D01*
X170766286Y-87870819D02*
X171337714Y-88870819D01*
X171337714Y-88870819D02*
X171337714Y-87870819D01*
X171813905Y-88870819D02*
X171813905Y-87870819D01*
X171813905Y-87870819D02*
X172052000Y-87870819D01*
X172052000Y-87870819D02*
X172194857Y-87918438D01*
X172194857Y-87918438D02*
X172290095Y-88013676D01*
X172290095Y-88013676D02*
X172337714Y-88108914D01*
X172337714Y-88108914D02*
X172385333Y-88299390D01*
X172385333Y-88299390D02*
X172385333Y-88442247D01*
X172385333Y-88442247D02*
X172337714Y-88632723D01*
X172337714Y-88632723D02*
X172290095Y-88727961D01*
X172290095Y-88727961D02*
X172194857Y-88823200D01*
X172194857Y-88823200D02*
X172052000Y-88870819D01*
X172052000Y-88870819D02*
X171813905Y-88870819D01*
X226740833Y-88840819D02*
X226407500Y-88364628D01*
X226169405Y-88840819D02*
X226169405Y-87840819D01*
X226169405Y-87840819D02*
X226550357Y-87840819D01*
X226550357Y-87840819D02*
X226645595Y-87888438D01*
X226645595Y-87888438D02*
X226693214Y-87936057D01*
X226693214Y-87936057D02*
X226740833Y-88031295D01*
X226740833Y-88031295D02*
X226740833Y-88174152D01*
X226740833Y-88174152D02*
X226693214Y-88269390D01*
X226693214Y-88269390D02*
X226645595Y-88317009D01*
X226645595Y-88317009D02*
X226550357Y-88364628D01*
X226550357Y-88364628D02*
X226169405Y-88364628D01*
X227074167Y-87840819D02*
X227740833Y-87840819D01*
X227740833Y-87840819D02*
X227312262Y-88840819D01*
X226289142Y-84846819D02*
X225955809Y-84370628D01*
X225717714Y-84846819D02*
X225717714Y-83846819D01*
X225717714Y-83846819D02*
X226098666Y-83846819D01*
X226098666Y-83846819D02*
X226193904Y-83894438D01*
X226193904Y-83894438D02*
X226241523Y-83942057D01*
X226241523Y-83942057D02*
X226289142Y-84037295D01*
X226289142Y-84037295D02*
X226289142Y-84180152D01*
X226289142Y-84180152D02*
X226241523Y-84275390D01*
X226241523Y-84275390D02*
X226193904Y-84323009D01*
X226193904Y-84323009D02*
X226098666Y-84370628D01*
X226098666Y-84370628D02*
X225717714Y-84370628D01*
X227241523Y-84846819D02*
X226670095Y-84846819D01*
X226955809Y-84846819D02*
X226955809Y-83846819D01*
X226955809Y-83846819D02*
X226860571Y-83989676D01*
X226860571Y-83989676D02*
X226765333Y-84084914D01*
X226765333Y-84084914D02*
X226670095Y-84132533D01*
X227860571Y-83846819D02*
X227955809Y-83846819D01*
X227955809Y-83846819D02*
X228051047Y-83894438D01*
X228051047Y-83894438D02*
X228098666Y-83942057D01*
X228098666Y-83942057D02*
X228146285Y-84037295D01*
X228146285Y-84037295D02*
X228193904Y-84227771D01*
X228193904Y-84227771D02*
X228193904Y-84465866D01*
X228193904Y-84465866D02*
X228146285Y-84656342D01*
X228146285Y-84656342D02*
X228098666Y-84751580D01*
X228098666Y-84751580D02*
X228051047Y-84799200D01*
X228051047Y-84799200D02*
X227955809Y-84846819D01*
X227955809Y-84846819D02*
X227860571Y-84846819D01*
X227860571Y-84846819D02*
X227765333Y-84799200D01*
X227765333Y-84799200D02*
X227717714Y-84751580D01*
X227717714Y-84751580D02*
X227670095Y-84656342D01*
X227670095Y-84656342D02*
X227622476Y-84465866D01*
X227622476Y-84465866D02*
X227622476Y-84227771D01*
X227622476Y-84227771D02*
X227670095Y-84037295D01*
X227670095Y-84037295D02*
X227717714Y-83942057D01*
X227717714Y-83942057D02*
X227765333Y-83894438D01*
X227765333Y-83894438D02*
X227860571Y-83846819D01*
X229781809Y-82906819D02*
X229781809Y-81906819D01*
X229781809Y-81906819D02*
X230162761Y-81906819D01*
X230162761Y-81906819D02*
X230257999Y-81954438D01*
X230257999Y-81954438D02*
X230305618Y-82002057D01*
X230305618Y-82002057D02*
X230353237Y-82097295D01*
X230353237Y-82097295D02*
X230353237Y-82240152D01*
X230353237Y-82240152D02*
X230305618Y-82335390D01*
X230305618Y-82335390D02*
X230257999Y-82383009D01*
X230257999Y-82383009D02*
X230162761Y-82430628D01*
X230162761Y-82430628D02*
X229781809Y-82430628D01*
X230924666Y-82906819D02*
X230829428Y-82859200D01*
X230829428Y-82859200D02*
X230781809Y-82811580D01*
X230781809Y-82811580D02*
X230734190Y-82716342D01*
X230734190Y-82716342D02*
X230734190Y-82430628D01*
X230734190Y-82430628D02*
X230781809Y-82335390D01*
X230781809Y-82335390D02*
X230829428Y-82287771D01*
X230829428Y-82287771D02*
X230924666Y-82240152D01*
X230924666Y-82240152D02*
X231067523Y-82240152D01*
X231067523Y-82240152D02*
X231162761Y-82287771D01*
X231162761Y-82287771D02*
X231210380Y-82335390D01*
X231210380Y-82335390D02*
X231257999Y-82430628D01*
X231257999Y-82430628D02*
X231257999Y-82716342D01*
X231257999Y-82716342D02*
X231210380Y-82811580D01*
X231210380Y-82811580D02*
X231162761Y-82859200D01*
X231162761Y-82859200D02*
X231067523Y-82906819D01*
X231067523Y-82906819D02*
X230924666Y-82906819D01*
X231591333Y-82240152D02*
X231781809Y-82906819D01*
X231781809Y-82906819D02*
X231972285Y-82430628D01*
X231972285Y-82430628D02*
X232162761Y-82906819D01*
X232162761Y-82906819D02*
X232353237Y-82240152D01*
X233115142Y-82859200D02*
X233019904Y-82906819D01*
X233019904Y-82906819D02*
X232829428Y-82906819D01*
X232829428Y-82906819D02*
X232734190Y-82859200D01*
X232734190Y-82859200D02*
X232686571Y-82763961D01*
X232686571Y-82763961D02*
X232686571Y-82383009D01*
X232686571Y-82383009D02*
X232734190Y-82287771D01*
X232734190Y-82287771D02*
X232829428Y-82240152D01*
X232829428Y-82240152D02*
X233019904Y-82240152D01*
X233019904Y-82240152D02*
X233115142Y-82287771D01*
X233115142Y-82287771D02*
X233162761Y-82383009D01*
X233162761Y-82383009D02*
X233162761Y-82478247D01*
X233162761Y-82478247D02*
X232686571Y-82573485D01*
X233591333Y-82906819D02*
X233591333Y-82240152D01*
X233591333Y-82430628D02*
X233638952Y-82335390D01*
X233638952Y-82335390D02*
X233686571Y-82287771D01*
X233686571Y-82287771D02*
X233781809Y-82240152D01*
X233781809Y-82240152D02*
X233877047Y-82240152D01*
X227948380Y-75956819D02*
X227567428Y-75956819D01*
X227567428Y-75956819D02*
X227567428Y-74956819D01*
X228329332Y-75956819D02*
X228253142Y-75909200D01*
X228253142Y-75909200D02*
X228215047Y-75861580D01*
X228215047Y-75861580D02*
X228176951Y-75766342D01*
X228176951Y-75766342D02*
X228176951Y-75480628D01*
X228176951Y-75480628D02*
X228215047Y-75385390D01*
X228215047Y-75385390D02*
X228253142Y-75337771D01*
X228253142Y-75337771D02*
X228329332Y-75290152D01*
X228329332Y-75290152D02*
X228443618Y-75290152D01*
X228443618Y-75290152D02*
X228519809Y-75337771D01*
X228519809Y-75337771D02*
X228557904Y-75385390D01*
X228557904Y-75385390D02*
X228595999Y-75480628D01*
X228595999Y-75480628D02*
X228595999Y-75766342D01*
X228595999Y-75766342D02*
X228557904Y-75861580D01*
X228557904Y-75861580D02*
X228519809Y-75909200D01*
X228519809Y-75909200D02*
X228443618Y-75956819D01*
X228443618Y-75956819D02*
X228329332Y-75956819D01*
X228862666Y-75290152D02*
X229015047Y-75956819D01*
X229015047Y-75956819D02*
X229167428Y-75480628D01*
X229167428Y-75480628D02*
X229319809Y-75956819D01*
X229319809Y-75956819D02*
X229472190Y-75290152D01*
X230272190Y-74956819D02*
X230538857Y-75956819D01*
X230538857Y-75956819D02*
X230805523Y-74956819D01*
X231186475Y-75956819D02*
X231110285Y-75909200D01*
X231110285Y-75909200D02*
X231072190Y-75861580D01*
X231072190Y-75861580D02*
X231034094Y-75766342D01*
X231034094Y-75766342D02*
X231034094Y-75480628D01*
X231034094Y-75480628D02*
X231072190Y-75385390D01*
X231072190Y-75385390D02*
X231110285Y-75337771D01*
X231110285Y-75337771D02*
X231186475Y-75290152D01*
X231186475Y-75290152D02*
X231300761Y-75290152D01*
X231300761Y-75290152D02*
X231376952Y-75337771D01*
X231376952Y-75337771D02*
X231415047Y-75385390D01*
X231415047Y-75385390D02*
X231453142Y-75480628D01*
X231453142Y-75480628D02*
X231453142Y-75766342D01*
X231453142Y-75766342D02*
X231415047Y-75861580D01*
X231415047Y-75861580D02*
X231376952Y-75909200D01*
X231376952Y-75909200D02*
X231300761Y-75956819D01*
X231300761Y-75956819D02*
X231186475Y-75956819D01*
X231910285Y-75956819D02*
X231834095Y-75909200D01*
X231834095Y-75909200D02*
X231796000Y-75813961D01*
X231796000Y-75813961D02*
X231796000Y-74956819D01*
X232100762Y-75290152D02*
X232405524Y-75290152D01*
X232215048Y-74956819D02*
X232215048Y-75813961D01*
X232215048Y-75813961D02*
X232253143Y-75909200D01*
X232253143Y-75909200D02*
X232329333Y-75956819D01*
X232329333Y-75956819D02*
X232405524Y-75956819D01*
X233015048Y-75956819D02*
X233015048Y-75433009D01*
X233015048Y-75433009D02*
X232976953Y-75337771D01*
X232976953Y-75337771D02*
X232900762Y-75290152D01*
X232900762Y-75290152D02*
X232748381Y-75290152D01*
X232748381Y-75290152D02*
X232672191Y-75337771D01*
X233015048Y-75909200D02*
X232938857Y-75956819D01*
X232938857Y-75956819D02*
X232748381Y-75956819D01*
X232748381Y-75956819D02*
X232672191Y-75909200D01*
X232672191Y-75909200D02*
X232634095Y-75813961D01*
X232634095Y-75813961D02*
X232634095Y-75718723D01*
X232634095Y-75718723D02*
X232672191Y-75623485D01*
X232672191Y-75623485D02*
X232748381Y-75575866D01*
X232748381Y-75575866D02*
X232938857Y-75575866D01*
X232938857Y-75575866D02*
X233015048Y-75528247D01*
X233738858Y-75290152D02*
X233738858Y-76099676D01*
X233738858Y-76099676D02*
X233700763Y-76194914D01*
X233700763Y-76194914D02*
X233662667Y-76242533D01*
X233662667Y-76242533D02*
X233586477Y-76290152D01*
X233586477Y-76290152D02*
X233472191Y-76290152D01*
X233472191Y-76290152D02*
X233396001Y-76242533D01*
X233738858Y-75909200D02*
X233662667Y-75956819D01*
X233662667Y-75956819D02*
X233510286Y-75956819D01*
X233510286Y-75956819D02*
X233434096Y-75909200D01*
X233434096Y-75909200D02*
X233396001Y-75861580D01*
X233396001Y-75861580D02*
X233357905Y-75766342D01*
X233357905Y-75766342D02*
X233357905Y-75480628D01*
X233357905Y-75480628D02*
X233396001Y-75385390D01*
X233396001Y-75385390D02*
X233434096Y-75337771D01*
X233434096Y-75337771D02*
X233510286Y-75290152D01*
X233510286Y-75290152D02*
X233662667Y-75290152D01*
X233662667Y-75290152D02*
X233738858Y-75337771D01*
X234424573Y-75909200D02*
X234348382Y-75956819D01*
X234348382Y-75956819D02*
X234196001Y-75956819D01*
X234196001Y-75956819D02*
X234119811Y-75909200D01*
X234119811Y-75909200D02*
X234081715Y-75813961D01*
X234081715Y-75813961D02*
X234081715Y-75433009D01*
X234081715Y-75433009D02*
X234119811Y-75337771D01*
X234119811Y-75337771D02*
X234196001Y-75290152D01*
X234196001Y-75290152D02*
X234348382Y-75290152D01*
X234348382Y-75290152D02*
X234424573Y-75337771D01*
X234424573Y-75337771D02*
X234462668Y-75433009D01*
X234462668Y-75433009D02*
X234462668Y-75528247D01*
X234462668Y-75528247D02*
X234081715Y-75623485D01*
X224712819Y-57507666D02*
X224236628Y-57840999D01*
X224712819Y-58079094D02*
X223712819Y-58079094D01*
X223712819Y-58079094D02*
X223712819Y-57698142D01*
X223712819Y-57698142D02*
X223760438Y-57602904D01*
X223760438Y-57602904D02*
X223808057Y-57555285D01*
X223808057Y-57555285D02*
X223903295Y-57507666D01*
X223903295Y-57507666D02*
X224046152Y-57507666D01*
X224046152Y-57507666D02*
X224141390Y-57555285D01*
X224141390Y-57555285D02*
X224189009Y-57602904D01*
X224189009Y-57602904D02*
X224236628Y-57698142D01*
X224236628Y-57698142D02*
X224236628Y-58079094D01*
X223712819Y-56650523D02*
X223712819Y-56840999D01*
X223712819Y-56840999D02*
X223760438Y-56936237D01*
X223760438Y-56936237D02*
X223808057Y-56983856D01*
X223808057Y-56983856D02*
X223950914Y-57079094D01*
X223950914Y-57079094D02*
X224141390Y-57126713D01*
X224141390Y-57126713D02*
X224522342Y-57126713D01*
X224522342Y-57126713D02*
X224617580Y-57079094D01*
X224617580Y-57079094D02*
X224665200Y-57031475D01*
X224665200Y-57031475D02*
X224712819Y-56936237D01*
X224712819Y-56936237D02*
X224712819Y-56745761D01*
X224712819Y-56745761D02*
X224665200Y-56650523D01*
X224665200Y-56650523D02*
X224617580Y-56602904D01*
X224617580Y-56602904D02*
X224522342Y-56555285D01*
X224522342Y-56555285D02*
X224284247Y-56555285D01*
X224284247Y-56555285D02*
X224189009Y-56602904D01*
X224189009Y-56602904D02*
X224141390Y-56650523D01*
X224141390Y-56650523D02*
X224093771Y-56745761D01*
X224093771Y-56745761D02*
X224093771Y-56936237D01*
X224093771Y-56936237D02*
X224141390Y-57031475D01*
X224141390Y-57031475D02*
X224189009Y-57079094D01*
X224189009Y-57079094D02*
X224284247Y-57126713D01*
X212493019Y-85602523D02*
X213207304Y-85602523D01*
X213207304Y-85602523D02*
X213350161Y-85650142D01*
X213350161Y-85650142D02*
X213445400Y-85745380D01*
X213445400Y-85745380D02*
X213493019Y-85888237D01*
X213493019Y-85888237D02*
X213493019Y-85983475D01*
X213493019Y-84602523D02*
X213493019Y-85173951D01*
X213493019Y-84888237D02*
X212493019Y-84888237D01*
X212493019Y-84888237D02*
X212635876Y-84983475D01*
X212635876Y-84983475D02*
X212731114Y-85078713D01*
X212731114Y-85078713D02*
X212778733Y-85173951D01*
X212826352Y-83745380D02*
X213493019Y-83745380D01*
X212445400Y-83983475D02*
X213159685Y-84221570D01*
X213159685Y-84221570D02*
X213159685Y-83602523D01*
X230840833Y-56440819D02*
X230507500Y-55964628D01*
X230269405Y-56440819D02*
X230269405Y-55440819D01*
X230269405Y-55440819D02*
X230650357Y-55440819D01*
X230650357Y-55440819D02*
X230745595Y-55488438D01*
X230745595Y-55488438D02*
X230793214Y-55536057D01*
X230793214Y-55536057D02*
X230840833Y-55631295D01*
X230840833Y-55631295D02*
X230840833Y-55774152D01*
X230840833Y-55774152D02*
X230793214Y-55869390D01*
X230793214Y-55869390D02*
X230745595Y-55917009D01*
X230745595Y-55917009D02*
X230650357Y-55964628D01*
X230650357Y-55964628D02*
X230269405Y-55964628D01*
X231793214Y-56440819D02*
X231221786Y-56440819D01*
X231507500Y-56440819D02*
X231507500Y-55440819D01*
X231507500Y-55440819D02*
X231412262Y-55583676D01*
X231412262Y-55583676D02*
X231317024Y-55678914D01*
X231317024Y-55678914D02*
X231221786Y-55726533D01*
X216076819Y-57507666D02*
X215600628Y-57840999D01*
X216076819Y-58079094D02*
X215076819Y-58079094D01*
X215076819Y-58079094D02*
X215076819Y-57698142D01*
X215076819Y-57698142D02*
X215124438Y-57602904D01*
X215124438Y-57602904D02*
X215172057Y-57555285D01*
X215172057Y-57555285D02*
X215267295Y-57507666D01*
X215267295Y-57507666D02*
X215410152Y-57507666D01*
X215410152Y-57507666D02*
X215505390Y-57555285D01*
X215505390Y-57555285D02*
X215553009Y-57602904D01*
X215553009Y-57602904D02*
X215600628Y-57698142D01*
X215600628Y-57698142D02*
X215600628Y-58079094D01*
X215076819Y-56602904D02*
X215076819Y-57079094D01*
X215076819Y-57079094D02*
X215553009Y-57126713D01*
X215553009Y-57126713D02*
X215505390Y-57079094D01*
X215505390Y-57079094D02*
X215457771Y-56983856D01*
X215457771Y-56983856D02*
X215457771Y-56745761D01*
X215457771Y-56745761D02*
X215505390Y-56650523D01*
X215505390Y-56650523D02*
X215553009Y-56602904D01*
X215553009Y-56602904D02*
X215648247Y-56555285D01*
X215648247Y-56555285D02*
X215886342Y-56555285D01*
X215886342Y-56555285D02*
X215981580Y-56602904D01*
X215981580Y-56602904D02*
X216029200Y-56650523D01*
X216029200Y-56650523D02*
X216076819Y-56745761D01*
X216076819Y-56745761D02*
X216076819Y-56983856D01*
X216076819Y-56983856D02*
X216029200Y-57079094D01*
X216029200Y-57079094D02*
X215981580Y-57126713D01*
X152700858Y-82814819D02*
X152343715Y-82814819D01*
X152343715Y-82814819D02*
X152343715Y-81814819D01*
X153058001Y-82814819D02*
X152986572Y-82767200D01*
X152986572Y-82767200D02*
X152950858Y-82719580D01*
X152950858Y-82719580D02*
X152915144Y-82624342D01*
X152915144Y-82624342D02*
X152915144Y-82338628D01*
X152915144Y-82338628D02*
X152950858Y-82243390D01*
X152950858Y-82243390D02*
X152986572Y-82195771D01*
X152986572Y-82195771D02*
X153058001Y-82148152D01*
X153058001Y-82148152D02*
X153165144Y-82148152D01*
X153165144Y-82148152D02*
X153236572Y-82195771D01*
X153236572Y-82195771D02*
X153272287Y-82243390D01*
X153272287Y-82243390D02*
X153308001Y-82338628D01*
X153308001Y-82338628D02*
X153308001Y-82624342D01*
X153308001Y-82624342D02*
X153272287Y-82719580D01*
X153272287Y-82719580D02*
X153236572Y-82767200D01*
X153236572Y-82767200D02*
X153165144Y-82814819D01*
X153165144Y-82814819D02*
X153058001Y-82814819D01*
X153558000Y-82148152D02*
X153700858Y-82814819D01*
X153700858Y-82814819D02*
X153843715Y-82338628D01*
X153843715Y-82338628D02*
X153986572Y-82814819D01*
X153986572Y-82814819D02*
X154129429Y-82148152D01*
X154879429Y-81814819D02*
X155129429Y-82814819D01*
X155129429Y-82814819D02*
X155379429Y-81814819D01*
X155736572Y-82814819D02*
X155665143Y-82767200D01*
X155665143Y-82767200D02*
X155629429Y-82719580D01*
X155629429Y-82719580D02*
X155593715Y-82624342D01*
X155593715Y-82624342D02*
X155593715Y-82338628D01*
X155593715Y-82338628D02*
X155629429Y-82243390D01*
X155629429Y-82243390D02*
X155665143Y-82195771D01*
X155665143Y-82195771D02*
X155736572Y-82148152D01*
X155736572Y-82148152D02*
X155843715Y-82148152D01*
X155843715Y-82148152D02*
X155915143Y-82195771D01*
X155915143Y-82195771D02*
X155950858Y-82243390D01*
X155950858Y-82243390D02*
X155986572Y-82338628D01*
X155986572Y-82338628D02*
X155986572Y-82624342D01*
X155986572Y-82624342D02*
X155950858Y-82719580D01*
X155950858Y-82719580D02*
X155915143Y-82767200D01*
X155915143Y-82767200D02*
X155843715Y-82814819D01*
X155843715Y-82814819D02*
X155736572Y-82814819D01*
X156415143Y-82814819D02*
X156343714Y-82767200D01*
X156343714Y-82767200D02*
X156308000Y-82671961D01*
X156308000Y-82671961D02*
X156308000Y-81814819D01*
X156593714Y-82148152D02*
X156879428Y-82148152D01*
X156700857Y-81814819D02*
X156700857Y-82671961D01*
X156700857Y-82671961D02*
X156736571Y-82767200D01*
X156736571Y-82767200D02*
X156808000Y-82814819D01*
X156808000Y-82814819D02*
X156879428Y-82814819D01*
X157450857Y-82814819D02*
X157450857Y-82291009D01*
X157450857Y-82291009D02*
X157415142Y-82195771D01*
X157415142Y-82195771D02*
X157343714Y-82148152D01*
X157343714Y-82148152D02*
X157200857Y-82148152D01*
X157200857Y-82148152D02*
X157129428Y-82195771D01*
X157450857Y-82767200D02*
X157379428Y-82814819D01*
X157379428Y-82814819D02*
X157200857Y-82814819D01*
X157200857Y-82814819D02*
X157129428Y-82767200D01*
X157129428Y-82767200D02*
X157093714Y-82671961D01*
X157093714Y-82671961D02*
X157093714Y-82576723D01*
X157093714Y-82576723D02*
X157129428Y-82481485D01*
X157129428Y-82481485D02*
X157200857Y-82433866D01*
X157200857Y-82433866D02*
X157379428Y-82433866D01*
X157379428Y-82433866D02*
X157450857Y-82386247D01*
X158129428Y-82148152D02*
X158129428Y-82957676D01*
X158129428Y-82957676D02*
X158093713Y-83052914D01*
X158093713Y-83052914D02*
X158057999Y-83100533D01*
X158057999Y-83100533D02*
X157986570Y-83148152D01*
X157986570Y-83148152D02*
X157879428Y-83148152D01*
X157879428Y-83148152D02*
X157807999Y-83100533D01*
X158129428Y-82767200D02*
X158057999Y-82814819D01*
X158057999Y-82814819D02*
X157915142Y-82814819D01*
X157915142Y-82814819D02*
X157843713Y-82767200D01*
X157843713Y-82767200D02*
X157807999Y-82719580D01*
X157807999Y-82719580D02*
X157772285Y-82624342D01*
X157772285Y-82624342D02*
X157772285Y-82338628D01*
X157772285Y-82338628D02*
X157807999Y-82243390D01*
X157807999Y-82243390D02*
X157843713Y-82195771D01*
X157843713Y-82195771D02*
X157915142Y-82148152D01*
X157915142Y-82148152D02*
X158057999Y-82148152D01*
X158057999Y-82148152D02*
X158129428Y-82195771D01*
X158772284Y-82767200D02*
X158700856Y-82814819D01*
X158700856Y-82814819D02*
X158557999Y-82814819D01*
X158557999Y-82814819D02*
X158486570Y-82767200D01*
X158486570Y-82767200D02*
X158450856Y-82671961D01*
X158450856Y-82671961D02*
X158450856Y-82291009D01*
X158450856Y-82291009D02*
X158486570Y-82195771D01*
X158486570Y-82195771D02*
X158557999Y-82148152D01*
X158557999Y-82148152D02*
X158700856Y-82148152D01*
X158700856Y-82148152D02*
X158772284Y-82195771D01*
X158772284Y-82195771D02*
X158807999Y-82291009D01*
X158807999Y-82291009D02*
X158807999Y-82386247D01*
X158807999Y-82386247D02*
X158450856Y-82481485D01*
X170604819Y-62422666D02*
X170128628Y-62755999D01*
X170604819Y-62994094D02*
X169604819Y-62994094D01*
X169604819Y-62994094D02*
X169604819Y-62613142D01*
X169604819Y-62613142D02*
X169652438Y-62517904D01*
X169652438Y-62517904D02*
X169700057Y-62470285D01*
X169700057Y-62470285D02*
X169795295Y-62422666D01*
X169795295Y-62422666D02*
X169938152Y-62422666D01*
X169938152Y-62422666D02*
X170033390Y-62470285D01*
X170033390Y-62470285D02*
X170081009Y-62517904D01*
X170081009Y-62517904D02*
X170128628Y-62613142D01*
X170128628Y-62613142D02*
X170128628Y-62994094D01*
X169604819Y-62089332D02*
X169604819Y-61470285D01*
X169604819Y-61470285D02*
X169985771Y-61803618D01*
X169985771Y-61803618D02*
X169985771Y-61660761D01*
X169985771Y-61660761D02*
X170033390Y-61565523D01*
X170033390Y-61565523D02*
X170081009Y-61517904D01*
X170081009Y-61517904D02*
X170176247Y-61470285D01*
X170176247Y-61470285D02*
X170414342Y-61470285D01*
X170414342Y-61470285D02*
X170509580Y-61517904D01*
X170509580Y-61517904D02*
X170557200Y-61565523D01*
X170557200Y-61565523D02*
X170604819Y-61660761D01*
X170604819Y-61660761D02*
X170604819Y-61946475D01*
X170604819Y-61946475D02*
X170557200Y-62041713D01*
X170557200Y-62041713D02*
X170509580Y-62089332D01*
X226894048Y-45873819D02*
X227046429Y-45873819D01*
X227046429Y-45873819D02*
X227122619Y-45921438D01*
X227122619Y-45921438D02*
X227198810Y-46016676D01*
X227198810Y-46016676D02*
X227236905Y-46207152D01*
X227236905Y-46207152D02*
X227236905Y-46540485D01*
X227236905Y-46540485D02*
X227198810Y-46730961D01*
X227198810Y-46730961D02*
X227122619Y-46826200D01*
X227122619Y-46826200D02*
X227046429Y-46873819D01*
X227046429Y-46873819D02*
X226894048Y-46873819D01*
X226894048Y-46873819D02*
X226817857Y-46826200D01*
X226817857Y-46826200D02*
X226741667Y-46730961D01*
X226741667Y-46730961D02*
X226703571Y-46540485D01*
X226703571Y-46540485D02*
X226703571Y-46207152D01*
X226703571Y-46207152D02*
X226741667Y-46016676D01*
X226741667Y-46016676D02*
X226817857Y-45921438D01*
X226817857Y-45921438D02*
X226894048Y-45873819D01*
X227579762Y-45873819D02*
X227579762Y-46683342D01*
X227579762Y-46683342D02*
X227617857Y-46778580D01*
X227617857Y-46778580D02*
X227655952Y-46826200D01*
X227655952Y-46826200D02*
X227732143Y-46873819D01*
X227732143Y-46873819D02*
X227884524Y-46873819D01*
X227884524Y-46873819D02*
X227960714Y-46826200D01*
X227960714Y-46826200D02*
X227998809Y-46778580D01*
X227998809Y-46778580D02*
X228036905Y-46683342D01*
X228036905Y-46683342D02*
X228036905Y-45873819D01*
X228303571Y-45873819D02*
X228760714Y-45873819D01*
X228532142Y-46873819D02*
X228532142Y-45873819D01*
X228989285Y-45969057D02*
X229027381Y-45921438D01*
X229027381Y-45921438D02*
X229103571Y-45873819D01*
X229103571Y-45873819D02*
X229294047Y-45873819D01*
X229294047Y-45873819D02*
X229370238Y-45921438D01*
X229370238Y-45921438D02*
X229408333Y-45969057D01*
X229408333Y-45969057D02*
X229446428Y-46064295D01*
X229446428Y-46064295D02*
X229446428Y-46159533D01*
X229446428Y-46159533D02*
X229408333Y-46302390D01*
X229408333Y-46302390D02*
X228951190Y-46873819D01*
X228951190Y-46873819D02*
X229446428Y-46873819D01*
X152724333Y-73797819D02*
X152391000Y-73321628D01*
X152152905Y-73797819D02*
X152152905Y-72797819D01*
X152152905Y-72797819D02*
X152533857Y-72797819D01*
X152533857Y-72797819D02*
X152629095Y-72845438D01*
X152629095Y-72845438D02*
X152676714Y-72893057D01*
X152676714Y-72893057D02*
X152724333Y-72988295D01*
X152724333Y-72988295D02*
X152724333Y-73131152D01*
X152724333Y-73131152D02*
X152676714Y-73226390D01*
X152676714Y-73226390D02*
X152629095Y-73274009D01*
X152629095Y-73274009D02*
X152533857Y-73321628D01*
X152533857Y-73321628D02*
X152152905Y-73321628D01*
X153295762Y-73226390D02*
X153200524Y-73178771D01*
X153200524Y-73178771D02*
X153152905Y-73131152D01*
X153152905Y-73131152D02*
X153105286Y-73035914D01*
X153105286Y-73035914D02*
X153105286Y-72988295D01*
X153105286Y-72988295D02*
X153152905Y-72893057D01*
X153152905Y-72893057D02*
X153200524Y-72845438D01*
X153200524Y-72845438D02*
X153295762Y-72797819D01*
X153295762Y-72797819D02*
X153486238Y-72797819D01*
X153486238Y-72797819D02*
X153581476Y-72845438D01*
X153581476Y-72845438D02*
X153629095Y-72893057D01*
X153629095Y-72893057D02*
X153676714Y-72988295D01*
X153676714Y-72988295D02*
X153676714Y-73035914D01*
X153676714Y-73035914D02*
X153629095Y-73131152D01*
X153629095Y-73131152D02*
X153581476Y-73178771D01*
X153581476Y-73178771D02*
X153486238Y-73226390D01*
X153486238Y-73226390D02*
X153295762Y-73226390D01*
X153295762Y-73226390D02*
X153200524Y-73274009D01*
X153200524Y-73274009D02*
X153152905Y-73321628D01*
X153152905Y-73321628D02*
X153105286Y-73416866D01*
X153105286Y-73416866D02*
X153105286Y-73607342D01*
X153105286Y-73607342D02*
X153152905Y-73702580D01*
X153152905Y-73702580D02*
X153200524Y-73750200D01*
X153200524Y-73750200D02*
X153295762Y-73797819D01*
X153295762Y-73797819D02*
X153486238Y-73797819D01*
X153486238Y-73797819D02*
X153581476Y-73750200D01*
X153581476Y-73750200D02*
X153629095Y-73702580D01*
X153629095Y-73702580D02*
X153676714Y-73607342D01*
X153676714Y-73607342D02*
X153676714Y-73416866D01*
X153676714Y-73416866D02*
X153629095Y-73321628D01*
X153629095Y-73321628D02*
X153581476Y-73274009D01*
X153581476Y-73274009D02*
X153486238Y-73226390D01*
X230491428Y-46254819D02*
X230491428Y-47064342D01*
X230491428Y-47064342D02*
X230539047Y-47159580D01*
X230539047Y-47159580D02*
X230586666Y-47207200D01*
X230586666Y-47207200D02*
X230681904Y-47254819D01*
X230681904Y-47254819D02*
X230872380Y-47254819D01*
X230872380Y-47254819D02*
X230967618Y-47207200D01*
X230967618Y-47207200D02*
X231015237Y-47159580D01*
X231015237Y-47159580D02*
X231062856Y-47064342D01*
X231062856Y-47064342D02*
X231062856Y-46254819D01*
X231491428Y-47207200D02*
X231586666Y-47254819D01*
X231586666Y-47254819D02*
X231777142Y-47254819D01*
X231777142Y-47254819D02*
X231872380Y-47207200D01*
X231872380Y-47207200D02*
X231919999Y-47111961D01*
X231919999Y-47111961D02*
X231919999Y-47064342D01*
X231919999Y-47064342D02*
X231872380Y-46969104D01*
X231872380Y-46969104D02*
X231777142Y-46921485D01*
X231777142Y-46921485D02*
X231634285Y-46921485D01*
X231634285Y-46921485D02*
X231539047Y-46873866D01*
X231539047Y-46873866D02*
X231491428Y-46778628D01*
X231491428Y-46778628D02*
X231491428Y-46731009D01*
X231491428Y-46731009D02*
X231539047Y-46635771D01*
X231539047Y-46635771D02*
X231634285Y-46588152D01*
X231634285Y-46588152D02*
X231777142Y-46588152D01*
X231777142Y-46588152D02*
X231872380Y-46635771D01*
X232729523Y-47207200D02*
X232634285Y-47254819D01*
X232634285Y-47254819D02*
X232443809Y-47254819D01*
X232443809Y-47254819D02*
X232348571Y-47207200D01*
X232348571Y-47207200D02*
X232300952Y-47111961D01*
X232300952Y-47111961D02*
X232300952Y-46731009D01*
X232300952Y-46731009D02*
X232348571Y-46635771D01*
X232348571Y-46635771D02*
X232443809Y-46588152D01*
X232443809Y-46588152D02*
X232634285Y-46588152D01*
X232634285Y-46588152D02*
X232729523Y-46635771D01*
X232729523Y-46635771D02*
X232777142Y-46731009D01*
X232777142Y-46731009D02*
X232777142Y-46826247D01*
X232777142Y-46826247D02*
X232300952Y-46921485D01*
X233205714Y-47254819D02*
X233205714Y-46588152D01*
X233205714Y-46778628D02*
X233253333Y-46683390D01*
X233253333Y-46683390D02*
X233300952Y-46635771D01*
X233300952Y-46635771D02*
X233396190Y-46588152D01*
X233396190Y-46588152D02*
X233491428Y-46588152D01*
X157952000Y-38507819D02*
X158085333Y-38507819D01*
X158085333Y-38507819D02*
X158152000Y-38555438D01*
X158152000Y-38555438D02*
X158218666Y-38650676D01*
X158218666Y-38650676D02*
X158252000Y-38841152D01*
X158252000Y-38841152D02*
X158252000Y-39174485D01*
X158252000Y-39174485D02*
X158218666Y-39364961D01*
X158218666Y-39364961D02*
X158152000Y-39460200D01*
X158152000Y-39460200D02*
X158085333Y-39507819D01*
X158085333Y-39507819D02*
X157952000Y-39507819D01*
X157952000Y-39507819D02*
X157885333Y-39460200D01*
X157885333Y-39460200D02*
X157818666Y-39364961D01*
X157818666Y-39364961D02*
X157785333Y-39174485D01*
X157785333Y-39174485D02*
X157785333Y-38841152D01*
X157785333Y-38841152D02*
X157818666Y-38650676D01*
X157818666Y-38650676D02*
X157885333Y-38555438D01*
X157885333Y-38555438D02*
X157952000Y-38507819D01*
X158518666Y-38603057D02*
X158551999Y-38555438D01*
X158551999Y-38555438D02*
X158618666Y-38507819D01*
X158618666Y-38507819D02*
X158785333Y-38507819D01*
X158785333Y-38507819D02*
X158851999Y-38555438D01*
X158851999Y-38555438D02*
X158885333Y-38603057D01*
X158885333Y-38603057D02*
X158918666Y-38698295D01*
X158918666Y-38698295D02*
X158918666Y-38793533D01*
X158918666Y-38793533D02*
X158885333Y-38936390D01*
X158885333Y-38936390D02*
X158485333Y-39507819D01*
X158485333Y-39507819D02*
X158918666Y-39507819D01*
X214152666Y-75718819D02*
X214152666Y-76433104D01*
X214152666Y-76433104D02*
X214105047Y-76575961D01*
X214105047Y-76575961D02*
X214009809Y-76671200D01*
X214009809Y-76671200D02*
X213866952Y-76718819D01*
X213866952Y-76718819D02*
X213771714Y-76718819D01*
X215057428Y-75718819D02*
X214866952Y-75718819D01*
X214866952Y-75718819D02*
X214771714Y-75766438D01*
X214771714Y-75766438D02*
X214724095Y-75814057D01*
X214724095Y-75814057D02*
X214628857Y-75956914D01*
X214628857Y-75956914D02*
X214581238Y-76147390D01*
X214581238Y-76147390D02*
X214581238Y-76528342D01*
X214581238Y-76528342D02*
X214628857Y-76623580D01*
X214628857Y-76623580D02*
X214676476Y-76671200D01*
X214676476Y-76671200D02*
X214771714Y-76718819D01*
X214771714Y-76718819D02*
X214962190Y-76718819D01*
X214962190Y-76718819D02*
X215057428Y-76671200D01*
X215057428Y-76671200D02*
X215105047Y-76623580D01*
X215105047Y-76623580D02*
X215152666Y-76528342D01*
X215152666Y-76528342D02*
X215152666Y-76290247D01*
X215152666Y-76290247D02*
X215105047Y-76195009D01*
X215105047Y-76195009D02*
X215057428Y-76147390D01*
X215057428Y-76147390D02*
X214962190Y-76099771D01*
X214962190Y-76099771D02*
X214771714Y-76099771D01*
X214771714Y-76099771D02*
X214676476Y-76147390D01*
X214676476Y-76147390D02*
X214628857Y-76195009D01*
X214628857Y-76195009D02*
X214581238Y-76290247D01*
X221685333Y-78655580D02*
X221637714Y-78703200D01*
X221637714Y-78703200D02*
X221494857Y-78750819D01*
X221494857Y-78750819D02*
X221399619Y-78750819D01*
X221399619Y-78750819D02*
X221256762Y-78703200D01*
X221256762Y-78703200D02*
X221161524Y-78607961D01*
X221161524Y-78607961D02*
X221113905Y-78512723D01*
X221113905Y-78512723D02*
X221066286Y-78322247D01*
X221066286Y-78322247D02*
X221066286Y-78179390D01*
X221066286Y-78179390D02*
X221113905Y-77988914D01*
X221113905Y-77988914D02*
X221161524Y-77893676D01*
X221161524Y-77893676D02*
X221256762Y-77798438D01*
X221256762Y-77798438D02*
X221399619Y-77750819D01*
X221399619Y-77750819D02*
X221494857Y-77750819D01*
X221494857Y-77750819D02*
X221637714Y-77798438D01*
X221637714Y-77798438D02*
X221685333Y-77846057D01*
X222542476Y-78084152D02*
X222542476Y-78750819D01*
X222304381Y-77703200D02*
X222066286Y-78417485D01*
X222066286Y-78417485D02*
X222685333Y-78417485D01*
X153469048Y-81544819D02*
X153469048Y-80544819D01*
X153469048Y-80544819D02*
X153773810Y-80544819D01*
X153773810Y-80544819D02*
X153850000Y-80592438D01*
X153850000Y-80592438D02*
X153888095Y-80640057D01*
X153888095Y-80640057D02*
X153926191Y-80735295D01*
X153926191Y-80735295D02*
X153926191Y-80878152D01*
X153926191Y-80878152D02*
X153888095Y-80973390D01*
X153888095Y-80973390D02*
X153850000Y-81021009D01*
X153850000Y-81021009D02*
X153773810Y-81068628D01*
X153773810Y-81068628D02*
X153469048Y-81068628D01*
X154383333Y-81544819D02*
X154307143Y-81497200D01*
X154307143Y-81497200D02*
X154269048Y-81449580D01*
X154269048Y-81449580D02*
X154230952Y-81354342D01*
X154230952Y-81354342D02*
X154230952Y-81068628D01*
X154230952Y-81068628D02*
X154269048Y-80973390D01*
X154269048Y-80973390D02*
X154307143Y-80925771D01*
X154307143Y-80925771D02*
X154383333Y-80878152D01*
X154383333Y-80878152D02*
X154497619Y-80878152D01*
X154497619Y-80878152D02*
X154573810Y-80925771D01*
X154573810Y-80925771D02*
X154611905Y-80973390D01*
X154611905Y-80973390D02*
X154650000Y-81068628D01*
X154650000Y-81068628D02*
X154650000Y-81354342D01*
X154650000Y-81354342D02*
X154611905Y-81449580D01*
X154611905Y-81449580D02*
X154573810Y-81497200D01*
X154573810Y-81497200D02*
X154497619Y-81544819D01*
X154497619Y-81544819D02*
X154383333Y-81544819D01*
X154916667Y-80878152D02*
X155069048Y-81544819D01*
X155069048Y-81544819D02*
X155221429Y-81068628D01*
X155221429Y-81068628D02*
X155373810Y-81544819D01*
X155373810Y-81544819D02*
X155526191Y-80878152D01*
X156135715Y-81497200D02*
X156059524Y-81544819D01*
X156059524Y-81544819D02*
X155907143Y-81544819D01*
X155907143Y-81544819D02*
X155830953Y-81497200D01*
X155830953Y-81497200D02*
X155792857Y-81401961D01*
X155792857Y-81401961D02*
X155792857Y-81021009D01*
X155792857Y-81021009D02*
X155830953Y-80925771D01*
X155830953Y-80925771D02*
X155907143Y-80878152D01*
X155907143Y-80878152D02*
X156059524Y-80878152D01*
X156059524Y-80878152D02*
X156135715Y-80925771D01*
X156135715Y-80925771D02*
X156173810Y-81021009D01*
X156173810Y-81021009D02*
X156173810Y-81116247D01*
X156173810Y-81116247D02*
X155792857Y-81211485D01*
X156516667Y-81544819D02*
X156516667Y-80878152D01*
X156516667Y-81068628D02*
X156554762Y-80973390D01*
X156554762Y-80973390D02*
X156592857Y-80925771D01*
X156592857Y-80925771D02*
X156669048Y-80878152D01*
X156669048Y-80878152D02*
X156745238Y-80878152D01*
X159709333Y-82310819D02*
X159376000Y-81834628D01*
X159137905Y-82310819D02*
X159137905Y-81310819D01*
X159137905Y-81310819D02*
X159518857Y-81310819D01*
X159518857Y-81310819D02*
X159614095Y-81358438D01*
X159614095Y-81358438D02*
X159661714Y-81406057D01*
X159661714Y-81406057D02*
X159709333Y-81501295D01*
X159709333Y-81501295D02*
X159709333Y-81644152D01*
X159709333Y-81644152D02*
X159661714Y-81739390D01*
X159661714Y-81739390D02*
X159614095Y-81787009D01*
X159614095Y-81787009D02*
X159518857Y-81834628D01*
X159518857Y-81834628D02*
X159137905Y-81834628D01*
X160185524Y-82310819D02*
X160376000Y-82310819D01*
X160376000Y-82310819D02*
X160471238Y-82263200D01*
X160471238Y-82263200D02*
X160518857Y-82215580D01*
X160518857Y-82215580D02*
X160614095Y-82072723D01*
X160614095Y-82072723D02*
X160661714Y-81882247D01*
X160661714Y-81882247D02*
X160661714Y-81501295D01*
X160661714Y-81501295D02*
X160614095Y-81406057D01*
X160614095Y-81406057D02*
X160566476Y-81358438D01*
X160566476Y-81358438D02*
X160471238Y-81310819D01*
X160471238Y-81310819D02*
X160280762Y-81310819D01*
X160280762Y-81310819D02*
X160185524Y-81358438D01*
X160185524Y-81358438D02*
X160137905Y-81406057D01*
X160137905Y-81406057D02*
X160090286Y-81501295D01*
X160090286Y-81501295D02*
X160090286Y-81739390D01*
X160090286Y-81739390D02*
X160137905Y-81834628D01*
X160137905Y-81834628D02*
X160185524Y-81882247D01*
X160185524Y-81882247D02*
X160280762Y-81929866D01*
X160280762Y-81929866D02*
X160471238Y-81929866D01*
X160471238Y-81929866D02*
X160566476Y-81882247D01*
X160566476Y-81882247D02*
X160614095Y-81834628D01*
X160614095Y-81834628D02*
X160661714Y-81739390D01*
X213071319Y-68516904D02*
X213880842Y-68516904D01*
X213880842Y-68516904D02*
X213976080Y-68469285D01*
X213976080Y-68469285D02*
X214023700Y-68421666D01*
X214023700Y-68421666D02*
X214071319Y-68326428D01*
X214071319Y-68326428D02*
X214071319Y-68135952D01*
X214071319Y-68135952D02*
X214023700Y-68040714D01*
X214023700Y-68040714D02*
X213976080Y-67993095D01*
X213976080Y-67993095D02*
X213880842Y-67945476D01*
X213880842Y-67945476D02*
X213071319Y-67945476D01*
X214071319Y-66945476D02*
X214071319Y-67516904D01*
X214071319Y-67231190D02*
X213071319Y-67231190D01*
X213071319Y-67231190D02*
X213214176Y-67326428D01*
X213214176Y-67326428D02*
X213309414Y-67421666D01*
X213309414Y-67421666D02*
X213357033Y-67516904D01*
D13*
%TO.C,OUT1*%
X167634000Y-37846000D02*
X167634000Y-39096000D01*
X167934000Y-38146000D02*
X167934000Y-44766000D01*
X167934000Y-41456000D02*
X168944000Y-41456000D01*
X167934000Y-44766000D02*
X175654000Y-44766000D01*
X168884000Y-37846000D02*
X167634000Y-37846000D01*
X168944000Y-39756000D02*
X168944000Y-44056000D01*
X168944000Y-44056000D02*
X174644000Y-44056000D01*
X170194000Y-38146000D02*
X167934000Y-38146000D01*
X170194000Y-39146000D02*
X170194000Y-38146000D01*
X171394000Y-38546000D02*
X171394000Y-39146000D01*
X171394000Y-39146000D02*
X170194000Y-39146000D01*
X172194000Y-38546000D02*
X171394000Y-38546000D01*
X172194000Y-39146000D02*
X172194000Y-38546000D01*
X173394000Y-38146000D02*
X173394000Y-39146000D01*
X173394000Y-39146000D02*
X172194000Y-39146000D01*
X174644000Y-39756000D02*
X168944000Y-39756000D01*
X174644000Y-44056000D02*
X174644000Y-39756000D01*
X175654000Y-38146000D02*
X173394000Y-38146000D01*
X175654000Y-41456000D02*
X174644000Y-41456000D01*
X175654000Y-44766000D02*
X175654000Y-38146000D01*
%TO.C,J2*%
X160578000Y-91444000D02*
X160578000Y-94104000D01*
X163178000Y-91444000D02*
X160578000Y-91444000D01*
X163178000Y-91444000D02*
X163178000Y-94104000D01*
X163178000Y-94104000D02*
X160578000Y-94104000D01*
X164448000Y-91444000D02*
X165778000Y-91444000D01*
X165778000Y-91444000D02*
X165778000Y-92774000D01*
D14*
%TO.C,U8*%
X226930454Y-81780812D02*
X226085673Y-81780812D01*
X227206501Y-78859857D02*
X225809524Y-78859807D01*
X227397027Y-80002860D02*
X227397027Y-80764810D01*
D15*
X224648208Y-79423611D02*
G75*
G02*
X224347980Y-79423611I-150114J0D01*
G01*
X224347980Y-79423611D02*
G75*
G02*
X224648208Y-79423611I150114J0D01*
G01*
D16*
X225137997Y-78933619D02*
G75*
G02*
X225078053Y-78933619I-29972J0D01*
G01*
X225078053Y-78933619D02*
G75*
G02*
X225137997Y-78933619I29972J0D01*
G01*
D13*
%TO.C,Em2*%
X151810000Y-60953000D02*
X151810000Y-62203000D01*
X151810000Y-62203000D02*
X153060000Y-62203000D01*
X152110000Y-54183000D02*
X152110000Y-56443000D01*
X152110000Y-56443000D02*
X153110000Y-56443000D01*
X152110000Y-59643000D02*
X152110000Y-61903000D01*
X152110000Y-61903000D02*
X158730000Y-61903000D01*
X152510000Y-57643000D02*
X152510000Y-58443000D01*
X152510000Y-58443000D02*
X153110000Y-58443000D01*
X153110000Y-56443000D02*
X153110000Y-57643000D01*
X153110000Y-57643000D02*
X152510000Y-57643000D01*
X153110000Y-58443000D02*
X153110000Y-59643000D01*
X153110000Y-59643000D02*
X152110000Y-59643000D01*
X153720000Y-55193000D02*
X153720000Y-60893000D01*
X153720000Y-60893000D02*
X158020000Y-60893000D01*
X155420000Y-54183000D02*
X155420000Y-55193000D01*
X155420000Y-61903000D02*
X155420000Y-60893000D01*
X158020000Y-55193000D02*
X153720000Y-55193000D01*
X158020000Y-60893000D02*
X158020000Y-55193000D01*
X158730000Y-54183000D02*
X152110000Y-54183000D01*
X158730000Y-61903000D02*
X158730000Y-54183000D01*
%TO.C,R2*%
X155752776Y-64311500D02*
X156262224Y-64311500D01*
X155752776Y-65356500D02*
X156262224Y-65356500D01*
%TO.C,Vcc*%
X167980000Y-85916000D02*
G75*
G02*
X164980000Y-85916000I-1500000J0D01*
G01*
X164980000Y-85916000D02*
G75*
G02*
X167980000Y-85916000I1500000J0D01*
G01*
%TO.C,U6*%
X221493000Y-47569000D02*
X221493000Y-49219000D01*
X221493000Y-51219000D02*
X221493000Y-52869000D01*
X221493000Y-52869000D02*
X226693000Y-52869000D01*
X226693000Y-47569000D02*
X221493000Y-47569000D01*
X226693000Y-52869000D02*
X226693000Y-47569000D01*
X221493000Y-49219000D02*
G75*
G02*
X221493000Y-51219000I0J-1000000D01*
G01*
%TO.C,J13*%
X167974000Y-89464000D02*
X167974000Y-96084000D01*
X167974000Y-92774000D02*
X168984000Y-92774000D01*
X167974000Y-96084000D02*
X170234000Y-96084000D01*
X168984000Y-90174000D02*
X168984000Y-94474000D01*
X168984000Y-94474000D02*
X174684000Y-94474000D01*
X170234000Y-95084000D02*
X171434000Y-95084000D01*
X170234000Y-96084000D02*
X170234000Y-95084000D01*
X171434000Y-95084000D02*
X171434000Y-95684000D01*
X171434000Y-95684000D02*
X172234000Y-95684000D01*
X172234000Y-95084000D02*
X173434000Y-95084000D01*
X172234000Y-95684000D02*
X172234000Y-95084000D01*
X173434000Y-95084000D02*
X173434000Y-96084000D01*
X173434000Y-96084000D02*
X175694000Y-96084000D01*
X174684000Y-90174000D02*
X168984000Y-90174000D01*
X174684000Y-94474000D02*
X174684000Y-90174000D01*
X174744000Y-96384000D02*
X175994000Y-96384000D01*
X175694000Y-89464000D02*
X167974000Y-89464000D01*
X175694000Y-92774000D02*
X174684000Y-92774000D01*
X175694000Y-96084000D02*
X175694000Y-89464000D01*
X175994000Y-96384000D02*
X175994000Y-95134000D01*
%TO.C,OUT1*%
X211322000Y-37983000D02*
X211322000Y-39233000D01*
X211622000Y-38283000D02*
X211622000Y-44903000D01*
X211622000Y-41593000D02*
X212632000Y-41593000D01*
X211622000Y-44903000D02*
X219342000Y-44903000D01*
X212572000Y-37983000D02*
X211322000Y-37983000D01*
X212632000Y-39893000D02*
X212632000Y-44193000D01*
X212632000Y-44193000D02*
X218332000Y-44193000D01*
X213882000Y-38283000D02*
X211622000Y-38283000D01*
X213882000Y-39283000D02*
X213882000Y-38283000D01*
X215082000Y-38683000D02*
X215082000Y-39283000D01*
X215082000Y-39283000D02*
X213882000Y-39283000D01*
X215882000Y-38683000D02*
X215082000Y-38683000D01*
X215882000Y-39283000D02*
X215882000Y-38683000D01*
X217082000Y-38283000D02*
X217082000Y-39283000D01*
X217082000Y-39283000D02*
X215882000Y-39283000D01*
X218332000Y-39893000D02*
X212632000Y-39893000D01*
X218332000Y-44193000D02*
X218332000Y-39893000D01*
X219342000Y-38283000D02*
X217082000Y-38283000D01*
X219342000Y-41593000D02*
X218332000Y-41593000D01*
X219342000Y-44903000D02*
X219342000Y-38283000D01*
D14*
%TO.C,U7*%
X158959548Y-85502565D02*
X158959498Y-86899542D01*
X160102551Y-85312039D02*
X160864501Y-85312039D01*
X161880503Y-85778612D02*
X161880503Y-86623393D01*
D16*
X159063282Y-87601041D02*
G75*
G02*
X159003338Y-87601041I-29972J0D01*
G01*
X159003338Y-87601041D02*
G75*
G02*
X159063282Y-87601041I29972J0D01*
G01*
D15*
X159673416Y-88210972D02*
G75*
G02*
X159373188Y-88210972I-150114J0D01*
G01*
X159373188Y-88210972D02*
G75*
G02*
X159673416Y-88210972I150114J0D01*
G01*
D13*
%TO.C,U4*%
X161594000Y-52532000D02*
X161594000Y-54182000D01*
X161594000Y-56182000D02*
X161594000Y-57832000D01*
X161594000Y-57832000D02*
X166794000Y-57832000D01*
X166794000Y-52532000D02*
X161594000Y-52532000D01*
X166794000Y-57832000D02*
X166794000Y-52532000D01*
X161594000Y-54182000D02*
G75*
G02*
X161594000Y-56182000I0J-1000000D01*
G01*
%TO.C,Vcc*%
X229820000Y-57956000D02*
G75*
G02*
X226820000Y-57956000I-1500000J0D01*
G01*
X226820000Y-57956000D02*
G75*
G02*
X229820000Y-57956000I1500000J0D01*
G01*
%TO.C,R4*%
X162397500Y-62001276D02*
X162397500Y-62510724D01*
X163442500Y-62001276D02*
X163442500Y-62510724D01*
%TO.C,J1*%
D12*
X210020000Y-37756000D02*
X177220000Y-37756000D01*
X177220000Y-96556000D01*
X210020000Y-96556000D01*
X210020000Y-37756000D01*
D13*
%TO.C,Em2*%
X220131000Y-89591000D02*
X220131000Y-96211000D01*
X220131000Y-92901000D02*
X221141000Y-92901000D01*
X220131000Y-96211000D02*
X222391000Y-96211000D01*
X221141000Y-90301000D02*
X221141000Y-94601000D01*
X221141000Y-94601000D02*
X226841000Y-94601000D01*
X222391000Y-95211000D02*
X223591000Y-95211000D01*
X222391000Y-96211000D02*
X222391000Y-95211000D01*
X223591000Y-95211000D02*
X223591000Y-95811000D01*
X223591000Y-95811000D02*
X224391000Y-95811000D01*
X224391000Y-95211000D02*
X225591000Y-95211000D01*
X224391000Y-95811000D02*
X224391000Y-95211000D01*
X225591000Y-95211000D02*
X225591000Y-96211000D01*
X225591000Y-96211000D02*
X227851000Y-96211000D01*
X226841000Y-90301000D02*
X221141000Y-90301000D01*
X226841000Y-94601000D02*
X226841000Y-90301000D01*
X226901000Y-96511000D02*
X228151000Y-96511000D01*
X227851000Y-89591000D02*
X220131000Y-89591000D01*
X227851000Y-92901000D02*
X226841000Y-92901000D01*
X227851000Y-96211000D02*
X227851000Y-89591000D01*
X228151000Y-96511000D02*
X228151000Y-95261000D01*
%TO.C,U3*%
X167309000Y-52532000D02*
X167309000Y-54182000D01*
X167309000Y-56182000D02*
X167309000Y-57832000D01*
X167309000Y-57832000D02*
X172509000Y-57832000D01*
X172509000Y-52532000D02*
X167309000Y-52532000D01*
X172509000Y-57832000D02*
X172509000Y-52532000D01*
X167309000Y-54182000D02*
G75*
G02*
X167309000Y-56182000I0J-1000000D01*
G01*
%TO.C,U2*%
X160980000Y-45724000D02*
X160980000Y-81404000D01*
X160980000Y-81404000D02*
X166440000Y-81404000D01*
X168440000Y-81404000D02*
X173900000Y-81404000D01*
X173900000Y-45724000D02*
X160980000Y-45724000D01*
X173900000Y-81404000D02*
X173900000Y-45724000D01*
X166440000Y-81404000D02*
G75*
G02*
X168440000Y-81404000I1000000J0D01*
G01*
%TO.C,GND*%
X234820000Y-57956000D02*
G75*
G02*
X231820000Y-57956000I-1500000J0D01*
G01*
X231820000Y-57956000D02*
G75*
G02*
X234820000Y-57956000I1500000J0D01*
G01*
%TO.C,Em1*%
X211611200Y-89591000D02*
X211611200Y-96211000D01*
X211611200Y-92901000D02*
X212621200Y-92901000D01*
X211611200Y-96211000D02*
X213871200Y-96211000D01*
X212621200Y-90301000D02*
X212621200Y-94601000D01*
X212621200Y-94601000D02*
X218321200Y-94601000D01*
X213871200Y-95211000D02*
X215071200Y-95211000D01*
X213871200Y-96211000D02*
X213871200Y-95211000D01*
X215071200Y-95211000D02*
X215071200Y-95811000D01*
X215071200Y-95811000D02*
X215871200Y-95811000D01*
X215871200Y-95211000D02*
X217071200Y-95211000D01*
X215871200Y-95811000D02*
X215871200Y-95211000D01*
X217071200Y-95211000D02*
X217071200Y-96211000D01*
X217071200Y-96211000D02*
X219331200Y-96211000D01*
X218321200Y-90301000D02*
X212621200Y-90301000D01*
X218321200Y-94601000D02*
X218321200Y-90301000D01*
X218381200Y-96511000D02*
X219631200Y-96511000D01*
X219331200Y-89591000D02*
X211611200Y-89591000D01*
X219331200Y-92901000D02*
X218321200Y-92901000D01*
X219331200Y-96211000D02*
X219331200Y-89591000D01*
X219631200Y-96511000D02*
X219631200Y-95261000D01*
%TO.C,U5*%
X212857000Y-47569000D02*
X212857000Y-49219000D01*
X212857000Y-51219000D02*
X212857000Y-52869000D01*
X212857000Y-52869000D02*
X218057000Y-52869000D01*
X218057000Y-47569000D02*
X212857000Y-47569000D01*
X218057000Y-52869000D02*
X218057000Y-47569000D01*
X212857000Y-49219000D02*
G75*
G02*
X212857000Y-51219000I0J-1000000D01*
G01*
%TO.C,User*%
X153475000Y-71669666D02*
X156565000Y-71669666D01*
X153475170Y-71669666D02*
G75*
G02*
X155019952Y-66119666I1544830J2560000D01*
G01*
X155020048Y-66119666D02*
G75*
G02*
X156564830Y-71669666I-48J-2990000D01*
G01*
X157520000Y-69109666D02*
G75*
G02*
X152520000Y-69109666I-2500000J0D01*
G01*
X152520000Y-69109666D02*
G75*
G02*
X157520000Y-69109666I2500000J0D01*
G01*
%TO.C,Em1*%
X151810000Y-52357000D02*
X151810000Y-53607000D01*
X151810000Y-53607000D02*
X153060000Y-53607000D01*
X152110000Y-45587000D02*
X152110000Y-47847000D01*
X152110000Y-47847000D02*
X153110000Y-47847000D01*
X152110000Y-51047000D02*
X152110000Y-53307000D01*
X152110000Y-53307000D02*
X158730000Y-53307000D01*
X152510000Y-49047000D02*
X152510000Y-49847000D01*
X152510000Y-49847000D02*
X153110000Y-49847000D01*
X153110000Y-47847000D02*
X153110000Y-49047000D01*
X153110000Y-49047000D02*
X152510000Y-49047000D01*
X153110000Y-49847000D02*
X153110000Y-51047000D01*
X153110000Y-51047000D02*
X152110000Y-51047000D01*
X153720000Y-46597000D02*
X153720000Y-52297000D01*
X153720000Y-52297000D02*
X158020000Y-52297000D01*
X155420000Y-45587000D02*
X155420000Y-46597000D01*
X155420000Y-53307000D02*
X155420000Y-52297000D01*
X158020000Y-46597000D02*
X153720000Y-46597000D01*
X158020000Y-52297000D02*
X158020000Y-46597000D01*
X158730000Y-45587000D02*
X152110000Y-45587000D01*
X158730000Y-53307000D02*
X158730000Y-45587000D01*
%TO.C,GND*%
X172425000Y-85916000D02*
G75*
G02*
X169425000Y-85916000I-1500000J0D01*
G01*
X169425000Y-85916000D02*
G75*
G02*
X172425000Y-85916000I1500000J0D01*
G01*
%TO.C,J5*%
X231825000Y-71946000D02*
X231825000Y-61726000D01*
X234485000Y-61726000D02*
X231825000Y-61726000D01*
X234485000Y-71946000D02*
X231825000Y-71946000D01*
X234485000Y-71946000D02*
X234485000Y-61726000D01*
X234485000Y-73216000D02*
X234485000Y-74546000D01*
X234485000Y-74546000D02*
X233155000Y-74546000D01*
%TO.C,R7*%
X227162224Y-86433500D02*
X226652776Y-86433500D01*
X227162224Y-87478500D02*
X226652776Y-87478500D01*
%TO.C,R10*%
X227083224Y-82345500D02*
X226573776Y-82345500D01*
X227083224Y-83390500D02*
X226573776Y-83390500D01*
%TO.C,Power*%
X233303000Y-83102000D02*
X230213000Y-83102000D01*
X231757952Y-88652000D02*
G75*
G02*
X230213170Y-83102000I48J2990000D01*
G01*
X233302830Y-83102000D02*
G75*
G02*
X231758048Y-88652000I-1544830J-2560000D01*
G01*
X234258000Y-85662000D02*
G75*
G02*
X229258000Y-85662000I-2500000J0D01*
G01*
X229258000Y-85662000D02*
G75*
G02*
X234258000Y-85662000I2500000J0D01*
G01*
%TO.C,Low Voltage*%
X233303000Y-76239000D02*
X230213000Y-76239000D01*
X231757952Y-81789000D02*
G75*
G02*
X230213170Y-76239000I48J2990000D01*
G01*
X233302830Y-76239000D02*
G75*
G02*
X231758048Y-81789000I-1544830J-2560000D01*
G01*
X234258000Y-78799000D02*
G75*
G02*
X229258000Y-78799000I-2500000J0D01*
G01*
X229258000Y-78799000D02*
G75*
G02*
X234258000Y-78799000I2500000J0D01*
G01*
%TO.C,R6*%
X222305500Y-57086276D02*
X222305500Y-57595724D01*
X223350500Y-57086276D02*
X223350500Y-57595724D01*
%TO.C,J14*%
X211557000Y-80933000D02*
X211557000Y-88653000D01*
X211557000Y-88653000D02*
X218177000Y-88653000D01*
X212267000Y-81943000D02*
X212267000Y-87643000D01*
X212267000Y-87643000D02*
X216567000Y-87643000D01*
X214867000Y-80933000D02*
X214867000Y-81943000D01*
X214867000Y-88653000D02*
X214867000Y-87643000D01*
X216567000Y-81943000D02*
X212267000Y-81943000D01*
X216567000Y-87643000D02*
X216567000Y-81943000D01*
X217177000Y-83193000D02*
X218177000Y-83193000D01*
X217177000Y-84393000D02*
X217177000Y-83193000D01*
X217177000Y-85193000D02*
X217777000Y-85193000D01*
X217177000Y-86393000D02*
X217177000Y-85193000D01*
X217777000Y-84393000D02*
X217177000Y-84393000D01*
X217777000Y-85193000D02*
X217777000Y-84393000D01*
X218177000Y-80933000D02*
X211557000Y-80933000D01*
X218177000Y-83193000D02*
X218177000Y-80933000D01*
X218177000Y-86393000D02*
X217177000Y-86393000D01*
X218177000Y-88653000D02*
X218177000Y-86393000D01*
X218477000Y-80633000D02*
X217227000Y-80633000D01*
X218477000Y-81883000D02*
X218477000Y-80633000D01*
%TO.C,R1*%
X231262224Y-54033500D02*
X230752776Y-54033500D01*
X231262224Y-55078500D02*
X230752776Y-55078500D01*
%TO.C,R5*%
X213669500Y-57086276D02*
X213669500Y-57595724D01*
X214714500Y-57086276D02*
X214714500Y-57595724D01*
%TO.C,Low Voltage*%
X153475000Y-88586000D02*
X156565000Y-88586000D01*
X153475170Y-88586000D02*
G75*
G02*
X155019952Y-83036000I1544830J2560000D01*
G01*
X155020048Y-83036000D02*
G75*
G02*
X156564830Y-88586000I-48J-2990000D01*
G01*
X157520000Y-86026000D02*
G75*
G02*
X152520000Y-86026000I-2500000J0D01*
G01*
X152520000Y-86026000D02*
G75*
G02*
X157520000Y-86026000I2500000J0D01*
G01*
%TO.C,R3*%
X168197500Y-62001276D02*
X168197500Y-62510724D01*
X169242500Y-62001276D02*
X169242500Y-62510724D01*
%TO.C,OUT2*%
X219831000Y-37983000D02*
X219831000Y-39233000D01*
X220131000Y-38283000D02*
X220131000Y-44903000D01*
X220131000Y-41593000D02*
X221141000Y-41593000D01*
X220131000Y-44903000D02*
X227851000Y-44903000D01*
X221081000Y-37983000D02*
X219831000Y-37983000D01*
X221141000Y-39893000D02*
X221141000Y-44193000D01*
X221141000Y-44193000D02*
X226841000Y-44193000D01*
X222391000Y-38283000D02*
X220131000Y-38283000D01*
X222391000Y-39283000D02*
X222391000Y-38283000D01*
X223591000Y-38683000D02*
X223591000Y-39283000D01*
X223591000Y-39283000D02*
X222391000Y-39283000D01*
X224391000Y-38683000D02*
X223591000Y-38683000D01*
X224391000Y-39283000D02*
X224391000Y-38683000D01*
X225591000Y-38283000D02*
X225591000Y-39283000D01*
X225591000Y-39283000D02*
X224391000Y-39283000D01*
X226841000Y-39893000D02*
X221141000Y-39893000D01*
X226841000Y-44193000D02*
X226841000Y-39893000D01*
X227851000Y-38283000D02*
X225591000Y-38283000D01*
X227851000Y-41593000D02*
X226841000Y-41593000D01*
X227851000Y-44903000D02*
X227851000Y-38283000D01*
%TO.C,R8*%
X155652776Y-72820500D02*
X156162224Y-72820500D01*
X155652776Y-73865500D02*
X156162224Y-73865500D01*
%TO.C,User*%
X233465000Y-47566000D02*
X230375000Y-47566000D01*
X231919952Y-53116000D02*
G75*
G02*
X230375170Y-47566000I48J2990000D01*
G01*
X233464830Y-47566000D02*
G75*
G02*
X231920048Y-53116000I-1544830J-2560000D01*
G01*
X234420000Y-50126000D02*
G75*
G02*
X229420000Y-50126000I-2500000J0D01*
G01*
X229420000Y-50126000D02*
G75*
G02*
X234420000Y-50126000I2500000J0D01*
G01*
%TO.C,O2*%
X159084000Y-37846000D02*
X159084000Y-39096000D01*
X159384000Y-38146000D02*
X159384000Y-44766000D01*
X159384000Y-41456000D02*
X160394000Y-41456000D01*
X159384000Y-44766000D02*
X167104000Y-44766000D01*
X160334000Y-37846000D02*
X159084000Y-37846000D01*
X160394000Y-39756000D02*
X160394000Y-44056000D01*
X160394000Y-44056000D02*
X166094000Y-44056000D01*
X161644000Y-38146000D02*
X159384000Y-38146000D01*
X161644000Y-39146000D02*
X161644000Y-38146000D01*
X162844000Y-38546000D02*
X162844000Y-39146000D01*
X162844000Y-39146000D02*
X161644000Y-39146000D01*
X163644000Y-38546000D02*
X162844000Y-38546000D01*
X163644000Y-39146000D02*
X163644000Y-38546000D01*
X164844000Y-38146000D02*
X164844000Y-39146000D01*
X164844000Y-39146000D02*
X163644000Y-39146000D01*
X166094000Y-39756000D02*
X160394000Y-39756000D01*
X166094000Y-44056000D02*
X166094000Y-39756000D01*
X167104000Y-38146000D02*
X164844000Y-38146000D01*
X167104000Y-41456000D02*
X166094000Y-41456000D01*
X167104000Y-44766000D02*
X167104000Y-38146000D01*
%TO.C,J6*%
X212135000Y-79880000D02*
X212135000Y-78550000D01*
X213465000Y-79880000D02*
X212135000Y-79880000D01*
X214735000Y-77220000D02*
X217335000Y-77220000D01*
X214735000Y-79880000D02*
X214735000Y-77220000D01*
X214735000Y-79880000D02*
X217335000Y-79880000D01*
X217335000Y-79880000D02*
X217335000Y-77220000D01*
%TO.C,C4*%
X221897767Y-76262000D02*
X221605233Y-76262000D01*
X221897767Y-77282000D02*
X221605233Y-77282000D01*
%TO.C,Power*%
X153475000Y-80136333D02*
X156565000Y-80136333D01*
X153475170Y-80136333D02*
G75*
G02*
X155019952Y-74586333I1544830J2560000D01*
G01*
X155020048Y-74586333D02*
G75*
G02*
X156564830Y-80136333I-48J-2990000D01*
G01*
X157520000Y-77576333D02*
G75*
G02*
X152520000Y-77576333I-2500000J0D01*
G01*
X152520000Y-77576333D02*
G75*
G02*
X157520000Y-77576333I2500000J0D01*
G01*
%TO.C,R9*%
X160377776Y-82733500D02*
X160887224Y-82733500D01*
X160377776Y-83778500D02*
X160887224Y-83778500D01*
%TO.C,U1*%
X214816500Y-60655000D02*
X216716500Y-60655000D01*
X214816500Y-62555000D02*
X214816500Y-60655000D01*
X214816500Y-72955000D02*
X214816500Y-74855000D01*
X214816500Y-74855000D02*
X216016500Y-74855000D01*
X227116500Y-74855000D02*
X229016500Y-74855000D01*
X229016500Y-60655000D02*
X227116500Y-60655000D01*
X229016500Y-62555000D02*
X229016500Y-60655000D01*
X229016500Y-74855000D02*
X229016500Y-72955000D01*
X216716500Y-75355000D02*
X216216500Y-74855000D01*
X216716500Y-74855000D01*
X216716500Y-75355000D01*
G36*
X216716500Y-75355000D02*
G01*
X216216500Y-74855000D01*
X216716500Y-74855000D01*
X216716500Y-75355000D01*
G37*
%TD*%
%LPC*%
D17*
%TO.C,OUT1*%
X170544000Y-41456000D03*
D18*
X173044000Y-41456000D03*
%TD*%
D19*
%TO.C,J2*%
X164448000Y-92774000D03*
D20*
X161908000Y-92774000D03*
%TD*%
D21*
%TO.C,U8*%
X225408000Y-79434000D03*
X225408000Y-80383708D03*
X225408000Y-81333670D03*
X227608152Y-81333924D03*
X227608152Y-79433746D03*
%TD*%
D22*
%TO.C,Em2*%
X155420000Y-59293000D03*
D23*
X155420000Y-56793000D03*
%TD*%
D24*
%TO.C,R2*%
X155095000Y-64834000D03*
X156920000Y-64834000D03*
%TD*%
D25*
%TO.C,Vcc*%
X166480000Y-85916000D03*
%TD*%
D26*
%TO.C,U6*%
X222823000Y-54029000D03*
D27*
X225363000Y-54029000D03*
X225363000Y-46409000D03*
X222823000Y-46409000D03*
%TD*%
D28*
%TO.C,J13*%
X173084000Y-92774000D03*
D18*
X170584000Y-92774000D03*
%TD*%
D17*
%TO.C,OUT1*%
X214232000Y-41593000D03*
D18*
X216732000Y-41593000D03*
%TD*%
D29*
%TO.C,U7*%
X159533691Y-87301066D03*
X160483399Y-87301066D03*
X161433361Y-87301066D03*
X161433615Y-85100914D03*
X159533437Y-85100914D03*
%TD*%
D26*
%TO.C,U4*%
X162924000Y-58992000D03*
D27*
X165464000Y-58992000D03*
X165464000Y-51372000D03*
X162924000Y-51372000D03*
%TD*%
D25*
%TO.C,Vcc*%
X228320000Y-57956000D03*
%TD*%
D30*
%TO.C,R4*%
X162920000Y-61343500D03*
X162920000Y-63168500D03*
%TD*%
D31*
%TO.C,J1*%
X200870000Y-94356000D03*
X186370000Y-94356000D03*
%TD*%
D28*
%TO.C,Em2*%
X225241000Y-92901000D03*
D18*
X222741000Y-92901000D03*
%TD*%
D26*
%TO.C,U3*%
X168639000Y-58992000D03*
D27*
X171179000Y-58992000D03*
X171179000Y-51372000D03*
X168639000Y-51372000D03*
%TD*%
D26*
%TO.C,U2*%
X175060000Y-80074000D03*
D27*
X175060000Y-77534000D03*
X175060000Y-74994000D03*
X175060000Y-72454000D03*
X175060000Y-69914000D03*
X175060000Y-67374000D03*
X175060000Y-64834000D03*
X175060000Y-62294000D03*
X175060000Y-59754000D03*
X175060000Y-57214000D03*
X175060000Y-54674000D03*
X175060000Y-52134000D03*
X175060000Y-49594000D03*
X175060000Y-47054000D03*
X159820000Y-47054000D03*
X159820000Y-49594000D03*
X159820000Y-52134000D03*
X159820000Y-54674000D03*
X159820000Y-57214000D03*
X159820000Y-59754000D03*
X159820000Y-62294000D03*
X159820000Y-64834000D03*
X159820000Y-67374000D03*
X159820000Y-69914000D03*
X159820000Y-72454000D03*
X159820000Y-74994000D03*
X159820000Y-77534000D03*
X159820000Y-80074000D03*
%TD*%
D25*
%TO.C,GND*%
X233320000Y-57956000D03*
%TD*%
D32*
%TO.C,REF\u002A\u002A*%
X155620000Y-92656000D03*
%TD*%
D28*
%TO.C,Em1*%
X216721200Y-92901000D03*
D18*
X214221200Y-92901000D03*
%TD*%
D26*
%TO.C,U5*%
X214187000Y-54029000D03*
D27*
X216727000Y-54029000D03*
X216727000Y-46409000D03*
X214187000Y-46409000D03*
%TD*%
D32*
%TO.C,REF\u002A\u002A*%
X231620000Y-92656000D03*
%TD*%
D33*
%TO.C,User*%
X155020000Y-70379666D03*
D34*
X155020000Y-67839666D03*
%TD*%
D22*
%TO.C,Em1*%
X155420000Y-50697000D03*
D23*
X155420000Y-48197000D03*
%TD*%
D25*
%TO.C,GND*%
X170925000Y-85916000D03*
%TD*%
D19*
%TO.C,J5*%
X233155000Y-73216000D03*
D20*
X233155000Y-70676000D03*
X233155000Y-68136000D03*
X233155000Y-65596000D03*
X233155000Y-63056000D03*
%TD*%
D35*
%TO.C,R7*%
X227820000Y-86956000D03*
X225995000Y-86956000D03*
%TD*%
%TO.C,R10*%
X227741000Y-82868000D03*
X225916000Y-82868000D03*
%TD*%
D33*
%TO.C,Power*%
X231758000Y-84392000D03*
D34*
X231758000Y-86932000D03*
%TD*%
D33*
%TO.C,Low Voltage*%
X231758000Y-77529000D03*
D34*
X231758000Y-80069000D03*
%TD*%
D30*
%TO.C,R6*%
X222828000Y-56428500D03*
X222828000Y-58253500D03*
%TD*%
D36*
%TO.C,J14*%
X214867000Y-83543000D03*
D23*
X214867000Y-86043000D03*
%TD*%
D35*
%TO.C,R1*%
X231920000Y-54556000D03*
X230095000Y-54556000D03*
%TD*%
D30*
%TO.C,R5*%
X214192000Y-56428500D03*
X214192000Y-58253500D03*
%TD*%
D32*
%TO.C,REF\u002A\u002A*%
X231620000Y-41656000D03*
%TD*%
D33*
%TO.C,Low Voltage*%
X155020000Y-87296000D03*
D34*
X155020000Y-84756000D03*
%TD*%
D30*
%TO.C,R3*%
X168720000Y-61343500D03*
X168720000Y-63168500D03*
%TD*%
D17*
%TO.C,OUT2*%
X222741000Y-41593000D03*
D18*
X225241000Y-41593000D03*
%TD*%
D24*
%TO.C,R8*%
X154995000Y-73343000D03*
X156820000Y-73343000D03*
%TD*%
D33*
%TO.C,User*%
X231920000Y-48856000D03*
D34*
X231920000Y-51396000D03*
%TD*%
D17*
%TO.C,O2*%
X161994000Y-41456000D03*
D18*
X164494000Y-41456000D03*
%TD*%
D19*
%TO.C,J6*%
X213465000Y-78550000D03*
D20*
X216005000Y-78550000D03*
%TD*%
D37*
%TO.C,C4*%
X222614000Y-76772000D03*
X220889000Y-76772000D03*
%TD*%
D33*
%TO.C,Power*%
X155020000Y-78846333D03*
D34*
X155020000Y-76306333D03*
%TD*%
D24*
%TO.C,R9*%
X159720000Y-83256000D03*
X161545000Y-83256000D03*
%TD*%
D32*
%TO.C,REF\u002A\u002A*%
X155620000Y-41656000D03*
%TD*%
D38*
%TO.C,U1*%
X218016500Y-71455000D03*
D39*
X217471500Y-74490000D03*
X218741500Y-74490000D03*
X220011500Y-74490000D03*
X221281500Y-74490000D03*
X222551500Y-74490000D03*
X223821500Y-74490000D03*
X225091500Y-74490000D03*
X226361500Y-74490000D03*
D40*
X228651500Y-72200000D03*
X228651500Y-70930000D03*
X228651500Y-69660000D03*
X228651500Y-68390000D03*
X228651500Y-67120000D03*
X228651500Y-65850000D03*
X228651500Y-64580000D03*
X228651500Y-63310000D03*
D39*
X226361500Y-61020000D03*
X225091500Y-61020000D03*
X223821500Y-61020000D03*
X222551500Y-61020000D03*
X221281500Y-61020000D03*
X220011500Y-61020000D03*
X218741500Y-61020000D03*
X217471500Y-61020000D03*
D40*
X215181500Y-63310000D03*
X215181500Y-64580000D03*
X215181500Y-65850000D03*
X215181500Y-67120000D03*
X215181500Y-68390000D03*
X215181500Y-69660000D03*
D41*
X215081500Y-70930000D03*
X215081500Y-72200000D03*
%TD*%
%LPD*%
M02*
