M48
; DRILL file {KiCad 8.0.9-8.0.9-0~ubuntu22.04.1} date 2025-11-06T16:29:17+0900
; FORMAT={-:-/ absolute / inch / decimal}
; #@! TF.CreationDate,2025-11-06T16:29:17+09:00
; #@! TF.GenerationSoftware,Kicad,Pcbnew,8.0.9-8.0.9-0~ubuntu22.04.1
; #@! TF.FileFunction,Plated,1,2,PTH
FMAT,2
INCH
; #@! TA.AperFunction,Plated,PTH,ViaDrill
T1C0.0118
; #@! TA.AperFunction,Plated,PTH,ComponentDrill
T2C0.0315
; #@! TA.AperFunction,Plated,PTH,ComponentDrill
T3C0.0354
; #@! TA.AperFunction,Plated,PTH,ComponentDrill
T4C0.0374
; #@! TA.AperFunction,Plated,PTH,ComponentDrill
T5C0.0394
; #@! TA.AperFunction,Plated,PTH,ComponentDrill
T6C0.1260
%
G90
G05
T1
X5.9943Y-2.1125
X6.0043Y-1.7525
X6.0043Y-2.4425
X6.0043Y-2.7125
X6.0043Y-3.0425
X6.0043Y-3.2125
X6.0043Y-3.5125
X6.1743Y-2.9525
X6.2143Y-1.9825
X6.2143Y-2.4325
X6.2243Y-2.5925
X6.2243Y-2.8125
X6.2343Y-2.0725
X6.2343Y-2.3025
X6.2343Y-2.7025
X6.2343Y-3.2125
X6.2343Y-3.3625
X6.2743Y-1.5225
X6.2743Y-1.7525
X6.2843Y-3.7625
X6.2943Y-3.5025
X6.3643Y-2.4425
X6.3669Y-3.2775
X6.3743Y-1.8725
X6.4343Y-2.7125
X6.4443Y-1.7525
X6.4443Y-3.0425
X6.4643Y-1.8725
X6.4743Y-2.4225
X6.4843Y-2.5525
X6.5243Y-2.1525
X6.5543Y-2.4825
X6.5743Y-1.8825
X6.5943Y-1.5225
X6.5943Y-1.6925
X6.5943Y-2.8725
X6.6243Y-3.2525
X6.6243Y-3.5425
X6.6243Y-3.7625
X6.6743Y-2.2625
X6.6943Y-1.8825
X6.7043Y-1.7825
X6.7043Y-2.4125
X6.7043Y-2.4825
X6.7643Y-2.7125
X6.7643Y-3.0425
X6.7943Y-2.4125
X6.8143Y-2.0025
X6.8143Y-2.5825
X6.8343Y-2.1025
X6.8543Y-1.9025
X6.8943Y-3.2525
X6.8943Y-3.5425
X6.9143Y-1.5225
X7.0143Y-3.4825
X7.0243Y-3.7725
X7.2343Y-3.6525
X7.4043Y-3.7725
X7.5543Y-3.6525
X7.7743Y-3.7675
X7.8443Y-3.5725
X7.8443Y-3.7675
X8.0559Y-3.5101
X8.1937Y-3.3329
X8.2093Y-3.5075
X8.2093Y-3.7425
X8.2293Y-3.1675
X8.3643Y-3.4725
X8.3793Y-1.5325
X8.3793Y-2.3075
X8.3793Y-2.5575
X8.3793Y-2.8075
X8.4043Y-1.9825
X8.4543Y-3.0325
X8.4793Y-1.7075
X8.5195Y-2.1981
X8.5244Y-2.7197
X8.5283Y-2.3408
X8.5303Y-2.5327
X8.5643Y-3.1875
X8.5793Y-2.9825
X8.6043Y-3.4325
X8.6169Y-2.4579
X8.6484Y-2.5307
X8.6494Y-2.6931
X8.6543Y-1.5325
X8.6543Y-1.8075
X8.6543Y-1.9825
X8.6543Y-3.6575
X8.6602Y-2.3349
X8.7043Y-2.8825
X8.7043Y-3.2675
X8.7281Y-2.1833
X8.7282Y-2.8064
X8.7291Y-2.7522
X8.7301Y-2.5849
X8.7321Y-2.4756
X8.7596Y-2.3496
X8.7643Y-3.0575
X8.7893Y-2.5325
X8.7943Y-3.2525
X8.797Y-2.6833
X8.8043Y-2.7825
X8.8043Y-2.8725
X8.8143Y-3.1375
X8.8193Y-2.9975
X8.8293Y-1.7075
X8.8518Y-2.43
X8.8522Y-2.2601
X8.8643Y-3.3775
X8.8926Y-2.7808
X8.8943Y-2.8825
X8.8943Y-2.9975
X8.8943Y-3.0525
X8.9024Y-2.3408
X8.9293Y-1.9825
X8.9293Y-2.8525
X8.9348Y-2.1853
X8.9398Y-2.4943
X8.9543Y-3.6825
X8.9593Y-2.6225
X8.9608Y-2.7125
X8.9743Y-2.8925
X8.9743Y-3.5425
X8.9793Y-1.5325
X8.9793Y-2.9825
X8.9793Y-3.3475
X9.0043Y-1.8075
X9.0293Y-3.1575
X9.0362Y-2.4235
X9.0431Y-2.2
X9.0756Y-2.5494
X9.0825Y-2.7945
X9.111Y-2.4933
X9.111Y-2.6341
X9.115Y-2.203
X9.1793Y-2.4075
X9.1793Y-2.9775
X9.1793Y-3.2325
X9.1893Y-3.4925
X9.2043Y-2.1075
X9.2293Y-1.8075
X9.2321Y-2.643
T2
X6.2921Y-1.8525
X6.2921Y-1.9525
X6.2921Y-2.0525
X6.2921Y-2.1525
X6.2921Y-2.2525
X6.2921Y-2.3525
X6.2921Y-2.4525
X6.2921Y-2.5525
X6.2921Y-2.6525
X6.2921Y-2.7525
X6.2921Y-2.8525
X6.2921Y-2.9525
X6.2921Y-3.0525
X6.2921Y-3.1525
X6.4143Y-2.0225
X6.4143Y-2.3225
X6.5143Y-2.0225
X6.5143Y-2.3225
X6.6393Y-2.0225
X6.6393Y-2.3225
X6.7393Y-2.0225
X6.7393Y-2.3225
X6.8921Y-1.8525
X6.8921Y-1.9525
X6.8921Y-2.0525
X6.8921Y-2.1525
X6.8921Y-2.2525
X6.8921Y-2.3525
X6.8921Y-2.4525
X6.8921Y-2.5525
X6.8921Y-2.6525
X6.8921Y-2.7525
X6.8921Y-2.8525
X6.8921Y-2.9525
X6.8921Y-3.0525
X6.8921Y-3.1525
X8.4326Y-1.8271
X8.4326Y-2.1271
X8.5326Y-1.8271
X8.5326Y-2.1271
X8.7726Y-1.8271
X8.7726Y-2.1271
X8.8726Y-1.8271
X8.8726Y-2.1271
T3
X6.1031Y-2.6709
X6.1031Y-2.7709
X6.1031Y-3.0042
X6.1031Y-3.1042
X6.1031Y-3.3369
X6.1031Y-3.4369
X9.1243Y-3.0523
X9.1243Y-3.1523
X9.1243Y-3.3225
X9.1243Y-3.4225
X9.1307Y-1.9235
X9.1307Y-2.0235
T4
X6.1189Y-1.8975
X6.1189Y-1.9959
X6.1189Y-2.2359
X6.1189Y-2.3344
X6.3777Y-1.6321
X6.4761Y-1.6321
X6.7143Y-1.6321
X6.7159Y-3.6525
X6.8128Y-1.6321
X6.8143Y-3.6525
X8.4339Y-3.6575
X8.4343Y-1.6375
X8.4593Y-3.2891
X8.4593Y-3.3875
X8.5323Y-3.6575
X8.5328Y-1.6375
X8.7693Y-1.6375
X8.7693Y-3.6575
X8.8678Y-1.6375
X8.8678Y-3.6575
T5
X6.3743Y-3.6525
X6.4743Y-3.6525
X6.5543Y-3.3825
X6.7293Y-3.3825
X7.3374Y-3.7148
X7.9083Y-3.7148
X8.4041Y-3.0925
X8.5041Y-3.0925
X8.989Y-2.2817
X9.1793Y-2.4825
X9.1793Y-2.5825
X9.1793Y-2.6825
X9.1793Y-2.7825
X9.1793Y-2.8825
X9.1858Y-2.2817
T6
X6.1268Y-1.64
X6.1268Y-3.6479
X9.1189Y-1.64
X9.1189Y-3.6479
M30
